<?xml version="1.0" encoding="UTF-8" standalone="no"?>
<!-- Created with Inkscape (http://www.inkscape.org/) -->

<!-- 2563.9512 193.74841-->

<svg
   width="891.46484mm"
   height="58.29512mm"
   viewBox="0 0 891.46484 58.295119"
   version="1.1"
   id="svg2719"
   inkscape:version="1.2.2 (b0a8486541, 2022-12-01)"
   sodipodi:docname="grass_blanc.svg"
   xmlns:inkscape="http://www.inkscape.org/namespaces/inkscape"
   xmlns:sodipodi="http://sodipodi.sourceforge.net/DTD/sodipodi-0.dtd"
   xmlns:xlink="http://www.w3.org/1999/xlink"
   xmlns="http://www.w3.org/2000/svg"
   xmlns:svg="http://www.w3.org/2000/svg">
  <sodipodi:namedview
     id="namedview2721"
     pagecolor="#ffffff"
     bordercolor="#000000"
     borderopacity="0.25"
     inkscape:showpageshadow="2"
     inkscape:pageopacity="0.0"
     inkscape:pagecheckerboard="0"
     inkscape:deskcolor="#d1d1d1"
     inkscape:document-units="mm"
     showgrid="false"
     inkscape:zoom="0.37549453"
     inkscape:cx="1514.0034"
     inkscape:cy="73.236754"
     inkscape:window-width="1920"
     inkscape:window-height="1018"
     inkscape:window-x="1920"
     inkscape:window-y="0"
     inkscape:window-maximized="1"
     inkscape:current-layer="layer1" />
  <defs
     id="defs2716">
    <linearGradient
       inkscape:collect="always"
       id="linearGradient352">
      <stop
         style="stop-color:#009400;stop-opacity:1;"
         offset="0"
         id="stop348" />
      <stop
         style="stop-color:#009400;stop-opacity:0;"
         offset="1"
         id="stop350" />
    </linearGradient>
    <linearGradient
       inkscape:collect="always"
       xlink:href="#linearGradient352"
       id="linearGradient354"
       x1="-759.27368"
       y1="178.17484"
       x2="-759.33679"
       y2="198.58096"
       gradientUnits="userSpaceOnUse" />
  </defs>
  <g
     inkscape:label="Calque 1"
     inkscape:groupmode="layer"
     id="layer1"
     transform="translate(1205.883,-153.17789)">
    <path
       d="m -1200.3691,167.32431 c -0.015,0.0178 -0.029,0.0307 -0.043,0.0486 -1.524,1.86142 -2.4008,3.69906 -2.9016,5.26949 0.1641,-0.87118 0.3385,-1.97578 0.4965,-3.41262 0.4354,-3.95677 -1.0794,-12.3174 -1.3717,-13.87405 2.7061,5.02886 3.5493,8.91832 3.8198,11.9686 z m 0.438,7.1595 c 1.0464,3.45602 -1.7637,3.91426 -2.0309,0.1107 0.1349,-1.69809 0.7996,-3.392 1.7153,-4.97673 0.041,2.04866 -0.058,3.63137 0.3156,4.86603 z m 2.2723,-8.44983 c 1.4895,6.3326 0.7535,13.87038 -0.3216,8.39479 0.03,-2.66757 -0.2115,-5.07781 -0.6227,-7.23617 0.3092,-0.40092 0.6246,-0.78565 0.9443,-1.15862 z m 56.0747,5.01734 c 0.5253,2.47236 0.6091,4.56543 0.4621,4.53519 -0.061,-0.0128 -0.3522,-0.19672 -0.7175,-0.50605 -0.2686,-1.02819 -0.126,-2.63709 0.2554,-4.02914 z m 3.2098,0 c 0.3813,1.39154 0.524,3.00095 0.2554,4.02914 -0.3653,0.30933 -0.6568,0.49328 -0.7176,0.50605 -0.1468,0.0303 -0.063,-2.06283 0.4622,-4.53519 z m 56.0749,-5.01734 c 0.3189,0.37297 0.6353,0.7577 0.9444,1.15862 -0.4109,2.15836 -0.6525,4.5686 -0.6231,7.23617 -1.0744,5.47559 -1.8104,-2.06219 -0.3213,-8.39479 z m 2.2728,8.44983 c 0.1533,-0.50973 0.2233,-1.08538 0.2588,-1.72061 0.1938,-0.71924 0.4183,-1.42861 0.6391,-2.03765 0.6059,1.25566 1.0278,2.56016 1.1321,3.86896 -0.1864,2.65859 -1.5946,3.19679 -2.0803,2.12217 -0.017,-0.33488 -0.044,-0.647 -0.097,-0.88207 -0.028,-0.12031 -0.027,-0.28554 -0.029,-0.44394 0.034,-0.28048 0.074,-0.56692 0.1766,-0.90686 z m 0.3152,-4.86603 c 0.1791,0.31022 0.3398,0.62638 0.4968,0.94405 -0.1594,0.31477 -0.3312,0.67129 -0.5188,1.08121 0.01,-0.61816 0.01,-1.29135 0.022,-2.02526 z m 3.9422,-14.26207 c -0.2931,1.55664 -1.8067,9.91728 -1.3725,13.87404 0.1582,1.43595 0.3324,2.54056 0.4968,3.41187 -0.5005,-1.57056 -1.3775,-3.4082 -2.9009,-5.26873 -0.015,-0.0178 -0.029,-0.0307 -0.043,-0.0486 0.2698,-3.05028 1.1137,-6.93974 3.8195,-11.96859 z m 2.0938,13.65808 c 0.049,1.85649 0.059,4.58694 -0.184,6.87801 -0.363,0.75315 -0.5299,0.68268 -0.9322,-0.68318 -0.05,-0.31756 -0.1006,-0.65523 -0.1521,-1.00998 -0.098,-1.70909 0.4551,-4.08163 1.2683,-5.18485 z m 58.8301,2.20099 c -0.076,1.03148 -0.1251,2.09206 -0.1128,3.21399 -0.2613,1.32893 -0.5017,1.8818 -0.6955,1.88079 -0.017,-0.17068 -0.036,-0.34097 -0.066,-0.47495 -0.2085,-0.91483 0.3287,-3.01005 0.8745,-4.61983 z m -0.4342,-5.1808 c 0.3189,0.37297 0.6354,0.7577 0.9445,1.15862 -0.2049,1.07488 -0.3496,2.2325 -0.4575,3.43325 -0.3913,0.77567 -0.8746,1.84725 -1.3235,3.09191 -0.032,-2.03765 0.1975,-4.96902 0.8365,-7.68378 z m 2.2716,8.44983 c 0.3741,-1.23466 0.2748,-2.81737 0.3165,-4.86603 0.5262,0.91053 0.9543,1.85787 1.2621,2.82104 -0.4575,1.00162 -0.9162,2.22161 -1.3247,3.72701 -0.064,0.23658 -0.1582,0.46355 -0.2293,0.69824 -0.2736,-0.43774 -0.3741,-1.22353 -0.025,-2.38026 z m 3.3829,-1.84143 c -0.1423,-0.44799 -0.3238,-0.92065 -0.5335,-1.4066 0.061,-0.23886 0.1238,-0.47266 0.1987,-0.69647 0.1116,0.83109 0.2244,1.5192 0.3348,2.10307 z m 0.8758,-17.28667 c -0.2932,1.55664 -1.808,9.91728 -1.3725,13.87404 0.029,0.26354 0.06,0.48456 0.091,0.7276 -0.1349,0.19028 -0.2735,0.40497 -0.4219,0.64421 -0.5054,-1.03502 -1.1714,-2.12634 -2.0729,-3.22867 -0.015,-0.0178 -0.029,-0.0307 -0.044,-0.0486 0.2711,-3.05028 1.1137,-6.93974 3.8208,-11.96859 z m 2.1122,14.59519 c 0.023,1.56221 0,3.4841 -0.1399,5.24304 -0.3017,0.24253 -0.5323,0.3817 -0.5851,0.39257 -0.168,0.0348 -0.032,-2.71627 0.725,-5.63561 z m 56.17699,2.51347 c -0.0258,0.64384 -0.0515,1.28818 -0.0442,1.9644 -0.14841,0.75606 -0.28947,1.25478 -0.41949,1.55172 -0.009,-0.0448 -0.011,-0.10476 -0.0209,-0.14588 -0.157,-0.68874 0.1104,-2.05182 0.4845,-3.37024 z m -0.36552,-6.43039 c 0.32014,0.37297 0.63537,0.7577 0.94446,1.15862 -0.25144,1.32057 -0.43053,2.74501 -0.5311,4.2556 -0.39987,0.86018 -0.84021,1.9081 -1.22044,3.09596 -0.11898,-2.00793 0.076,-5.40132 0.80708,-8.51018 z m 2.27284,8.44983 c 0.37411,-1.23466 0.27475,-2.81737 0.31523,-4.86603 0.60716,1.05109 1.08674,2.15114 1.39216,3.26764 -0.3925,0.91748 -0.78255,1.98629 -1.13335,3.28003 -0.0883,0.3235 -0.2122,0.63511 -0.314,0.95443 -0.4477,-0.30009 -0.70038,-1.18456 -0.26004,-2.63607 z m 4.25744,-19.1281 c -0.29193,1.55664 -1.80675,9.91728 -1.37131,13.87404 0.0442,0.40637 0.0908,0.76365 0.1386,1.12194 -0.10426,0.16119 -0.21588,0.35653 -0.32627,0.54377 -0.51761,-1.1203 -1.23025,-2.31587 -2.21764,-3.52257 -0.0147,-0.0178 -0.0282,-0.0307 -0.0429,-0.0486 0.26985,-3.05028 1.11373,-6.93974 3.81955,-11.96859 z m 2.12074,15.94649 c -0.004,1.33512 -0.0478,2.79726 -0.16927,4.14477 -0.1202,0.0787 -0.21342,0.13322 -0.24409,0.13954 -0.14105,0.0292 -0.0638,-1.92555 0.41336,-4.28431 z m 149.60755,1.75578 c 0.0552,0.5344 0.0785,1.01213 0.0466,1.37079 -0.0454,0.48886 -0.18398,0.99113 -0.36552,1.47619 -0.004,-0.0206 -0.005,-0.0503 -0.01,-0.0703 -0.13369,-0.58475 0.0454,-1.65886 0.32872,-2.77663 z m 6.11815,-3.98283 c -0.12266,0.37335 -0.2306,0.74215 -0.314,1.09537 -0.64027,2.72869 -0.19994,5.08529 -0.76048,4.75483 -0.0159,-0.009 -0.0368,-0.0329 -0.054,-0.0448 -0.33117,-1.64837 0.22692,-4.50584 1.12845,-5.80541 z m 5.65818,3.08002 c 0.33731,-1.6113 0.60593,-2.74425 0.77029,-3.40124 0.36429,1.08538 0.44402,2.40683 -0.16804,3.93842 -0.72123,2.18126 -0.86228,3.37594 -1.01683,3.74448 0.027,-1.34676 0.14596,-2.99184 0.41458,-4.28166 z m 15.48426,-6.24113 c 0.54827,0.4924 1.348,1.36005 1.82023,2.54928 -0.24041,0.49 -0.92361,2.04626 -1.38235,4.42665 -0.14351,0.45798 -0.29315,0.69975 -0.44034,0.75858 -0.10794,-0.92242 -0.32995,-2.06637 -0.7666,-2.89049 10e-4,-1.38192 0.21833,-3.10152 0.76906,-4.84402 z m 1.98459,3.02929 c -0.23918,0.46899 -0.46978,0.97695 -0.69301,1.51084 0.15209,-0.64143 0.33117,-1.29311 0.54705,-1.93733 0.054,0.13816 0.10303,0.27998 0.14596,0.42649 z m 9.79909,-1.48214 c -0.065,0.28695 -0.12879,0.58982 -0.1938,0.88676 -0.0392,-0.63284 -0.13983,-1.29717 -0.36061,-1.81423 0.18521,0.27909 0.3692,0.60208 0.55441,0.92747 z m 0.0687,0.11716 c 0.20729,0.36918 0.39986,0.77276 0.59121,1.19836 -0.21588,0.20318 -0.42072,0.45988 -0.59121,0.76415 z m 1.85826,5.91333 c 0,0 -0.20975,0.15194 -0.49431,0.0458 -0.45261,-0.71975 -0.8586,-1.52704 -0.92238,-1.96112 -0.0675,-0.46785 0.11284,-1.37977 0.43052,-2.17821 0.47101,1.18697 0.84634,2.54966 0.98617,4.09353 z m 5.13075,-1.764 c 0.31032,-1.78919 0.84634,-4.02395 1.47802,-5.42701 0.76661,0.79629 1.70739,2.12508 1.79448,3.8877 -0.11775,-0.19851 -0.23796,-0.3912 -0.36061,-0.51391 0,0 0.17049,0.52719 0.34344,1.3088 -0.0528,0.53756 -0.18153,1.10587 -0.42317,1.70909 -0.83407,2.52449 -0.8954,3.73752 -1.09656,3.85556 -0.99597,-0.9915 -1.97232,-3.46349 -1.7356,-4.82023 z m 14.79125,1.764 c 0,0 -1.01561,0.8269 -1.65711,-2.37027 0,0 -0.13247,0.23797 -0.29928,0.64511 -0.0552,-1.12371 -0.23059,-2.88822 -0.33976,-4.93638 1.00456,1.5846 2.03857,3.82772 2.29615,6.66154 z m -0.6415,-5.21281 c 0,0 -0.67216,-1.45278 -1.70739,-2.64215 -0.0196,-0.52162 -0.0294,-1.05703 -0.0331,-1.60017 0.77887,1.1866 1.53076,2.66455 1.7405,4.24232 z m 3.73736,-2.90847 c 0.13738,0.15284 0.27598,0.31807 0.41459,0.47684 -0.37901,0.98252 -0.81445,2.13381 -1.27196,3.3848 0.12021,-1.20342 0.38146,-2.53373 0.85737,-3.86164 z m 0.5765,0.66358 c 0.32013,0.37297 0.63536,0.7577 0.94446,1.15862 -0.20239,1.06109 -0.3459,2.20327 -0.45261,3.38657 -0.27966,0.68002 -0.54214,1.38926 -0.74453,2.14115 -0.18644,0.69089 -0.3925,0.96531 -0.58385,0.95076 -0.027,-2.03538 0.20361,-4.94283 0.83653,-7.6371 z m 2.27283,8.44983 c 0.13861,-0.4595 0.20975,-0.96961 0.249,-1.53021 0.1987,-0.76428 0.43789,-1.52741 0.67339,-2.18175 0.59366,1.24149 1.00579,2.53043 1.10882,3.82266 -0.0785,1.11979 -0.38514,1.82853 -0.74085,2.24172 -0.47959,-0.28415 -0.98739,-0.9939 -1.38971,-1.83991 0.0344,-0.17345 0.0405,-0.32033 0.0993,-0.51251 z m 0.31523,-4.86603 c 0.18644,0.32261 0.35448,0.65205 0.51762,0.98289 -0.16682,0.32996 -0.34712,0.70103 -0.54092,1.13169 0.009,-0.64296 0.009,-1.34486 0.0233,-2.11458 z m 0.1889,-2.94907 c 0.1754,-0.44078 0.36061,-0.82552 0.55195,-1.11473 0,0 -0.20115,0.26037 -0.49798,0.69406 0.37042,-2.87771 1.30139,-6.43545 3.69934,-10.89233 -0.29192,1.55664 -1.80674,9.91728 -1.37131,13.87404 0.1337,1.21392 0.27843,2.19049 0.41949,2.99576 -0.36552,-1.148 -0.77274,-2.11723 -1.20818,-2.55105 0,0 0.0209,0.0664 0.0429,0.13739 -0.44524,-0.7949 -0.98371,-1.61357 -1.65955,-2.43896 -0.0147,-0.0178 -0.0282,-0.0307 -0.0429,-0.0486 0.0184,-0.21507 0.0405,-0.43192 0.0662,-0.6556 z m 5.84829,2.39126 c 0.0478,1.88799 0.054,4.65146 -0.1987,6.94759 -0.3324,0.64599 -0.49676,0.50366 -0.88927,-0.83424 -0.46609,-1.58916 0.12757,-4.74837 1.08797,-6.11335 z m 34.04844,0.8951 c 0.37166,1.05652 0.67339,2.22426 0.79114,3.53661 0,0 -0.69792,0.53629 -1.30262,-1.10094 0.12143,-0.75719 0.2907,-1.5846 0.51148,-2.43567 z m 37.34792,1.77261 c 0.1705,-0.98012 0.40968,-2.09383 0.69424,-3.13493 0.4109,1.11423 0.52988,2.4921 -0.11284,4.0996 -0.1337,0.40396 -0.23918,0.76011 -0.33608,1.09853 -0.23183,-0.7563 -0.34222,-1.50439 -0.24532,-2.0632 z m 3.14003,-1.23037 c 0.25267,1.00656 0.58753,2.77195 0.40845,4.39729 -0.28211,0.417 -0.46855,0.5358 -0.52252,0.11311 -0.0662,-0.5258 -0.0711,-2.45681 0.11407,-4.5104 z m 55.33929,-1.56955 c 0.56668,1.294 1.03891,2.80269 1.19836,4.56392 0,0 -0.0478,0.0306 -0.1153,0.0577 -0.1202,-0.96873 -0.35816,-2.1667 -0.8402,-2.96564 0,0 0.21097,1.38103 0.15823,2.73956 -0.28702,-0.30111 -0.60225,-0.92103 -0.85983,-2.20188 0,0 -0.58017,1.01909 -0.89049,2.76613 -0.0196,-1.73097 0.54705,-3.96461 1.34923,-4.95977 z m 6.32912,2.79992 c 0.15945,-0.91927 0.38146,-1.95619 0.64149,-2.94086 0.21343,1.98276 0.53847,4.72421 0.20729,6.26214 -0.011,0.048 -0.0282,0.0951 -0.0393,0.14321 -0.57526,-1.13345 -0.96899,-2.55156 -0.80953,-3.46449 z m 143.2907,-7.96971 c -0.54215,1.97579 -1.09043,4.28482 -1.60559,6.95302 -0.32136,0.67358 -0.58017,1.32387 -0.77397,1.93139 0.16437,-0.87118 0.33854,-1.97579 0.49677,-3.41263 0.43543,-3.95676 -1.07939,-12.3174 -1.37254,-13.87404 1.75032,3.25068 2.71318,6.01998 3.25533,8.40226 z m 3.27494,2.27601 c 1.4903,6.3326 0.75435,13.87038 -0.32137,8.39479 0.0306,-2.66757 -0.21094,-5.07781 -0.62309,-7.23617 0.30909,-0.40092 0.62556,-0.78565 0.94446,-1.15862 z m 2.34399,-2.47654 c 0.68564,0.65712 1.43509,1.43228 2.18206,2.2898 -0.62678,1.62357 -1.40811,3.71019 -2.18206,5.93534 -0.77396,-2.22515 -1.55407,-4.31177 -2.18085,-5.93534 0.74697,-0.85752 1.49642,-1.63268 2.18085,-2.2898 z m 3.28845,3.63516 c -0.4109,2.15836 -0.65255,4.5686 -0.62188,7.23617 -1.07572,5.47559 -1.81164,-2.06219 -0.32259,-8.39479 0.32012,0.37297 0.63537,0.7577 0.94447,1.15862 z m 5.58581,-11.83639 c -0.29192,1.55766 -1.80674,9.91678 -1.37132,13.87354 0.15823,1.43595 0.33239,2.54056 0.49678,3.41187 -0.19381,-0.60778 -0.45263,-1.25756 -0.77521,-1.93113 -0.51392,-2.6677 -1.0622,-4.97673 -1.60435,-6.95252 0.54215,-2.38228 1.50501,-5.15158 3.2541,-8.40176 z m 44.85698,15.69511 c 0.52497,2.47236 0.60838,4.56543 0.46242,4.53519 -0.0613,-0.0128 -0.35325,-0.19672 -0.71752,-0.50605 -0.26863,-1.02819 -0.12636,-2.63709 0.2551,-4.02914 z m 3.20994,0 c 0.38148,1.39205 0.52376,3.00095 0.25513,4.02914 -0.36552,0.30933 -0.65744,0.49328 -0.71752,0.50605 -0.14722,0.0303 -0.0638,-2.06283 0.46239,-4.53519 z m 56.07401,-5.01734 c 0.32015,0.37297 0.63536,0.7577 0.94446,1.15862 -0.4109,2.15836 -0.65251,4.5686 -0.62309,7.23617 -1.07447,5.47559 -1.81043,-2.06219 -0.32137,-8.39479 z m 2.27285,8.44983 c 0.37411,-1.23466 0.27474,-2.81737 0.31525,-4.86603 0.91623,1.58473 1.58105,3.27814 1.71595,4.97673 -0.26737,3.80356 -3.07747,3.34532 -2.0312,-0.1107 z m 4.25742,-19.1281 c -0.29192,1.55664 -1.80673,9.91728 -1.37129,13.87404 0.15824,1.43684 0.3324,2.54145 0.49675,3.41263 -0.50165,-1.57043 -1.37866,-3.40807 -2.90206,-5.26949 -0.0146,-0.0178 -0.0282,-0.0307 -0.0429,-0.0486 0.26984,-3.05028 1.11375,-6.93974 3.81954,-11.96859 z m 0.29808,-1.14674 c -1.42776,1.69582 -4.12006,5.50291 -5.55271,11.501 -0.32502,-0.33766 -0.63537,-0.61954 -0.94937,-0.91154 0.12266,-0.41409 0.25392,-0.81716 0.39741,-1.20708 -0.12757,0.32071 -0.27843,0.69874 -0.45628,1.15091 -2.97688,-2.75614 -5.31597,-3.54357 -5.31597,-3.54357 0,0 2.47768,1.88432 4.88668,4.64855 -1.17874,3.05358 -2.91312,7.75804 -4.08574,11.88902 -1.3627,1.48859 -1.3627,-2.72855 -1.3627,-5.37474 0,-2.64582 -1.5234,-12.0726 1.04258,-17.86055 0,0 -3.84899,6.69772 -6.01267,22.32565 -1.9245,3.72107 -1.96497,3.72107 -2.32556,1.65419 -0.36062,-2.06739 -1.4032,-7.56625 -2.64449,-8.80635 0,0 1.30874,3.98295 0.3471,6.57374 -0.96286,2.5909 -3.63434,-2.37078 -3.26022,-4.52052 0.37411,-2.14976 1.06835,-4.96118 1.87054,-6.17421 0,0 -2.51203,3.19768 -3.58038,7.16685 -1.06956,3.96865 -2.83339,-5.12691 1.54917,-10.85995 0,0 -2.77943,3.14226 -3.52763,8.37885 0,0 -2.24465,-6.44975 -5.87898,-8.76473 0,0 3.31421,3.19034 3.79503,6.80438 0,0 -1.65712,-3.60721 -3.79503,-4.10365 0,0 3.90174,3.41819 4.43652,9.31646 0,0 -1.0156,0.8269 -1.65709,-2.37027 0,0 -1.22905,2.09485 -1.06834,5.51253 0,0 -1.44368,-5.05947 -0.29439,-8.86164 0,0 -1.68407,2.60507 -1.68407,6.94582 0,4.3415 -2.16368,1.2821 -2.00301,-0.49607 0.15945,-1.77779 1.36273,-4.54759 0.19992,-6.11891 0,0 0.12023,2.19137 -1.00211,4.17589 -1.12231,1.98464 -1.88399,3.67944 -2.00419,2.72868 -0.12023,-0.95089 -0.0405,-6.49087 1.00211,-9.05432 0,0 -1.28301,1.69493 -1.48293,4.92005 0,0 -1.09533,-4.21714 -4.30284,-5.43016 0,0 4.14214,2.74272 2.33787,7.24907 -1.24254,3.76219 -0.7605,4.67196 -1.60313,3.26612 -0.84144,-1.40558 -1.52219,-2.89416 -2.5243,-3.10063 0,0 -0.80219,-6.73922 0.24039,-9.05458 0,0 -2.04469,3.63821 -2.68618,6.36726 -0.64149,2.72869 -0.19992,5.08529 -0.76168,4.75432 -0.56055,-0.33033 -1.92328,-2.5217 -2.04348,-3.34848 -0.1202,-0.82703 0.52007,-3.05952 1.3627,-3.55597 0,0 -1.6436,0.53757 -2.08517,2.19138 0,0 0.2809,-2.93541 -0.56054,-4.09315 -0.84141,-1.15762 -1.52341,-2.68744 -1.52341,-2.68744 0,0 1.58964,4.63084 0.1742,7.5245 0,0 -0.7151,-1.17002 -1.21678,-2.51487 0.44035,1.88672 1.01317,4.68297 0.89541,5.98796 -0.0994,1.10334 -0.66113,2.27387 -1.16525,3.13645 -0.222,-1.43785 -0.6329,-2.81383 -1.08305,-4.03091 0.0478,-0.45305 0.12509,-0.86764 0.24407,-1.20025 0.40969,-1.13534 0.79604,-2.83976 1.04749,-4.06114 -0.0478,-0.13499 -0.0908,-0.26771 -0.13369,-0.40447 -0.24654,0.46899 -0.62556,1.0392 -1.22289,1.62674 -0.30541,-0.38575 -0.86596,-2.78398 -0.86596,-3.69362 0,-0.90926 -0.56176,-0.055 -0.40109,1.84675 0.0773,0.91521 0.24533,2.23387 0.35693,3.56191 -0.55442,-1.1623 -0.99967,-1.9081 -0.99967,-1.9081 0.24533,0.42724 0.69058,1.58827 1.06344,2.84013 0.0638,1.10423 0.0625,2.15304 -0.10055,2.9067 -0.29808,1.38357 -1.06101,2.71931 -1.53078,3.39934 -0.20607,-0.52618 -0.36796,-1.06894 -0.53234,-1.60978 0.009,-1.40838 0.12266,-3.25891 0.41948,-4.68335 0.48573,-2.32231 0.83408,-3.66667 0.92117,-3.99067 -0.0392,0.1112 -0.17294,0.31667 -0.67952,0.47633 0,0 -0.52129,0 -0.58141,-1.77767 0,0 -0.44156,0.92976 -0.52129,3.94804 -0.0271,0.99238 -0.33608,1.82853 -0.73349,2.52588 -0.52007,-1.29451 -1.05117,-2.30436 -1.51725,-3.02018 0.16314,-0.67622 0.35201,-1.36396 0.58753,-2.03803 0,0 -0.3496,0.63561 -0.74823,1.80474 -0.70035,-1.01858 -1.21674,-1.44278 -1.21674,-1.44278 0.41702,0.35639 0.78498,1.07677 1.06466,1.92784 -0.35941,1.1466 -0.72737,2.67403 -0.90399,4.56302 0,0 -0.0257,-1.38104 -0.32259,-2.74829 0.0368,-0.98834 0.16192,-1.79967 0.16192,-1.79967 -0.16192,0.26858 -0.28827,0.59082 -0.40109,0.9271 -0.11161,-0.33628 -0.23796,-0.65852 -0.39988,-0.9271 0,0 0.12513,0.81133 0.16192,1.79967 -0.29808,1.36725 -0.32381,2.74829 -0.32381,2.74829 -0.17541,-1.88899 -0.54462,-3.41642 -0.90399,-4.56302 0.28086,-0.85107 0.64764,-1.57145 1.06588,-1.92784 0,0 -0.51639,0.4242 -1.21674,1.44278 -0.39988,-1.16913 -0.74823,-1.80474 -0.74823,-1.80474 0.23552,0.67407 0.42317,1.36181 0.58752,2.03803 -0.46607,0.71582 -0.99842,1.72567 -1.51725,3.02018 -0.3974,-0.69735 -0.70775,-1.5335 -0.73348,-2.52588 -0.081,-3.01828 -0.52129,-3.94804 -0.52129,-3.94804 -0.0601,1.77767 -0.58141,1.77767 -0.58141,1.77767 -0.50658,-0.15966 -0.64027,-0.36513 -0.67953,-0.47633 0.0871,0.324 0.43545,1.66836 0.91992,3.99067 0.29808,1.42444 0.41215,3.27497 0.42074,4.68335 -0.1656,0.54084 -0.32752,1.0836 -0.53235,1.60978 -0.47101,-0.68003 -1.23391,-2.01577 -1.53199,-3.39934 -0.16192,-0.75366 -0.16313,-1.80196 -0.10058,-2.90619 0.37289,-1.25199 0.81936,-2.4134 1.06344,-2.84064 0,0 -0.44525,0.7458 -0.99843,1.9081 0.1104,-1.32804 0.27965,-2.6462 0.35694,-3.56191 0.16067,-1.90178 -0.40109,-2.75601 -0.40109,-1.84675 0,0.90964 -0.56055,3.30787 -0.86718,3.69362 -0.59736,-0.58754 -0.97513,-1.15775 -1.22289,-1.62674 -0.0417,0.13676 -0.0859,0.26948 -0.13372,0.40447 0.2527,1.22138 0.63905,2.9258 1.04752,4.06114 0.12019,0.33261 0.19623,0.7472 0.24408,1.20025 -0.44894,1.21708 -0.85984,2.59306 -1.08184,4.03091 -0.50537,-0.86258 -1.06588,-2.03311 -1.16647,-3.13645 -0.11776,-1.30499 0.45628,-4.10124 0.89541,-5.98796 -0.50047,1.34485 -1.21556,2.51487 -1.21556,2.51487 -1.4167,-2.89366 0.17419,-7.5245 0.17419,-7.5245 0,0 -0.68199,1.52982 -1.5234,2.68744 -0.84144,1.15774 -0.5618,4.09315 -0.5618,4.09315 -0.44031,-1.65381 -2.08391,-2.19138 -2.08391,-2.19138 0.84141,0.49645 1.4829,2.72894 1.3627,3.55597 -0.1202,0.82678 -1.48293,3.01815 -2.0447,3.34848 -0.56054,0.33097 -0.12019,-2.02563 -0.76168,-4.75432 -0.64027,-2.72905 -2.685,-6.36726 -2.685,-6.36726 1.04262,2.31536 0.24043,9.05458 0.24043,9.05458 -1.00212,0.20647 -1.68286,1.69505 -2.52552,3.10063 -0.84144,1.40584 -0.36062,0.49607 -1.60313,-3.26612 -1.8043,-4.50635 2.33783,-7.24907 2.33783,-7.24907 -3.20625,1.21302 -4.30158,5.43016 -4.30158,5.43016 -0.20114,-3.22512 -1.48293,-4.92005 -1.48293,-4.92005 1.04136,2.56345 1.12234,8.10343 1.00211,9.05432 -0.1202,0.95076 -0.88188,-0.74404 -2.00422,-2.72868 -1.12231,-1.98452 -1.00212,-4.17589 -1.00212,-4.17589 -1.16278,1.57132 0.0393,4.34112 0.19996,6.11891 0.16067,1.77817 -2.00422,4.83757 -2.00422,0.49607 0,-4.34075 -1.68286,-6.94582 -1.68286,-6.94582 1.14807,3.80217 -0.29439,8.86164 -0.29439,8.86164 0.15945,-3.41768 -1.06956,-5.51253 -1.06956,-5.51253 -0.64027,3.19717 -1.65587,2.37027 -1.65587,2.37027 0.53478,-5.89827 4.43527,-9.31646 4.43527,-9.31646 -2.13791,0.49644 -3.795,4.10365 -3.795,4.10365 0.48203,-3.61404 3.795,-6.80438 3.795,-6.80438 -3.63434,2.31498 -5.87895,8.76473 -5.87895,8.76473 -0.74823,-5.23659 -3.52763,-8.37885 -3.52763,-8.37885 4.38378,5.73304 2.61873,14.8286 1.55038,10.85995 -1.06834,-3.96917 -3.58037,-7.16685 -3.58037,-7.16685 0.80098,1.21303 1.49643,4.02445 1.87054,6.17421 0.37411,2.14974 -2.29861,7.11142 -3.26022,4.52052 -0.96164,-2.59079 0.3471,-6.57374 0.3471,-6.57374 -0.42808,0.42699 -0.82917,1.37471 -1.18976,2.49804 -0.52619,-2.9807 -1.13458,-5.30934 -1.13458,-5.30934 0,0 0.46733,7.73135 -0.49431,11.36917 0,0 -1.65709,-7.88292 -1.44368,-14.99421 0.17416,-5.77303 0.0527,-7.5493 0,-8.01336 0.36062,-0.66344 0.74823,-1.34385 1.17505,-2.04676 0,0 -2.98179,2.71995 -5.17366,8.25993 -1.47434,-4.75609 -2.723,-6.93696 -2.723,-6.93696 1.38603,3.12796 1.57493,7.31398 1.4596,10.92308 -0.0233,0.0929 -0.0417,0.19218 -0.065,0.28592 -0.32506,-0.33766 -0.63537,-0.61954 -0.94815,-0.91154 0.12144,-0.41497 0.25391,-0.81906 0.39741,-1.20987 -0.12757,0.32123 -0.27844,0.70014 -0.45628,1.1537 -0.73717,-0.68142 -1.42775,-1.24972 -2.05944,-1.70543 1.24623,-1.14952 2.15266,-1.83814 2.15266,-1.83814 0,0 -1.08799,0.37196 -2.70583,1.45366 -1.61662,-1.0817 -2.70458,-1.45366 -2.70458,-1.45366 0,0 0.90643,0.68862 2.15262,1.83814 -0.63168,0.45571 -1.32348,1.02401 -2.0594,1.70543 -0.17788,-0.45268 -0.32874,-0.83108 -0.45753,-1.1523 0.14475,0.39042 0.27722,0.79388 0.39863,1.20847 -0.31278,0.292 -0.62309,0.57388 -0.94937,0.91154 -0.0219,-0.0942 -0.0405,-0.19356 -0.0638,-0.28643 -0.11655,-3.60897 0.0723,-7.79461 1.4596,-10.92257 0,0 -1.24862,2.18125 -2.72298,6.93696 -2.19311,-5.53947 -5.17368,-8.25993 -5.17368,-8.25993 0.42684,0.70291 0.81444,1.38332 1.17383,2.04638 -0.0515,0.46406 -0.17172,2.23996 10e-4,8.01374 0.21465,7.11129 -1.44245,14.99421 -1.44245,14.99421 -0.96164,-3.63782 -0.49431,-11.36917 -0.49431,-11.36917 0,0 -0.60961,2.32864 -1.13458,5.30934 -0.36061,-1.12333 -0.7617,-2.07105 -1.18978,-2.49804 0,0 1.30876,3.98295 0.34712,6.57374 -0.96163,2.5909 -3.63433,-2.37078 -3.26023,-4.52052 0.37411,-2.14976 1.06835,-4.96118 1.87053,-6.17421 0,0 -2.51202,3.19768 -3.58037,7.16685 -1.06957,3.96865 -2.83338,-5.12691 1.54916,-10.85995 0,0 -2.77819,3.14226 -3.52762,8.37885 0,0 -2.24463,-6.44975 -5.87896,-8.76473 0,0 3.31419,3.19034 3.79501,6.80438 0,0 -1.6571,-3.60721 -3.79501,-4.10365 0,0 3.90172,3.41819 4.43651,9.31646 0,0 -1.0156,0.8269 -1.6571,-2.37027 0,0 -1.22903,2.09485 -1.06835,5.51253 0,0 -1.44367,-5.05947 -0.29437,-8.86164 0,0 -1.68286,2.60507 -1.68286,6.94582 0,4.3415 -2.1649,1.2821 -2.00545,-0.49607 0.16068,-1.77779 1.36395,-4.54759 0.20116,-6.11891 0,0 0.1202,2.19137 -1.00211,4.17589 -1.12231,1.98464 -1.88402,3.67944 -2.00422,2.72868 -0.12021,-0.95089 -0.0405,-6.49087 1.00211,-9.05432 0,0 -1.283,1.69493 -1.48293,4.92005 0,0 -1.09533,-4.21714 -4.30282,-5.43016 0,0 4.14214,2.74272 2.33908,7.24907 -1.24252,3.76219 -0.7617,4.67196 -1.60313,3.26612 -0.84266,-1.40558 -1.5234,-2.89416 -2.52552,-3.10063 0,0 -0.80218,-6.73922 0.24041,-9.05458 0,0 -2.04469,3.63821 -2.68619,6.36726 -0.6415,2.72869 -0.19993,5.08529 -0.7617,4.75432 -0.56055,-0.33033 -1.92327,-2.5217 -2.04348,-3.34848 -0.1202,-0.82703 0.52007,-3.05952 1.36273,-3.55597 0,0 -1.64361,0.53757 -2.08518,2.19138 0,0 0.28089,-2.93541 -0.56054,-4.09315 -0.84143,-1.15762 -1.5234,-2.68744 -1.5234,-2.68744 0,0 1.58964,4.63084 0.17417,7.5245 0,0 -0.71509,-1.17002 -1.21553,-2.51487 0.43911,1.88672 1.01315,4.68297 0.89417,5.98796 -0.18644,2.06739 -2.00422,4.41033 -2.00422,4.41033 0,0 -0.69424,-4.57543 0,-6.50504 0.40967,-1.13534 0.79604,-2.83938 1.04749,-4.06064 -0.0478,-0.13549 -0.0908,-0.26821 -0.13247,-0.40497 -0.24776,0.46899 -0.62555,1.03958 -1.22289,1.62674 -0.30664,-0.38575 -0.86719,-2.78398 -0.86719,-3.69362 0,-0.90926 -0.56177,-0.055 -0.40109,1.84675 0.16068,1.90177 0.72123,5.54048 0.32014,7.40064 -0.40109,1.86053 -1.64361,3.6382 -1.88402,3.84492 -0.24041,0.20685 -0.32013,-4.0514 0.24041,-6.73871 0.48572,-2.32282 0.83529,-3.66755 0.92116,-3.99118 -0.0393,0.11121 -0.17295,0.31718 -0.67953,0.47684 0,0 -0.52129,0 -0.58139,-1.77767 0,0 -0.44157,0.92976 -0.52129,3.94804 -0.0797,3.01814 -2.6862,4.7342 -2.88613,4.77531 -0.19993,0.0412 0.0196,-3.86567 1.22289,-7.30764 0,0 -1.4032,2.55295 -1.80429,6.85282 0,0 -0.0392,-3.01815 -0.96163,-4.54796 0,0 0.48082,3.05951 -0.16068,4.54796 -0.6415,1.48858 -0.7617,1.81942 -1.28299,0.0411 -0.52007,-1.77754 0.28088,-5.53998 1.44367,-6.53199 0,0 -1.47557,1.20392 -2.85914,4.60744 v -6.10057 c -0.63414,2.74285 -1.24743,5.94913 -1.76381,9.67943 -1.60559,3.10469 -1.89874,3.59481 -2.16122,2.47869 0.0883,-1.17178 0.15087,-2.67782 -0.0307,-3.4712 -0.32014,-1.40584 1.12354,-5.62284 1.64361,-6.53249 0,0 -1.50992,2.50387 -2.46664,5.71887 -0.50045,-2.19972 -1.18855,-4.58226 -1.95516,-5.34654 0,0 1.30875,3.98296 0.34712,6.57374 -0.96163,2.59091 -3.63434,-2.37077 -3.26023,-4.52052 0.37411,-2.14975 1.06957,-4.96117 1.87052,-6.1737 0,0 -2.51202,3.19718 -3.58036,7.16634 -1.06957,3.96866 -2.83339,-5.1269 1.54916,-10.85995 0,0 -2.77819,3.14226 -3.5264,8.37924 0,0 -2.24463,-6.45013 -5.87896,-8.76511 0,0 3.31297,3.19034 3.79379,6.80437 0,0 -1.65588,-3.6072 -3.79379,-4.10314 0,0 3.9005,3.41769 4.43529,9.31595 0,0 -1.01561,0.82691 -1.65711,-2.37026 0,0 -1.22902,2.09484 -1.06834,5.51253 0,0 -1.44368,-5.05948 -0.29438,-8.86165 0,0 -1.68286,2.60508 -1.68286,6.94633 0,4.341 -2.1649,1.2816 -2.00422,-0.49607 0.16069,-1.7783 1.36273,-4.5481 0.19994,-6.11942 0,0 0.1202,2.19138 -1.00212,4.17589 -1.12231,1.98465 -1.88401,3.67945 -2.00421,2.72869 -0.12021,-0.95089 -0.0393,-6.49087 1.00211,-9.05432 0,0 -1.28177,1.69492 -1.48293,4.92005 0,0 -1.09533,-4.21714 -4.30159,-5.43017 0,0 4.14214,2.74273 2.33784,7.24908 -1.24251,3.76219 -0.7617,4.67196 -1.60312,3.26612 -0.84266,-1.40558 -1.52341,-2.89366 -2.52552,-3.10064 0,0 -0.80218,-6.73921 0.24041,-9.05457 0,0 -2.0447,3.63871 -2.68497,6.36726 -0.64272,2.72868 -0.20115,5.08529 -0.7617,4.75483 -0.56177,-0.33084 -1.92449,-2.52222 -2.0447,-3.34899 -0.1202,-0.82703 0.5213,-3.05952 1.36273,-3.55597 0,0 -1.64361,0.53757 -2.08395,2.19138 0,0 0.27966,-2.93541 -0.56177,-4.09315 -0.84143,-1.15762 -1.52341,-2.68745 -1.52341,-2.68745 0,0 1.59087,4.63085 0.17418,7.52501 0,0 -0.71509,-1.17052 -1.21553,-2.51537 0.43911,1.88671 1.01314,4.68296 0.89417,5.98796 -0.18644,2.06739 -2.003,4.41033 -2.003,4.41033 0,0 -0.69547,-4.57543 0,-6.50504 0.40845,-1.13535 0.79482,-2.83976 1.0475,-4.06114 -0.0478,-0.13499 -0.092,-0.26771 -0.1337,-0.40447 -0.24777,0.46899 -0.62555,1.03957 -1.2229,1.62674 -0.30664,-0.38575 -0.86718,-2.78398 -0.86718,-3.69324 0,-0.90965 -0.56177,-0.0554 -0.40109,1.84636 0.16068,1.90216 0.72123,5.54049 0.32136,7.40064 -0.40109,1.86053 -1.64361,3.63871 -1.88402,3.84493 -0.2404,0.20685 -0.32136,-4.0514 0.24041,-6.73871 0.4845,-2.32232 0.83285,-3.66718 0.91993,-3.99118 -0.0393,0.11171 -0.17295,0.31717 -0.67952,0.47683 0,0 -0.52129,0 -0.58139,-1.77767 0,0 -0.44157,0.93027 -0.5213,3.94805 -0.0589,2.21692 -1.47557,3.72334 -2.30473,4.38729 v -4.66183 c 0.17418,-0.74594 0.38024,-1.51098 0.6415,-2.2578 0,0 -0.2907,0.5463 -0.6415,1.51553 v -2.6467 c -0.44402,1.92329 -0.877,4.08948 -1.27441,6.48961 -0.11652,-0.98341 -0.35325,-2.22934 -0.85001,-3.05358 0,0 0.48081,3.05952 -0.16068,4.54797 -0.6415,1.48858 -0.76171,1.81942 -1.28177,0.0416 -0.5213,-1.77804 0.27966,-5.54048 1.44245,-6.53249 0,0 -1.5786,1.2835 -3.00143,4.96446 -0.45383,-1.72567 -1.00579,-3.33001 -1.60803,-3.93083 0,0 1.30998,3.98296 0.34712,6.57374 -0.58263,1.56777 -1.78835,0.36613 -2.56845,-1.30134 0.14842,-1.80563 1.2229,-4.88159 1.65956,-5.64435 0,0 -1.15544,1.92138 -2.0864,4.54746 -0.24409,-0.77642 -0.3643,-1.54943 -0.26494,-2.12229 0.3741,-2.14975 1.06957,-4.96117 1.87052,-6.1737 0,0 -2.51202,3.19717 -3.58037,7.16634 -1.06834,3.96865 -2.83215,-5.12691 1.55039,-10.85995 0,0 -2.77941,3.14226 -3.52762,8.37924 0,0 -2.24463,-6.45014 -5.87897,-8.76511 0,0 3.31298,3.19033 3.79379,6.80437 0,0 -1.65587,-3.6072 -3.79379,-4.10315 0,0 3.90173,3.41769 4.43529,9.31596 0,0 -1.0156,0.82691 -1.65587,-2.37026 0,0 -1.22903,2.09484 -1.06957,5.51253 0,0 -1.44245,-5.05948 -0.29316,-8.86165 0,0 -1.68408,2.60507 -1.68408,6.94633 0,4.34099 -2.1649,1.2816 -2.00422,-0.49607 0.16068,-1.7783 1.36272,-4.5481 0.19993,-6.11942 0,0 0.12143,2.19137 -1.00211,4.17589 -1.12231,1.98465 -1.88401,3.67944 -2.00422,2.72869 -0.1202,-0.9509 -0.0393,-6.49088 1.00211,-9.05433 0,0 -1.28177,1.69493 -1.48292,4.92005 0,0 -1.09534,-4.21713 -4.3016,-5.43016 0,0 4.14214,2.74273 2.33785,7.24908 -1.24252,3.76218 -0.7617,4.67196 -1.60313,3.26611 -0.84265,-1.40558 -1.5234,-2.89365 -2.52551,-3.10063 0,0 -0.80218,-6.73922 0.24041,-9.05458 0,0 -2.0447,3.63871 -2.68497,6.36727 -0.0993,0.42104 -0.16682,0.8264 -0.22201,1.22176 v -4.24459 c -0.46733,2.02854 -0.92484,4.31417 -1.34064,6.87446 -0.56546,-0.80451 -1.16525,-1.90962 -1.24375,-2.4458 -0.1202,-0.82703 0.52129,-3.05952 1.36272,-3.55596 0,0 -1.64361,0.53756 -2.08394,2.19137 0,0 0.27965,-2.93541 -0.56178,-4.09315 -0.84142,-1.15762 -1.5234,-2.68744 -1.5234,-2.68744 0,0 1.59086,4.63085 0.17417,7.52501 0,0 -0.71509,-1.17053 -1.21553,-2.51538 0.19748,0.84613 0.41826,1.87344 0.59489,2.86861 -0.28089,-0.73341 -0.5814,-1.32145 -0.8954,-1.63496 0,0 1.30875,3.98296 0.34712,6.57374 -0.32749,0.88269 -0.85492,0.87725 -1.39094,0.41636 -0.10916,-1.45277 -0.14228,-3.2813 0.23551,-4.3305 0.40845,-1.13534 0.79482,-2.83976 1.04749,-4.06114 -0.0478,-0.13499 -0.092,-0.2677 -0.1337,-0.40447 -0.24776,0.469 -0.62555,1.03958 -1.22289,1.62674 -0.1938,-0.24532 -0.49063,-1.29957 -0.68075,-2.27108 0.23428,-0.67534 0.48818,-1.26616 0.75557,-1.67013 0,0 -0.34835,0.4447 -0.8402,1.20481 -0.0625,-0.37841 -0.10181,-0.71937 -0.10181,-0.95684 0,-0.89775 -0.54337,-0.0733 -0.40354,1.77552 -0.14964,0.25164 -0.30419,0.53301 -0.45996,0.82134 0.0209,-0.0815 0.0491,-0.1913 0.0601,-0.23481 -0.0393,0.11171 -0.17295,0.31717 -0.67952,0.47683 0,0 -0.5213,0 -0.5814,-1.77767 0,0 -0.44034,0.93027 -0.52129,3.94804 -0.0282,1.08538 -0.38882,1.99502 -0.84143,2.72628 -0.77029,-1.00757 -1.00088,-7.30955 2.33785,-11.67711 0,0 -2.77819,3.14226 -3.52763,8.37924 0,0 -0.0417,-0.12121 -0.1202,-0.32528 0.14228,-0.54642 0.29928,-1.09499 0.48818,-1.63546 0,0 -0.26249,0.49606 -0.58998,1.3737 -0.64764,-1.63951 -2.68743,-6.2873 -5.65696,-8.17807 0,0 3.3142,3.19033 3.79502,6.80437 0,0 -1.6571,-3.6072 -3.79502,-4.10315 0,0 1.89138,1.6986 3.22098,4.71359 -0.41458,0.41826 -1.29158,1.45922 -2.21028,3.43919 -0.092,-1.46796 -0.0331,-3.1033 0.40599,-4.5562 0,0 -1.68285,2.60507 -1.68285,6.94633 0,4.34099 -2.16491,1.2816 -2.00422,-0.49607 0.15945,-1.7783 1.36272,-4.5481 0.19992,-6.11942 0,0 0.054,1.13206 -0.32504,2.50209 -0.314,0.62056 -0.68688,1.41989 -1.05976,2.36255 -0.91011,1.65976 -1.51604,2.87784 -1.62153,2.03994 -0.1202,-0.9509 -0.0405,-6.49088 1.00211,-9.05433 0,0 -1.28299,1.69493 -1.48292,4.92005 0,0 -1.09533,-4.21713 -4.30282,-5.43016 0,0 4.14214,2.74273 2.33908,7.24908 -1.24375,3.76218 -0.76171,4.67196 -1.60436,3.26611 -0.84143,-1.40558 -1.52218,-2.89365 -2.52429,-3.10063 0,0 -0.80218,-6.73922 0.24041,-9.05458 0,0 -2.0447,3.63871 -2.6862,6.36727 -0.64149,2.72868 -0.19993,5.08528 -0.7617,4.75482 -0.56054,-0.33083 -1.92326,-2.52221 -2.04347,-3.34899 -0.1202,-0.82703 0.52007,-3.05952 1.36272,-3.55596 0,0 -1.6436,0.53756 -2.08517,2.19137 0,0 0.28089,-2.93541 -0.56054,-4.09315 -0.84143,-1.15762 -1.52341,-2.68744 -1.52341,-2.68744 0,0 1.58964,4.63085 0.17418,7.52501 0,0 -0.7151,-1.17053 -1.21554,-2.51538 0.43911,1.88672 1.01315,4.68297 0.89417,5.98797 -0.18643,2.06739 -2.00422,4.41032 -2.00422,4.41032 0,0 -0.69424,-4.57542 0,-6.50504 0.40968,-1.13534 0.79605,-2.83976 1.0475,-4.06114 -0.0478,-0.13499 -0.0908,-0.2677 -0.13247,-0.40447 -0.24777,0.469 -0.62678,1.03958 -1.2229,1.62674 -0.30664,-0.38575 -0.86718,-2.78397 -0.86718,-3.69324 0,-0.90964 -0.56177,-0.0554 -0.40109,1.84637 0.16068,1.90215 0.72122,5.54048 0.32013,7.40064 -0.39986,1.86053 -1.64238,3.6387 -1.88401,3.84492 -0.24041,0.20686 -0.32014,-4.05139 0.24163,-6.73871 0.4845,-2.32231 0.83284,-3.66717 0.91993,-3.99117 -0.0393,0.11171 -0.17294,0.31717 -0.67952,0.47683 0,0 -0.52129,0 -0.58139,-1.77767 0,0 -0.44157,0.93027 -0.5213,3.94804 -0.0589,2.21693 -1.47556,3.72335 -2.30596,4.3873 v -4.66184 c 0.17418,-0.74593 0.38147,-1.51097 0.64273,-2.25779 0,0 -0.2907,0.54629 -0.64273,1.51552 v -2.64669 c -0.44401,1.92329 -0.87577,4.08947 -1.27318,6.4896 -0.11652,-0.9834 -0.35325,-2.22933 -0.85001,-3.05357 0,0 0.48081,3.05951 -0.16068,4.54797 -0.6415,1.48858 -0.76171,1.81941 -1.283,0.0416 -0.52007,-1.77805 0.28088,-5.54049 1.44368,-6.53249 0,0 -1.5786,1.28349 -3.00143,4.96445 -0.45383,-1.72566 -1.00579,-3.33 -1.60803,-3.93082 0,0 1.30875,3.98295 0.34712,6.57374 -0.58263,1.56777 -1.78835,0.36613 -2.56845,-1.30134 0.14842,-1.80563 1.2229,-4.8816 1.65956,-5.64436 0,0 -1.15544,1.92139 -2.08763,4.54747 -0.24286,-0.77642 -0.36307,-1.54944 -0.26372,-2.12229 0.37411,-2.14976 1.06835,-4.96118 1.87053,-6.1737 0,0 -2.51202,3.19717 -3.58037,7.16634 -1.06957,3.96865 -2.83216,-5.12691 1.54917,-10.85995 0,0 -2.77819,3.14226 -3.52763,8.37923 0,0 -2.2434,-6.45013 -5.87774,-8.76511 0,0 3.31298,3.19034 3.79379,6.80438 0,0 -1.6571,-3.60721 -3.79379,-4.10315 0,0 3.90051,3.41769 4.43529,9.31596 0,0 -1.0156,0.8269 -1.6571,-2.37027 0,0 -1.22902,2.09485 -1.06834,5.51253 0,0 -0.0711,-0.25443 -0.16805,-0.67496 v -8.81129 c -0.0478,0.20825 -0.0944,0.438 -0.14228,0.65168 -0.0895,0.14271 -1.66691,2.7006 -1.66691,6.91925 0,4.341 -2.1649,1.2816 -2.00422,-0.49607 0.16068,-1.77829 1.36272,-4.54809 0.19993,-6.11941 0,0 0.12021,2.19137 -1.00211,4.17589 -0.20974,0.37069 -0.40109,0.72253 -0.58385,1.05805 -0.36797,-1.35726 -0.79727,-2.57256 -1.26214,-3.27637 0.15577,-1.52236 0.41949,-3.06218 0.84388,-4.10732 0,0 -1.283,1.69493 -1.48293,4.92005 0,0 -0.44156,-1.68252 -1.57246,-3.22829 0.27352,-0.85524 0.57649,-1.60485 0.89785,-2.09117 0,0 -0.52007,0.67483 -1.17997,1.75439 -0.628,-0.76922 -1.41914,-1.47568 -2.44701,-1.86509 0,0 1.29772,0.86106 2.12443,2.40961 -0.73595,1.27793 -1.57002,2.97842 -2.07782,4.86743 -1.06957,3.96865 -2.83338,-5.12691 1.54917,-10.85995 0,0 -2.77819,3.14226 -3.5264,8.37923 0,0 -0.0344,-0.0965 -0.0957,-0.25948 -0.11285,-2.12319 -0.11653,-4.86224 0.47591,-6.17686 0,0 -0.8905,1.59372 -1.68041,3.45881 -1.01683,-2.01059 -2.58684,-4.51863 -4.5788,-5.78758 0,0 3.31298,3.19034 3.79379,6.80438 0,0 -1.6571,-3.60721 -3.79379,-4.10315 0,0 2.33662,2.08156 3.63924,5.76467 -0.0196,0.0755 -0.0478,0.156 -0.0662,0.23013 -0.20852,0.88864 -0.29806,1.72555 -0.34957,2.45541 -0.15578,-0.36246 -0.3091,-0.82817 -0.44525,-1.50452 0,0 -0.57281,1.0058 -0.88313,2.73096 -0.33976,-0.50442 -0.67094,-1.08588 -0.88927,-1.57689 -0.0466,-0.77616 -0.0478,-1.59662 0.0258,-2.41239 0.24899,-0.79072 0.64149,-1.57322 1.099,-1.8427 0,0 -0.42684,0.14233 -0.90398,0.49822 0.0527,-0.25253 0.1153,-0.50239 0.18889,-0.74631 0,0 -0.22937,0.35829 -0.51761,1.02047 -0.35203,0.33628 -0.68688,0.79933 -0.85247,1.419 0,0 0.28088,-2.93541 -0.56054,-4.09315 -0.84143,-1.15762 -1.52341,-2.68744 -1.52341,-2.68744 0,0 1.33574,3.90413 0.45629,6.78425 0.0429,-0.7935 -0.0613,-1.53475 -0.4894,-2.11229 0,0 0.0454,0.91154 -0.21834,2.08851 -0.2404,-0.45988 -0.54214,-1.0836 -0.78991,-1.75084 0.17908,0.76972 0.37901,1.69037 0.54705,2.60001 -0.1386,0.40827 -0.30787,0.8264 -0.54092,1.23821 -0.58752,1.0397 -1.07325,1.9887 -1.42282,2.53056 0.004,-0.93951 0.081,-1.84776 0.30664,-2.47553 0.40968,-1.13534 0.79605,-2.83976 1.0475,-4.06114 -0.0478,-0.13499 -0.0908,-0.26771 -0.13247,-0.40447 -0.24777,0.46899 -0.62556,1.03958 -1.2229,1.62674 -0.0797,-0.0998 -0.1754,-0.3354 -0.27352,-0.64245 0.15945,-1.0974 0.38391,-2.13242 0.69547,-2.89935 0,0 -0.51394,0.68458 -0.94201,2.00337 -0.19135,-0.79161 -0.34712,-1.67709 -0.34712,-2.15481 0,-0.90964 -0.56177,-0.0554 -0.40109,1.84637 0.0589,0.69823 0.17172,1.6323 0.27107,2.62468 -0.0221,0.19952 -0.0503,0.38765 -0.0638,0.60044 0,0 -0.24532,-0.89054 -0.7985,-1.96175 0.0883,-0.35601 0.15823,-0.63548 0.18889,-0.7477 -0.0307,0.086 -0.12266,0.22836 -0.39373,0.36196 -0.22814,-0.39852 -0.51393,-0.80173 -0.83407,-1.19658 -0.0135,-0.14322 -0.027,-0.28959 -0.0331,-0.46621 0,0 -0.0429,0.10058 -0.1018,0.30465 -0.61084,-0.71291 -1.36395,-1.35941 -2.32926,-1.72453 0,0 1.33818,0.89041 2.16244,2.48603 -0.10916,0.61815 -0.2171,1.53197 -0.25267,2.88189 -0.0491,1.84624 -1.04136,3.19855 -1.85213,3.98511 -0.31645,-0.53858 -0.62923,-1.02174 -0.96776,-1.37789 0.17172,-1.42354 0.52742,-3.33848 1.15666,-5.13955 0,0 -0.95796,1.77539 -1.51605,4.82668 -0.16436,-0.11449 -0.3324,-0.20634 -0.51393,-0.2448 -0.009,-0.0518 -0.0147,-0.0998 -0.0245,-0.15144 -0.10548,-0.95835 -0.69792,-6.78375 0.25758,-8.90605 0,0 -2.04469,3.63871 -2.68619,6.36726 -0.0834,0.35741 -0.14719,0.70697 -0.19871,1.04704 -0.42071,0.76138 -0.86596,1.71871 -1.29035,2.9034 -0.5863,-0.80994 -1.23516,-1.98515 -1.31612,-2.5446 -0.1202,-0.82703 0.5213,-3.05952 1.36273,-3.55597 0,0 -1.64361,0.53757 -2.08395,2.19138 0,0 0.0307,-0.35058 0.0393,-0.84108 0.01,-0.0178 0.0245,-0.0522 0.0331,-0.0682 0,0 -0.0258,0.0435 -0.0319,0.0553 0.0184,-0.95809 -0.0478,-2.47729 -0.60224,-3.23916 -0.84144,-1.15763 -1.52341,-2.68745 -1.52341,-2.68745 0,0 1.59087,4.63085 0.17417,7.52501 0,0 -0.71509,-1.17052 -1.21553,-2.51537 0.43911,1.88671 1.01315,4.68296 0.89417,5.98796 -10e-4,0.0208 -0.009,0.0422 -0.011,0.0629 -0.1754,0.54528 -0.3324,1.11814 -0.46978,1.70441 -0.011,0.0248 -0.0221,0.0484 -0.0331,0.0731 -0.75434,-0.9366 -1.43509,-2.60963 -1.51114,-3.8634 0.007,-0.0228 0.0135,-0.0497 0.0221,-0.0717 0.40845,-1.13534 0.79482,-2.83976 1.0475,-4.06114 -0.0491,-0.13499 -0.092,-0.2677 -0.1337,-0.40447 -0.005,0.01 -0.0147,0.0219 -0.0209,0.0315 0.29437,-0.96088 0.62432,-1.81195 0.97635,-2.34598 0,0 -1.18487,1.5292 -2.27406,3.76409 -0.31401,-0.66711 -0.77152,-2.69389 -0.77152,-3.51611 0,-0.90965 -0.56177,-0.0554 -0.40109,1.84636 0.0773,0.91331 0.24532,2.22844 0.35571,3.55319 -0.18154,0.49011 -0.34835,0.99618 -0.48941,1.51881 -0.43666,1.62256 -0.98371,1.04274 -1.18609,-0.58032 0.48327,-2.31169 0.83161,-3.65288 0.91747,-3.976 -0.0393,0.11171 -0.17294,0.31717 -0.67952,0.47683 0,0 -0.0662,-0.004 -0.15209,-0.081 0.30664,-2.16252 1.07938,-4.6445 2.65062,-6.69949 0,0 -1.90364,2.19036 -2.9818,5.92244 -0.0478,-0.23785 -0.0846,-0.52985 -0.0981,-0.91965 0,0 -0.36797,0.8025 -0.49063,3.25702 -0.31155,-0.85196 -2.47891,-6.50732 -5.83604,-8.64568 0,0 3.3142,3.19034 3.79502,6.80437 0,0 -1.6571,-3.6072 -3.79502,-4.10314 0,0 2.23237,1.96719 3.55093,5.48051 -0.19993,0.53681 -0.41826,1.22366 -0.62555,2.04994 -0.0491,-0.1894 -0.10058,-0.35551 -0.14596,-0.58476 0,0 -0.36062,0.6351 -0.66603,1.74705 -0.13983,-0.80717 -0.36429,-1.66596 -0.73717,-2.28474 0,0 0.4109,2.67187 -0.0638,4.23459 -0.2723,-1.53805 -0.51639,-3.8195 -0.1521,-5.92256 0.0724,-0.0862 0.14106,-0.19091 0.21588,-0.25493 0,0 -0.0859,0.0764 -0.20484,0.19269 0.0638,-0.36057 0.14106,-0.71709 0.24532,-1.06122 0,0 -0.37043,0.58944 -0.76171,1.63914 -0.72735,0.89497 -1.86561,2.69756 -2.82602,5.78251 -0.0846,-0.33274 -0.12756,-0.6704 -0.10058,-0.97139 0.16068,-1.7783 1.36272,-4.5481 0.19993,-6.11942 0,0 0.12021,2.19138 -1.00088,4.17589 -1.12354,1.98465 -1.88402,3.67945 -2.00422,2.72869 -0.0368,-0.29149 -0.0552,-1.01592 -0.0319,-1.95062 0.3974,-1.56828 1.00946,-3.22424 1.31365,-3.75459 0,0 -0.58753,0.96822 -1.26214,2.4678 0.11285,-1.98135 0.39496,-4.37186 0.98249,-5.81691 0,0 -1.283,1.69492 -1.48416,4.92005 0,0 -1.09533,-4.21714 -4.30159,-5.43017 0,0 4.14214,2.74273 2.33785,7.24908 -1.24252,3.76219 -0.7617,4.67196 -1.60313,3.26612 -0.84143,-1.40558 -1.5234,-2.89366 -2.52552,-3.10064 0,0 -0.80095,-6.73921 0.24041,-9.05457 0,0 -2.04347,3.63871 -2.68496,6.36726 -0.6415,2.72868 -0.19994,5.08529 -0.76171,4.75483 -0.56177,-0.33084 -1.92449,-2.52222 -2.0447,-3.34899 -0.1202,-0.82703 0.5213,-3.05952 1.36273,-3.55597 0,0 -1.64361,0.53757 -2.08395,2.19138 0,0 0.28089,-2.93541 -0.56054,-4.09315 -0.84266,-1.15762 -1.5234,-2.68745 -1.5234,-2.68745 0,0 1.58963,4.63085 0.17294,7.52501 0,0 -0.71509,-1.17052 -1.21553,-2.51537 0.43911,1.88671 1.01315,4.68296 0.89539,5.98796 -0.18766,2.06739 -2.00422,4.41033 -2.00422,4.41033 0,0 -0.69546,-4.57543 0,-6.50504 0.40845,-1.13535 0.79482,-2.83976 1.0475,-4.06114 -0.0478,-0.13499 -0.092,-0.26771 -0.1337,-0.40447 -0.24776,0.46899 -0.62555,1.03957 -1.22289,1.62674 -0.30542,-0.38575 -0.86719,-2.78398 -0.86719,-3.69324 0,-0.90965 -0.56054,-0.0554 -0.40109,1.84636 0.16068,1.90216 0.72245,5.54049 0.32137,7.40064 -0.4011,1.86053 -1.64361,3.63871 -1.88402,3.84493 -0.24041,0.20685 -0.32014,-4.0514 0.24041,-6.73871 0.48449,-2.32232 0.83406,-3.66718 0.91993,-3.99118 -0.0392,0.11171 -0.17295,0.31717 -0.67953,0.47683 0,0 -0.52129,0 -0.58139,-1.77767 0,0 -0.44034,0.93027 -0.52129,3.94805 -0.0589,2.21692 -1.47434,3.72334 -2.30474,4.38729 v -4.66183 c 0.17418,-0.74594 0.38024,-1.51098 0.6415,-2.2578 0,0 -0.29069,0.5463 -0.6415,1.51553 v -2.6467 c -0.42807,1.85332 -0.84388,3.93804 -1.23025,6.23328 -0.28947,-1.83902 -0.63781,-3.528 -0.90644,-4.72496 0.005,-0.004 0.009,-0.0115 0.0123,-0.0152 0,0 -0.0123,0.0105 -0.0135,0.0119 -0.24777,-1.10233 -0.42808,-1.78956 -0.42808,-1.78956 0,0 0.0515,0.85651 0.0859,2.12318 -0.36429,0.38701 -0.96654,1.13206 -1.63257,2.3647 -0.27352,-2.48553 -0.47345,-5.35464 -0.39005,-8.11292 0.17418,-5.77379 0.0527,-7.54968 10e-4,-8.01374 0.35939,-0.66306 0.74698,-1.34346 1.17506,-2.04638 0,0 -4.49416,4.12655 -6.50206,12.53197 -0.32504,-0.33767 -0.63537,-0.61955 -0.94937,-0.91155 0.12266,-0.41408 0.2539,-0.81715 0.39864,-1.20708 -0.12879,0.32072 -0.27966,0.69875 -0.45752,1.15091 -0.1386,-0.12904 -0.28579,-0.28377 -0.42194,-0.40409 0.38515,-0.8598 0.85738,-1.70036 1.45227,-2.4778 0,0 -0.74208,0.85246 -1.56266,2.38494 -2.72176,-2.37077 -4.78486,-3.04662 -4.78486,-3.04662 0,0 2.09867,1.59283 4.31018,3.9984 -0.61452,1.33423 -1.20204,3.02966 -1.49029,5.04252 0,0 -1.4216,-4.06924 -3.82813,-6.90407 0.0258,-3.05889 0.36429,-6.29641 1.49028,-8.83456 0,0 -1.33819,2.34736 -2.87754,7.45226 -0.21587,-0.17384 -0.43666,-0.33451 -0.66357,-0.47874 0,0 0.25022,0.2462 0.61083,0.65535 -0.19257,0.64333 -0.38637,1.32651 -0.58262,2.05727 -0.01,-0.003 -0.0184,-0.009 -0.0282,-0.0114 0,0 0.0221,0.021 0.0245,0.0233 -0.77764,2.90213 -1.56265,6.50238 -2.22868,10.84704 -0.0601,-0.28364 -0.0908,-0.56678 -0.0675,-0.82349 0.16068,-1.77829 1.36272,-4.5481 0.20116,-6.11941 0,0 0.1202,2.19137 -1.00211,4.17589 -1.12231,1.98464 -1.88402,3.67944 -2.00422,2.72868 -0.12021,-0.95089 -0.0405,-6.49087 1.00211,-9.05432 0,0 -1.283,1.69492 -1.48293,4.92005 0,0 -0.83897,-3.22462 -3.19399,-4.84541 0.0883,-0.17434 0.17662,-0.33767 0.26739,-0.47456 0,0 -0.13247,0.17295 -0.32382,0.44293 -0.32381,-0.21684 -0.67093,-0.40902 -1.0524,-0.55312 0,0 0.40232,0.2667 0.90154,0.76921 -0.69056,1.00061 -1.96988,3.06812 -2.8015,5.54947 -0.17662,-2.00691 -0.43053,-6.22405 0.34958,-7.9587 0,0 -0.63782,1.14572 -1.31121,2.62152 0.43666,-1.56272 1.13581,-3.16376 2.20661,-4.56442 0,0 -2.4556,2.82459 -3.36327,7.54322 -0.0736,0.24443 -0.14841,0.48924 -0.20484,0.72355 -0.30419,-0.83336 -2.47399,-6.50972 -5.83848,-8.65264 0,0 3.3142,3.19034 3.79501,6.80437 0,0 -1.29035,-2.7999 -3.06152,-3.80254 -0.31646,-0.59348 -0.51884,-1.04514 -0.51884,-1.04514 0,0 0.12265,0.36512 0.26984,0.94304 -0.15945,-0.0736 -0.31768,-0.16004 -0.48449,-0.19901 0,0 0.23182,0.20737 0.57771,0.58387 0.2355,1.02275 0.47469,2.49564 0.36797,3.93399 -0.22078,0.49089 -0.47591,1.16179 -0.7016,2.01552 -0.23304,-0.41079 -0.70773,-1.29033 -1.07202,-2.26778 0.26371,1.13167 0.57404,2.58736 0.75557,3.85568 -0.11285,0.73619 -0.19503,1.53197 -0.19503,2.42163 0,0.62549 -0.0478,1.08157 -0.12511,1.4257 -0.0932,0.22937 -0.19134,0.45216 -0.29683,0.66585 -0.4477,0.4347 -1.12722,-0.43383 -1.43263,-1.43735 -0.038,-0.1756 -0.0785,-0.34779 -0.11898,-0.52617 -10e-4,-0.007 -0.002,-0.0147 -0.004,-0.022 0.001,-0.3746 0.0147,-0.7434 0.0442,-1.09308 0.0785,-0.48089 0.19502,-1.00581 0.31277,-1.55172 0.39005,-1.13205 0.7568,-2.73538 0.99843,-3.90641 -0.0478,-0.13499 -0.092,-0.26771 -0.13369,-0.40447 -0.15823,0.30022 -0.39987,0.64839 -0.68811,1.00985 -0.0797,-0.27821 -0.18767,-0.54263 -0.35939,-0.77516 0,0 0.0258,0.51896 -0.0724,1.274 -0.0392,0.0403 -0.0613,0.0778 -0.10303,0.11804 -0.30541,-0.38574 -0.86596,-2.78397 -0.86596,-3.69323 0,-0.90964 -0.56177,-0.0554 -0.40109,1.84637 0.0871,1.03324 0.28825,2.57572 0.39373,4.06986 -0.32013,-0.91482 -0.66725,-1.67671 -1.03522,-2.04372 0,0 0.5127,1.56044 0.65989,3.36328 -0.88804,1.62357 -1.47802,2.79586 -1.58228,1.96997 -0.0208,-0.16611 -0.0356,-0.47823 -0.0405,-0.88358 0.0675,-0.68862 0.15577,-1.36966 0.28088,-1.96897 0.48572,-2.3223 0.83407,-3.66717 0.91993,-3.99117 -0.038,0.11171 -0.17295,0.31718 -0.67952,0.47684 0,0 -0.0564,-0.007 -0.13247,-0.0663 0.157,-0.99251 0.36797,-1.91961 0.65376,-2.62114 0,0 -0.52374,0.70102 -0.95427,2.04449 -0.0724,-0.26037 -0.13002,-0.615 -0.14842,-1.13472 0,0 -0.40231,0.87764 -0.50534,3.61492 -0.12634,-0.37993 -0.36184,-0.99201 -0.74085,-1.69948 0.34834,-1.31424 0.76906,-2.53233 1.22657,-3.22462 0,0 -0.77029,0.99795 -1.63748,2.54182 -0.56667,-0.88169 -1.35168,-1.74604 -2.39549,-2.3208 0.44156,-1.35169 1.07938,-2.70755 2.00176,-3.91463 0,0 -1.19468,1.37813 -2.22991,3.79419 -0.13737,-0.0667 -0.25635,-0.15599 -0.40231,-0.21128 0,0 0.14719,0.0974 0.37288,0.28453 -0.39987,0.94406 -0.76048,2.04639 -1.02787,3.29054 -0.13247,0.1441 -0.29929,0.34412 -0.48205,0.58248 -0.1987,-0.49873 -0.51638,-1.25048 -0.942,-2.11079 0.0208,-1.45429 0.15577,-2.85583 0.52988,-3.68678 0,0 -0.57649,1.03224 -1.21186,2.4 -0.9972,-1.76856 -2.3587,-3.67578 -4.01212,-4.72877 0,0 2.6727,2.59686 3.55706,5.75519 -0.0478,0.10981 -0.0932,0.2219 -0.1386,0.33349 -0.60225,-1.07525 -1.88034,-3.03055 -3.41846,-3.38745 0,0 1.7356,1.56032 3.05172,4.34062 -0.20484,0.56337 -0.39005,1.12611 -0.51394,1.65418 -0.20361,0.86676 -0.29315,1.68304 -0.34467,2.40051 -0.18521,0.60588 -0.35325,1.40305 -0.43666,2.33698 -0.13737,-0.0879 -0.31768,-0.27416 -0.51761,-0.52681 -0.19257,-1.2253 -0.34712,-2.80484 -0.22324,-4.37907 0.12266,-0.29554 0.23551,-0.55237 0.32014,-0.69963 0,0 -0.12511,0.21001 -0.30174,0.53124 0.065,-0.70292 0.18154,-1.40116 0.38147,-2.06144 0,0 -0.99107,1.55715 -1.45104,4.25053 -0.0159,0.0376 -0.0331,0.0815 -0.0503,0.11994 -0.0895,-0.21748 -0.16068,-0.41826 -0.18276,-0.56641 -0.1202,-0.82703 0.5213,-3.05952 1.36395,-3.55597 0,0 -1.64361,0.53757 -2.08517,2.19137 0,0 0.28088,-2.9354 -0.56055,-4.09314 -0.84142,-1.15762 -1.5234,-2.68744 -1.5234,-2.68744 0,0 1.58964,4.63084 0.17295,7.5245 0,0 -0.71387,-1.17002 -1.21554,-2.51487 0.29315,1.25427 0.6415,2.90479 0.80954,4.25837 -0.9923,1.79096 -1.65955,3.19021 -1.77117,2.30853 -0.0515,-0.41003 -0.065,-1.67342 0.0184,-3.18262 0.34589,-1.09992 0.6648,-2.49741 0.88191,-3.55217 -0.0478,-0.13499 -0.092,-0.26771 -0.1337,-0.40447 -0.10917,0.20774 -0.24164,0.43155 -0.41213,0.67306 0.0711,-0.44432 0.15332,-0.87219 0.24777,-1.27476 0.0442,0.19951 0.10303,0.40079 0.16436,0.6017 0.0147,-0.0262 0.0282,-0.0522 0.0405,-0.0778 -0.0626,-0.25897 -0.12021,-0.49417 -0.16804,-0.68178 0.10548,-0.42459 0.22569,-0.8173 0.36306,-1.15547 0,0 -0.20116,0.27416 -0.45506,0.79211 -0.0319,-0.12133 -0.0527,-0.19951 -0.0527,-0.19951 0.005,0.0764 0.0258,0.15788 0.0356,0.23569 -0.27107,0.55819 -0.58875,1.40382 -0.8034,2.51626 -0.0626,0.0659 -0.1153,0.13082 -0.18276,0.19724 -0.30542,-0.38574 -0.86596,-2.78397 -0.86596,-3.69361 0,-0.90926 -0.56177,-0.055 -0.40109,1.84675 0.0147,0.17851 0.0356,0.38536 0.0564,0.5912 -0.67952,-1.10283 -1.6755,-2.25134 -3.1155,-2.79624 0,0 1.63257,1.08348 2.40041,3.00537 -0.10058,0.0659 -0.23428,0.13221 -0.4244,0.19218 0,0 -0.52006,0 -0.58139,-1.77767 0,0 -0.44034,0.92976 -0.52007,3.94804 -0.038,1.39369 -0.61697,2.49564 -1.24497,3.29737 -0.43053,-0.64611 -0.87823,-1.13902 -1.42037,-1.25073 0,0 -0.0135,-0.1083 -0.0331,-0.3006 0.1987,-1.29084 0.52497,-2.81813 1.03523,-4.27837 0,0 -0.61084,1.13256 -1.14194,3.12758 -0.17172,-2.11179 -0.35816,-5.96279 0.38024,-7.60319 0,0 -1.4952,2.6691 -2.32927,5.15006 -0.49676,0.51985 -1.50377,1.79564 -2.48626,4.17235 -0.34467,-0.59816 -0.62433,-1.19709 -0.67584,-1.54931 -0.12021,-0.82703 0.52129,-3.05952 1.36272,-3.55597 0,0 -1.64361,0.53757 -2.08517,2.19137 0,0 0.28088,-2.9354 -0.56055,-4.09314 -0.84143,-1.15762 -1.5234,-2.68744 -1.5234,-2.68744 0,0 1.59086,4.63084 0.17417,7.525 0,0 -0.71509,-1.17052 -1.21553,-2.51537 0.2539,1.09283 0.5495,2.48564 0.73472,3.72208 -0.65009,1.50452 -1.34065,3.44336 -1.64606,5.49114 -0.0466,0.31338 -0.12266,0.67901 -0.21465,1.06931 -0.0981,-0.69242 -0.61574,-4.63211 0.0159,-6.38928 0.40968,-1.13534 0.79605,-2.83976 1.04749,-4.06114 -0.0478,-0.13499 -0.0908,-0.26771 -0.13247,-0.40447 -0.24776,0.46899 -0.62555,1.03958 -1.22289,1.62673 -0.30664,-0.38574 -0.86719,-2.78397 -0.86719,-3.69323 0,-0.90964 -0.56177,-0.0554 -0.40109,1.84637 0.16069,1.90216 0.72123,5.54048 0.32014,7.40064 -0.39986,1.86053 -1.64238,3.6387 -1.88279,3.84492 -0.24163,0.20685 -0.32136,-4.0514 0.24041,-6.73872 0.4845,-2.3223 0.83284,-3.66717 0.91993,-3.99117 -0.0392,0.11171 -0.17295,0.31718 -0.67952,0.47684 0,0 -0.5213,0 -0.5814,-1.77767 0,0 -0.44034,0.93027 -0.52129,3.94804 -0.0589,2.21693 -1.47557,3.72335 -2.30596,4.3873 v -4.66185 c 0.1754,-0.74592 0.38146,-1.51096 0.64272,-2.25778 0,0 -0.29069,0.54629 -0.64272,1.51552 v -2.6467 c -0.44402,1.92329 -0.87577,4.08949 -1.27318,6.48961 -0.11653,-0.98341 -0.35326,-2.22933 -0.85002,-3.05358 0,0 0.48082,3.05952 -0.16068,4.54797 -0.6415,1.48859 -0.7617,1.81942 -1.28299,0.0416 -0.52007,-1.77805 0.28088,-5.54048 1.44367,-6.53249 0,0 -1.5786,1.2835 -3.00142,4.96446 -0.45261,-1.72566 -1.00579,-3.33001 -1.60804,-3.93083 0,0 1.30876,3.98296 0.34712,6.57374 -0.58262,1.56777 -1.78834,0.36614 -2.56844,-1.30134 0.14841,-1.80562 1.22289,-4.88159 1.65955,-5.64435 0,0 -1.15543,1.92139 -2.08763,4.54746 -0.24286,-0.77642 -0.36306,-1.54943 -0.26371,-2.12229 0.37411,-2.14975 1.06957,-4.96117 1.87052,-6.1737 0,0 -2.51202,3.19717 -3.58036,7.16634 -1.06957,3.96866 -2.83216,-5.1269 1.54916,-10.85995 0,0 -2.77819,3.14226 -3.5264,8.37924 0,0 -2.24463,-6.45013 -5.87896,-8.76511 0,0 3.31297,3.19034 3.79379,6.80437 0,0 -1.65587,-3.6072 -3.79379,-4.10314 0,0 3.90173,3.41769 4.43529,9.31595 0,0 -1.01561,0.82691 -1.6571,-2.37026 0,0 -1.22903,2.09484 -1.06835,5.51252 0,0 -1.44245,-5.05947 -0.29438,-8.86164 0,0 -1.68285,2.60508 -1.68285,6.94633 0,4.341 -2.16491,1.2816 -2.00423,-0.49607 0.16069,-1.7783 1.36273,-4.5481 0.19994,-6.11942 0,0 0.1202,2.19138 -1.00212,4.1759 -1.12231,1.98464 -1.88401,3.67944 -2.00422,2.72868 -0.1202,-0.95089 -0.0393,-6.49087 1.00212,-9.05432 0,0 -1.283,1.69492 -1.48293,4.92005 0,0 -1.09533,-4.21713 -4.30159,-5.43017 0,0 4.14091,2.74273 2.33785,7.24908 -1.24252,3.76219 -0.76171,4.67196 -1.60313,3.26612 -0.84143,-1.40558 -1.52341,-2.89366 -2.52552,-3.10064 0,0 -0.80218,-6.73921 0.24041,-9.05457 0,0 -2.0447,3.6387 -2.6862,6.36726 -0.64027,2.72869 -0.19993,5.08529 -0.76047,4.75483 -0.56177,-0.33084 -1.92449,-2.52221 -2.0447,-3.34899 -0.1202,-0.82703 0.5213,-3.05952 1.36272,-3.55597 0,0 -1.6436,0.53757 -2.08394,2.19138 0,0 0.28088,-2.93541 -0.56177,-4.09315 -0.84143,-1.15762 -1.52341,-2.68744 -1.52341,-2.68744 0,0 1.59087,4.63084 0.17418,7.525 0,0 -0.71509,-1.17052 -1.21554,-2.51537 0.43912,1.88672 1.01315,4.68296 0.8954,5.98797 -0.18766,2.06738 -2.00422,4.41032 -2.00422,4.41032 0,0 -0.69547,-4.57543 0,-6.50504 0.40845,-1.13535 0.79482,-2.83976 1.04627,-4.06114 -0.0478,-0.13499 -0.0908,-0.26771 -0.13247,-0.40447 -0.24777,0.46899 -0.62555,1.03957 -1.2229,1.62674 -0.30541,-0.38575 -0.86718,-2.78398 -0.86718,-3.69324 0,-0.90965 -0.56055,-0.0554 -0.40109,1.84636 0.16068,1.90216 0.72122,5.54049 0.32136,7.40064 -0.40109,1.86054 -1.64361,3.63871 -1.88402,3.84493 -0.2404,0.20686 -0.32136,-4.0514 0.24041,-6.73871 0.4845,-2.32232 0.83407,-3.66718 0.91993,-3.99118 -0.0393,0.11171 -0.17294,0.31717 -0.67952,0.47683 0,0 -0.52129,0 -0.5814,-1.77767 0,0 -0.44033,0.93027 -0.52129,3.94804 -0.0589,2.21693 -1.47557,3.72335 -2.30473,4.3873 v -4.66183 c 0.17418,-0.74593 0.38024,-1.51098 0.6415,-2.2578 0,0 -0.2907,0.5463 -0.6415,1.51553 v -2.6467 c -0.44524,1.92329 -0.877,4.08948 -1.27441,6.48961 -0.11652,-0.98341 -0.35325,-2.22933 -0.85001,-3.05358 0,0 0.48081,3.05952 -0.16068,4.54798 -0.64028,1.48857 -0.76048,1.81941 -1.28177,0.0416 -0.5213,-1.77805 0.28088,-5.54049 1.44245,-6.5325 0,0 -1.5786,1.2835 -3.00143,4.96446 -0.4526,-1.72567 -1.00579,-3.33 -1.60803,-3.93083 0,0 1.30998,3.98296 0.34712,6.57374 -0.5814,1.56778 -1.78835,0.36613 -2.56845,-1.30134 0.14842,-1.80563 1.2229,-4.88159 1.66078,-5.64435 0,0 -1.15666,1.92138 -2.08762,4.54746 -0.24409,-0.77642 -0.3643,-1.54943 -0.26494,-2.12229 0.3741,-2.14975 1.06957,-4.96118 1.87052,-6.1737 0,0 -2.51202,3.19717 -3.58037,7.16634 -1.06957,3.96866 -2.83215,-5.12691 1.54916,-10.85995 0,0 -2.77818,3.14226 -3.52639,8.37924 0,0 -2.24463,-6.45014 -5.87897,-8.76511 0,0 3.31298,3.19033 3.79502,6.80437 0,0 -1.6571,-3.6072 -3.79502,-4.10315 0,0 3.90173,3.41769 4.43529,9.31596 0,0 -1.01437,0.82691 -1.65587,-2.37027 0,0 -1.23026,2.09485 -1.06957,5.51254 0,0 -1.44245,-5.05948 -0.29316,-8.86165 0,0 -1.68408,2.60508 -1.68408,6.94633 0,4.34099 -2.1649,1.2816 -2.00422,-0.49607 0.16068,-1.7783 1.36272,-4.5481 0.19993,-6.11942 0,0 0.1202,2.19137 -1.00211,4.1759 -1.12231,1.98464 -1.88279,3.67944 -2.00299,2.72868 -0.12021,-0.9509 -0.0405,-6.49088 1.00211,-9.05433 0,0 -1.283,1.69493 -1.48415,4.92006 0,0 -1.09534,-4.21714 -4.3016,-5.43017 0,0 4.14214,2.74273 2.33785,7.24908 -1.24252,3.76219 -0.7617,4.67196 -1.60313,3.26612 -0.84143,-1.40559 -1.5234,-2.89366 -2.52551,-3.10064 0,0 -0.80095,-6.73922 0.24041,-9.05458 0,0 -2.0447,3.63871 -2.68497,6.36727 -0.6415,2.72869 -0.20116,5.08528 -0.76171,4.75482 -0.56176,-0.33083 -1.92449,-2.5222 -2.04469,-3.34899 -0.12021,-0.82702 0.52129,-3.05952 1.36272,-3.55596 0,0 -1.64361,0.53756 -2.08395,2.19137 0,0 0.28089,-2.93541 -0.56177,-4.09315 -0.84142,-1.15761 -1.52217,-2.68743 -1.52217,-2.68743 0,0 1.58964,4.63084 0.17294,7.525 0,0 -0.71509,-1.17052 -1.21553,-2.51538 0.43911,1.88673 1.01315,4.68297 0.8954,5.98797 -0.18767,2.06739 -2.00422,4.41032 -2.00422,4.41032 0,0 -0.69547,-4.57542 0,-6.50503 0.40845,-1.13535 0.79482,-2.83977 1.04749,-4.06115 -0.0478,-0.13499 -0.092,-0.2677 -0.1337,-0.40447 -0.24776,0.469 -0.62555,1.03958 -1.22289,1.62674 -0.30542,-0.38575 -0.86718,-2.78397 -0.86718,-3.69324 0,-0.90964 -0.56055,-0.0554 -0.4011,1.84637 0.16068,1.90216 0.72245,5.54048 0.32137,7.40064 -0.40109,1.86054 -1.64361,3.63871 -1.88402,3.84493 -0.24041,0.20685 -0.32136,-4.0514 0.24041,-6.73872 0.48449,-2.32231 0.83407,-3.66717 0.91993,-3.99118 -0.0393,0.11172 -0.17295,0.31718 -0.67952,0.47684 0,0 -0.5213,0 -0.5814,-1.77767 0,0 -0.44034,0.93027 -0.52129,3.94804 -0.0589,2.21693 -1.47557,3.72373 -2.30473,4.3873 v -4.66146 c 0.17417,-0.7458 0.38024,-1.51135 0.64149,-2.25817 0,0 -0.29069,0.54629 -0.64149,1.51603 v -2.6472 c -0.44402,1.92328 -0.877,4.08897 -1.27441,6.4896 -0.11652,-0.98391 -0.35326,-2.22932 -0.85002,-3.05357 0,0 0.48082,3.05952 -0.15945,4.54797 -0.6415,1.48858 -0.7617,1.81941 -1.283,0.0416 -0.52129,-1.77805 0.28089,-5.54049 1.44245,-6.53249 0,0 -1.5786,1.2835 -3.00142,4.96446 -0.45261,-1.72567 -1.00579,-3.33001 -1.60804,-3.93083 0,0 1.30998,3.98295 0.34712,6.57374 -0.58139,1.56777 -1.78712,0.36613 -2.56844,-1.30096 0.14841,-1.8055 1.22289,-4.88198 1.66078,-5.64474 0,0 -1.15666,1.92139 -2.08763,4.54798 -0.24286,-0.77656 -0.36429,-1.54944 -0.26494,-2.1228 0.3741,-2.14976 1.06957,-4.96118 1.87052,-6.1737 0,0 -2.51079,3.19717 -3.58036,7.16634 -1.06835,3.96866 -2.83216,-5.12691 1.55039,-10.85995 0,0 -2.77942,3.14226 -3.52763,8.37923 0,0 -2.24462,-6.45013 -5.87896,-8.76511 0,0 3.31297,3.19034 3.79502,6.80438 0,0 -1.6571,-3.60721 -3.79502,-4.10315 0,0 3.90173,3.41769 4.43529,9.31596 0,0 -1.01438,0.8269 -1.65587,-2.37027 0,0 -1.22903,2.09484 -1.06958,5.51253 0,0 -1.44245,-5.05947 -0.29315,-8.86164 0,0 -1.68408,2.60508 -1.68408,6.94632 0,4.341 -2.1649,1.2816 -2.00422,-0.49607 0.16068,-1.77829 1.36272,-4.54809 0.19993,-6.11941 0,0 0.1202,2.19137 -1.00211,4.17589 -1.12232,1.98464 -1.88279,3.67945 -2.003,2.72868 -0.12143,-0.95089 -0.0405,-6.49087 1.00211,-9.05432 0,0 -1.28299,1.69493 -1.48415,4.92006 0,0 -1.09533,-4.21714 -4.30159,-5.43017 0,0 4.14214,2.74272 2.33785,7.24907 -1.24252,3.76219 -0.7617,4.67196 -1.60313,3.26613 -0.84143,-1.40559 -1.52341,-2.89367 -2.52552,-3.10064 0,0 -0.80218,-6.73922 0.24041,-9.05458 0,0 -2.04347,3.63871 -2.68497,6.36726 -0.64149,2.72869 -0.20115,5.08529 -0.7617,4.75483 -0.56177,-0.33084 -1.92449,-2.52221 -2.0447,-3.34899 -0.1202,-0.82702 0.5213,-3.05952 1.36273,-3.55597 0,0 -1.64361,0.53757 -2.08395,2.19138 0,0 0.28089,-2.93541 -0.56177,-4.09315 -0.84143,-1.15762 -1.52218,-2.68744 -1.52218,-2.68744 0,0 1.58964,4.63084 0.17295,7.52501 0,0 -0.71509,-1.17052 -1.21553,-2.51538 0.43911,1.88672 1.01315,4.68296 0.89539,5.98797 -0.18766,2.06739 -2.00422,4.41032 -2.00422,4.41032 0,0 -0.69546,-4.57543 0,-6.50503 0.40845,-1.13535 0.79482,-2.83977 1.0475,-4.06115 -0.0478,-0.13499 -0.092,-0.26771 -0.1337,-0.40447 -0.24777,0.46899 -0.62555,1.03958 -1.22289,1.62674 -0.30542,-0.38575 -0.86719,-2.78398 -0.86719,-3.69324 0,-0.90964 -0.56054,-0.0554 -0.40109,1.84637 0.16068,1.90216 0.72245,5.54048 0.32136,7.40064 -0.40109,1.86053 -1.64361,3.63871 -1.88401,3.84493 -0.24041,0.20685 -0.32137,-4.05141 0.2404,-6.73872 0.4845,-2.32231 0.83407,-3.66718 0.91994,-3.99118 -0.0393,0.11171 -0.17295,0.31718 -0.67953,0.47684 0,0 -0.52129,0 -0.58139,-1.77767 0,0 -0.44034,0.93027 -0.5213,3.94804 -0.0344,1.3279 -0.56299,2.38633 -1.15665,3.17845 -0.2539,-1.72973 -0.57159,-3.36063 -0.84389,-4.62629 0.10426,-0.36285 0.2122,-0.72658 0.33731,-1.08449 0,0 -0.16436,0.30983 -0.38882,0.85297 -0.30051,-1.37459 -0.53233,-2.26868 -0.53233,-2.26868 0,0 0.0883,1.46834 0.10916,3.4254 -0.38514,1.16774 -0.80095,2.80055 -0.99107,4.84314 0,0 -0.0356,-2.37483 -0.68811,-3.97916 -0.26248,-2.43846 -0.44893,-5.23066 -0.36797,-7.91442 0.17417,-5.77378 0.0527,-7.54968 10e-4,-8.01374 0.35939,-0.66307 0.74699,-1.34346 1.17506,-2.04638 0,0 -4.49416,4.12655 -6.50206,12.53197 -0.32505,-0.33767 -0.63537,-0.61954 -0.94937,-0.91154 0.12266,-0.41459 0.2539,-0.81805 0.39864,-1.20847 -0.12879,0.32122 -0.27966,0.69962 -0.45752,1.1523 -2.97811,-2.75614 -5.31719,-3.54357 -5.31719,-3.54357 0,0 2.4789,1.88432 4.88789,4.64855 -1.17996,3.05358 -2.91311,7.75805 -4.08571,11.88903 -1.36272,1.48858 -1.36272,-2.72856 -1.36272,-5.37475 0,-2.64581 -1.52341,-12.0726 1.04136,-17.86055 0,0 -3.84776,6.69772 -6.01144,22.32565 -1.92449,3.72107 -1.96497,3.72107 -2.32558,1.65419 -0.36061,-2.06738 -1.4032,-7.56625 -2.64572,-8.80635 0,0 1.30998,3.98295 0.34835,6.57374 -0.96286,2.5909 -3.63434,-2.37078 -3.26023,-4.52052 0.37411,-2.14976 1.06834,-4.96118 1.87052,-6.17421 0,0 -2.51202,3.19768 -3.58159,7.16685 -1.06834,3.96866 -2.83216,-5.12691 1.55039,-10.85995 0,0 -2.77942,3.14226 -3.52762,8.37885 0,0 -2.24463,-6.44975 -5.87897,-8.76473 0,0 3.3142,3.19034 3.79502,6.80438 0,0 -1.6571,-3.60721 -3.79502,-4.10365 0,0 3.90173,3.41819 4.43652,9.31646 0,0 -1.01561,0.8269 -1.65711,-2.37027 0,0 -1.22902,2.09484 -1.06957,5.51253 0,0 -1.44245,-5.05947 -0.29315,-8.86164 0,0 -1.68408,2.60508 -1.68408,6.94582 0,4.3415 -2.16368,1.2821 -2.00422,-0.49606 0.16068,-1.7778 1.36272,-4.5476 0.20116,-6.11892 0,0 0.1202,2.19137 -1.00212,4.17589 -1.12231,1.98464 -1.88401,3.67945 -2.00422,2.72868 -0.1202,-0.95089 -0.0405,-6.49087 1.00212,-9.05432 0,0 -1.283,1.69493 -1.48293,4.92006 0,0 -1.09656,-4.21714 -4.30282,-5.43017 0,0 4.14214,2.74272 2.33785,7.24907 -1.24252,3.76219 -0.7617,4.67196 -1.60313,3.26613 -0.84143,-1.40559 -1.5234,-2.89417 -2.52552,-3.10064 0,0 -0.80095,-6.73922 0.24041,-9.05458 0,0 -2.04347,3.6382 -2.68497,6.36726 -0.64149,2.72869 -0.20116,5.08529 -0.7617,4.75433 -0.56177,-0.33034 -1.92449,-2.52171 -2.0447,-3.34849 -0.1202,-0.82702 0.5213,-3.05952 1.36273,-3.55597 0,0 -1.64238,0.53757 -2.08395,2.19138 0,0 0.28089,-2.93541 -0.56054,-4.09315 -0.84266,-1.15762 -1.52341,-2.68744 -1.52341,-2.68744 0,0 1.58964,4.63084 0.17295,7.5245 0,0 -0.71386,-1.17001 -1.21554,-2.51487 0.44035,1.88672 1.01316,4.68296 0.8954,5.98797 -0.18766,2.06739 -2.00419,4.41032 -2.00419,4.41032 0,0 -0.6943,-4.57543 0,-6.50503 0.4084,-1.13535 0.79479,-2.83977 1.04747,-4.06115 -0.0478,-0.13499 -0.092,-0.26771 -0.1337,-0.40447 -0.24657,0.46899 -0.62557,1.0392 -1.22287,1.62674 -0.3054,-0.38575 -0.8672,-2.78398 -0.8672,-3.69362 0,-0.90926 -0.5605,-0.055 -0.3999,1.84675 0.1595,1.90177 0.7213,5.54048 0.3202,7.40064 -0.4011,1.86053 -1.6436,3.6382 -1.884,3.84493 -0.2404,0.20685 -0.3202,-4.05141 0.2404,-6.73872 0.4857,-2.32231 0.834,-3.66667 0.9199,-3.99068 -0.039,0.11121 -0.173,0.31668 -0.6795,0.47634 0,0 -0.5213,0 -0.5814,-1.77767 0,0 -0.4404,0.92976 -0.5201,3.94804 -0.031,1.12839 -0.4133,2.07371 -0.8917,2.81876 -0.2883,-1.88255 -0.644,-3.62555 -0.9224,-4.87058 0.052,-0.16018 0.095,-0.32212 0.1497,-0.48051 0,0 -0.072,0.13866 -0.1754,0.36158 -0.2466,-1.09411 -0.4257,-1.77729 -0.4257,-1.77729 0,0 0.064,1.05324 0.096,2.56156 -0.4097,1.05425 -0.9518,2.81775 -1.2253,5.13551 -0.4416,-2.95287 -0.9298,-7.26008 -0.8071,-11.32211 0.1729,-5.77378 0.053,-7.54968 0,-8.01374 0.3594,-0.66307 0.7469,-1.34346 1.1738,-2.04638 0,0 -4.4942,4.12655 -6.5008,12.53197 -0.3263,-0.33767 -0.6366,-0.61954 -0.9494,-0.91154 0.1214,-0.41459 0.2539,-0.81805 0.3974,-1.20847 -0.1276,0.32122 -0.2784,0.69962 -0.4563,1.1523 -2.9781,-2.75614 -5.3172,-3.54357 -5.3172,-3.54357 0,0 2.4777,1.88432 4.8867,4.64855 -1.1787,3.05358 -2.9131,7.75805 -4.0845,11.88903 -1.364,1.48858 -1.364,-2.72856 -1.364,-5.37475 0,-2.64581 -1.5221,-12.0726 1.0426,-17.86055 0,0 -3.8477,6.69772 -6.0126,22.32565 -1.9233,3.72107 -1.9638,3.72107 -2.3244,1.65419 -0.3606,-2.06738 -1.4032,-7.56625 -2.6457,-8.80635 0,0 1.31,3.98295 0.3471,6.57374 -0.9616,2.5909 -3.6343,-2.37078 -3.2602,-4.52052 0.3741,-2.14976 1.0696,-4.96118 1.8705,-6.17421 0,0 -2.512,3.19768 -3.5804,7.16685 -1.0695,3.96866 -2.8321,-5.12691 1.5504,-10.85995 0,0 -2.7794,3.14226 -3.5276,8.37885 0,0 -2.2446,-6.44975 -5.8789,-8.76473 0,0 3.3129,3.19034 3.7937,6.80438 0,0 -1.6558,-3.60721 -3.7937,-4.10365 0,0 3.9017,3.41819 4.4352,9.31646 0,0 -1.0156,0.8269 -1.6558,-2.37027 0,0 -1.2303,2.09484 -1.0696,5.51253 0,0 -1.4425,-5.05947 -0.2944,-8.86164 0,0 -1.6828,2.60508 -1.6828,6.94582 0,4.3415 -2.1649,1.2821 -2.0043,-0.49606 0.1607,-1.7778 1.3628,-4.5476 0.2,-6.11892 0,0 0.1202,2.19137 -1.0021,4.17589 -1.1224,1.98464 -1.8841,3.67945 -2.0043,2.72868 -0.1202,-0.95089 -0.039,-6.49087 1.0021,-9.05432 0,0 -1.2817,1.69493 -1.4829,4.92006 0,0 -1.0953,-4.21714 -4.3016,-5.43017 0,0 4.1409,2.74272 2.3379,7.24907 -1.2425,3.76219 -0.7617,4.67196 -1.6032,3.26613 -0.8414,-1.40559 -1.5234,-2.89417 -2.5255,-3.10064 0,0 -0.8021,-6.73922 0.2404,-9.05458 0,0 -2.0447,3.6382 -2.6849,6.36726 -0.6415,2.72869 -0.2012,5.08529 -0.7617,4.75433 -0.5618,-0.33034 -1.9245,-2.52171 -2.0447,-3.34849 -0.1202,-0.82702 0.5213,-3.05952 1.3627,-3.55597 0,0 -1.6436,0.53757 -2.084,2.19138 0,0 0.2809,-2.93541 -0.5617,-4.09315 -0.8415,-1.15762 -1.5234,-2.68744 -1.5234,-2.68744 0,0 1.5908,4.63084 0.1741,7.5245 0,0 -0.715,-1.17001 -1.2155,-2.51487 0.4391,1.88672 1.0132,4.68296 0.8954,5.98797 -0.1877,2.06739 -2.0042,4.41032 -2.0042,4.41032 0,0 -0.6955,-4.57543 0,-6.50503 0.4084,-1.13535 0.7948,-2.83977 1.0475,-4.06115 -0.048,-0.13499 -0.092,-0.26771 -0.1337,-0.40447 -0.2478,0.46899 -0.6256,1.0392 -1.2229,1.62674 -0.3054,-0.38575 -0.8672,-2.78398 -0.8672,-3.69362 0,-0.90926 -0.5605,-0.055 -0.4011,1.84675 0.1607,1.90177 0.7212,5.54048 0.3214,7.40064 -0.4011,1.86053 -1.6436,3.6382 -1.884,3.84493 -0.2404,0.20685 -0.3214,-4.05141 0.2404,-6.73872 0.4845,-2.32231 0.834,-3.66667 0.9199,-3.99068 -0.039,0.11121 -0.1729,0.31668 -0.6795,0.47634 0,0 -0.5213,0 -0.5814,-1.77767 0,0 -0.4404,0.92976 -0.5213,3.94804 -0.08,3.01815 -2.685,4.7342 -2.8861,4.77532 -0.2,0.0412 0.021,-3.86568 1.2229,-7.30765 0,0 -1.2045,2.23034 -1.6964,6.00087 -0.5544,-3.91426 -1.4706,-7.41658 -1.4706,-7.41658 0,0 0.05,0.83829 0.083,2.08333 -0.3508,0.36563 -0.9543,1.08676 -1.6375,2.33788 -0.2699,-2.46971 -0.4649,-5.31264 -0.3827,-8.04625 0.1729,-5.77378 0.053,-7.54968 0,-8.01374 0.3594,-0.66307 0.747,-1.34346 1.175,-2.04638 0,0 -4.4941,4.12655 -6.502,12.53197 -0.3263,-0.33767 -0.6354,-0.61954 -0.9494,-0.91154 0.1214,-0.41497 0.2551,-0.81906 0.3986,-1.20987 -0.1287,0.32123 -0.2796,0.70014 -0.4575,1.1537 -2.9781,-2.75614 -5.3172,-3.54357 -5.3172,-3.54357 0,0 2.4789,1.88432 4.8879,4.64855 -1.1799,3.05358 -2.9143,7.75805 -4.0857,11.88903 -1.3627,1.48858 -1.3627,-2.72856 -1.3627,-5.37475 0,-2.64581 -1.5234,-12.0726 1.0414,-17.86055 0,0 -3.8478,6.69772 -6.0127,22.32565 -1.9233,3.72107 -1.9637,3.72107 -2.3244,1.65419 -0.3606,-2.06738 -1.4032,-7.56625 -2.6457,-8.80635 0,0 1.31,3.98295 0.3471,6.57374 -0.9616,2.5909 -3.6343,-2.37078 -3.2602,-4.52052 0.3741,-2.14976 1.0696,-4.96118 1.8705,-6.17421 0,0 -2.5108,3.19768 -3.5803,7.16685 -1.0684,3.96866 -2.8322,-5.12691 1.5504,-10.85995 0,0 -2.7795,3.14226 -3.5277,8.37885 0,0 -2.2446,-6.44975 -5.8791,-8.76473 0,0 3.3131,3.19034 3.7952,6.80438 0,0 -1.6572,-3.60721 -3.7952,-4.10365 0,0 3.9019,3.41819 4.4367,9.31646 0,0 -1.0156,0.8269 -1.6571,-2.37027 0,0 -1.2295,2.09484 -1.0692,5.51253 0,0 -1.4432,-5.05947 -0.294,-8.86164 0,0 -1.6835,2.60508 -1.6835,6.94582 0,4.3415 -2.1645,1.2821 -2.0042,-0.49606 0.1604,-1.7778 1.3628,-4.5476 0.2004,-6.11892 0,0 0.1203,2.19137 -1.0021,4.17589 -1.1223,1.98464 -1.8839,3.67945 -2.0041,2.72868 -0.1203,-0.95089 -0.04,-6.49087 1.0021,-9.05432 0,0 -1.2827,1.69493 -1.483,4.92006 0,0 -1.0957,-4.21714 -4.3025,-5.43017 0,0 4.142,2.74272 2.3382,7.24907 -1.2425,3.76219 -0.7616,4.67196 -1.6032,3.26613 -0.8418,-1.40559 -1.5233,-2.89417 -2.5253,-3.10064 0,0 -0.8017,-6.73922 0.2405,-9.05458 0,0 -2.0443,3.6382 -2.6857,6.36726 -0.6414,2.72869 -0.2004,5.08529 -0.7616,4.75433 -0.5611,-0.33034 -1.924,-2.52171 -2.0442,-3.34849 -0.1202,-0.82702 0.5211,-3.05952 1.3629,-3.55597 0,0 -1.6435,0.53757 -2.0843,2.19138 0,0 0.2805,-2.93541 -0.5612,-4.09315 -0.8419,-1.15762 -1.5233,-2.68744 -1.5233,-2.68744 0,0 1.59,4.63084 0.1737,7.5245 0,0 -0.7148,-1.17001 -1.2156,-2.51487 0.4394,1.88672 1.0131,4.68296 0.895,5.98797 -0.1,1.10334 -0.6613,2.27424 -1.1655,3.13644 -0.2225,-1.43785 -0.6333,-2.81382 -1.0826,-4.03091 0.048,-0.45305 0.1242,-0.86763 0.244,-1.20024 0.4088,-1.13535 0.7954,-2.83939 1.0474,-4.06065 -0.048,-0.13549 -0.091,-0.26821 -0.1334,-0.40497 -0.2474,0.46899 -0.6258,1.03958 -1.2229,1.62674 -0.3059,-0.38575 -0.867,-2.78398 -0.867,-3.69362 0,-0.90926 -0.5612,-0.055 -0.4007,1.84675 0.077,0.91521 0.2458,2.23388 0.3566,3.5619 -0.5536,-1.16229 -0.9986,-1.90809 -0.9986,-1.90809 0.2445,0.42723 0.6902,1.58865 1.0634,2.84064 0.063,1.10423 0.062,2.15253 -0.1009,2.90619 -0.2981,1.38357 -1.0608,2.71932 -1.5316,3.39934 -0.2054,-0.52618 -0.3671,-1.06893 -0.5319,-1.60979 0.01,-1.40837 0.1226,-3.2589 0.4201,-4.68334 0.485,-2.32282 0.8342,-3.66755 0.9203,-3.99118 -0.039,0.11121 -0.1727,0.31718 -0.6798,0.47684 0,0 -0.521,0 -0.5813,-1.77767 0,0 -0.4408,0.92976 -0.521,3.94804 -0.026,0.99238 -0.3362,1.82852 -0.7332,2.52588 -0.52,-1.29451 -1.0514,-2.30435 -1.5178,-3.02017 0.1642,-0.67674 0.352,-1.36397 0.5875,-2.03804 0,0 -0.3488,0.63561 -0.7481,1.80474 -0.7,-1.01858 -1.2166,-1.44278 -1.2166,-1.44278 0.4176,0.35639 0.7851,1.07677 1.0651,1.92784 -0.359,1.14623 -0.7279,2.67377 -0.9041,4.56303 0,0 -0.025,-1.38054 -0.3227,-2.7483 0.036,-0.98833 0.1617,-1.79967 0.1617,-1.79967 -0.1618,0.26859 -0.2882,0.59083 -0.4005,0.9271 -0.1121,-0.33627 -0.2386,-0.65851 -0.4005,-0.9271 0,0 0.1253,0.81134 0.1617,1.79967 -0.2973,1.36776 -0.3226,2.7483 -0.3226,2.7483 -0.1761,-1.88926 -0.5452,-3.4168 -0.9041,-4.56303 0.2798,-0.85107 0.6473,-1.57145 1.065,-1.92784 0,0 -0.5166,0.4242 -1.2166,1.44278 -0.3994,-1.16913 -0.7482,-1.80474 -0.7482,-1.80474 0.2355,0.67407 0.4233,1.36181 0.5876,2.03804 -0.4666,0.71582 -0.9979,1.72566 -1.5177,3.02017 -0.3972,-0.69736 -0.7069,-1.5335 -0.7333,-2.52588 -0.08,-3.01828 -0.5212,-3.94804 -0.5212,-3.94804 -0.06,1.77767 -0.5811,1.77767 -0.5811,1.77767 -0.5068,-0.15966 -0.6406,-0.36513 -0.6796,-0.47634 0.086,0.32401 0.4352,1.66837 0.92,3.99068 0.2976,1.42393 0.4115,3.27497 0.4204,4.68334 -0.1651,0.54086 -0.3267,1.08361 -0.5321,1.60979 -0.4708,-0.68002 -1.2335,-2.01577 -1.5316,-3.39934 -0.1626,-0.75366 -0.1637,-1.80196 -0.1007,-2.90619 0.3732,-1.25199 0.8187,-2.41341 1.0633,-2.84064 0,0 -0.4449,0.7458 -0.9987,1.90809 0.1109,-1.32802 0.2795,-2.64669 0.3568,-3.5619 0.1602,-1.90178 -0.401,-2.75601 -0.401,-1.84675 0,0.90964 -0.561,3.30787 -0.8669,3.69362 -0.5972,-0.58754 -0.9755,-1.15775 -1.2229,-1.62674 -0.042,0.13638 -0.085,0.26948 -0.1333,0.40447 0.252,1.22138 0.6386,2.9258 1.0475,4.06115 0.1197,0.33261 0.1959,0.74719 0.2438,1.20024 -0.4493,1.21709 -0.8599,2.59306 -1.0824,4.03091 -0.5045,-0.8622 -1.0659,-2.0331 -1.1658,-3.13644 -0.118,-1.30501 0.4557,-4.10125 0.8952,-5.98797 -0.501,1.34486 -1.2158,2.51487 -1.2158,2.51487 -1.4162,-2.89366 0.1738,-7.5245 0.1738,-7.5245 0,0 -0.6815,1.52982 -1.5232,2.68744 -0.8417,1.15774 -0.5612,4.09315 -0.5612,4.09315 -0.441,-1.65381 -2.0844,-2.19138 -2.0844,-2.19138 0.8417,0.49645 1.4831,2.72895 1.3629,3.55597 -0.1202,0.82678 -1.4831,3.01815 -2.0443,3.34849 -0.5611,0.33096 -0.1202,-2.02564 -0.7615,-4.75433 -0.6414,-2.72906 -2.6856,-6.36726 -2.6856,-6.36726 1.0421,2.31536 0.2404,9.05458 0.2404,9.05458 -1.0021,0.20647 -1.6834,1.69505 -2.5251,3.10064 -0.8418,1.40583 -0.3609,0.49606 -1.6035,-3.26613 -1.8037,-4.50635 2.3382,-7.24907 2.3382,-7.24907 -3.2066,1.21303 -4.3022,5.43017 -4.3022,5.43017 -0.2004,-3.22513 -1.4832,-4.92006 -1.4832,-4.92006 1.0421,2.56345 1.1224,8.10343 1.0022,9.05432 -0.1203,0.95077 -0.8819,-0.74404 -2.0043,-2.72868 -1.1223,-1.98452 -1.0021,-4.17589 -1.0021,-4.17589 -1.1624,1.57132 0.04,4.34112 0.2004,6.11892 0.1605,1.77816 -2.0041,4.83756 -2.0041,0.49606 0,-4.34074 -1.6836,-6.94582 -1.6836,-6.94582 1.1493,3.80217 -0.2938,8.86164 -0.2938,8.86164 0.1603,-3.41769 -1.069,-5.51253 -1.069,-5.51253 -0.6413,3.19717 -1.6567,2.37027 -1.6567,2.37027 0.5345,-5.89827 4.4359,-9.31646 4.4359,-9.31646 -2.1378,0.49644 -3.7946,4.10365 -3.7946,4.10365 0.481,-3.61404 3.7946,-6.80438 3.7946,-6.80438 -3.6343,2.31498 -5.8789,8.76473 -5.8789,8.76473 -0.7482,-5.23659 -3.5274,-8.37885 -3.5274,-8.37885 4.3825,5.73304 2.6188,14.82861 1.5498,10.85995 -1.0687,-3.96917 -3.5807,-7.16685 -3.5807,-7.16685 0.8018,1.21303 1.4965,4.02445 1.8706,6.17421 0.374,2.14974 -2.2982,7.11142 -3.2602,4.52052 -0.9619,-2.59079 0.3475,-6.57374 0.3475,-6.57374 -1.2427,1.2401 -2.2848,6.73897 -2.6456,8.80635 -0.3607,2.06688 -0.4008,2.06688 -2.3247,-1.65419 -2.1647,-15.62793 -6.0127,-22.32565 -6.0127,-22.32565 2.5654,5.78795 1.0424,15.21473 1.0424,17.86055 0,2.64619 0,6.86333 -1.363,5.37475 -1.1721,-4.13098 -2.9066,-8.83545 -4.0856,-11.88903 2.4088,-2.76423 4.8873,-4.64855 4.8873,-4.64855 0,0 -2.3391,0.78743 -5.3172,3.54357 -0.1777,-0.45268 -0.3284,-0.83108 -0.4569,-1.1523 0.1439,0.39042 0.2763,0.79388 0.398,1.20847 -0.3134,0.292 -0.6236,0.57387 -0.9491,0.91154 -2.0074,-8.40542 -6.5016,-12.53197 -6.5016,-12.53197 0.4272,0.70292 0.8148,1.38331 1.1746,2.04638 -0.052,0.46406 -0.1724,2.23996 0,8.01374 0.2138,7.1113 -1.443,14.99421 -1.443,14.99421 -0.032,-0.12082 -0.075,6.37144 -0.1099,12.95467 h -0.064 v 20.28612 h 891.46003 V 204.13765 191.18691 169.706 c -0.18153,-2.06511 -0.29192,-4.30127 -0.22694,-6.46796 0.17419,-5.77379 0.0528,-7.54968 0,-8.01374 0.0699,-0.12765 0.15455,-0.26454 0.22569,-0.39309 v -0.62232"
       style="display:inline;fill:url(#linearGradient354);fill-opacity:1;fill-rule:nonzero;stroke:none;stroke-width:0.0124571"
       id="path1483" />
  </g>
</svg>
