<?xml version="1.0" encoding="UTF-8" standalone="no"?>
<!-- Created with Inkscape (http://www.inkscape.org/) -->
<!-- 2563.9512 193.74841-->
<svg
        width="2500mm"
        height="193.74841mm"
        viewBox="0 0 2500 193.74841"
        version="1.1"
        id="svg2719"
        inkscape:version="1.2.2 (b0a8486541, 2022-12-01)"
        sodipodi:docname="grass_blanc.svg"
        xmlns:inkscape="http://www.inkscape.org/namespaces/inkscape"
        xmlns:sodipodi="http://sodipodi.sourceforge.net/DTD/sodipodi-0.dtd"
        xmlns="http://www.w3.org/2000/svg"
        xmlns:svg="http://www.w3.org/2000/svg">
        <sodipodi:namedview
            id="namedview2721"
            pagecolor="#ffffff"
            bordercolor="#000000"
            borderopacity="0.25"
            inkscape:showpageshadow="2"
            inkscape:pageopacity="0.0"
            inkscape:pagecheckerboard="0"
            inkscape:deskcolor="#d1d1d1"
            inkscape:document-units="mm"
            showgrid="false"
            inkscape:zoom="0.093873632"
            inkscape:cx="4846.9415"
            inkscape:cy="399.4732"
            inkscape:window-width="1920"
            inkscape:window-height="1018"
            inkscape:window-x="1920"
            inkscape:window-y="0"
            inkscape:window-maximized="1"
            inkscape:current-layer="layer1" />
        <defs
            id="defs2716" />
        <g
            inkscape:label="Calque 1"
            inkscape:groupmode="layer"
            id="layer1"
            transform="translate(1205.8782,-48.63109)">
            <path
                d="m -1190.0333,95.647544 c -0.042,0.05929 -0.082,0.102182 -0.1238,0.16147 -4.383,6.186576 -6.905,12.294096 -8.3454,17.513566 0.4721,-2.89546 0.9737,-6.56669 1.4281,-11.34213 1.2524,-13.150622 -3.1045,-40.937864 -3.9451,-46.111488 7.783,16.7138 10.2083,29.640729 10.9862,39.778582 z m 1.2598,23.795166 c 3.0095,11.48636 -5.0726,13.00934 -5.8413,0.36793 0.388,-5.64373 2.2997,-11.27359 4.9336,-16.54057 0.1171,6.80889 -0.168,12.06914 0.9077,16.17264 z m 6.5352,-28.083674 c 4.2841,21.046884 2.1674,46.099294 -0.9247,27.900764 0.086,-8.86589 -0.6085,-16.87652 -1.791,-24.049979 0.8893,-1.332509 1.7963,-2.611198 2.7157,-3.850785 z m 161.278,16.675534 c 1.5109,8.2171 1.7519,15.17357 1.3292,15.07307 -0.1746,-0.0425 -1.0131,-0.65384 -2.0637,-1.68193 -0.7726,-3.41726 -0.3623,-8.76455 0.7345,-13.39114 z m 9.2318,0 c 1.0968,4.6249 1.5071,9.97388 0.7345,13.39114 -1.0506,1.02809 -1.8891,1.63947 -2.0637,1.68193 -0.4223,0.1005 -0.1817,-6.85597 1.3292,-15.07307 z m 161.2784,-16.675534 c 0.91722,1.239587 1.82739,2.518276 2.71639,3.850785 -1.18181,7.173459 -1.87678,15.184089 -1.79211,24.049979 -3.09034,18.19853 -5.207,-6.85388 -0.92428,-27.900764 z m 6.53697,28.083674 c 0.44097,-1.69412 0.64206,-3.60733 0.74436,-5.71857 0.55739,-2.39045 1.20297,-4.7481 1.83797,-6.77231 1.74273,4.1733 2.95628,8.5089 3.25614,12.85881 -0.53622,8.83604 -4.58611,10.62477 -5.98311,7.05319 -0.0494,-1.11302 -0.127,-2.15036 -0.27869,-2.93161 -0.0811,-0.39988 -0.0776,-0.94903 -0.0847,-1.47548 0.0988,-0.93221 0.21167,-1.88419 0.508,-3.01403 z m 0.90664,-16.17264 c 0.51505,1.03103 0.97719,2.08182 1.42875,3.13765 -0.45861,1.04616 -0.9525,2.23109 -1.49225,3.59346 0.0176,-2.05449 0.0212,-4.29188 0.0635,-6.73111 z m 11.33828,-47.401108 c -0.84314,5.173624 -5.19642,32.960866 -3.94759,46.111488 0.45509,4.77249 0.95603,8.44373 1.42875,11.3396 -1.43933,-5.21988 -3.96169,-11.32741 -8.34319,-17.511036 -0.0423,-0.05929 -0.0847,-0.102178 -0.12347,-0.16147 0.77611,-10.137853 3.20322,-23.064782 10.9855,-39.778582 z m 6.02191,45.393718 c 0.14112,6.17018 0.16934,15.24506 -0.52916,22.8596 -1.04422,2.50314 -1.524,2.26893 -2.68111,-2.27061 -0.14464,-1.05542 -0.28928,-2.17769 -0.43745,-3.35673 -0.28222,-5.68031 1.30881,-13.56564 3.64772,-17.23226 z m 169.20282,7.31516 c -0.21872,3.4282 -0.35983,6.95311 -0.32455,10.68196 -0.75142,4.41676 -1.44287,6.25428 -2.00025,6.25091 -0.0494,-0.56723 -0.10231,-1.1332 -0.1905,-1.57849 -0.59973,-3.04052 0.94544,-10.00415 2.5153,-15.35438 z m -1.24883,-17.218804 c 0.91722,1.239587 1.82739,2.518276 2.71639,3.850785 -0.58914,3.572429 -1.00542,7.419859 -1.31586,11.410669 -1.12537,2.57798 -2.51531,6.13948 -3.80648,10.27619 -0.0917,-6.7723 0.56798,-16.51491 2.40595,-25.537644 z m 6.53344,28.083674 c 1.07597,-4.1035 0.79022,-9.36375 0.91017,-16.17264 1.51342,3.02622 2.74461,6.1748 3.63008,9.37595 -1.31586,3.32897 -2.63525,7.38369 -3.81,12.38702 -0.18344,0.78631 -0.45508,1.54066 -0.65969,2.32066 -0.7867,-1.45488 -1.07597,-4.06651 -0.0706,-7.91099 z m 9.72961,-6.12013 c -0.40922,-1.48894 -0.93133,-3.05986 -1.53458,-4.67494 0.17639,-0.79387 0.35631,-1.57093 0.5715,-2.31476 0.32103,2.76216 0.64558,5.04916 0.96308,6.9897 z m 2.51884,-57.453618 c -0.84314,5.173624 -5.19995,32.960866 -3.94759,46.111488 0.0847,0.87587 0.17287,1.61045 0.26106,2.4182 -0.38806,0.63241 -0.78669,1.34597 -1.21356,2.1411 -1.45344,-3.43997 -3.36902,-7.067061 -5.96194,-10.730736 -0.0423,-0.05929 -0.0847,-0.102178 -0.127,-0.16147 0.77964,-10.137853 3.20322,-23.064782 10.98903,-39.778582 z m 6.07483,48.508248 c 0.067,5.19213 0.0141,11.57969 -0.40217,17.42568 -0.86783,0.80606 -1.53105,1.2686 -1.68275,1.30475 -0.4833,0.11564 -0.0917,-9.02778 2.08492,-18.73043 z m 161.57223,8.35374 c -0.0741,2.13984 -0.14816,4.28136 -0.127,6.52885 -0.42686,2.51282 -0.83255,4.17036 -1.2065,5.15724 -0.0247,-0.14885 -0.0317,-0.34816 -0.06,-0.48482 -0.45155,-2.28911 0.3175,-6.81941 1.39347,-11.20127 z m -1.05127,-21.371914 c 0.92075,1.239587 1.82738,2.518276 2.71638,3.850785 -0.72319,4.389008 -1.23825,9.123229 -1.52752,14.143809 -1.15006,2.85887 -2.41653,6.34174 -3.51014,10.28966 -0.3422,-6.6735 0.21872,-17.95171 2.32128,-28.284254 z m 6.53697,28.083674 c 1.07597,-4.1035 0.79022,-9.36375 0.90664,-16.17264 1.74625,3.49338 3.12561,7.14949 4.00403,10.86025 -1.12889,3.04935 -2.25073,6.6016 -3.25967,10.90146 -0.254,1.07518 -0.61031,2.11083 -0.90311,3.17213 -1.28764,-0.99739 -2.01436,-3.93699 -0.74789,-8.7612 z m 12.24492,-63.573748 c -0.83962,5.173624 -5.19642,32.960866 -3.94406,46.111488 0.127,1.35059 0.26106,2.53804 0.39864,3.72885 -0.29986,0.5357 -0.62089,1.18492 -0.93839,1.80724 -1.48872,-3.72338 -3.53836,-7.69695 -6.37822,-11.707526 -0.0423,-0.05929 -0.0811,-0.102178 -0.12347,-0.16147 0.77611,-10.137853 3.20322,-23.064782 10.9855,-39.778582 z m 6.09952,52.999428 c -0.0106,4.43736 -0.13758,9.29689 -0.48683,13.77546 -0.34572,0.26155 -0.61383,0.44277 -0.70203,0.46379 -0.40569,0.0971 -0.18344,-6.39975 1.18886,-14.23925 z m 430.290142,5.83547 c 0.15875,1.77613 0.225778,3.36387 0.134056,4.55594 -0.130528,1.62475 -0.529167,3.29407 -1.051278,4.90621 -0.01058,-0.0685 -0.01411,-0.16693 -0.02822,-0.23379 -0.384528,-1.94348 0.130528,-5.51338 0.945444,-9.22836 z M 0.45347893,101.46662 c -0.3527778,1.24085 -0.66322226,2.46656 -0.90311117,3.64055 -1.84150016,9.06899 -0.57502786,16.90134 -2.18722236,15.80303 -0.045861,-0.0303 -0.1058333,-0.10932 -0.1552222,-0.14885 -0.9525001,-5.47848 0.6526389,-14.97553 3.24555573,-19.29473 z M 16.727119,111.70329 c 0.970139,-5.35528 1.742722,-9.12071 2.215444,-11.30428 1.04775,3.60733 1.277056,7.99929 -0.483305,13.08965 -2.074334,7.24956 -2.480028,11.22019 -2.924528,12.44506 0.07761,-4.47605 0.419805,-9.9436 1.192389,-14.23043 z M 61.261788,90.960419 c 1.576917,1.636522 3.877028,4.520198 5.235223,8.472742 -0.691445,1.628539 -2.656417,6.800899 -3.975806,14.712299 -0.41275,1.52215 -0.843139,2.32569 -1.266472,2.52122 -0.310445,-3.06574 -0.948973,-6.86775 -2.204861,-9.60678 0.0035,-4.59295 0.627944,-10.308165 2.211916,-16.099481 z m 5.707945,10.068061 c -0.687917,1.55873 -1.351139,3.24697 -1.993194,5.02141 0.437444,-2.13185 0.9525,-4.29776 1.573389,-6.438866 0.155222,0.459176 0.296333,0.930536 0.419805,1.417456 z m 28.183419,-4.925972 c -0.186973,0.953661 -0.370417,1.960298 -0.557389,2.947173 -0.112889,-2.103262 -0.402167,-4.31122 -1.037167,-6.029735 0.532694,0.927587 1.061861,2.001083 1.594556,3.082562 z m 0.197555,0.389375 c 0.596195,1.226968 1.150056,2.568307 1.700389,3.982817 -0.620889,0.6753 -1.210028,1.52846 -1.700389,2.53972 z m 5.344583,19.653397 c 0,0 -0.60325,0.505 -1.421694,0.15222 -1.30175,-2.39213 -2.469444,-5.07524 -2.652889,-6.51792 -0.194028,-1.55495 0.324556,-4.58579 1.23825,-7.23947 1.354667,3.94498 2.434163,8.47401 2.836333,13.60517 z m 14.7567,-5.8628 c 0.89252,-5.94648 2.43416,-13.373903 4.25097,-18.037065 2.20486,2.646522 4.91067,7.062862 5.16114,12.921045 -0.33867,-0.65974 -0.68439,-1.30014 -1.03717,-1.70801 0,0 0.49036,1.75216 0.98778,4.34991 -0.1517,1.78663 -0.52211,3.67544 -1.21708,5.6803 -2.39889,8.39034 -2.57528,12.42193 -3.15384,12.81425 -2.86455,-3.29533 -5.67266,-11.51117 -4.9918,-16.02043 z m 42.54147,5.8628 c 0,0 -2.921,2.74828 -4.76603,-7.87776 0,0 -0.381,0.79093 -0.86077,2.14405 -0.15875,-3.73473 -0.66323,-9.59922 -0.9772,-16.406436 2.88925,5.26656 5.86317,12.721736 6.604,22.140146 z m -1.84503,-17.325184 c 0,0 -1.93322,-4.828413 -4.91066,-8.78138 -0.0565,-1.733652 -0.0847,-3.513138 -0.0953,-5.318277 2.24014,3.943717 4.40266,8.855806 5.00591,14.099657 z M 166.89757,89.1536 c 0.39511,0.507944 0.79375,1.057095 1.19239,1.584798 -1.09008,3.265477 -2.34244,7.091881 -3.6583,11.249622 0.34572,-3.99964 1.09713,-8.421025 2.46591,-12.83442 z m 1.65806,2.205436 c 0.92075,1.239587 1.82739,2.518276 2.71639,3.850785 -0.58209,3.526596 -0.99484,7.322729 -1.30175,11.255509 -0.80434,2.2601 -1.55928,4.61733 -2.14136,7.11627 -0.53623,2.29625 -1.12889,3.20828 -1.67923,3.15993 -0.0776,-6.76474 0.58561,-16.42787 2.40595,-25.382494 z m 6.53697,28.083674 c 0.39864,-1.52719 0.60325,-3.22258 0.71614,-5.08575 0.5715,-2.54014 1.25942,-5.07649 1.93675,-7.25124 1.70744,4.12621 2.89278,8.4101 3.18911,12.70492 -0.22578,3.7217 -1.10772,6.07725 -2.13078,7.45055 -1.37936,-0.94441 -2.83986,-3.30332 -3.99697,-6.1151 0.0988,-0.57648 0.11642,-1.06466 0.28575,-1.70338 z m 0.90664,-16.17264 c 0.53622,1.07223 1.01953,2.16717 1.48872,3.26674 -0.47978,1.09662 -0.99836,2.3299 -1.55575,3.76123 0.0247,-2.1369 0.0247,-4.46974 0.067,-7.02797 z m 0.54328,-9.801468 c 0.50447,-1.464963 1.03716,-2.743656 1.5875,-3.70488 0,0 -0.57856,0.865357 -1.43228,2.306772 1.06539,-9.564321 3.74297,-21.388738 10.63978,-36.201532 -0.83961,5.173624 -5.19642,32.960866 -3.94406,46.111488 0.38453,4.03454 0.80081,7.28026 1.2065,9.95663 -1.05128,-3.81547 -2.2225,-7.03679 -3.47486,-8.47863 0,0 0.06,0.22076 0.12347,0.45665 -1.28058,-2.6419 -2.82927,-5.362854 -4.77308,-8.106086 -0.0423,-0.05929 -0.0811,-0.102178 -0.12347,-0.16147 0.0529,-0.714816 0.11641,-1.43553 0.1905,-2.178942 z m 16.82044,7.947558 c 0.13759,6.27488 0.15523,15.4595 -0.5715,23.09086 -0.95602,2.14699 -1.42875,1.67394 -2.55764,-2.77267 -1.34055,-5.2817 0.36689,-15.78159 3.12914,-20.31819 z m 97.92759,2.97492 c 1.06892,3.51146 1.93675,7.39253 2.27542,11.7542 0,0 -2.00731,1.78243 -3.7465,-3.65905 0.34925,-2.51659 0.83608,-5.26655 1.47108,-8.09515 z m 107.41732,5.8914 c 0.49036,-3.25748 1.17827,-6.95901 1.99672,-10.419163 1.1818,3.703203 1.524,8.282683 -0.32456,13.625343 -0.38453,1.34261 -0.68791,2.52627 -0.96661,3.65106 -0.66675,-2.51364 -0.98425,-4.99997 -0.70555,-6.85724 z m 9.03111,-4.0892 c 0.72672,3.34536 1.6898,9.21279 1.17475,14.61474 -0.81139,1.38592 -1.34761,1.78075 -1.50284,0.37592 -0.1905,-1.74753 -0.20461,-8.16538 0.32809,-14.99066 z m 159.16276,-5.21653 c 1.62983,4.30071 2.98802,9.31498 3.44664,15.16853 0,0 -0.13759,0.10176 -0.33162,0.19174 -0.34572,-3.21964 -1.03011,-7.2012 -2.41652,-9.85655 0,0 0.60677,4.58999 0.45508,9.10515 -0.8255,-1.00075 -1.73214,-3.06112 -2.47297,-7.3181 0,0 -1.66864,3.387 -2.56117,9.19345 -0.0564,-5.75305 1.57339,-13.17669 3.88056,-16.48422 z m 18.20333,9.30573 c 0.45861,-3.05523 1.09714,-6.50152 1.84503,-9.77414 0.61383,6.58982 1.54869,15.70127 0.59619,20.81268 -0.0317,0.15936 -0.0811,0.3162 -0.11289,0.47598 -1.65452,-3.76711 -2.78694,-8.48031 -2.32833,-11.51452 z M 997.22715,83.794535 c -1.55928,6.566694 -3.13619,14.240938 -4.61786,23.108935 -0.92428,2.23866 -1.66864,4.39995 -2.22603,6.41911 0.47273,-2.89546 0.97367,-6.56669 1.42875,-11.34213 1.25236,-13.150622 -3.10444,-40.937864 -3.94758,-46.111488 5.03414,10.803901 7.80344,20.00787 9.36272,27.925573 z m 9.41915,7.564501 c 4.2863,21.046884 2.1696,46.099294 -0.9243,27.900764 0.088,-8.86589 -0.6067,-16.87652 -1.7921,-24.049979 0.889,-1.332509 1.7992,-2.611198 2.7164,-3.850785 z m 6.7416,-8.230965 c 1.972,2.18399 4.1275,4.760291 6.2759,7.610327 -1.8027,5.396071 -4.0499,12.331102 -6.2759,19.726572 -2.226,-7.39547 -4.4697,-14.330501 -6.2724,-19.726572 2.1484,-2.850036 4.3039,-5.426337 6.2724,-7.610327 z m 9.458,12.08175 c -1.1818,7.173459 -1.8768,15.184089 -1.7886,24.049979 -3.0939,18.19853 -5.2105,-6.85388 -0.9278,-27.900764 0.9207,1.239587 1.8274,2.518276 2.7164,3.850785 z m 16.0655,-39.33918 c -0.8396,5.176997 -5.1964,32.959187 -3.9441,46.109809 0.4551,4.77249 0.956,8.44373 1.4288,11.3396 -0.5574,-2.02 -1.3018,-4.1796 -2.2296,-6.41826 -1.4781,-8.866317 -3.055,-16.540561 -4.6143,-23.107255 1.5593,-7.917703 4.3286,-17.121672 9.3592,-27.923894 z m 129.0143,52.163929 c 1.5099,8.2171 1.7498,15.17357 1.33,15.07307 -0.1764,-0.0425 -1.016,-0.65384 -2.0637,-1.68193 -0.7726,-3.41726 -0.3634,-8.76455 0.7337,-13.39114 z m 9.2322,0 c 1.0972,4.62659 1.5064,9.97388 0.7338,13.39114 -1.0513,1.02809 -1.8909,1.63947 -2.0637,1.68193 -0.4234,0.1005 -0.1835,-6.85597 1.3299,-15.07307 z m 161.2759,-16.675534 c 0.9208,1.239587 1.8274,2.518276 2.7164,3.850785 -1.1818,7.173459 -1.8767,15.184089 -1.7921,24.049979 -3.0903,18.19853 -5.207,-6.85388 -0.9243,-27.900764 z m 6.537,28.083674 c 1.076,-4.1035 0.7902,-9.36375 0.9067,-16.17264 2.6352,5.26698 4.5473,10.89515 4.9353,16.54057 -0.769,12.64141 -8.8512,11.11843 -5.842,-0.36793 z m 12.2449,-63.573748 c -0.8396,5.173624 -5.1964,32.960866 -3.944,46.111488 0.4551,4.77544 0.956,8.44667 1.4287,11.34213 -1.4428,-5.21947 -3.9652,-11.32699 -8.3467,-17.513566 -0.042,-0.05929 -0.081,-0.102178 -0.1235,-0.16147 0.7761,-10.137853 3.2033,-23.064782 10.9855,-39.778582 z m 0.8573,-3.811271 c -4.1064,5.636166 -11.8498,18.28936 -15.9703,38.224488 -0.9348,-1.122271 -1.8274,-2.059108 -2.7305,-3.029589 0.3528,-1.376243 0.7303,-2.715902 1.143,-4.011832 -0.3669,1.065926 -0.8008,2.322333 -1.3123,3.825138 -8.5619,-9.160235 -15.2894,-11.777324 -15.2894,-11.777324 0,0 7.1261,6.262684 14.0547,15.449826 -3.3902,10.148802 -8.3785,25.784472 -11.7511,39.514112 -3.9193,4.94741 -3.9193,-9.06857 -3.9193,-17.8634 0,-8.79358 -4.3815,-40.124232 2.9986,-59.360937 0,0 -11.0702,22.260399 -17.2932,74.201057 -5.5351,12.36726 -5.6515,12.36726 -6.6886,5.49782 -1.0372,-6.87112 -4.0358,-25.14702 -7.6059,-29.2686 0,0 3.7641,13.23767 0.9983,21.84833 -2.7693,8.61108 -10.4528,-7.87944 -9.3768,-15.0243 1.076,-7.14486 3.0727,-16.488846 5.3799,-20.520444 0,0 -7.2249,10.627724 -10.2976,23.819564 -3.0762,13.19014 -8.1492,-17.039683 4.4556,-36.093896 0,0 -7.994,10.443549 -10.1459,27.847786 0,0 -6.4559,-21.436251 -16.9087,-29.130264 0,0 9.5321,10.603337 10.915,22.61487 0,0 -4.7661,-11.988825 -10.915,-13.638806 0,0 11.2219,11.360627 12.76,30.96399 0,0 -2.921,2.74828 -4.766,-7.87776 0,0 -3.5349,6.96237 -3.0727,18.32132 0,0 -4.1522,-16.81556 -0.8467,-29.452362 0,0 -4.8436,8.658172 -4.8436,23.084972 0,14.42932 -6.223,4.26118 -5.7609,-1.64871 0.4586,-5.90864 3.9194,-15.11429 0.575,-20.336696 0,0 0.3458,7.283196 -2.8822,13.878906 -3.2279,6.59612 -5.4186,12.22892 -5.7643,9.06899 -0.3458,-3.16036 -0.1165,-21.572916 2.8822,-30.09275 0,0 -3.6901,5.633219 -4.2651,16.35218 0,0 -3.1503,-14.015976 -12.3755,-18.047574 0,0 11.9133,9.115666 6.724,24.092864 -3.5737,12.50393 -2.1873,15.52762 -4.6108,10.85521 -2.4201,-4.67157 -4.378,-9.61898 -7.2602,-10.30521 0,0 -2.3072,-22.398322 0.6914,-30.093591 0,0 -5.8808,12.091847 -7.7258,21.162101 -1.845,9.06899 -0.575,16.90134 -2.1907,15.80135 -1.6122,-1.09788 -5.5316,-8.38108 -5.8773,-11.12894 -0.3457,-2.7487 1.4958,-10.168556 3.9193,-11.818533 0,0 -4.7272,1.786636 -5.9972,7.283193 0,0 0.8079,-9.756056 -1.6122,-13.603902 -2.42,-3.847427 -4.3815,-8.931911 -4.3815,-8.931911 0,0 4.572,15.390962 0.501,25.008263 0,0 -2.0567,-3.88864 -3.4996,-8.358371 1.2665,6.270671 2.914,15.564201 2.5753,19.901481 -0.2858,3.66704 -1.9015,7.55736 -3.3514,10.42422 -0.6385,-4.7788 -1.8203,-9.35198 -3.115,-13.39704 0.1376,-1.50574 0.3598,-2.88367 0.702,-3.98912 1.1783,-3.77342 2.2895,-9.43818 3.0127,-13.49753 -0.1376,-0.448652 -0.261,-0.889741 -0.3845,-1.344281 -0.7091,1.558731 -1.7992,3.453851 -3.5172,5.406581 -0.8784,-1.28206 -2.4906,-9.252744 -2.4906,-12.276018 0,-3.022022 -1.6157,-0.182916 -1.1536,6.137797 0.2223,3.041774 0.7056,7.424471 1.0266,11.838291 -1.5946,-3.86298 -2.8752,-6.34173 -2.8752,-6.34173 0.7056,1.41997 1.9862,5.27875 3.0586,9.43943 0.1835,3.66998 0.1799,7.15579 -0.2892,9.66062 -0.8573,4.59841 -3.0516,9.03787 -4.4027,11.29797 -0.5927,-1.74879 -1.0583,-3.55267 -1.5311,-5.35024 0.025,-4.68082 0.3528,-10.83123 1.2065,-15.56546 1.397,-7.71839 2.3989,-12.18645 2.6494,-13.263308 -0.1129,0.369602 -0.4974,1.05247 -1.9544,1.583118 0,0 -1.4993,0 -1.6722,-5.908216 0,0 -1.27,3.090136 -1.4993,13.121616 -0.078,3.29827 -0.9666,6.07725 -2.1096,8.39495 -1.4958,-4.30239 -3.0233,-7.65869 -4.3638,-10.03778 0.4692,-2.24749 1.0124,-4.53324 1.6898,-6.773574 0,0 -1.0055,2.112514 -2.152,5.998194 -2.0143,-3.38531 -3.4995,-4.79519 -3.4995,-4.79519 1.1994,1.1845 2.2577,3.57874 3.0621,6.40733 -1.0337,3.81084 -2.092,8.88734 -2.6,15.16558 0,0 -0.074,-4.59 -0.9278,-9.13417 0.1058,-3.28482 0.4657,-5.98137 0.4657,-5.98137 -0.4657,0.89268 -0.8291,1.96366 -1.1536,3.0813 -0.321,-1.11764 -0.6844,-2.18862 -1.1501,-3.0813 0,0 0.3599,2.69655 0.4657,5.98137 -0.8573,4.54417 -0.9313,9.13417 -0.9313,9.13417 -0.5045,-6.27824 -1.5664,-11.35474 -2.6,-15.16558 0.8078,-2.82859 1.8627,-5.22283 3.0656,-6.40733 0,0 -1.4852,1.40988 -3.4995,4.79519 -1.1501,-3.88568 -2.152,-5.998194 -2.152,-5.998194 0.6774,2.240334 1.2171,4.526084 1.6898,6.773574 -1.3405,2.37909 -2.8716,5.73539 -4.3638,10.03778 -1.143,-2.3177 -2.0356,-5.09668 -2.1096,-8.39495 -0.2329,-10.03148 -1.4993,-13.121616 -1.4993,-13.121616 -0.1729,5.908216 -1.6722,5.908216 -1.6722,5.908216 -1.457,-0.530648 -1.8415,-1.213516 -1.9544,-1.583118 0.2505,1.076858 1.2524,5.544918 2.6458,13.263308 0.8573,4.73423 1.1854,10.88464 1.2101,15.56546 -0.4763,1.79757 -0.942,3.60145 -1.5311,5.35024 -1.3547,-2.2601 -3.5489,-6.69956 -4.4062,-11.29797 -0.4657,-2.50483 -0.4692,-5.98895 -0.2893,-9.65894 1.0725,-4.1611 2.3566,-8.02114 3.0586,-9.44111 0,0 -1.2806,2.47875 -2.8716,6.34173 0.3175,-4.41382 0.8043,-8.794834 1.0266,-11.838291 0.4621,-6.320713 -1.1536,-9.159819 -1.1536,-6.137797 0,3.023274 -1.6122,10.993958 -2.4941,12.276018 -1.7181,-1.95273 -2.8046,-3.84785 -3.5172,-5.406581 -0.12,0.45454 -0.247,0.895629 -0.3846,1.344281 0.7268,4.05935 1.838,9.72411 3.0128,13.49753 0.3457,1.10545 0.5644,2.48338 0.702,3.98912 -1.2912,4.04506 -2.473,8.61824 -3.1115,13.39704 -1.4535,-2.86686 -3.0656,-6.75718 -3.3549,-10.42422 -0.3387,-4.33728 1.3123,-13.63081 2.5753,-19.901481 -1.4394,4.469731 -3.4961,8.358371 -3.4961,8.358371 -4.0746,-9.617301 0.501,-25.008263 0.501,-25.008263 0,0 -1.9615,5.084484 -4.3815,8.931911 -2.4201,3.847846 -1.6158,13.603902 -1.6158,13.603902 -1.2664,-5.496557 -5.9936,-7.283193 -5.9936,-7.283193 2.42,1.649977 4.265,9.069833 3.9193,11.818533 -0.3457,2.74786 -4.2651,10.03106 -5.8808,11.12894 -1.6122,1.09999 -0.3457,-6.73236 -2.1907,-15.80135 -1.8415,-9.070254 -7.7224,-21.162101 -7.7224,-21.162101 2.9987,7.695269 0.6915,30.093591 0.6915,30.093591 -2.8822,0.68623 -4.8401,5.63364 -7.2637,10.30521 -2.4201,4.67241 -1.0372,1.64872 -4.6108,-10.85521 -5.1894,-14.977198 6.7239,-24.092864 6.7239,-24.092864 -9.2216,4.031598 -12.3719,18.047574 -12.3719,18.047574 -0.5785,-10.718961 -4.2651,-16.35218 -4.2651,-16.35218 2.9951,8.519834 3.228,26.93239 2.8822,30.09275 -0.3457,3.15993 -2.5364,-2.47287 -5.7644,-9.06899 -3.2279,-6.59571 -2.8822,-13.878906 -2.8822,-13.878906 -3.3443,5.222406 0.1129,14.428056 0.5751,20.336696 0.4621,5.90989 -5.7644,16.07803 -5.7644,1.64871 0,-14.4268 -4.8401,-23.084972 -4.8401,-23.084972 3.302,12.636802 -0.8467,29.452362 -0.8467,29.452362 0.4586,-11.35895 -3.0762,-18.32132 -3.0762,-18.32132 -1.8415,10.62604 -4.7625,7.87776 -4.7625,7.87776 1.5381,-19.603363 12.7564,-30.96399 12.7564,-30.96399 -6.1489,1.649981 -10.9149,13.638806 -10.9149,13.638806 1.3864,-12.011533 10.9149,-22.61487 10.9149,-22.61487 -10.4528,7.694013 -16.9086,29.130264 -16.9086,29.130264 -2.152,-17.404237 -10.1459,-27.847786 -10.1459,-27.847786 12.6083,19.054213 7.5318,49.284036 4.4591,36.093896 -3.0727,-13.19184 -10.2976,-23.819564 -10.2976,-23.819564 2.3037,4.031598 4.3039,13.375584 5.3799,20.520444 1.076,7.14486 -6.6111,23.63538 -9.3768,15.0243 -2.7658,-8.61066 0.9983,-21.84833 0.9983,-21.84833 -1.2312,1.41913 -2.3848,4.56897 -3.4219,8.30245 -1.5134,-9.90659 -3.2632,-17.646016 -3.2632,-17.646016 0,0 1.3441,25.695756 -1.4217,37.786336 0,0 -4.766,-26.19949 -4.1522,-49.83445 0.5009,-19.187087 0.1517,-25.090675 0,-26.633013 1.0372,-2.205013 2.152,-4.466375 3.3796,-6.802582 0,0 -8.576,9.039977 -14.8801,27.452533 -4.2404,-15.807239 -7.8317,-23.055535 -7.8317,-23.055535 3.9864,10.396033 4.5297,24.308574 4.198,36.30371 -0.067,0.308635 -0.1199,0.638715 -0.1869,0.950296 -0.9349,-1.122271 -1.8274,-2.059108 -2.727,-3.029589 0.3493,-1.379185 0.7303,-2.722207 1.143,-4.021078 -0.3669,1.067604 -0.8008,2.326954 -1.3123,3.834384 -2.1202,-2.26472 -4.1064,-4.153535 -5.9232,-5.668116 3.5843,-3.820513 6.1913,-6.109208 6.1913,-6.109208 0,0 -3.1292,1.236225 -7.7823,4.831359 -4.6496,-3.595134 -7.7787,-4.831359 -7.7787,-4.831359 0,0 2.607,2.288695 6.1912,6.109208 -1.8168,1.514581 -3.8065,3.403396 -5.9231,5.668116 -0.5116,-1.504488 -0.9455,-2.762155 -1.3159,-3.829763 0.4163,1.297612 0.7973,2.638535 1.1465,4.016457 -0.8996,0.970481 -1.7921,1.907318 -2.7305,3.029589 -0.063,-0.31326 -0.1164,-0.64334 -0.1834,-0.951975 -0.3352,-11.994717 0.2081,-25.905998 4.198,-36.302031 0,0 -3.5912,7.249555 -7.83162,23.055535 -6.30767,-18.410877 -14.88017,-27.452533 -14.88017,-27.452533 1.22766,2.336207 2.34244,4.597569 3.37608,6.801323 -0.14817,1.542334 -0.49389,7.444659 0.004,26.634272 0.61736,23.63496 -4.14867,49.83445 -4.14867,49.83445 -2.76578,-12.09058 -1.42169,-37.786336 -1.42169,-37.786336 0,0 -1.75331,7.739426 -3.2632,17.646016 -1.03716,-3.73348 -2.19075,-6.88332 -3.42194,-8.30245 0,0 3.76414,13.23767 0.99836,21.84833 -2.76578,8.61108 -10.45281,-7.87944 -9.37683,-15.0243 1.07597,-7.14486 3.07269,-16.488846 5.37986,-20.520444 0,0 -7.22489,10.627724 -10.29759,23.819564 -3.07622,13.19014 -8.14916,-17.039683 4.45559,-36.093896 0,0 -7.99042,10.443549 -10.14589,27.847786 0,0 -6.45584,-21.436251 -16.90864,-29.130264 0,0 9.53205,10.603337 10.91494,22.61487 0,0 -4.76603,-11.988825 -10.91494,-13.638806 0,0 11.22186,11.360627 12.75997,30.96399 0,0 -2.921,2.74828 -4.76603,-7.87776 0,0 -3.53483,6.96237 -3.07269,18.32132 0,0 -4.1522,-16.81556 -0.84667,-29.452362 0,0 -4.84011,8.658172 -4.84011,23.084972 0,14.42932 -6.22653,4.26118 -5.76792,-1.64871 0.46214,-5.90864 3.92289,-15.11429 0.57856,-20.336696 0,0 0.34572,7.283196 -2.8822,13.878906 -3.22791,6.59612 -5.41866,12.22892 -5.76439,9.06899 -0.34572,-3.16036 -0.11641,-21.572916 2.8822,-30.09275 0,0 -3.69006,5.633219 -4.26509,16.35218 0,0 -3.1503,-14.015976 -12.37544,-18.047574 0,0 11.91331,9.115666 6.72747,24.092864 -3.57364,12.50393 -2.19075,15.52762 -4.6108,10.85521 -2.42359,-4.67157 -4.3815,-9.61898 -7.2637,-10.30521 0,0 -2.30717,-22.398322 0.69145,-30.093591 0,0 -5.88081,12.091847 -7.72584,21.162101 -1.84503,9.06899 -0.57503,16.90134 -2.19075,15.80135 -1.61219,-1.09788 -5.53155,-8.38108 -5.87728,-11.12894 -0.34572,-2.7487 1.49578,-10.168556 3.91937,-11.818533 0,0 -4.72723,1.786636 -5.99723,7.283193 0,0 0.80786,-9.756056 -1.61219,-13.603902 -2.42006,-3.847427 -4.3815,-8.931911 -4.3815,-8.931911 0,0 4.572,15.390962 0.50094,25.008263 0,0 -2.05669,-3.88864 -3.49603,-8.358371 1.26295,6.270671 2.91395,15.564201 2.57175,19.901481 -0.53622,6.87113 -5.76438,14.65806 -5.76438,14.65806 0,0 -1.99673,-15.20679 0,-21.62 1.17827,-3.77342 2.28952,-9.43692 3.01272,-13.495847 -0.13759,-0.450335 -0.26106,-0.891424 -0.381,-1.345964 -0.71261,1.558731 -1.79917,3.455111 -3.5172,5.406581 -0.88194,-1.28206 -2.49414,-9.252744 -2.49414,-12.276018 0,-3.022022 -1.61572,-0.182916 -1.15358,6.137797 0.46214,6.320701 2.07433,18.414231 0.92075,24.596611 -1.15358,6.18363 -4.72722,12.09184 -5.41867,12.77891 -0.69144,0.68749 -0.92075,-13.46514 0.69145,-22.39664 1.397,-7.72008 2.40241,-12.189393 2.64936,-13.264995 -0.11289,0.369609 -0.49742,1.054157 -1.95439,1.584805 0,0 -1.49931,0 -1.67217,-5.908216 0,0 -1.27,3.090136 -1.4993,13.121616 -0.22931,10.03105 -7.72584,15.73449 -8.30086,15.87114 -0.57503,0.13709 0.0564,-12.84787 3.51719,-24.287544 0,0 -4.03578,8.484934 -5.18936,22.775914 0,0 -0.11289,-10.03106 -2.76578,-15.11554 0,0 1.38289,10.16855 -0.46214,15.11554 -1.84503,4.94741 -2.19075,6.04697 -3.69005,0.13666 -1.49578,-5.9078 0.80786,-18.41256 4.15219,-21.70957 0,0 -4.24392,4.00132 -8.22325,15.31317 V 95.060554 c -1.82386,9.116086 -3.58775,19.772396 -5.07294,32.170356 -4.61787,10.31867 -5.461,11.94762 -6.21595,8.23811 0.254,-3.89451 0.43392,-8.89995 -0.0882,-11.5368 -0.92075,-4.67242 3.23144,-18.68798 4.72722,-21.71125 0,0 -4.3427,8.32179 -7.09436,19.00712 -1.43934,-7.31095 -3.41842,-15.2295 -5.62328,-17.76964 0,0 3.76414,13.23767 0.99836,21.84833 -2.76578,8.61108 -10.45281,-7.87944 -9.37683,-15.0243 1.07597,-7.14486 3.07622,-16.488846 5.37986,-20.518758 0,0 -7.22489,10.626038 -10.29759,23.817878 -3.07622,13.19014 -8.14916,-17.039683 4.45559,-36.093896 0,0 -7.99042,10.443549 -10.14236,27.849046 0,0 -6.45584,-21.437511 -16.90864,-29.131524 0,0 9.52852,10.603337 10.91141,22.61487 0,0 -4.7625,-11.988825 -10.91141,-13.637123 0,0 11.21833,11.358944 12.75644,30.962307 0,0 -2.921,2.74828 -4.76603,-7.87776 0,0 -3.53483,6.96237 -3.07269,18.32132 0,0 -4.1522,-16.81556 -0.84667,-29.452362 0,0 -4.84011,8.658172 -4.84011,23.086652 0,14.42764 -6.22653,4.2595 -5.76439,-1.64872 0.46214,-5.91031 3.91936,-15.11596 0.57503,-20.338366 0,0 0.34572,7.283196 -2.8822,13.878906 -3.22791,6.59612 -5.41866,12.22892 -5.76438,9.06899 -0.34573,-3.16036 -0.11289,-21.572916 2.88219,-30.09275 0,0 -3.68653,5.633219 -4.26508,16.35218 0,0 -3.15031,-14.015976 -12.37192,-18.047574 0,0 11.91331,9.115666 6.72394,24.092864 -3.57364,12.50393 -2.19075,15.52762 -4.6108,10.85521 -2.42359,-4.67157 -4.3815,-9.6173 -7.2637,-10.30521 0,0 -2.30716,-22.398322 0.69145,-30.093591 0,0 -5.88081,12.093526 -7.72231,21.162101 -1.84855,9.06899 -0.57855,16.90134 -2.19075,15.80303 -1.61572,-1.09956 -5.53508,-8.38276 -5.8808,-11.13062 -0.34573,-2.7487 1.4993,-10.168556 3.91936,-11.818533 0,0 -4.72723,1.786636 -5.9937,7.283193 0,0 0.80434,-9.756056 -1.61572,-13.603902 -2.42006,-3.847427 -4.3815,-8.931911 -4.3815,-8.931911 0,0 4.57553,15.390962 0.50094,25.009943 0,0 -2.05669,-3.89032 -3.49602,-8.360051 1.26294,6.270671 2.91394,15.564201 2.57175,19.901481 -0.53623,6.87113 -5.76087,14.65806 -5.76087,14.65806 0,0 -2.00025,-15.20679 0,-21.62 1.17475,-3.77342 2.286,-9.43818 3.01273,-13.49753 -0.13759,-0.448652 -0.26459,-0.889741 -0.38453,-1.344281 -0.71261,1.558731 -1.79917,3.455111 -3.5172,5.406581 -0.88194,-1.28206 -2.49413,-9.252744 -2.49413,-12.274759 0,-3.023281 -1.61573,-0.184175 -1.15359,6.136538 0.46214,6.321971 2.07434,18.414231 0.92428,24.596611 -1.15358,6.18363 -4.72722,12.09353 -5.41867,12.77891 -0.69144,0.68749 -0.92427,-13.46514 0.69145,-22.39664 1.39347,-7.71839 2.39536,-12.188133 2.64583,-13.264995 -0.11289,0.371289 -0.49742,1.054157 -1.95439,1.584805 0,0 -1.4993,0 -1.67216,-5.908216 0,0 -1.27,3.091815 -1.49931,13.121616 -0.16933,7.36813 -4.24392,12.37483 -6.6287,14.58153 v -15.49399 c 0.50095,-2.47916 1.09362,-5.02183 1.84503,-7.503944 0,0 -0.83608,1.815644 -1.84503,5.036974 v -8.796516 c -1.27705,6.392196 -2.52236,13.591706 -3.66536,21.568706 -0.33514,-3.26842 -1.016,-7.40934 -2.44475,-10.14879 0,0 1.38289,10.16855 -0.46214,15.11554 -1.84502,4.94741 -2.19075,6.04697 -3.68652,0.13834 -1.49931,-5.90948 0.80433,-18.41424 4.14866,-21.71125 0,0 -4.54025,4.26581 -8.63247,16.49977 -1.30528,-5.73539 -2.89278,-11.06754 -4.62492,-13.06442 0,0 3.76767,13.23767 0.99836,21.84833 -1.67569,5.21063 -5.1435,1.21688 -7.38716,-4.3251 0.42686,-6.00114 3.51719,-16.22436 4.77308,-18.75945 0,0 -3.32317,6.38588 -6.00075,15.11386 -0.70203,-2.58051 -1.04775,-5.14966 -0.762,-7.05361 1.07597,-7.14486 3.07622,-16.488846 5.37986,-20.518758 0,0 -7.22489,10.626038 -10.29758,23.817878 -3.0727,13.19014 -8.14564,-17.039683 4.45911,-36.093896 0,0 -7.99395,10.443549 -10.14589,27.849046 0,0 -6.45583,-21.437511 -16.90864,-29.131524 0,0 9.52853,10.603337 10.91142,22.61487 0,0 -4.7625,-11.988825 -10.91142,-13.637123 0,0 11.22186,11.358944 12.75645,30.962307 0,0 -2.921,2.74828 -4.7625,-7.87776 0,0 -3.53484,6.96237 -3.07623,18.32132 0,0 -4.14866,-16.81556 -0.84314,-29.452362 0,0 -4.84364,8.658172 -4.84364,23.086652 0,14.42764 -6.22652,4.2595 -5.76438,-1.64872 0.46213,-5.91031 3.91936,-15.11596 0.57502,-20.338366 0,0 0.34925,7.283196 -2.88219,13.878906 -3.22792,6.59612 -5.41867,12.22892 -5.76439,9.06899 -0.34572,-3.16036 -0.11289,-21.572916 2.88219,-30.09275 0,0 -3.68652,5.633219 -4.26508,16.35218 0,0 -3.15031,-14.015976 -12.37192,-18.047574 0,0 11.91331,9.115666 6.72395,24.092864 -3.57364,12.50393 -2.19075,15.52762 -4.61081,10.85521 -2.42358,-4.67157 -4.3815,-9.6173 -7.26369,-10.30521 0,0 -2.30717,-22.398322 0.69144,-30.093591 0,0 -5.8808,12.093526 -7.7223,21.162101 -0.28575,1.39937 -0.47978,2.7466 -0.63853,4.0606 V 95.060554 c -1.34409,6.742036 -2.65995,14.338486 -3.85586,22.847816 -1.62631,-2.67386 -3.35139,-6.34678 -3.57717,-8.12879 -0.34572,-2.7487 1.4993,-10.168556 3.91936,-11.818533 0,0 -4.72722,1.786636 -5.99369,7.283193 0,0 0.80433,-9.756056 -1.61573,-13.603902 -2.42005,-3.847427 -4.3815,-8.931911 -4.3815,-8.931911 0,0 4.57553,15.390962 0.50095,25.009943 0,0 -2.0567,-3.89032 -3.49603,-8.360051 0.56797,2.812191 1.20297,6.226521 1.71097,9.534041 -0.80786,-2.43755 -1.67216,-4.39195 -2.57528,-5.43391 0,0 3.76414,13.23767 0.99837,21.84833 -0.94192,2.93371 -2.45887,2.91563 -4.00051,1.38381 -0.31397,-4.82841 -0.40922,-10.90566 0.67734,-14.39273 1.17475,-3.77342 2.286,-9.43818 3.01272,-13.49753 -0.13758,-0.448652 -0.26458,-0.889741 -0.38453,-1.344281 -0.71261,1.558731 -1.79916,3.455111 -3.51719,5.406581 -0.55739,-0.81532 -1.41111,-4.319214 -1.95792,-7.548104 0.67381,-2.244542 1.40406,-4.208199 2.17311,-5.550804 0,0 -1.00189,1.477998 -2.41653,4.004265 -0.17991,-1.257667 -0.2928,-2.390871 -0.2928,-3.180116 0,-2.983756 -1.56281,-0.243462 -1.16064,5.901066 -0.43039,0.836341 -0.87489,1.771495 -1.32292,2.729777 0.06,-0.270789 0.14111,-0.635773 0.17286,-0.780419 -0.11288,0.371289 -0.49741,1.054157 -1.95438,1.584805 0,0 -1.49931,0 -1.67217,-5.908216 0,0 -1.26647,3.091815 -1.49931,13.121616 -0.0811,3.60733 -1.1183,6.6306 -2.42005,9.061 -2.21545,-3.34873 -2.87867,-24.293861 6.72394,-38.809796 0,0 -7.99041,10.443549 -10.14589,27.849046 0,0 -0.11994,-0.40282 -0.34572,-1.08106 0.40922,-1.81607 0.86078,-3.63929 1.40406,-5.435594 0,0 -0.75495,1.648714 -1.69686,4.565614 -1.86267,-5.44905 -7.72937,-20.896354 -16.27012,-27.180484 0,0 9.53206,10.603337 10.91495,22.61487 0,0 -4.76603,-11.988825 -10.91495,-13.637123 0,0 5.43984,5.645411 9.26395,15.665957 -1.19239,1.39012 -3.71475,4.84986 -6.35706,11.43043 -0.26458,-4.87888 -0.0952,-10.31405 1.1677,-15.142882 0,0 -4.84011,8.658172 -4.84011,23.086652 0,14.42764 -6.22653,4.2595 -5.76439,-1.64872 0.45861,-5.91031 3.91936,-15.11596 0.57502,-20.338366 0,0 0.15523,3.762486 -0.93486,8.315906 -0.90311,2.06247 -1.97555,4.71909 -3.048,7.85211 -2.61761,5.51633 -4.36033,9.56474 -4.66372,6.77988 -0.34572,-3.16036 -0.11642,-21.572916 2.88219,-30.09275 0,0 -3.69005,5.633219 -4.26508,16.35218 0,0 -3.1503,-14.015976 -12.37544,-18.047574 0,0 11.9133,9.115666 6.72747,24.092864 -3.57717,12.50393 -2.19075,15.52762 -4.61434,10.85521 -2.42005,-4.67157 -4.37797,-9.6173 -7.26016,-10.30521 0,0 -2.30717,-22.398322 0.69144,-30.093591 0,0 -5.8808,12.093526 -7.72583,21.162101 -1.84503,9.06899 -0.57503,16.90134 -2.19075,15.80303 -1.6122,-1.09956 -5.53156,-8.38276 -5.87728,-11.13062 -0.34572,-2.7487 1.49578,-10.168556 3.91936,-11.818533 0,0 -4.72722,1.786636 -5.99722,7.283193 0,0 0.80786,-9.756056 -1.6122,-13.603902 -2.42005,-3.847427 -4.3815,-8.931911 -4.3815,-8.931911 0,0 4.572,15.390962 0.50095,25.009943 0,0 -2.0567,-3.89032 -3.49603,-8.360051 1.26294,6.270671 2.91394,15.564201 2.57175,19.901481 -0.53622,6.87113 -5.76439,14.65806 -5.76439,14.65806 0,0 -1.99672,-15.20679 0,-21.62 1.17828,-3.77342 2.28953,-9.43818 3.01272,-13.49753 -0.13758,-0.448652 -0.26105,-0.889741 -0.381,-1.344281 -0.71261,1.558731 -1.80269,3.455111 -3.51719,5.406581 -0.88195,-1.28206 -2.49414,-9.252744 -2.49414,-12.274759 0,-3.023281 -1.61572,-0.184175 -1.15358,6.136538 0.46214,6.321971 2.07433,18.414231 0.92075,24.596611 -1.15006,6.18363 -4.7237,12.09353 -5.41867,12.77891 -0.69144,0.68749 -0.92075,-13.46514 0.69497,-22.39664 1.39347,-7.71839 2.39536,-12.188133 2.64584,-13.264995 -0.11289,0.371289 -0.49742,1.054157 -1.95439,1.584805 0,0 -1.49931,0 -1.67217,-5.908216 0,0 -1.27,3.091815 -1.49931,13.121616 -0.16933,7.36813 -4.24391,12.37483 -6.63222,14.58153 v -15.49399 c 0.50095,-2.47916 1.09714,-5.02183 1.84856,-7.503944 0,0 -0.83609,1.815644 -1.84856,5.036974 v -8.796516 c -1.27705,6.392196 -2.51883,13.591706 -3.66183,21.568706 -0.33514,-3.26842 -1.016,-7.40934 -2.44475,-10.14879 0,0 1.38289,10.16855 -0.46214,15.11554 -1.84503,4.94741 -2.19075,6.04697 -3.69006,0.13834 -1.49578,-5.90948 0.80786,-18.41424 4.1522,-21.71125 0,0 -4.54025,4.26581 -8.63248,16.49977 -1.30527,-5.73539 -2.89277,-11.06754 -4.62491,-13.06442 0,0 3.76414,13.23767 0.99836,21.84833 -1.6757,5.21063 -5.1435,1.21688 -7.38717,-4.3251 0.42686,-6.00114 3.5172,-16.22436 4.77309,-18.75945 0,0 -3.32317,6.38588 -6.00428,15.11386 -0.6985,-2.58051 -1.04423,-5.14966 -0.75848,-7.05361 1.07598,-7.14486 3.0727,-16.488846 5.37987,-20.518758 0,0 -7.22489,10.626038 -10.29759,23.817878 -3.07622,13.19014 -8.14564,-17.039683 4.45559,-36.093896 0,0 -7.99042,10.443549 -10.14589,27.849046 0,0 -6.45231,-21.437511 -16.90512,-29.131524 0,0 9.52853,10.603337 10.91142,22.61487 0,0 -4.76603,-11.988825 -10.91142,-13.637123 0,0 11.21834,11.358944 12.75645,30.962307 0,0 -2.921,2.74828 -4.76603,-7.87776 0,0 -3.53483,6.96237 -3.07269,18.32132 0,0 -0.20461,-0.8456 -0.48331,-2.24329 V 95.060554 c -0.13758,0.692115 -0.27164,1.455713 -0.40922,2.165911 -0.25753,0.474306 -4.79425,8.975645 -4.79425,22.996665 0,14.42764 -6.22653,4.2595 -5.76439,-1.64872 0.46214,-5.91031 3.91936,-15.11596 0.57503,-20.338366 0,0 0.34572,7.283196 -2.8822,13.878906 -0.60325,1.23201 -1.15358,2.40138 -1.67922,3.5165 -1.05833,-4.51095 -2.29306,-8.55011 -3.63008,-10.88927 0.44802,-5.059669 1.2065,-10.177378 2.42711,-13.65099 0,0 -3.69006,5.633219 -4.26509,16.35218 0,0 -1.27,-5.59201 -4.52261,-10.729477 0.7867,-2.842468 1.65806,-5.333835 2.58234,-6.950171 0,0 -1.49578,2.242859 -3.39373,5.830846 -1.80622,-2.556542 -4.08164,-4.904522 -7.03791,-6.198772 0,0 3.73239,2.861811 6.11011,8.008532 -2.11667,4.247312 -4.51556,9.899022 -5.97606,16.177272 -3.07622,13.19014 -8.14916,-17.039683 4.45559,-36.093896 0,0 -7.99042,10.443549 -10.14237,27.849046 0,0 -0.0988,-0.32082 -0.27516,-0.86241 -0.32456,-7.056557 -0.33514,-16.160023 1.36878,-20.529271 0,0 -2.56117,5.296831 -4.83306,11.495603 -2.92453,-6.682328 -7.44008,-15.017994 -13.1692,-19.235446 0,0 9.52853,10.603337 10.91142,22.61487 0,0 -4.76603,-11.988825 -10.91142,-13.637123 0,0 6.72042,6.918216 10.46692,19.159327 -0.0564,0.25104 -0.13758,0.51847 -0.1905,0.76487 -0.59972,2.95347 -0.85725,5.73498 -1.00541,8.16074 -0.44803,-1.20468 -0.889,-2.75249 -1.28059,-5.00039 0,0 -1.64747,3.34285 -2.54,9.07656 -0.97719,-1.67647 -1.92969,-3.60901 -2.55764,-5.2409 -0.13405,-2.57967 -0.13758,-5.30651 0.0741,-8.01779 0.71613,-2.62802 1.84502,-5.228711 3.16088,-6.124343 0,0 -1.22766,0.473047 -2.59997,1.655865 0.1517,-0.839287 0.33161,-1.66974 0.54328,-2.480434 0,0 -0.65969,1.190812 -1.48872,3.391622 -1.01247,1.11765 -1.97556,2.65662 -2.45181,4.71614 0,0 0.80786,-9.756056 -1.61219,-13.603902 -2.42006,-3.847427 -4.3815,-8.931911 -4.3815,-8.931911 0,0 3.84175,12.9757 1.31233,22.548013 0.12347,-2.63728 -0.17639,-5.10089 -1.40758,-7.020396 0,0 0.13053,3.029586 -0.62795,6.941346 -0.69144,-1.52846 -1.55927,-3.60144 -2.27189,-5.819071 0.51506,2.558221 1.09009,5.618081 1.57339,8.641351 -0.39864,1.3569 -0.88547,2.7466 -1.55575,4.11528 -1.6898,3.45553 -3.0868,6.60958 -4.09222,8.41051 0.0106,-3.12251 0.23283,-6.14116 0.88194,-8.2276 1.17828,-3.77342 2.28953,-9.43818 3.01273,-13.49753 -0.13759,-0.448652 -0.26106,-0.889741 -0.381,-1.344281 -0.71261,1.558731 -1.79917,3.455111 -3.5172,5.406581 -0.2293,-0.33177 -0.50447,-1.11471 -0.78669,-2.13522 0.45861,-3.647277 1.10419,-7.087252 2.00025,-9.63622 0,0 -1.47814,2.275237 -2.70934,6.658356 -0.55033,-2.630967 -0.99836,-5.573931 -0.99836,-7.161675 0,-3.023281 -1.61572,-0.184175 -1.15358,6.136538 0.16933,2.320643 0.49389,5.425081 0.77964,8.723351 -0.0635,0.6631 -0.14464,1.28836 -0.18345,1.99561 0,0 -0.70555,-2.95978 -2.29658,-6.52002 0.254,-1.183234 0.45508,-2.112084 0.54328,-2.485055 -0.0882,0.285927 -0.35278,0.758974 -1.13242,1.203005 -0.65616,-1.324522 -1.47814,-2.664605 -2.39889,-3.976935 -0.0388,-0.475989 -0.0776,-0.962484 -0.0952,-1.549481 0,0 -0.12347,0.334288 -0.2928,1.012525 -1.75684,-2.369425 -3.92289,-4.518096 -6.69925,-5.731613 0,0 3.8488,2.959365 6.21947,8.262504 -0.31397,2.054483 -0.62442,5.09164 -0.72672,9.5782 -0.14111,6.13611 -2.99509,10.63066 -5.32695,13.24481 -0.91016,-1.79 -1.80975,-3.39583 -2.78341,-4.57949 0.49388,-4.73128 1.51694,-11.09572 3.32669,-17.081724 0,0 -2.75519,5.900644 -4.36033,16.041864 -0.47273,-0.38053 -0.95603,-0.6858 -1.47814,-0.81363 -0.0247,-0.17198 -0.0423,-0.33176 -0.0706,-0.50332 -0.30339,-3.18516 -2.0073,-22.546329 0.74084,-29.599941 0,0 -5.88081,12.093526 -7.72584,21.162101 -0.23989,1.18786 -0.42333,2.34966 -0.5715,3.47992 -1.21003,2.53047 -2.49061,5.71226 -3.71122,9.64968 -1.68628,-2.69194 -3.55247,-6.59781 -3.78531,-8.45719 -0.34572,-2.7487 1.49931,-10.168556 3.91937,-11.818533 0,0 -4.72723,1.786636 -5.9937,7.283193 0,0 0.0882,-1.16515 0.11289,-2.79537 0.0282,-0.0593 0.0706,-0.17366 0.0953,-0.22664 0,0 -0.0741,0.14465 -0.0917,0.18375 0.0529,-3.184324 -0.13759,-8.233491 -1.73214,-10.765642 -2.42006,-3.847427 -4.3815,-8.931911 -4.3815,-8.931911 0,0 4.57553,15.390962 0.50094,25.009943 0,0 -2.05669,-3.89032 -3.49603,-8.360051 1.26295,6.270671 2.91395,15.564201 2.57175,19.901481 -0.004,0.069 -0.0247,0.14002 -0.0317,0.20898 -0.50447,1.81229 -0.95602,3.71624 -1.35113,5.66476 -0.0317,0.0824 -0.0635,0.16105 -0.0952,0.24304 -2.16959,-3.11284 -4.1275,-8.67332 -4.34623,-12.84031 0.0212,-0.0757 0.0388,-0.16524 0.0635,-0.23841 1.17475,-3.77342 2.286,-9.43818 3.01273,-13.49753 -0.14112,-0.448652 -0.26459,-0.889741 -0.38453,-1.344281 -0.0141,0.03196 -0.0423,0.07274 -0.06,0.104701 0.84666,-3.193574 1.79563,-6.022167 2.80811,-7.797028 0,0 -3.40784,5.082382 -6.5405,12.510228 -0.90312,-2.21721 -2.21898,-8.953356 -2.21898,-11.686079 0,-3.023281 -1.61572,-0.184175 -1.15358,6.136538 0.22225,3.03547 0.70556,7.406391 1.02306,11.809281 -0.52212,1.62895 -1.00189,3.31089 -1.40759,5.04791 -1.25589,5.3927 -2.82928,3.46562 -3.41136,-1.92876 1.38995,-7.68308 2.39183,-12.140625 2.63878,-13.214545 -0.11289,0.371289 -0.49742,1.054157 -1.95439,1.584805 0,0 -0.1905,-0.0135 -0.43744,-0.269113 0.88194,-7.187322 3.10444,-15.436371 7.62352,-22.266283 0,0 -5.47511,7.279831 -8.57602,19.683678 -0.13759,-0.790511 -0.24342,-1.760985 -0.28223,-3.056498 0,0 -1.05833,2.667127 -1.41111,10.824936 -0.89605,-2.83155 -7.12964,-21.627578 -16.78517,-28.734594 0,0 9.53206,10.603337 10.91495,22.61487 0,0 -4.76603,-11.988825 -10.91495,-13.637123 0,0 6.42056,6.538102 10.21292,18.214927 -0.57503,1.78411 -1.20297,4.06692 -1.79917,6.8131 -0.14111,-0.62946 -0.28927,-1.18156 -0.4198,-1.94348 0,0 -1.03717,2.11083 -1.91558,5.80646 -0.40217,-2.68269 -1.04775,-5.53693 -2.1202,-7.59351 0,0 1.18181,8.88019 -0.18344,14.07401 -0.78317,-5.11183 -1.4852,-12.69441 -0.43745,-19.68411 0.20814,-0.28634 0.4057,-0.6345 0.62089,-0.84727 0,0 -0.24694,0.25397 -0.58914,0.6404 0.18345,-1.198381 0.4057,-2.383305 0.70556,-3.527022 0,0 -1.06539,1.959035 -2.19075,5.447792 -2.09197,2.9745 -5.36575,8.96555 -8.128,19.21862 -0.24342,-1.10587 -0.36689,-2.22814 -0.28928,-3.22848 0.46214,-5.91031 3.91936,-15.11596 0.57503,-20.338366 0,0 0.34572,7.283196 -2.87867,13.878906 -3.23144,6.59612 -5.41867,12.22892 -5.76439,9.06899 -0.10583,-0.96879 -0.15875,-3.37649 -0.0917,-6.48302 1.143,-5.21232 2.90336,-10.71602 3.77825,-12.47869 0,0 -1.68981,3.21796 -3.63008,8.20195 0.32455,-6.58519 1.13594,-14.530231 2.82575,-19.33299 0,0 -3.69006,5.633219 -4.26862,16.35218 0,0 -3.1503,-14.015976 -12.37191,-18.047574 0,0 11.9133,9.115666 6.72394,24.092864 -3.57364,12.50393 -2.19075,15.52762 -4.6108,10.85521 -2.42006,-4.67157 -4.3815,-9.6173 -7.2637,-10.30521 0,0 -2.30364,-22.398322 0.69145,-30.093591 0,0 -5.87728,12.093526 -7.72231,21.162101 -1.84503,9.06899 -0.57503,16.90134 -2.19075,15.80303 -1.61572,-1.09956 -5.53508,-8.38276 -5.88081,-11.13062 -0.34572,-2.7487 1.49931,-10.168556 3.91936,-11.818533 0,0 -4.72722,1.786636 -5.99369,7.283193 0,0 0.80786,-9.756056 -1.61219,-13.603902 -2.42359,-3.847427 -4.3815,-8.931911 -4.3815,-8.931911 0,0 4.572,15.390962 0.49741,25.009943 0,0 -2.05669,-3.89032 -3.49603,-8.360051 1.26295,6.270671 2.91395,15.564201 2.57528,19.901481 -0.53975,6.87113 -5.76439,14.65806 -5.76439,14.65806 0,0 -2.00025,-15.20679 0,-21.62 1.17475,-3.77342 2.286,-9.43818 3.01273,-13.49753 -0.13759,-0.448652 -0.26459,-0.889741 -0.38453,-1.344281 -0.71261,1.558731 -1.79917,3.455111 -3.5172,5.406581 -0.87841,-1.28206 -2.49414,-9.252744 -2.49414,-12.274759 0,-3.023281 -1.61219,-0.184175 -1.15358,6.136538 0.46214,6.321971 2.07786,18.414231 0.92428,24.596611 -1.15359,6.18363 -4.72722,12.09353 -5.41867,12.77891 -0.69144,0.68749 -0.92075,-13.46514 0.69145,-22.39664 1.39347,-7.71839 2.39888,-12.188133 2.64583,-13.264995 -0.11289,0.371289 -0.49742,1.054157 -1.95439,1.584805 0,0 -1.49931,0 -1.67217,-5.908216 0,0 -1.26647,3.091815 -1.4993,13.121616 -0.16934,7.36813 -4.24039,12.37483 -6.6287,14.58153 v -15.49399 c 0.50095,-2.47916 1.09361,-5.02183 1.84503,-7.503944 0,0 -0.83608,1.815644 -1.84503,5.036974 v -8.796516 c -1.23119,6.159666 -2.42711,13.088396 -3.53836,20.716806 -0.83255,-6.11215 -1.83444,-11.72561 -2.60703,-15.7038 0.0141,-0.0139 0.0247,-0.0383 0.0353,-0.0505 0,0 -0.0353,0.0349 -0.0388,0.0395 -0.71262,-3.663666 -1.2312,-5.947736 -1.2312,-5.947736 0,0 0.14817,2.846673 0.24695,7.056556 -1.04775,1.28626 -2.77989,3.76249 -4.69548,7.85926 -0.78669,-8.26083 -1.36172,-17.796551 -1.12183,-26.96393 0.50094,-19.189613 0.15169,-25.091938 0.004,-26.634272 1.03364,-2.203754 2.14841,-4.465116 3.37961,-6.801323 0,0 -12.92578,13.714914 -18.70075,41.651004 -0.93486,-1.122271 -1.82739,-2.059108 -2.7305,-3.029589 0.35278,-1.376243 0.73025,-2.715902 1.14653,-4.011832 -0.37042,1.065926 -0.80434,2.322333 -1.31587,3.825138 -0.39863,-0.428893 -0.82197,-0.943144 -1.21355,-1.343025 1.10772,-2.857606 2.46592,-5.651299 4.17689,-8.235167 0,0 -2.13431,2.833215 -4.49439,7.926533 -7.82814,-7.879437 -13.76186,-10.125665 -13.76186,-10.125665 0,0 6.03602,5.293889 12.39661,13.288963 -1.76742,4.434421 -3.45722,10.069319 -4.28625,16.759215 0,0 -4.0887,-13.524433 -11.0102,-22.946207 0.0741,-10.166453 1.04775,-20.926631 4.28625,-29.36237 0,0 -3.8488,7.801652 -8.27616,24.768162 -0.62089,-0.577741 -1.25589,-1.111758 -1.90853,-1.591109 0,0 0.71966,0.818265 1.75683,2.178107 -0.55386,2.138161 -1.11125,4.40877 -1.67569,6.837483 -0.0282,-0.0076 -0.0529,-0.03028 -0.0811,-0.03784 0,0 0.0635,0.0698 0.0705,0.07737 -2.23661,9.645474 -4.49439,21.611184 -6.40997,36.050994 -0.17286,-0.94271 -0.26105,-1.88375 -0.19403,-2.73693 0.46214,-5.9103 3.91936,-15.11596 0.57856,-20.338361 0,0 0.34572,7.283191 -2.8822,13.878901 -3.22791,6.59612 -5.41866,12.22892 -5.76439,9.06899 -0.34572,-3.16036 -0.11641,-21.572911 2.8822,-30.092745 0,0 -3.69006,5.633219 -4.26508,16.352175 0,0 -2.413,-10.717277 -9.18634,-16.104091 0.254,-0.579427 0.508,-1.122271 0.76906,-1.577238 0,0 -0.381,0.574802 -0.93134,1.472113 -0.93133,-0.720703 -1.92969,-1.359422 -3.02683,-1.838353 0,0 1.15711,0.886383 2.59292,2.556542 -1.98614,3.325605 -5.66561,10.197147 -8.05745,18.444087 -0.508,-6.67013 -1.23825,-20.686106 1.00542,-26.451356 0,0 -1.83445,3.807897 -3.7712,8.712842 1.25589,-5.193813 3.26673,-10.515032 6.34648,-15.170207 0,0 -7.06261,9.387713 -9.67317,25.070481 -0.21167,0.81238 -0.42686,1.62602 -0.58914,2.40475 -0.87489,-2.76972 -7.115527,-21.635556 -16.792222,-28.757709 0,0 9.532056,10.603337 10.914945,22.61487 0,0 -3.711223,-9.305724 -8.805334,-12.638056 -0.910167,-1.972487 -1.49225,-3.473613 -1.49225,-3.473613 0,0 0.352778,1.213514 0.776111,3.134283 -0.458611,-0.244722 -0.913694,-0.531911 -1.393472,-0.66142 0,0 0.66675,0.689176 1.661583,1.940532 0.677334,3.399187 1.36525,8.294459 1.058334,13.074933 -0.635,1.63148 -1.368778,3.8613 -2.017889,6.69872 -0.670278,-1.3653 -2.035528,-4.28851 -3.083278,-7.537156 0.758472,3.761216 1.651,8.599306 2.173111,12.814646 -0.324556,2.4468 -0.560917,5.09164 -0.560917,8.04848 0,2.07887 -0.137583,3.59472 -0.359833,4.73843 -0.268111,0.76234 -0.550334,1.50281 -0.853722,2.21301 -1.287639,1.44478 -3.242028,-1.44184 -4.120445,-4.77712 -0.109361,-0.58363 -0.225778,-1.15591 -0.342195,-1.74879 -0.0035,-0.024 -0.0071,-0.0488 -0.01058,-0.0732 0.0035,-1.24504 0.04233,-2.47076 0.127,-3.63297 0.225778,-1.59826 0.560917,-3.34285 0.899583,-5.15723 1.121834,-3.76249 2.176639,-9.09128 2.871612,-12.983275 -0.137584,-0.448652 -0.264584,-0.889741 -0.384528,-1.344281 -0.455083,0.997804 -1.150056,2.154975 -1.979084,3.356296 -0.229305,-0.924641 -0.53975,-1.803453 -1.033638,-2.576301 0,0 0.07408,1.724826 -0.208139,4.234261 -0.112889,0.13372 -0.176389,0.2586 -0.296334,0.39232 -0.878416,-1.28206 -2.490611,-9.252739 -2.490611,-12.274754 0,-3.023281 -1.615722,-0.184175 -1.153583,6.136538 0.250472,3.434076 0.829027,8.560626 1.132416,13.526526 -0.92075,-3.04051 -1.919111,-5.57267 -2.977444,-6.79249 0,0 1.474611,5.18625 1.897944,11.17814 -2.554111,5.39606 -4.250972,9.29226 -4.550833,6.54735 -0.05997,-0.5521 -0.102306,-1.58943 -0.116417,-2.93666 0.194028,-2.28869 0.448028,-4.55215 0.807861,-6.54399 1.397,-7.71839 2.398889,-12.188128 2.645834,-13.26499 -0.109361,0.371289 -0.497417,1.054157 -1.954389,1.5848 0,0 -0.162278,-0.0215 -0.381,-0.220329 0.451555,-3.298691 1.058333,-6.379997 1.880305,-8.711576 0,0 -1.506361,2.329896 -2.744611,6.795012 -0.208139,-0.865357 -0.373944,-2.04397 -0.426861,-3.771318 0,0 -1.157111,2.916897 -1.453445,12.014471 -0.363361,-1.26271 -1.040694,-3.29701 -2.130778,-5.64835 1.001889,-4.367981 2.211917,-8.416399 3.527778,-10.717283 0,0 -2.215444,3.316771 -4.709583,8.447935 -1.629834,-2.930349 -3.887612,-5.803096 -6.889751,-7.713349 1.27,-4.492449 3.104445,-8.998773 5.757334,-13.010604 0,0 -3.436056,4.580326 -6.4135,12.610303 -0.395112,-0.221601 -0.737306,-0.518459 -1.157112,-0.702211 0,0 0.423334,0.323773 1.072445,0.945667 -1.150056,3.137648 -2.187222,6.801323 -2.956278,10.936352 -0.381,0.47893 -0.860778,1.14372 -1.386417,1.93592 -0.5715,-1.65755 -1.485194,-4.156068 -2.709333,-7.015353 0.05997,-4.833461 0.448028,-9.491575 1.524,-12.253313 0,0 -1.658056,3.430729 -3.485445,7.97657 -2.868083,-5.877938 -6.783917,-12.216727 -11.539362,-15.716413 0,0 7.687029,8.630847 10.230557,19.127803 -0.137584,0.364977 -0.268112,0.737528 -0.398639,1.108392 -1.732139,-3.573692 -5.408084,-10.072261 -9.831918,-11.258448 0,0 4.991806,5.185823 8.777112,14.426372 -0.589139,1.87241 -1.121833,3.74272 -1.478139,5.49782 -0.585611,2.88073 -0.843139,5.59369 -0.991306,7.97825 -0.532694,2.0137 -1.016,4.66317 -1.255889,7.76717 -0.395111,-0.29223 -0.913694,-0.91118 -1.488722,-1.75089 -0.553861,-4.07238 -0.998361,-9.32212 -0.642055,-14.5542 0.352777,-0.98225 0.677333,-1.83583 0.92075,-2.32527 0,0 -0.359834,0.698 -0.867834,1.76561 0.186972,-2.3362 0.522111,-4.656849 1.097139,-6.851357 0,0 -2.850444,5.175307 -4.173361,14.126987 -0.04586,0.12488 -0.09525,0.27079 -0.144639,0.39861 -0.257528,-0.7228 -0.462139,-1.39011 -0.525639,-1.8825 -0.345722,-2.7487 1.499306,-10.168551 3.922889,-11.818528 0,0 -4.727222,1.786636 -5.997223,7.283188 0,0 0.807862,-9.756051 -1.612194,-13.603897 -2.420056,-3.847427 -4.3815,-8.931911 -4.3815,-8.931911 0,0 4.572,15.390962 0.497416,25.008258 0,0 -2.053166,-3.88864 -3.496028,-8.358366 0.843139,4.168666 1.845028,9.654296 2.328334,14.153046 -2.853973,5.95237 -4.773084,10.60292 -5.094112,7.67257 -0.148166,-1.36279 -0.186972,-5.56174 0.05292,-10.57769 0.994833,-3.65568 1.912056,-8.30034 2.536472,-11.805915 -0.137583,-0.448652 -0.264583,-0.889741 -0.384527,-1.344281 -0.313973,0.690432 -0.694973,1.434268 -1.185334,2.236971 0.204611,-1.476738 0.440972,-2.898817 0.712611,-4.236794 0.127,0.663106 0.296334,1.332092 0.472723,1.999823 0.04233,-0.08704 0.08114,-0.173662 0.116416,-0.2586 -0.179916,-0.860728 -0.345722,-1.642406 -0.483305,-2.265987 0.303389,-1.41114 0.649111,-2.716322 1.044222,-3.840272 0,0 -0.578556,0.91119 -1.308806,2.632643 -0.09172,-0.403239 -0.151694,-0.663099 -0.151694,-0.663099 0.01411,0.253972 0.07408,0.524761 0.102305,0.783361 -0.779638,1.85517 -1.693333,4.665684 -2.310694,8.36299 -0.179917,0.21907 -0.331611,0.43479 -0.525639,0.65554 -0.878417,-1.28206 -2.490611,-9.252739 -2.490611,-12.276013 0,-3.022022 -1.615723,-0.182916 -1.153584,6.137797 0.04233,0.593302 0.102306,1.280788 0.162278,1.96492 -1.954389,-3.665355 -4.818945,-7.482509 -8.960556,-9.293533 0,0 4.695472,3.601025 6.903862,9.98859 -0.289278,0.219071 -0.673806,0.439405 -1.220612,0.638719 0,0 -1.495778,0 -1.672166,-5.908221 0,0 -1.266473,3.090136 -1.495778,13.121621 -0.109361,4.63204 -1.774473,8.29445 -3.580695,10.95906 -1.2382501,-2.14741 -2.525889,-3.78562 -4.0851669,-4.1569 0,0 -0.038806,-0.35994 -0.09525,-0.99907 0.5715,-4.2902 1.509889,-9.36627 2.9774446,-14.219499 0,0 -1.7568334,3.764179 -3.2843613,10.394779 -0.4938889,-7.01871 -1.0301112,-19.817816 1.0936112,-25.269806 0,0 -4.3003614,8.870943 -6.69925044,17.116636 -1.42875009,1.72776 -4.32505586,5.96792 -7.15080596,13.86712 -0.9913057,-1.98804 -1.795639,-3.97861 -1.9438057,-5.14925 -0.3457223,-2.7487 1.4993056,-10.168551 3.9193613,-11.818528 0,0 -4.7272225,1.786636 -5.9972228,7.283188 0,0 0.8078614,-9.756051 -1.612194,-13.603897 -2.420056,-3.847427 -4.381501,-8.931911 -4.381501,-8.931911 0,0 4.575528,15.390962 0.500945,25.009938 0,0 -2.056695,-3.89032 -3.496028,-8.360046 0.73025,3.632126 1.580444,8.261236 2.113139,12.370626 -1.869722,5.00038 -3.855861,11.4443 -4.734278,18.25024 -0.134056,1.04154 -0.352778,2.25674 -0.617361,3.55393 -0.282223,-2.30131 -1.770945,-15.39517 0.04586,-21.23526 1.178278,-3.77342 2.289528,-9.43818 3.012722,-13.497525 -0.137583,-0.448652 -0.261055,-0.889741 -0.381,-1.344281 -0.712611,1.558731 -1.799167,3.455106 -3.517194,5.406576 -0.881945,-1.28206 -2.49414,-9.252739 -2.49414,-12.274754 0,-3.023281 -1.615722,-0.184175 -1.153583,6.136538 0.462139,6.321976 2.074334,18.414226 0.92075,24.596606 -1.150055,6.18363 -4.723695,12.09353 -5.415139,12.77891 -0.694972,0.68749 -0.924278,-13.46514 0.691444,-22.39664 1.393473,-7.71839 2.395362,-12.188128 2.645834,-13.26499 -0.112889,0.371289 -0.497417,1.054157 -1.954389,1.5848 0,0 -1.499306,0 -1.672167,-5.908211 0,0 -1.266472,3.091815 -1.499306,13.121611 -0.169333,7.36813 -4.243916,12.37483 -6.632222,14.58153 v -15.49399 c 0.504472,-2.47915 1.097139,-5.02182 1.848555,-7.503939 0,0 -0.836083,1.815649 -1.848555,5.036969 v -8.796511 c -1.277056,6.392191 -2.518834,13.591711 -3.661834,21.568711 -0.335139,-3.26843 -1.016,-7.40934 -2.44475,-10.1488 0,0 1.382889,10.16855 -0.462139,15.11554 -1.845028,4.94742 -2.19075,6.04697 -3.690056,0.13834 -1.495777,-5.90948 0.807862,-18.41424 4.152195,-21.71125 0,0 -4.54025,4.26581 -8.632473,16.49977 -1.30175,-5.73539 -2.892778,-11.06754 -4.624917,-13.06442 0,0 3.764139,13.23767 0.998362,21.84833 -1.675695,5.21063 -5.143501,1.21688 -7.387168,-4.3251 0.426862,-6.00114 3.517195,-16.22436 4.773084,-18.75945 0,0 -3.323167,6.38588 -6.004278,15.11386 -0.6985,-2.58051 -1.044222,-5.14966 -0.758472,-7.05361 1.075972,-7.14486 3.076222,-16.488841 5.379861,-20.518753 0,0 -7.224889,10.626033 -10.297584,23.817873 -3.076222,13.19014 -8.145639,-17.039678 4.455584,-36.093891 0,0 -7.990417,10.443549 -10.142362,27.849041 0,0 -6.455834,-21.437506 -16.90864,-29.131519 0,0 9.528528,10.603337 10.911417,22.61487 0,0 -4.7625,-11.988825 -10.911417,-13.637123 0,0 11.221862,11.358944 12.756445,30.962302 0,0 -2.921,2.74828 -4.766028,-7.87776 0,0 -3.534833,6.96238 -3.072694,18.32132 0,0 -4.148667,-16.81556 -0.846667,-29.452357 0,0 -4.840112,8.658177 -4.840112,23.086657 0,14.42763 -6.226533,4.2595 -5.764393,-1.64872 0.46214,-5.91031 3.919366,-15.11596 0.57503,-20.338371 0,0 0.34572,7.283201 -2.8822,13.878911 -3.22791,6.59612 -5.41866,12.22892 -5.76439,9.06899 -0.34572,-3.16036 -0.11289,-21.572921 2.8822,-30.092755 0,0 -3.69006,5.633219 -4.26509,16.352185 0,0 -3.1503,-14.015981 -12.37191,-18.047579 0,0 11.90978,9.115666 6.72394,24.092869 -3.57364,12.50393 -2.19075,15.52762 -4.6108,10.85521 -2.42006,-4.67157 -4.3815,-9.6173 -7.2637,-10.30521 0,0 -2.30717,-22.398327 0.69145,-30.093596 0,0 -5.88081,12.093526 -7.72584,21.162106 -1.8415,9.06899 -0.57503,16.90134 -2.18722,15.80303 -1.61572,-1.09956 -5.53508,-8.38276 -5.88081,-11.13062 -0.34572,-2.7487 1.49931,-10.168561 3.91936,-11.818538 0,0 -4.72722,1.786636 -5.99369,7.283198 0,0 0.80786,-9.756061 -1.61572,-13.603907 -2.42006,-3.847427 -4.3815,-8.931911 -4.3815,-8.931911 0,0 4.57553,15.390962 0.50094,25.009948 0,0 -2.05669,-3.89032 -3.49603,-8.360056 1.26295,6.270676 2.91395,15.564206 2.57528,19.901486 -0.53975,6.87113 -5.76439,14.65805 -5.76439,14.65805 0,0 -2.00025,-15.20678 0,-21.61999 1.17475,-3.77342 2.286,-9.43818 3.0092,-13.497535 -0.13759,-0.448652 -0.26106,-0.889741 -0.381,-1.344281 -0.71261,1.558731 -1.79917,3.455116 -3.5172,5.406586 -0.87841,-1.28206 -2.49414,-9.252749 -2.49414,-12.274764 0,-3.023281 -1.61219,-0.184175 -1.15358,6.136538 0.46214,6.321976 2.07433,18.414236 0.92428,24.596616 -1.15359,6.18363 -4.72722,12.09352 -5.41867,12.77891 -0.69144,0.68749 -0.92428,-13.46514 0.69145,-22.39664 1.39347,-7.71839 2.39888,-12.188138 2.64583,-13.265 -0.11289,0.371289 -0.49742,1.054157 -1.95439,1.58481 0,0 -1.49931,0 -1.67217,-5.908221 0,0 -1.26647,3.091815 -1.4993,13.121621 -0.16934,7.36813 -4.24392,12.37483 -6.6287,14.58153 v -15.49399 c 0.50095,-2.47916 1.09361,-5.02183 1.84503,-7.503949 0,0 -0.83608,1.815649 -1.84503,5.036979 v -8.796521 c -1.28058,6.392201 -2.52236,13.591711 -3.66536,21.568711 -0.33514,-3.26842 -1.016,-7.40934 -2.44475,-10.14879 0,0 1.38289,10.16855 -0.46214,15.11554 -1.8415,4.94741 -2.18722,6.04697 -3.68653,0.13834 -1.4993,-5.90948 0.80787,-18.41424 4.14867,-21.71125 0,0 -4.54025,4.26581 -8.63247,16.49977 -1.30175,-5.73539 -2.89278,-11.06754 -4.62492,-13.06442 0,0 3.76767,13.23767 0.99836,21.84833 -1.67216,5.21063 -5.1435,1.21688 -7.38716,-4.3251 0.42686,-6.00114 3.51719,-16.22436 4.77661,-18.75945 0,0 -3.3267,6.38588 -6.00428,15.11386 -0.70203,-2.58051 -1.04775,-5.14966 -0.762,-7.05361 1.07597,-7.14486 3.07622,-16.488851 5.37986,-20.518763 0,0 -7.22489,10.626043 -10.29758,23.817883 -3.07623,13.19014 -8.14564,-17.039688 4.45558,-36.093901 0,0 -7.99042,10.443549 -10.14236,27.849051 0,0 -6.45584,-21.437516 -16.90864,-29.131529 0,0 9.52853,10.603337 10.91494,22.61487 0,0 -4.76603,-11.988825 -10.91494,-13.637123 0,0 11.22186,11.358944 12.75644,30.962312 0,0 -2.91747,2.74828 -4.7625,-7.87776 0,0 -3.53836,6.96237 -3.07622,18.32132 0,0 -4.14867,-16.81556 -0.84314,-29.452367 0,0 -4.84364,8.658177 -4.84364,23.086657 0,14.42764 -6.22653,4.2595 -5.76439,-1.64872 0.46214,-5.91031 3.91936,-15.11596 0.57503,-20.338371 0,0 0.34572,7.283201 -2.88219,13.878911 -3.22792,6.59612 -5.41514,12.22892 -5.76087,9.06899 -0.34572,-3.16036 -0.11641,-21.572921 2.8822,-30.092755 0,0 -3.69006,5.633219 -4.26861,16.352185 0,0 -3.15031,-14.015981 -12.37192,-18.047579 0,0 11.91331,9.115666 6.72395,24.092869 -3.57364,12.50393 -2.19075,15.52762 -4.61081,10.85521 -2.42006,-4.67157 -4.3815,-9.6173 -7.2637,-10.30521 0,0 -2.30363,-22.398327 0.69145,-30.093596 0,0 -5.88081,12.093526 -7.72231,21.162106 -1.84502,9.06899 -0.57855,16.90134 -2.19075,15.80303 -1.61572,-1.09956 -5.53508,-8.38276 -5.8808,-11.13062 -0.34573,-2.7487 1.4993,-10.168561 3.91936,-11.818538 0,0 -4.72722,1.786636 -5.9937,7.283198 0,0 0.80786,-9.756061 -1.61572,-13.603907 -2.42005,-3.847427 -4.37797,-8.931911 -4.37797,-8.931911 0,0 4.572,15.390962 0.49742,25.009948 0,0 -2.0567,-3.89032 -3.49603,-8.360056 1.26294,6.270676 2.91394,15.564206 2.57528,19.901486 -0.53975,6.87113 -5.76439,14.65806 -5.76439,14.65806 0,0 -2.00025,-15.20679 0,-21.62 1.17475,-3.77342 2.286,-9.43818 3.01272,-13.497535 -0.13758,-0.448652 -0.26458,-0.889741 -0.38453,-1.344281 -0.71261,1.558731 -1.79917,3.455116 -3.51719,5.406586 -0.87842,-1.28206 -2.49414,-9.252749 -2.49414,-12.274764 0,-3.023281 -1.6122,-0.184175 -1.15359,6.136538 0.46214,6.321976 2.07786,18.414236 0.92428,24.596616 -1.15358,6.18363 -4.72722,12.09353 -5.41867,12.77891 -0.69144,0.68749 -0.92427,-13.46514 0.69145,-22.39664 1.39347,-7.71839 2.39889,-12.188138 2.64583,-13.265 -0.11289,0.371289 -0.49741,1.054157 -1.95439,1.58481 0,0 -1.4993,0 -1.67216,-5.908221 0,0 -1.26648,3.091815 -1.49931,13.121621 -0.16933,7.36813 -4.24392,12.37609 -6.62869,14.58153 v -15.49272 c 0.50094,-2.47875 1.09361,-5.0231 1.84502,-7.505219 0,0 -0.83608,1.815649 -1.84502,5.038659 v -8.798201 c -1.27706,6.392201 -2.52237,13.590031 -3.66537,21.568711 -0.33513,-3.2701 -1.016,-7.40934 -2.44475,-10.14879 0,0 1.38289,10.16855 -0.45861,15.11554 -1.84502,4.94741 -2.19075,6.04697 -3.69005,0.13834 -1.49931,-5.90948 0.80786,-18.41424 4.14866,-21.71125 0,0 -4.54025,4.26581 -8.63247,16.49977 -1.30175,-5.73539 -2.89278,-11.06754 -4.62492,-13.06442 0,0 3.76767,13.23767 0.99837,21.84833 -1.67217,5.21063 -5.13998,1.21688 -7.38717,-4.32383 0.42686,-6.00072 3.51719,-16.22563 4.77661,-18.76072 0,0 -3.32669,6.38588 -6.00428,15.11554 -0.6985,-2.58093 -1.04775,-5.14966 -0.762,-7.05529 1.07597,-7.14486 3.07622,-16.488851 5.37986,-20.518763 0,0 -7.22136,10.626043 -10.29758,23.817883 -3.0727,13.19014 -8.14564,-17.039688 4.45911,-36.093901 0,0 -7.99394,10.443549 -10.14589,27.849051 0,0 -6.45583,-21.437516 -16.90864,-29.131529 0,0 9.52853,10.603337 10.91495,22.61487 0,0 -4.76603,-11.988825 -10.91495,-13.637123 0,0 11.22186,11.358944 12.75645,30.962312 0,0 -2.91748,2.74828 -4.7625,-7.87776 0,0 -3.53484,6.96237 -3.07623,18.32132 0,0 -4.14866,-16.81556 -0.84314,-29.452367 0,0 -4.84363,8.658177 -4.84363,23.086657 0,14.42764 -6.22653,4.2595 -5.76439,-1.64872 0.46214,-5.91031 3.91936,-15.11596 0.57502,-20.338371 0,0 0.34573,7.283201 -2.88219,13.878911 -3.22792,6.59612 -5.41514,12.22892 -5.76086,9.06899 -0.34925,-3.16036 -0.11642,-21.572921 2.88219,-30.092755 0,0 -3.69005,5.633219 -4.26861,16.352185 0,0 -3.1503,-14.015981 -12.37192,-18.047579 0,0 11.91331,9.115666 6.72395,24.092869 -3.57364,12.50393 -2.19075,15.52762 -4.61081,10.85521 -2.42005,-4.67157 -4.3815,-9.6173 -7.26369,-10.30521 0,0 -2.30717,-22.398327 0.69144,-30.093596 0,0 -5.87728,12.093526 -7.7223,21.162106 -1.84503,9.06899 -0.57856,16.90134 -2.19075,15.80303 -1.61573,-1.09956 -5.53509,-8.38276 -5.88081,-11.13062 -0.34572,-2.7487 1.49931,-10.168561 3.91936,-11.818538 0,0 -4.72722,1.786636 -5.99369,7.283198 0,0 0.80786,-9.756061 -1.61573,-13.603907 -2.42005,-3.847427 -4.37797,-8.931911 -4.37797,-8.931911 0,0 4.572,15.390962 0.49742,25.009948 0,0 -2.0567,-3.89032 -3.49603,-8.360056 1.26295,6.270676 2.91395,15.564206 2.57528,19.901486 -0.53975,6.87113 -5.76439,14.65806 -5.76439,14.65806 0,0 -2.00025,-15.20679 0,-21.62 1.17475,-3.77342 2.286,-9.43818 3.01272,-13.497535 -0.13758,-0.448652 -0.26458,-0.889741 -0.38453,-1.344281 -0.71261,1.558731 -1.79916,3.455116 -3.51719,5.406586 -0.87842,-1.28206 -2.49414,-9.252749 -2.49414,-12.274764 0,-3.023281 -1.61219,-0.184175 -1.15358,6.136538 0.46214,6.321976 2.07786,18.414236 0.92427,24.596616 -1.15358,6.18363 -4.72722,12.09353 -5.41866,12.77891 -0.69145,0.68749 -0.92428,-13.46514 0.69144,-22.39664 1.39347,-7.71839 2.39889,-12.188138 2.64584,-13.265 -0.11289,0.371289 -0.49742,1.054157 -1.95439,1.58481 0,0 -1.49931,0 -1.67217,-5.908221 0,0 -1.26647,3.091815 -1.49931,13.121621 -0.0988,4.41339 -1.61925,7.93116 -3.32669,10.56381 -0.73025,-5.74886 -1.64394,-11.16931 -2.42711,-15.37583 0.29986,-1.20595 0.6103,-2.41483 0.97014,-3.604389 0,0 -0.47272,1.029766 -1.11831,2.834909 -0.8643,-4.568561 -1.53105,-7.540121 -1.53105,-7.540121 0,0 0.254,4.880134 0.31397,11.384601 -1.10772,3.88106 -2.30364,9.30782 -2.85045,16.09653 0,0 -0.1023,-7.8929 -1.97908,-13.22505 -0.75494,-8.1044 -1.29117,-17.38448 -1.05833,-26.304195 0.50094,-19.189613 0.15169,-25.091938 0.004,-26.634272 1.03364,-2.203754 2.14842,-4.465116 3.37962,-6.801323 0,0 -12.92578,13.714914 -18.70076,41.651004 -0.93486,-1.122271 -1.82738,-2.059108 -2.7305,-3.029589 0.35278,-1.377922 0.73025,-2.718845 1.14653,-4.016457 -0.37041,1.067608 -0.80433,2.325275 -1.31586,3.829763 -8.56544,-9.160235 -15.29292,-11.777324 -15.29292,-11.777324 0,0 7.12964,6.262684 14.0582,15.449826 -3.39372,10.148807 -8.37847,25.784477 -11.75103,39.514117 -3.91936,4.94741 -3.91936,-9.06857 -3.91936,-17.8634 0,-8.79358 -4.3815,-40.124237 2.99508,-59.360942 0,0 -11.06664,22.260399 -17.28964,74.201062 -5.53508,12.36726 -5.6515,12.36726 -6.68866,5.49782 -1.03717,-6.87112 -4.03578,-25.14702 -7.60942,-29.2686 0,0 3.76767,13.23767 1.00189,21.84833 -2.76931,8.61108 -10.45281,-7.87944 -9.37684,-15.0243 1.07598,-7.14486 3.0727,-16.488851 5.37987,-20.520449 0,0 -7.22489,10.627729 -10.30112,23.819569 -3.07269,13.19014 -8.14564,-17.039688 4.45911,-36.093901 0,0 -7.99394,10.443549 -10.14588,27.847791 0,0 -6.45584,-21.436256 -16.90864,-29.130269 0,0 9.53205,10.603337 10.91494,22.61487 0,0 -4.76603,-11.988825 -10.91494,-13.638806 0,0 11.22186,11.360627 12.75997,30.963995 0,0 -2.921,2.74828 -4.76603,-7.87776 0,0 -3.53483,6.96237 -3.07622,18.32132 0,0 -4.14867,-16.81556 -0.84314,-29.452367 0,0 -4.84364,8.658177 -4.84364,23.084977 0,14.42932 -6.223,4.26118 -5.76439,-1.64871 0.46214,-5.90864 3.91936,-15.11429 0.57856,-20.336701 0,0 0.34572,7.283201 -2.8822,13.878911 -3.22792,6.59612 -5.41867,12.22892 -5.76439,9.06899 -0.34572,-3.16036 -0.11641,-21.572921 2.8822,-30.092755 0,0 -3.69006,5.633219 -4.26509,16.352185 0,0 -3.15383,-14.015981 -12.37544,-18.047579 0,0 11.9133,9.115666 6.72394,24.092869 -3.57364,12.50393 -2.19075,15.52762 -4.6108,10.85521 -2.42006,-4.67157 -4.3815,-9.61898 -7.2637,-10.30521 0,0 -2.30364,-22.398327 0.69145,-30.093596 0,0 -5.87728,12.091847 -7.72231,21.162106 -1.84503,9.06899 -0.57856,16.90134 -2.19075,15.80135 -1.61572,-1.09788 -5.53508,-8.38108 -5.88081,-11.12894 -0.34572,-2.7487 1.49931,-10.168561 3.91937,-11.818538 0,0 -4.7237,1.786636 -5.9937,7.283198 0,0 0.80786,-9.756061 -1.61219,-13.603907 -2.42359,-3.847427 -4.3815,-8.931911 -4.3815,-8.931911 0,0 4.572,15.390962 0.49741,25.008268 0,0 -2.05316,-3.88864 -3.49603,-8.358376 1.26648,6.270676 2.91395,15.564206 2.57528,19.901486 -0.53975,6.87113 -5.76439,14.65806 -5.76439,14.65806 0,0 -1.99672,-15.20679 0,-21.62 1.17475,-3.77342 2.286,-9.43818 3.01273,-13.497535 -0.13759,-0.448652 -0.26459,-0.889741 -0.38453,-1.344281 -0.70909,1.558731 -1.79917,3.453856 -3.5172,5.406586 -0.87841,-1.28206 -2.49414,-9.252749 -2.49414,-12.276023 0,-3.022022 -1.61219,-0.182916 -1.15005,6.137797 0.45861,6.320706 2.07433,18.414236 0.92075,24.596616 -1.15358,6.18363 -4.72722,12.09184 -5.41867,12.77891 -0.69144,0.68749 -0.92075,-13.46514 0.69145,-22.39664 1.397,-7.71839 2.39889,-12.186455 2.64583,-13.263313 -0.11289,0.369602 -0.49742,1.05247 -1.95439,1.583123 0,0 -1.4993,0 -1.67217,-5.908221 0,0 -1.26647,3.090136 -1.49577,13.121621 -0.0882,3.75029 -1.18887,6.89214 -2.5647,9.36837 -0.82903,-6.2568 -1.85208,-12.0498 -2.65289,-16.18778 0.14817,-0.532333 0.27164,-1.070552 0.43039,-1.596999 0,0 -0.20814,0.460852 -0.50447,1.201749 -0.70908,-3.636349 -1.22414,-5.906961 -1.22414,-5.906961 0,0 0.18344,3.500526 0.27517,8.513541 -1.17828,3.50389 -2.73756,9.36501 -3.52425,17.06827 -1.27,-9.81409 -2.67406,-24.12946 -2.32128,-37.629925 0.49742,-19.189613 0.15169,-25.091938 0.004,-26.634272 1.03364,-2.203754 2.14841,-4.465116 3.37608,-6.801323 0,0 -12.92578,13.714914 -18.69722,41.651004 -0.93839,-1.122271 -1.83092,-2.059108 -2.7305,-3.029589 0.34925,-1.377922 0.73025,-2.718845 1.143,-4.016457 -0.36689,1.067608 -0.80081,2.325275 -1.31234,3.829763 -8.56544,-9.160235 -15.29291,-11.777324 -15.29291,-11.777324 0,0 7.12611,6.262684 14.05466,15.449826 -3.39019,10.148807 -8.37847,25.784477 -11.7475,39.514117 -3.92289,4.94741 -3.92289,-9.06857 -3.92289,-17.8634 0,-8.79358 -4.37797,-40.124237 2.99861,-59.360942 0,0 -11.06664,22.260399 -17.29316,74.201062 -5.53156,12.36726 -5.64798,12.36726 -6.68514,5.49782 -1.03717,-6.87112 -4.03578,-25.14702 -7.60942,-29.2686 0,0 3.76767,13.23767 0.99836,21.84833 -2.76578,8.61108 -10.4528,-7.87944 -9.37683,-15.0243 1.07597,-7.14486 3.07622,-16.488851 5.37986,-20.520449 0,0 -7.22489,10.627729 -10.29759,23.819569 -3.07622,13.19014 -8.14563,-17.039688 4.45912,-36.093901 0,0 -7.99395,10.443549 -10.14589,27.847791 0,0 -6.45584,-21.436256 -16.90864,-29.130269 0,0 9.52853,10.603337 10.91141,22.61487 0,0 -4.7625,-11.988825 -10.91141,-13.638806 0,0 11.22186,11.360627 12.75644,30.963995 0,0 -2.921,2.74828 -4.7625,-7.87776 0,0 -3.53836,6.96237 -3.07622,18.32132 0,0 -4.14867,-16.81556 -0.84667,-29.452367 0,0 -4.84011,8.658177 -4.84011,23.084977 0,14.42932 -6.22653,4.26118 -5.76439,-1.64871 0.46214,-5.90864 3.91936,-15.11429 0.57503,-20.336701 0,0 0.34572,7.283201 -2.88219,13.878911 -3.22792,6.59612 -5.41867,12.22892 -5.76439,9.06899 -0.34573,-3.16036 -0.11289,-21.572921 2.88219,-30.092755 0,0 -3.68653,5.633219 -4.26508,16.352185 0,0 -3.15031,-14.015981 -12.37192,-18.047579 0,0 11.90978,9.115666 6.72394,24.092869 -3.57363,12.50393 -2.19075,15.52762 -4.6108,10.85521 -2.42006,-4.67157 -4.3815,-9.61898 -7.2637,-10.30521 0,0 -2.30716,-22.398327 0.69145,-30.093596 0,0 -5.88081,12.091847 -7.72231,21.162106 -1.84503,9.06899 -0.57855,16.90134 -2.19075,15.80135 -1.61572,-1.09788 -5.53508,-8.38108 -5.8808,-11.12894 -0.34573,-2.7487 1.4993,-10.168561 3.91936,-11.818538 0,0 -4.72723,1.786636 -5.9937,7.283198 0,0 0.80786,-9.756061 -1.61572,-13.603907 -2.42006,-3.847427 -4.3815,-8.931911 -4.3815,-8.931911 0,0 4.57553,15.390962 0.50094,25.008268 0,0 -2.05669,-3.88864 -3.49602,-8.358376 1.26294,6.270676 2.91394,15.564206 2.57527,19.901486 -0.53975,6.87113 -5.76438,14.65806 -5.76438,14.65806 0,0 -2.00026,-15.20679 0,-21.62 1.17475,-3.77342 2.286,-9.43818 3.01272,-13.497535 -0.13759,-0.448652 -0.26459,-0.889741 -0.38453,-1.344281 -0.71261,1.558731 -1.79917,3.453856 -3.51719,5.406586 -0.87842,-1.28206 -2.49414,-9.252749 -2.49414,-12.276023 0,-3.022022 -1.6122,-0.182916 -1.15359,6.137797 0.46214,6.320706 2.07434,18.414236 0.92428,24.596616 -1.15358,6.18363 -4.72722,12.09184 -5.41867,12.77891 -0.69144,0.68749 -0.92427,-13.46514 0.69145,-22.39664 1.39347,-7.71839 2.39889,-12.186455 2.64583,-13.263313 -0.11289,0.369602 -0.49742,1.05247 -1.95439,1.583123 0,0 -1.4993,0 -1.67216,-5.908221 0,0 -1.26648,3.090136 -1.49931,13.121621 -0.22931,10.03105 -7.72231,15.73449 -8.30086,15.87114 -0.57503,0.13709 0.06,-12.84787 3.51719,-24.287549 0,0 -3.46427,7.412709 -4.87891,19.944379 -1.59456,-13.00934 -4.22981,-24.649591 -4.22981,-24.649591 0,0 0.14464,2.786126 0.23989,6.924111 -1.00895,1.2152 -2.74461,3.61195 -4.70958,7.77012 -0.77612,-8.20827 -1.33703,-17.656955 -1.10067,-26.742345 0.49742,-19.189613 0.15169,-25.091938 0.004,-26.634272 1.03364,-2.203754 2.14841,-4.465116 3.37961,-6.801323 0,0 -12.92578,13.714914 -18.70075,41.651004 -0.93839,-1.122271 -1.82739,-2.059108 -2.7305,-3.029589 0.34925,-1.379185 0.73377,-2.722207 1.14652,-4.021078 -0.37041,1.067604 -0.80433,2.326954 -1.31586,3.834384 -8.56544,-9.160235 -15.29291,-11.777324 -15.29291,-11.777324 0,0 7.12963,6.262684 14.05819,15.449826 -3.39372,10.148807 -8.382,25.784477 -11.75103,39.514117 -3.91936,4.94741 -3.91936,-9.06857 -3.91936,-17.8634 0,-8.79358 -4.3815,-40.124237 2.99508,-59.360942 0,0 -11.06664,22.260399 -17.29316,74.201062 -5.53156,12.36726 -5.64798,12.36726 -6.68514,5.49782 -1.03717,-6.87112 -4.03578,-25.14702 -7.60942,-29.2686 0,0 3.76767,13.23767 0.99836,21.84833 -2.76578,8.61108 -10.4528,-7.87944 -9.37683,-15.0243 1.07597,-7.14486 3.07622,-16.488851 5.37986,-20.520449 0,0 -7.22136,10.627729 -10.29758,23.819569 -3.07271,13.19014 -8.14565,-17.039688 4.45911,-36.093901 0,0 -7.99396,10.443549 -10.1459,27.847791 0,0 -6.45583,-21.436256 -16.90899,-29.130269 0,0 9.52888,10.603337 10.91529,22.61487 0,0 -4.76638,-11.988825 -10.91529,-13.638806 0,0 11.22221,11.360627 12.76032,30.963995 0,0 -2.921,2.74828 -4.76603,-7.87776 0,0 -3.53624,6.96237 -3.07516,18.32132 0,0 -4.15078,-16.81556 -0.84561,-29.452367 0,0 -4.84187,8.658177 -4.84187,23.084977 0,14.42932 -6.22547,4.26118 -5.76439,-1.64871 0.46143,-5.90864 3.91971,-15.11429 0.57644,-20.336701 0,0 0.34607,7.283201 -2.8822,13.878911 -3.22791,6.59612 -5.41831,12.22892 -5.76403,9.06899 -0.34608,-3.16036 -0.11536,-21.572921 2.88219,-30.092755 0,0 -3.68935,5.633219 -4.26544,16.352185 0,0 -3.15136,-14.015981 -12.37438,-18.047579 0,0 11.91295,9.115666 6.725,24.092869 -3.57364,12.50393 -2.1904,15.52762 -4.61116,10.85521 -2.42111,-4.67157 -4.38115,-9.61898 -7.26299,-10.30521 0,0 -2.30575,-22.398327 0.6918,-30.093596 0,0 -5.87975,12.091847 -7.72442,21.162106 -1.84468,9.06899 -0.57644,16.90134 -2.1904,15.80135 -1.61396,-1.09788 -5.53367,-8.38108 -5.8794,-11.12894 -0.34572,-2.7487 1.4986,-10.168561 3.91972,-11.818538 0,0 -4.72687,1.786636 -5.99475,7.283198 0,0 0.8068,-9.756061 -1.61396,-13.603907 -2.42147,-3.847427 -4.38115,-8.931911 -4.38115,-8.931911 0,0 4.57306,15.390962 0.49953,25.008268 0,0 -2.05599,-3.88864 -3.49638,-8.358376 1.26401,6.270676 2.91395,15.564206 2.57422,19.901486 -0.28716,3.66704 -1.90182,7.55862 -3.35209,10.42422 -0.63994,-4.7788 -1.82139,-9.35198 -3.11362,-13.39704 0.13794,-1.50574 0.35701,-2.88367 0.70168,-3.98912 1.1758,-3.77342 2.28776,-9.43692 3.01236,-13.495852 -0.13723,-0.450335 -0.26317,-0.891424 -0.38346,-1.345964 -0.71156,1.558731 -1.79988,3.455116 -3.5172,5.406586 -0.87983,-1.28206 -2.49379,-9.252749 -2.49379,-12.276023 0,-3.022022 -1.61395,-0.182916 -1.15252,6.137797 0.2219,3.041774 0.70697,7.424476 1.02588,11.838296 -1.59244,-3.86298 -2.87231,-6.34173 -2.87231,-6.34173 0.70343,1.41997 1.98507,5.28001 3.05857,9.44111 0.18063,3.66999 0.1771,7.15411 -0.29033,9.65894 -0.85725,4.59841 -3.05084,9.03787 -4.40484,11.29797 -0.5909,-1.74879 -1.0558,-3.55267 -1.53,-5.35024 0.025,-4.68082 0.3528,-10.83123 1.2083,-15.56546 1.3949,-7.72008 2.39926,-12.189398 2.64691,-13.265 -0.11183,0.369609 -0.49671,1.054157 -1.95511,1.58481 0,0 -1.4986,0 -1.6718,-5.908221 0,0 -1.2679,3.090136 -1.4986,13.121621 -0.076,3.29827 -0.967,6.07725 -2.1089,8.39495 -1.4955,-4.30239 -3.0237,-7.65869 -4.3653,-10.03778 0.4724,-2.24917 1.0125,-4.53324 1.6898,-6.773579 0,0 -1.0033,2.112519 -2.1516,5.998199 -2.0133,-3.38531 -3.4992,-4.79519 -3.4992,-4.79519 1.2012,1.1845 2.2581,3.57874 3.0635,6.40733 -1.0326,3.80958 -2.0937,8.8865 -2.6003,15.16558 0,0 -0.073,-4.58832 -0.9282,-9.13417 0.1048,-3.28482 0.465,-5.98137 0.465,-5.98137 -0.4653,0.89268 -0.829,1.96366 -1.1518,3.0813 -0.3225,-1.11764 -0.6862,-2.18862 -1.1518,-3.0813 0,0 0.3601,2.69655 0.4649,5.98137 -0.8551,4.54585 -0.9278,9.13417 -0.9278,9.13417 -0.5066,-6.27908 -1.5681,-11.356 -2.6003,-15.16558 0.8047,-2.82859 1.8616,-5.22283 3.0632,-6.40733 0,0 -1.4859,1.40988 -3.4992,4.79519 -1.1487,-3.88568 -2.152,-5.998199 -2.152,-5.998199 0.6773,2.240339 1.2174,4.526089 1.6902,6.773579 -1.342,2.37909 -2.8702,5.73539 -4.3653,10.03778 -1.1423,-2.3177 -2.0331,-5.09668 -2.1089,-8.39495 -0.2307,-10.031485 -1.499,-13.121621 -1.499,-13.121621 -0.1728,5.908221 -1.6714,5.908221 -1.6714,5.908221 -1.4577,-0.530653 -1.8426,-1.213521 -1.9548,-1.583123 0.2484,1.076858 1.2517,5.544923 2.6462,13.263313 0.8559,4.73255 1.1836,10.88464 1.209,15.56546 -0.4748,1.79757 -0.9395,3.60145 -1.5304,5.35024 -1.3539,-2.2601 -3.5475,-6.69956 -4.4051,-11.29797 -0.4674,-2.50483 -0.4706,-5.98895 -0.2896,-9.65894 1.0735,-4.1611 2.3548,-8.02114 3.0582,-9.44111 0,0 -1.2795,2.47875 -2.8723,6.34173 0.3189,-4.41382 0.804,-8.796522 1.0262,-11.838296 0.4607,-6.320713 -1.1532,-9.159819 -1.1532,-6.137797 0,3.023274 -1.6136,10.993963 -2.4934,12.276023 -1.7177,-1.95273 -2.8057,-3.847855 -3.5172,-5.406586 -0.12,0.453281 -0.2459,0.895629 -0.3835,1.344281 0.7249,4.059355 1.8369,9.724115 3.0127,13.497535 0.3443,1.10545 0.5634,2.48338 0.7013,3.98912 -1.2922,4.04506 -2.4733,8.61824 -3.1132,13.39704 -1.451,-2.8656 -3.0657,-6.75718 -3.3528,-10.42422 -0.3394,-4.33728 1.3105,-13.63081 2.5745,-19.901486 -1.4407,4.469736 -3.4967,8.358376 -3.4967,8.358376 -4.0732,-9.617306 0.4999,-25.008268 0.4999,-25.008268 0,0 -1.96,5.084484 -4.3808,8.931911 -2.4211,3.847846 -1.6143,13.603907 -1.6143,13.603907 -1.2682,-5.496562 -5.9948,-7.283198 -5.9948,-7.283198 2.4208,1.649977 4.2655,9.069838 3.9197,11.818538 -0.3457,2.74786 -4.2654,10.03106 -5.8797,11.12894 -1.6136,1.09999 -0.3457,-6.73236 -2.19,-15.80135 -1.8447,-9.070259 -7.7241,-21.162106 -7.7241,-21.162106 2.9972,7.695269 0.6914,30.093596 0.6914,30.093596 -2.8822,0.68623 -4.8418,5.63364 -7.2626,10.30521 -2.4211,4.67241 -1.0379,1.64872 -4.6119,-10.85521 -5.1876,-14.977203 6.725,-24.092869 6.725,-24.092869 -9.2226,4.031598 -12.3736,18.047579 -12.3736,18.047579 -0.5765,-10.718966 -4.2658,-16.352185 -4.2658,-16.352185 2.9972,8.519834 3.2279,26.932395 2.8822,30.092755 -0.3458,3.15993 -2.5362,-2.47287 -5.7644,-9.06899 -3.2279,-6.59571 -2.8822,-13.878911 -2.8822,-13.878911 -3.3433,5.222411 0.1157,14.428061 0.5764,20.336701 0.4614,5.90989 -5.764,16.07802 -5.764,1.64871 0,-14.4268 -4.8423,-23.084977 -4.8423,-23.084977 3.3056,12.636807 -0.8452,29.452367 -0.8452,29.452367 0.4611,-11.35895 -3.0745,-18.32132 -3.0745,-18.32132 -1.8443,10.62604 -4.7649,7.87776 -4.7649,7.87776 1.5374,-19.603368 12.7582,-30.963995 12.7582,-30.963995 -6.1486,1.649981 -10.9136,13.638806 -10.9136,13.638806 1.3833,-12.011533 10.9136,-22.61487 10.9136,-22.61487 -10.4525,7.694013 -16.9083,29.130269 -16.9083,29.130269 -2.152,-17.404242 -10.1452,-27.847791 -10.1452,-27.847791 12.6044,19.054213 7.5318,49.284041 4.4574,36.093901 -3.0738,-13.19184 -10.2987,-23.819569 -10.2987,-23.819569 2.3061,4.031598 4.3043,13.375589 5.3802,20.520449 1.0756,7.14486 -6.61,23.63538 -9.3768,15.0243 -2.7665,-8.61066 0.9994,-21.84833 0.9994,-21.84833 -3.574,4.12158 -6.5712,22.39748 -7.6091,29.26859 -1.0375,6.86944 -1.1528,6.86944 -6.6862,-5.49781 -6.2258,-51.940663 -17.2931,-74.201062 -17.2931,-74.201062 7.3783,19.236705 2.9979,50.567352 2.9979,59.360942 0,8.79483 0,22.8108 -3.9201,17.8634 -3.3711,-13.72964 -8.3598,-29.36531 -11.7507,-39.514117 6.9282,-9.187142 14.0565,-15.449826 14.0565,-15.449826 0,0 -6.7275,2.617089 -15.2929,11.777324 -0.5112,-1.504488 -0.9444,-2.762155 -1.3141,-3.829763 0.4138,1.297612 0.7948,2.638535 1.1447,4.016457 -0.9013,0.970481 -1.7935,1.907318 -2.7298,3.029589 -5.7735,-27.93609 -18.6993,-41.651004 -18.6993,-41.651004 1.2287,2.336207 2.3435,4.597569 3.3782,6.801323 -0.1482,1.542334 -0.4957,7.444659 0,26.634272 0.6149,23.634965 -4.1501,49.834445 -4.1501,49.834445 -0.092,-0.40155 -0.2148,21.17599 -0.3161,43.05584 h -0.183 V 242.3795 H 1358.073 v -24.37964 -43.0428 -71.39349 c -0.5221,-6.863552 -0.8396,-14.295599 -0.6527,-21.4968 0.501,-19.189613 0.1517,-25.091938 0,-26.634272 0.2011,-0.424268 0.4445,-0.879232 0.6491,-1.306446 v -2.068361"
                style="fill:#009400;fill-opacity:1;fill-rule:nonzero;stroke:none;stroke-width:0.0385145"
                id="path1483" />
        </g>
    </svg>