<?xml version="1.0" encoding="UTF-8" standalone="no"?>
<!-- Created with Inkscape (http://www.inkscape.org/) -->

<svg
   version="1.1"
   id="svg3076"
   width="2103.2295"
   height="499.25339"
   viewBox="0 0 2103.2295 499.25338"
   sodipodi:docname="grass_noir_1.svg"
   inkscape:version="1.2.2 (b0a8486541, 2022-12-01)"
   xmlns:inkscape="http://www.inkscape.org/namespaces/inkscape"
   xmlns:sodipodi="http://sodipodi.sourceforge.net/DTD/sodipodi-0.dtd"
   xmlns="http://www.w3.org/2000/svg"
   xmlns:svg="http://www.w3.org/2000/svg">
  <defs
     id="defs3080" />
  <sodipodi:namedview
     id="namedview3078"
     pagecolor="#ffffff"
     bordercolor="#000000"
     borderopacity="0.25"
     inkscape:showpageshadow="2"
     inkscape:pageopacity="0.0"
     inkscape:pagecheckerboard="0"
     inkscape:deskcolor="#d1d1d1"
     showgrid="false"
     inkscape:zoom="0.35999999"
     inkscape:cx="1509.7223"
     inkscape:cy="622.22225"
     inkscape:window-width="1700"
     inkscape:window-height="755"
     inkscape:window-x="220"
     inkscape:window-y="159"
     inkscape:window-maximized="0"
     inkscape:current-layer="g3084">
    <inkscape:page
       x="0"
       y="0"
       id="page3082"
       width="2103.2295"
       height="499.25339" />
  </sodipodi:namedview>
  <g
     id="g3084"
     inkscape:groupmode="layer"
     inkscape:label="Page 1"
     transform="matrix(1.3333333,0,0,-1.3333333,-2.0446599,2058.84)">
    <g
       id="g3086"
       transform="matrix(0.02426766,0,0,0.02426766,1.5456288,1169.704)"
       style="fill:#000400">
      <path
         d="m 50360.2,1967.4 c -16.8,1.2 -33.5,2.4 -50.3,3.6 -16.8,-121.1 -33.7,-242.2 -50.5,-363.4 12.4,-2 24.7,-4.1 37,-6.1 21.3,121.9 42.5,243.9 63.8,365.9 z M 3781.17,8978.09 c -11.84,-12.25 -23.69,-24.5 -35.53,-36.75 59.07,-61.92 118.14,-123.83 177.21,-185.74 10.99,6.05 21.98,12.09 32.98,18.13 -5.26,68.38 -10.53,136.75 -15.79,205.12 -7.53,-0.57 -15.06,-1.13 -22.58,-1.69 -12.18,-30.87 -24.36,-61.73 -33.09,-83.84 -38.1,31.3 -70.65,58.03 -103.2,84.77 z M 60979.9,471.699 c 17.5,0.699 35,1.399 52.5,2.102 -11.9,129.199 -23.8,258.398 -35.7,387.597 -5.6,-0.597 -11.2,-1.199 -16.8,-1.796 0,-129.301 0,-258.602 0,-387.903 z M 23512.2,8549.72 c -26.8,-12.34 -53.5,-24.68 -80.3,-37.01 49.7,-81.61 99.4,-163.21 149.1,-244.82 13.8,7.38 27.5,14.76 41.2,22.14 -36.7,86.56 -73.4,173.13 -110,259.69 z m -8861.9,2959.18 c 12,-2.3 23.9,-4.5 35.9,-6.7 33.3,51.3 66.5,102.6 110.6,170.6 -76.2,7.9 -120.6,12.5 -172.5,17.9 8.9,-61.8 17.4,-121.8 26,-181.8 z M 8737.55,2675.5 c 7.66,-0.2 15.32,-0.4 22.98,-0.5 0,176.6 0,353.2 0,529.8 -7.66,-0.1 -15.32,-0.1 -22.98,-0.2 0,-176.4 0,-352.8 0,-529.1 z m 30357.95,9241.8 c -118,-94.5 -113.9,-145.5 0,-258.9 0,81.4 0,157.2 0,258.9 z m 1336.8,-9187.1 c 134.4,120.1 137.6,162.6 24.5,311.1 -7.8,-98.8 -15.5,-197.7 -24.5,-311.1 z M 5095.97,1545 c 1.64,-0.1 3.27,-0.2 4.91,-0.4 9.11,144 18.22,288 27.33,431.9 -10.75,0.5 -21.49,1 -32.24,1.5 0,-144.3 0,-288.6 0,-433 z M 15777.7,4123.3 c 19,6.4 38.1,12.8 57.1,19.2 -25.6,96.4 -51.2,192.8 -76.7,289.2 -18.6,-4.9 -37.1,-9.8 -55.6,-14.6 25.1,-98 50.1,-195.9 75.2,-293.8 z M 11330.3,914.301 c -17.4,-1.203 -34.9,-2.5 -52.4,-3.801 9.6,-141.402 19.3,-282.699 28.9,-424.102 16.3,1.301 32.7,2.602 49,3.903 -8.5,141.297 -17,282.699 -25.5,424 z M 671.23,4502.6 c 15.25,0.4 30.5,0.9 45.75,1.3 -5.941,129.2 -11.878,258.4 -17.82,387.6 -9.308,-0.5 -18.621,-1 -27.93,-1.5 0,-129.1 0,-258.3 0,-387.4 z M 5593.54,1552.4 c -17.71,-1.5 -35.41,-3 -53.11,-4.6 10.67,-115.7 21.35,-231.5 32.03,-347.3 16.94,1.5 33.87,2.9 50.81,4.4 -9.91,115.8 -19.83,231.6 -29.73,347.5 z M 37894.8,485.699 c 7.5,0.801 15.1,1.602 22.6,2.5 0,194.5 0,389.102 0,583.601 -7.5,0.1 -15.1,0.1 -22.6,0.1 0,-195.4 0,-390.798 0,-586.201 z m -32055.57,300 c -16.01,-112.5 -30.32,-213.097 -45.88,-322.398 128.2,30.398 138.45,141.597 45.88,322.398 z M 20782.7,1010.5 c -2.8,-0.2 -5.6,-0.4 -8.4,-0.6 -13.2,-173.002 -26.4,-346.099 -39.6,-519.099 16,-0.903 32,-1.703 48,-2.5 0,174 0,348.097 0,522.199 z M 2875.47,1617.6 c -15.83,4.5 -31.66,9.1 -47.5,13.6 -41.6,-129.4 -83.19,-258.9 -124.79,-388.4 19.38,-6 38.76,-12 58.15,-18 38.04,130.9 76.09,261.9 114.14,392.8 z m 468.86,807.4 c -20.59,0.7 -41.19,1.3 -61.78,2 0,-129.3 0,-258.5 0,-387.8 12.87,-0.7 25.75,-1.4 38.62,-2 7.72,129.3 15.44,258.5 23.16,387.8 z m 5482.38,5029.45 c 73.79,137.19 24.57,231.42 -164.05,266.61 65.05,-105.7 111.26,-180.81 164.05,-266.61 z M 28034.5,2734.8 c -17.5,113 -35,226 -54.1,349.6 -152.4,-147.8 -45.1,-245.6 54.1,-349.6 z M 54492.1,1529.6 c -20.3,0.2 -40.6,0.3 -60.9,0.4 6,-133.2 12,-266.3 18,-399.5 14.3,0.4 28.6,0.8 42.9,1.2 0,132.6 0,265.3 0,397.9 z M 17390.5,1146.9 c 13.3,0.4 26.6,0.8 40,1.2 0,149.6 0,299.3 0,449 -13.4,0 -26.7,0 -40,-0.1 0,-150 0,-300 0,-450.1 z m 20228.7,405.4 c 12.9,-3.2 25.7,-6.3 38.6,-9.4 22.4,213.1 44.7,426.2 67.1,639.4 -12,1.2 -23.9,2.5 -35.9,3.8 -23.3,-211.3 -46.5,-422.5 -69.8,-633.8 z m -9434.7,-169.5 c 5.1,-2.6 10.2,-5.1 15.3,-7.6 -25.6,-111.6 -64.2,-222.2 -72.8,-335 -8.1,-106.102 15.6,-214.602 25.3,-322.102 10.8,0.601 21.5,1.101 32.2,1.601 0,221 0,442.101 0,663.101 z M 14288.2,11614.1 c -12.3,-77.1 -19.6,-123 -27.2,-170.8 43.2,-15.8 84.6,-30.9 127.4,-46.5 27.2,42.1 52.2,80.9 83.2,128.8 -62.7,30.3 -116.8,56.4 -183.4,88.5 z M 18487,4218.6 c 186.5,247.4 190.3,274.7 66.5,455.5 -22,-151.1 -42.9,-294.2 -66.5,-455.5 z M 31454.3,957.301 c 0,202.499 0,392.099 0,581.599 -12.9,1.6 -25.9,3.1 -38.9,4.7 -16.4,-124 -64,-255.5 -36.8,-369.1 14.8,-61.4 10.8,-147.5 75.7,-217.199 z M 16449.8,2474.5 c 21.3,-185.2 -54.4,-401.4 160,-566.1 -58.9,208.4 -109.4,387.2 -160,566.1 z m 44038.9,8547.6 c 0,160.9 0,293.9 0,446.9 -143.5,-195.5 -143.9,-253.2 0,-446.9 z M 6654.76,1929.7 c 16.04,-2.9 32.07,-5.7 48.1,-8.6 43.12,229.6 86.23,459.2 129.34,688.8 -17.67,3.1 -35.35,6.3 -53.02,9.5 -41.47,-229.9 -82.95,-459.8 -124.42,-689.7 z m 15203.04,-584 c -20.4,-2.1 -40.8,-4.1 -61.2,-6.1 26.3,-179.5 52.6,-359.1 78.9,-538.702 20.3,2.801 40.7,5.602 61.1,8.301 -26.3,178.801 -52.5,357.601 -78.8,536.501 z M 25563.3,552.102 C 25542.6,778 25522,1004 25499.4,1252.2 c -158.8,-263.001 33.3,-473.598 63.9,-700.098 z M 58561.5,2621.1 c -14,-212.6 -26.2,-398.2 -39.7,-603.8 181.6,196.2 132.3,383.9 39.7,603.8 z m -4615.2,1526.7 c 15.2,-1.5 30.4,-3 45.7,-4.5 31.1,314.6 62.3,629.1 93.5,943.7 -15.2,1.5 -30.3,3 -45.5,4.5 -31.2,-314.6 -62.5,-629.1 -93.7,-943.7 z m -40594.9,-3066 c 0,209.4 0,385.2 0,561 -110.2,-209.4 -108.5,-344.7 0,-561 z M 50387.7,3987 c 41.3,-243.3 81.1,-478.4 127.4,-752.2 30.6,107.1 82.8,187.8 65.5,249 -47.8,169.6 -124.6,331 -192.9,503.2 z M 979.531,2142.3 c -0.82,-0.1 -1.644,-0.3 -2.465,-0.4 0,-291.7 0,-583.4 0,-875.1 14.786,0.6 29.574,1.2 44.354,1.8 -13.96,291.2 -27.928,582.5 -41.889,873.7 z M 49411.4,1130.6 c -32.5,-220.1 -65,-440.1 -99.6,-674.901 107.8,40 138,249.301 99.6,674.901 z m 6167.2,1159.7 c -8.2,-1.4 -16.5,-2.8 -24.8,-4.2 0,-280 0,-559.9 0,-839.9 8.3,-0.1 16.6,-0.3 24.8,-0.4 0,281.5 0,563 0,844.5 z m -40785.1,220 c 19.3,-222.9 38.5,-445.7 60.5,-700.2 118.7,262.9 22.8,477 -60.5,700.2 z M 3905.33,6464.37 c -17,-264.28 -31.87,-495.69 -46.75,-727.11 39.37,229.85 202.91,451.73 46.75,727.11 z M 6290.49,3132.4 c 151.42,269.1 -52.29,399 -173.25,557.7 55.96,-180.2 111.92,-360.3 173.25,-557.7 z M 20742.6,1276.9 c 14.6,-0.5 29.2,-1 43.7,-1.5 14.9,235.5 29.7,470.9 44.6,706.4 -97.3,-228.4 -139.1,-462.1 -88.3,-704.9 z m 4974.4,584.7 c -160.7,-229.2 -110.9,-417.4 0,-636.1 0,219.6 0,408.4 0,636.1 z m -6232.7,-43.1 c -50.2,-245.4 -93.8,-458.4 -137.4,-671.3 17.2,-3.2 34.4,-6.3 51.6,-9.4 7.8,219.4 232.5,398.6 85.8,680.7 z M 21150,1242.4 c 85.7,240.7 93.6,650.7 0,1008.6 0,-341.4 0,-682.8 0,-1008.6 z m 38365.9,364.7 c -17.3,1.4 -34.6,2.8 -52,4.2 -27.6,-353.2 -55.3,-706.3 -83,-1059.402 13.1,-1.097 26.1,-2.097 39.2,-3.199 31.9,352.801 63.9,705.601 95.8,1058.401 z M 8091.14,1027.8 c 167.1,238.4 94.46,506.2 0,774.3 0,-264.9 0,-529.8 0,-774.3 z M 6438.32,2633.4 c 160.25,329.9 154.86,473.4 0,551 0,-189.6 0,-370.3 0,-551 z M 49980.1,1408.8 c 60.7,300.2 63.1,571.6 -132.7,829.1 45.4,-283.8 87.9,-549.3 132.7,-829.1 z M 15409.3,1288.4 c -7.4,-0.8 -14.8,-1.6 -22.2,-2.4 0,-249.8 -1.4,-499.699 2,-749.5 0.3,-24.902 29.1,-49.398 44.6,-74 15,23.5 44.6,48.199 42.8,70.398 -19.6,252.102 -44.1,503.702 -67.2,755.502 z m 4048.4,-656.502 c 14,-0.398 28,-0.898 42.1,-1.398 8.6,280.801 224.7,541.4 67.3,854.6 -37.8,-295.2 -73.6,-574.202 -109.4,-853.202 z M 46516.2,1732.4 c 0,-227.9 0,-432 0,-668.4 128.4,238 133.2,442.2 0,668.4 z m -35139,-313.3 c 18.1,-0.9 36.2,-1.9 54.4,-2.9 17.5,273.5 35,547.1 52.5,820.6 -71.7,-269.7 -169,-537.2 -106.9,-817.7 z m 50002.5,592.5 c 17.5,3.6 35.1,7.3 52.7,10.9 -43.7,205.1 -87.3,410.1 -138.3,649.6 -137.2,-277.2 7.2,-462.3 85.6,-660.5 z M 31313.9,1059.2 c -13,0.9 -26,1.9 -39.1,2.8 -24.1,-159.199 -52.1,-318 -69,-478 -3.3,-31.102 36.7,-66.699 56.7,-100.301 26.2,27.403 75.2,55 74.9,82.102 -1.6,164.597 -14.4,329 -23.5,493.399 z M 52325,4347.8 c 6.8,0.5 13.6,0.9 20.4,1.4 11,182.6 21.9,365.1 32.9,547.6 -301.6,-431.8 -301.6,-431.8 -187.1,-520.8 20.2,95.9 40.8,193.3 61.3,290.8 9.5,-2.3 18.9,-4.6 28.4,-6.9 14.7,-104 29.4,-208.1 44.1,-312.1 z M 48030.6,1459.2 c -92,-262.5 -246.4,-518.302 -92.2,-829.598 32.3,290.898 62.3,560.298 92.2,829.598 z m 7695.3,1288.9 c 0,-256.8 0,-474.2 0,-720.9 88.1,244.3 201.3,458.3 0,720.9 z M 17399.2,2568.8 c -70.6,-267.8 -141.1,-535.6 -211.7,-803.4 17.3,-4.5 34.7,-9 52,-13.4 76.4,266.8 236.7,511.8 159.7,816.8 z M 33616.1,3292 c 169.4,222 300.9,453.5 198,777.3 -71.3,-280.1 -134.7,-528.7 -198,-777.3 z M 44639.2,1595 c -10.8,1.1 -21.5,2.2 -32.3,3.3 -22.5,-350.6 -46.3,-701.101 -65.1,-1051.902 -1.4,-26 33.2,-53.898 51,-81 15.5,24.704 44.2,49.301 44.4,74.204 3,351.699 2,703.598 2,1055.398 z M 26457,1376.1 c -16.4,3 -32.9,6.1 -49.4,9.2 -134.7,-191 -213.9,-392.3 -68.4,-635.101 39.3,208.602 78.5,417.201 117.8,625.901 z m 32675,103.1 c 105.9,243 8.7,479.2 16.1,713.9 -153.9,-229.5 -122.9,-463.7 -16.1,-713.9 z M 9848.77,1218.9 c 13.19,2.8 26.38,5.6 39.57,8.4 52.01,283.7 -1.33,592.4 -161.15,746.3 40.52,-251.6 81.05,-503.2 121.58,-754.7 z M 1748.72,474.602 C 1808.65,782 1729.36,1067.2 1614.63,1346.8 c -48.01,-305.6 97.11,-580.3 134.09,-872.198 z m 44121.58,27.699 c 125.9,406.097 61.5,809.199 0,1212.399 0,-404.1 0,-808.2 0,-1212.399 z M 29383.3,3386.9 c 153.7,301.8 -70.1,560.6 -99.7,841.7 -48.6,-289 48.1,-563.2 99.7,-841.7 z M 3163.14,2733.6 c 11.06,-1.3 22.13,-2.5 33.19,-3.8 24.79,55.8 78.31,116.7 69.55,166.7 -44.91,256.1 -105.86,509.5 -161.2,763.8 -12.45,-2.2 -24.9,-4.4 -37.35,-6.7 31.94,-306.6 63.87,-613.3 95.81,-920 z m 58324.76,588.1 c -9,2.1 -17.9,4.2 -26.9,6.2 -41.6,-135.6 -72.7,-275.8 -127.6,-405.9 -67.8,-160.4 -24.9,-283.8 101.9,-413.7 18.2,281.9 35.4,547.6 52.6,813.4 z M 35481.5,2034.5 c -171,-257.9 -226.1,-514.1 -169.6,-820 77.9,283.4 221.3,524.5 169.6,820 z M 13891.8,1650.3 c 18.9,2.7 37.7,5.4 56.5,8.1 -34.9,294.7 -69.9,589.4 -104.8,884.1 -15.3,-1.6 -30.5,-3.2 -45.8,-4.7 -14.7,-300.1 -39.1,-601 94.1,-887.5 z M 22503.2,485.5 c 16.6,307.699 33.2,615.4 49.8,923 -170.1,-298.2 -164.7,-607.199 -49.8,-923 z m 36334.1,883.7 c -75.9,-231.6 -58.3,-676.302 27.1,-807.098 93.9,365.796 90.8,490.098 -27.1,807.098 z M 57442,3987.3 c 103.1,317.1 -93.2,575.4 -164.7,858.8 -52.1,-306.3 102.4,-573.4 164.7,-858.8 z M 52040,1405.1 c -231.8,-302.9 -37.9,-610.901 -36.8,-916.401 12.3,-0.199 24.6,-0.398 36.8,-0.601 0,305.402 0,610.802 0,917.002 z M 19068.7,1794 c 5.9,-2.2 11.9,-4.5 17.8,-6.7 42.4,136.8 70.2,280.6 130.6,409 96.8,205.5 86,402.5 -10,645.9 -49.5,-375.2 -94,-711.7 -138.4,-1048.2 z m 7966.7,508.1 c -303.5,-303.3 -372.3,-455.7 -349.6,-784 142.7,255.4 340.6,474.9 349.6,784 z M 11833.4,958.699 c 10,-0.801 19.9,-1.5 29.9,-2.199 29.7,339.6 64.4,679 84.6,1019.2 3.7,63.5 -50.9,130.4 -78.6,195.7 -12,-3.8 -23.9,-7.7 -35.9,-11.5 0,-400.4 0,-800.8 0,-1201.201 z M 41677.3,3613.6 c -56.8,-161.8 -156.5,-314.2 -60.4,-495.6 77.1,-145.4 121.5,-308.2 180.4,-463.3 8,2.4 16.1,4.8 24.1,7.2 -48.1,317.2 -96.1,634.4 -144.1,951.7 z M 2911.13,3961.4 c 51.37,334.7 -4.12,716.3 -139.66,960.4 -112.28,-362.2 110.74,-647.2 139.66,-960.4 z M 29965.5,2815.1 c -102.1,-411.6 -88.6,-788 139,-1139.5 -45.7,374.9 -91.1,747.2 -139,1139.5 z M 26777.6,451.898 c 32.9,22.704 88.5,41 92,66.403 35.6,258.5 62.8,518.099 92.3,777.399 -161.4,-249.6 -297.6,-502.802 -184.3,-843.802 z M 40646.9,2557.1 c -12.8,1.7 -25.5,3.3 -38.2,5 -28.7,-67.6 -92.3,-142.5 -79.9,-201.6 50,-239.9 123.4,-475 193.4,-731 159.9,345.8 -79.6,622.3 -75.3,927.6 z m -467,1727.9 c -242.9,-295.1 -279.8,-596.4 -47.8,-923.3 16.3,314.7 31.9,617.3 47.8,923.3 z m 2683.2,-620.9 c -22.6,5.2 -45.2,10.4 -67.9,15.6 -67.4,-194.2 -144.2,-385.8 -199.4,-583.4 -51.3,-183.5 -41.1,-186.3 123.5,-308.1 48.6,295.9 96.2,585.9 143.8,875.9 z M 25208.9,2756 c 19.2,-408.2 -90.2,-822.6 73.4,-1222.8 36.1,98.1 79.7,201.2 68.3,297.8 -36.3,309.6 -92.9,616.9 -141.7,925 z M 9052.5,2419 c -6.54,-317 -121.47,-621.5 42.49,-918.4 159.72,372.5 151.14,600 -42.49,918.4 z M 52703.4,511.5 c 19.5,-2.301 39,-4.5 58.5,-6.801 44.6,434 273.9,847.601 99.3,1305.901 -52.6,-433 -105.2,-866.1 -157.8,-1299.1 z m -18840.1,1265 c 0,340.2 0,690.7 0,1032.7 -209.5,-379.1 -207.7,-716.4 0,-1032.7 z M 23343.6,3817.9 c -129.8,-400.4 -370.9,-796.4 -122,-1233.8 40.2,406.1 81.1,820 122,1233.8 z M 57900.8,741.5 c 153.5,328.3 204.8,828.6 113.6,1108.4 C 57866.3,1574 57841,1327.2 57900.8,741.5 Z M 2733.98,3569 c -42.95,315.7 -80.19,589.5 -117.43,863.3 -86.88,-137.7 -144,-274.7 -191.87,-414.9 -11.79,-34.5 -7.79,-90.9 13.54,-117.4 83.01,-103.4 175.91,-198.8 295.76,-331 z M 61175.6,709.398 c 128.6,374.902 112.1,699.702 -98.3,1004.502 -151.7,-347.3 75,-645.3 98.3,-1004.502 z M 48302.8,2431.7 c -125.7,-526 21.2,-1042.7 55.5,-1563.802 20.4,522.102 62.4,1044.802 -55.5,1563.802 z m 2245.8,-186.9 c 186.8,356.2 148.6,704.2 114.3,1051.7 -149.4,-329.2 -220.6,-666.7 -114.3,-1051.7 z M 62089.3,904 c 30.5,471 60.9,942.1 91.3,1413.1 -14.4,0.9 -28.8,1.9 -43.3,2.8 -159.1,-619.7 -193.5,-1203.2 -48,-1415.9 z M 50222,11602.6 c -26.8,-74.7 -59.3,-147.9 -78.2,-224.5 -9.5,-38.6 -4.1,-115.5 11.2,-120.1 131.4,-39.9 74.3,-142.8 80.6,-230.1 44,-2.3 84.8,-4.5 140.7,-7.4 -3.2,-65.4 -6.2,-124.5 -9.6,-192.7 193,-66.2 56.7,-231.5 88.5,-397.9 55.4,168.7 98.5,300 142.4,433.9 -166.1,36.9 -176.1,76.5 -109.6,316.1 -49.9,-6.4 -101.8,-13.1 -153.7,-19.7 21.1,74.3 42.2,148.7 65.9,231.9 -156.7,-15.8 -165.9,91 -178.2,210.5 z M 23860.7,476.199 c 13.7,0.102 27.4,0.102 41.1,0.199 69.6,411.801 270.4,819.502 16.9,1242.202 -19.3,-206.7 -46.2,-412.4 -55.8,-618.8 -9.7,-207.499 -2.2,-415.702 -2.2,-623.601 z M 35351.5,2562.4 c 22.2,-3.4 44.4,-6.8 66.7,-10.3 194.1,446.5 187.1,923.8 198.1,1398.4 -15.2,2.3 -30.3,4.7 -45.4,7 -73.2,-465 -146.3,-930.1 -219.4,-1395.1 z M 4633.65,1167.4 c 18.45,1 36.9,2 55.35,2.9 28.25,362.6 56.5,725.1 84.75,1087.7 -17.07,1.4 -34.13,2.7 -51.2,4.1 -95.3,-359 -295.86,-708.5 -88.9,-1094.7 z M 41047,3209.5 c -14.7,4 -29.4,8 -44.1,12.1 -81,-111.7 -164.5,-221.7 -241.2,-336.2 -21.9,-32.8 -42.2,-84.2 -32.2,-117.7 46.5,-154.8 103.9,-306.4 157.4,-459.1 17.4,-0.1 34.7,-0.2 52,-0.2 36.1,300.3 72.1,600.7 108.1,901.1 z m -9294.5,-331.4 c 12.9,-3.1 25.8,-6.1 38.8,-9.2 105.9,313.2 203.1,629.8 321.5,938.2 60,156.3 55.7,282.3 -85.6,420.2 -93.7,-460.1 -184.2,-904.7 -274.7,-1349.2 z M 63863.3,480 c 108.6,401.199 337.3,783.4 179.5,1254 -153.2,-421.8 -191.5,-833.898 -179.5,-1254 z M 42432.1,2678.2 c -118,-412.4 13.4,-795.8 19.9,-1182.1 48.2,222 64.9,448.8 124.3,663.8 55.5,200.7 3.2,352 -144.2,518.3 z m 11681,1469.5 c -45.2,-82.7 -72.6,-133.3 -100.4,-183.6 -196,-355.1 -178.1,-522.2 100.4,-858.2 0,343.4 0,675.5 0,1041.8 z M 46221.9,2709.2 c -12.3,-0.9 -24.5,-1.8 -36.7,-2.7 39.7,-416.1 79.5,-832.1 119.2,-1248.2 66.8,130 114.3,259.1 155.5,390.2 12,38.2 17.7,86 6,122.9 -78.3,246.9 -162.1,492.1 -244,737.8 z m 6247.7,2722.76 c 11.3,-5.86 22.5,-11.66 33.8,-17.46 81.1,116.3 164,231.46 241.6,350.06 13.1,19.93 12.9,58.92 2.7,82.01 -83.9,190.27 -171.6,378.86 -258.2,567.96 -6.6,-2.4 -13.2,-4.8 -19.9,-7.21 0,-325.12 0,-650.24 0,-975.36 z M 22752.1,2105.6 c -14.7,3.5 -29.3,6.9 -43.9,10.3 -137.5,-337.5 -201.7,-679.6 -59.2,-1034.2 12.2,46.9 24.5,94.6 36.8,142.2 8.1,-0.6 16.1,-1.1 24.2,-1.7 11.4,-81.5 22.8,-163 34.2,-244.598 18.5,2.097 36.9,4.097 55.4,6.199 -15.9,373.899 -31.7,747.899 -47.5,1121.799 z m 6053.5,-773.9 c 13.7,-2 27.3,-4 41,-6.1 29.5,311.4 64.2,622.4 86.2,934.3 9.4,134 -7.5,269.7 -12.5,404.7 -21.1,0 -42.2,0 -63.3,0 -27.5,-443.8 -240.7,-878.4 -51.4,-1332.9 z m -2941,1920.5 c 11.4,-0.8 22.8,-1.5 34.1,-2.3 83.3,166.1 170.1,330.5 247.2,499.4 16.9,36.8 15.5,98.9 -4.8,133 -86.8,145.9 -183.8,285.7 -276.5,426.8 0,-361.7 0,-709.3 0,-1056.9 z M 36287.4,2179.5 c 3.7,-0.6 7.5,-1.2 11.2,-1.8 19.2,463.9 38.4,927.7 57.6,1391.5 -136.2,-196.2 -297.5,-374.2 -226.6,-641.4 65.3,-246.1 106.2,-498.6 157.8,-748.3 z m 6885.2,713.9 c -93.4,-383.2 -131.2,-763.3 82,-1131.9 189.4,398.4 54.9,764.5 -82,1131.9 z M 27803.3,4328.9 c -8.6,0.1 -17.1,0.3 -25.7,0.4 -34.9,-415.5 -69.9,-830.9 -106.1,-1262.3 270.8,101.1 296.3,142.1 256.3,366.6 -5.9,33.2 -9.4,66.8 -14,100.3 -36.8,265 -73.7,530 -110.5,795 z m 21707.5,2355.15 c -54.4,-176.27 -98.7,-311.74 -136.2,-449.08 -7.4,-27.24 2.7,-68.04 19.8,-91.83 155.2,-216.58 313.7,-430.76 471.2,-645.65 7.1,3.41 14.2,6.83 21.2,10.24 -120.9,378.11 -241.7,756.21 -376,1176.32 z M 26803.5,4401.6 c -9.7,4.6 -19.3,9.3 -29,13.9 -72.7,-165.1 -146.8,-329.7 -216.8,-496 -10,-23.8 -11.6,-64.7 2.3,-82.7 125.9,-163.4 256.1,-323.6 409.9,-515.7 -59.7,387.4 -113.1,733.9 -166.4,1080.5 z M 6815.68,860.102 c 8.84,-4.301 17.68,-8.704 26.52,-13 51.8,142.597 103.59,285.198 164.59,453.098 12.36,-68.6 19.83,-110 32.59,-180.7 117.49,349.5 275.7,666.7 -21,995.9 -69.27,-429 -135.98,-842.2 -202.7,-1255.298 z M 52661.2,1435.1 c 300.8,436.8 176.1,847.4 -78.9,1273 -66.9,-447.9 48.4,-858.3 78.9,-1273 z M 41444.9,2723.5 c -35.1,-546.6 -170,-1086.5 -53.6,-1640.9 44.5,389.7 89.1,779.5 133.7,1169.2 11.4,0.1 22.7,0.1 34,0.2 11.2,-161.5 22.5,-323 36.3,-522.7 140.3,386.9 -94.1,675 -150.4,994.2 z M 32975.7,1478.7 c 12,-1.4 23.9,-2.8 35.9,-4.2 61.2,251.9 122.9,503.7 182.8,755.9 5.3,22.4 6.4,51.9 -3.9,70.9 -95,175.1 -193.1,348.7 -290.2,522.7 -9.6,-3.3 -19.1,-6.6 -28.7,-9.8 34.7,-445.2 69.4,-890.3 104.1,-1335.5 z m -5229.2,1272 c -147.3,-191.3 -62.5,-777.2 153.1,-1139.8 253.8,412.3 13.2,767.9 -153.1,1139.8 z m -712.4,-73.1 c -167.3,246.8 -334.2,492.9 -509.2,751.1 48.7,-374.5 94.9,-729.2 143,-1098.2 118.7,112.5 234.8,222.5 366.2,347.1 z m -733.4,770.1 c -10.4,3.1 -20.8,6.3 -31.2,9.4 -21.3,-41 -47.8,-80.3 -63,-123.5 -97,-277.5 -188.1,-557.2 -288,-833.7 -76.6,-211.8 13.9,-389.3 112.2,-572.2 90,506.6 180,1013.3 270,1520 z M 29410.3,740.898 c 152.5,859.702 138.6,1320.502 -46.4,1550.502 -26.1,-606.5 -51.9,-1206 -77.7,-1805.599 16.2,-0.699 32.4,-1.403 48.6,-2.199 13.6,112.398 27.1,224.699 43.6,362.398 13.1,-43.102 18.3,-60.301 31.9,-105.102 z M 57281.9,2625.7 c -12.5,0.2 -24.9,0.4 -37.4,0.6 -48.9,-643.6 -97.9,-1287.3 -146.8,-1930.999 17.7,-2.102 35.5,-4.102 53.2,-6.203 24.4,131.601 48.8,263.3 73.3,394.902 6,32.7 3.3,87.6 20.1,94.5 158.9,65 131.6,202.2 123.8,323 -24,375 -56.8,749.5 -86.2,1124.2 z M 50838,1031.9 c 61.1,174.3 116.3,331.1 170.5,488.1 7.7,22 13.5,66 15.3,65.7 119.6,-17.1 96.5,94.8 91.9,133.7 -21.8,183.7 -62.7,365.2 -103.3,582.6 C 50755,1882.7 50684.7,1483.5 50838,1031.9 Z M 47327.6,704.602 c 98.1,516.998 30.3,1024.298 -93.2,1535.098 -271.6,-533.9 -38.6,-1031.5 93.2,-1535.098 z m -7910.7,54.699 c 155.8,85.801 100.4,220.597 85.6,347.899 -15,129.2 -22.6,259.4 -39.3,388.3 -32.5,251.1 -69,501.6 -103.8,752.4 -60.4,-94.4 -95.8,-188 -120.3,-284.3 -24.5,-96.4 -69.2,-202 -50.6,-292.3 62.9,-305.9 150,-606.9 228.4,-911.999 z M 59246.3,1975.6 c 230,508.8 442,1017.9 451.7,1584 -160.2,-335.7 -328.3,-669.3 -442.1,-1020.4 -55.4,-170.9 -9.6,-374.7 -9.6,-563.6 z m -49244.4,-96.8 c 18.7,-0.8 37.4,-1.5 56.1,-2.3 48.6,478.6 97.2,957.3 145.7,1435.9 -16.5,2.9 -33.1,5.9 -49.6,8.9 -103.8,-283.6 -210.62,-566.2 -308.74,-851.8 -20.31,-59 -26.4,-135.2 -7.43,-193.2 44.49,-135.8 108.12,-265.4 163.97,-397.5 z m 15444.7,33.4 c 79.5,206.9 199.6,386 101.2,629.3 -130.4,322.4 -225.7,658.9 -336.1,989.4 -14.6,-175.6 -39.1,-348.3 -9.6,-511.3 66.3,-367.4 159.4,-729.9 244.5,-1107.4 z M 11448.2,5062.3 c -1,-583.2 -33.5,-1166.1 34.8,-1752.2 73.1,123 136.7,248 156.1,379.4 69.8,474.5 -118.6,915.8 -190.9,1372.8 z m 42666.5,-44.8 c 94,320.1 184.4,627.23 274.2,934.54 7.9,27.19 25.2,60.71 16.4,82.34 -75.9,184.87 -156.8,367.67 -236.2,551.1 -12.8,-3.23 -25.6,-6.46 -38.5,-9.68 11,-516.46 -109.1,-1031.57 -15.9,-1558.3 z M 36875,2745.3 C 36566.2,2069.5 36665,1392 36759.9,714.699 36925.5,1378 36821,2055.8 36875,2745.3 Z m 2916.4,-1093 c 286.1,540.6 288.7,1082.8 21.8,1649.6 11.8,-565.2 -134.4,-1105.7 -21.8,-1649.6 z M 5691.15,3579.1 c -18.97,0.5 -37.95,1.1 -56.92,1.7 0,-467 5.39,-934.1 -3.21,-1401 -2.66,-144.7 44.1,-257.8 123.93,-366.8 263.02,604.7 50.39,1183 -63.8,1766.1 z M 12703.1,1902.3 c -0.9,0.1 -1.8,0.2 -2.7,0.2 -14.8,305 -29.5,609.9 -44.2,914.9 -10.2,-0.7 -20.5,-1.3 -30.7,-1.9 -3.7,-58.9 -7.3,-117.8 -13,-209.5 -16.4,55.4 -22.7,76.9 -27.3,92.8 -115.9,-298.7 -138.5,-600 -17.4,-909.6 57.7,-147.3 82.9,-307.3 123.9,-461.3 21.6,-81.2 45.7,-161.8 68.7,-242.6 57.5,82.5 118.4,167.9 108.2,243.7 -35.6,265.2 -95.7,527.1 -146.5,790.3 -6.4,-0.7 -12.7,-1.4 -19,-2.2 0,-71.6 0,-143.2 0,-214.8 z m 41773.2,3948.84 c -134,-458.24 -257.6,-882.34 -252.3,-1334.24 167.4,227.6 317.7,460.7 462.7,697.1 16.9,27.4 14.9,77.4 2.7,109.8 -63.1,166.06 -132.5,329.8 -213.1,527.34 z m 3128,-2016.24 c -21,-2.1 -42,-4.3 -62.9,-6.4 7.9,-173.5 6.7,-348.2 26.4,-520.4 19.7,-172.1 62.9,-341.4 91.2,-512.7 46.7,-283.2 89.6,-567 134.2,-850.6 14,-2.9 28,-5.7 42,-8.6 42.1,122.4 138,255.1 116.9,365.4 -98.2,514.5 -228.8,1022.8 -347.8,1533.3 z M 26450.2,3341.1 c -17,-0.2 -34,-0.4 -51,-0.6 -88.1,-568.2 -176.1,-1136.3 -264.2,-1704.4 104,114.2 161.5,248.9 256.5,347.5 171.3,177.7 182.7,380.6 153.1,602.5 -33.6,251.4 -63.1,503.3 -94.4,755 z m 22466.3,1222.4 c -255,-571.5 -320.3,-1104 -186.2,-1457.8 116.3,232.8 233,464.1 346.5,697 13.6,27.7 19.1,66.5 11.8,96.1 -53,214.5 -110.2,427.9 -172.1,664.7 z m -3740.9,478.4 c -16.9,1.1 -33.8,2.1 -50.8,3.2 -38.2,-758.8 -76.4,-1517.7 -114.6,-2276.6 12.4,-0.4 24.9,-0.8 37.3,-1.3 85.3,499.3 147.4,1004 264.5,1495.7 70.5,296.1 6.6,536.3 -136.4,779 z M 24736.4,1116.1 c 12.5,1.4 25.1,2.9 37.6,4.3 98.7,554.5 -60.1,1215.7 -197.6,1962.7 -42.5,-337.7 -188.2,-662.9 -82.9,-1018 92.7,-312.8 162.8,-632.4 242.9,-949 z m 30345.8,1523.6 c 16.1,1.7 32.3,3.4 48.4,5.1 50.8,316.4 82.2,637.3 157.2,947.8 86.5,357.9 -151.9,601.7 -265.5,895.3 -29.5,-457 -37.2,-910.6 -25.4,-1363.6 4.3,-162.2 55.5,-323.1 85.3,-484.6 z m -15452,-1447.8 c 21.1,-0.9 42.3,-1.9 63.4,-2.8 9.2,207.1 26,414.3 25.4,621.3 -0.7,220.8 -29.6,441.8 -25,662.2 6,287.2 32.8,573.9 50.7,860.8 -57,-100.5 -90.4,-211.2 -142.7,-312 -191.2,-368 -249.2,-743.1 -84,-1136.2 3.6,-8.6 3.3,-18.9 4.8,-28.5 35.8,-221.6 71.6,-443.2 107.4,-664.8 z M 34469.5,870.102 c 91.9,219.498 100.7,401.098 45.6,589.698 -33.7,115.3 -42.5,237.8 -72.7,354.4 -113.9,439.6 -232,878.1 -348.6,1317 -13.1,-2.5 -26.3,-5 -39.5,-7.5 18.9,-584.2 37.8,-1168.5 56.6,-1752.8 10.2,0.5 20.3,1 30.4,1.5 0,315.2 0,630.4 0,965.6 52.3,-326.4 101.5,-633.7 150.7,-941 8,1.5 16,3 24.1,4.4 17.3,84.4 34.6,168.7 51.9,253.1 10.6,-0.9 21.2,-1.9 31.8,-2.8 22.1,-247.9 44.2,-495.9 69.7,-781.598 z M 32328.1,1305.4 c 18,2.2 36.1,4.3 54.1,6.5 0,697 0,1394 0,2069.4 -2.7,-8.7 -17.2,-43.5 -24.2,-79.7 -79.8,-412.2 -160.7,-824.3 -235.8,-1237.4 -15.2,-83.4 -31.4,-178.8 -6.1,-255 57.1,-172.5 139.8,-336.4 212,-503.8 z m -23833.77,1230 c 59.75,276.6 161.7,552.3 167.59,830.1 6.08,286.9 -192.9,527.9 -309.68,785.5 -36.41,-278.7 -46.16,-553.9 -88.41,-824.1 -47.05,-300.9 110.67,-535.7 230.5,-791.5 z M 63565,2794.7 c -182.8,-319.1 -497.8,-1812.098 -452.2,-1998.2 45.6,72.699 99.4,133 122.7,203.398 20.8,62.902 5.3,137.202 10.6,206.102 5.6,71.3 16.8,142.2 29.9,248.1 39.3,-123.6 67.4,-211.9 95.4,-300.2 84.7,145.9 177.8,291.1 186.1,441 22,398.9 7.5,799.8 7.5,1199.8 z M 36043.3,1894.1 c 6.6,-0.2 13.1,-0.5 19.7,-0.7 0,-387.8 0,-775.6 0,-1163.4 66,180 118.9,360.2 146,544.3 24.2,164.3 34.6,333.8 24.6,499.4 -12,201.7 -50.5,402 -79.8,602.5 -31.3,214.1 -65.2,427.8 -98,641.6 -16.2,1.5 -32.4,2.9 -48.6,4.3 -32.1,-152.8 -87.1,-305.1 -91.6,-458.7 -9.5,-328 6.8,-656.7 13.7,-985 1,-46.7 8.6,-93.1 13.2,-139.7 8.2,1.3 16.4,2.5 24.6,3.7 25.4,150.6 50.8,301.2 76.2,451.7 z m 18577.6,324.7 c 16.3,-0.5 32.6,-1.1 49,-1.7 0,258.4 1.8,516.7 -1.3,775 -0.9,66.2 -8,135.3 -28.5,197.7 -112.4,342.9 -229.4,684.2 -346,1025.6 -12.3,36 -32,69.4 -48.2,104.1 -13.5,-3.4 -27.1,-6.8 -40.6,-10.1 5.4,-98.2 4.7,-197.1 17.2,-294.4 39.5,-305.8 105.1,-609.8 120.6,-916.6 16.4,-322.3 78.2,-619.3 277.8,-879.6 z M 29888.2,3889.1 c 11.5,3.4 23,6.7 34.5,10.1 85.4,355.1 171.3,710 255.1,1065.4 6.3,26.7 5.4,60 -4.9,85 -137.4,332.7 -277,664.47 -419.7,1004.85 20,-341.9 43.3,-673.75 57.8,-1005.85 14.4,-333 18.1,-666.4 31.4,-999.4 2.1,-53.9 29.9,-106.7 45.8,-160.1 z m 21238.7,-492.5 c 252.1,387.8 486.6,746.2 716.8,1107.4 18.7,29.4 23.2,84 9,115.5 -87.7,195.1 -182.7,387 -275.3,580 -15.9,1.9 -31.7,3.8 -47.6,5.7 -132.2,-593.6 -264.5,-1187.2 -402.9,-1808.6 z m 3603.5,1800 c -141.4,-243.7 -275.7,-471.4 -405.1,-701.9 -18.9,-33.8 -31.8,-88.1 -18.1,-120.6 127.4,-304.1 261.3,-605.5 408.3,-942.1 34.5,427.3 55.3,816.2 101.5,1202 23.1,193.3 16.2,371.8 -86.6,562.6 z M 2234.44,1110.3 c 53.66,176.5 153.36,332.7 133.87,472.2 -62.02,443.8 -168.41,881.5 -257.66,1321.5 -116.48,-296.4 -199.53,-595.2 -280.02,-894.8 -5.51,-20.5 3.8,-48.1 13.55,-69.1 123.84,-265.3 249.03,-530.1 390.26,-829.8 z m 42140.26,63.5 c 262.4,779.1 316.8,1585.7 287.2,2404.4 -125.8,-388.7 -246.4,-779 -350,-1173.8 -38.5,-146.6 -60.4,-305.5 -48.7,-455.6 20.1,-259.2 72.4,-515.9 111.5,-775 z m 13196.4,4423.65 c -141.7,-197.65 -190.3,-375.75 -92,-612.45 206.8,-498 375.3,-1012 555.2,-1521 59.4,-168 105.4,-340.6 157.5,-511.1 21,224.6 70.1,459.2 12,663.4 -188.4,662.1 -416,1313 -632.7,1981.15 z M 34761.3,4904.1 c -4.7,2.9 -9.3,5.7 -13.9,8.6 -142.8,-314.2 -265.3,-639.8 -434.4,-939.2 -158.3,-280.3 -158.6,-531.7 -16.3,-811.8 90.5,-178.2 142.8,-375.8 216,-574.9 84.2,784.5 166.4,1550.9 248.6,2317.3 z m -23412.2,-1308 c 0,772.1 0,1513.2 0,2254.25 -177.1,-490.75 -321.8,-989.55 -464.7,-1488.85 -7.5,-26.1 -9.7,-64 3.8,-84.4 144.9,-218.6 293.5,-434.8 460.9,-681 z M 48927.7,1044.2 c 4,0.1 8,0.1 12,0.2 82.6,558 144.9,1120.2 255.3,1672.6 67.6,338.4 40.5,651.3 -71.7,1004.2 -109.5,-332.8 -213.1,-632 -304.6,-934.9 -29.9,-99.2 -47.3,-209.8 -37.4,-311.9 23.1,-238 74.1,-473.2 99.1,-711.2 25,-238.7 32.2,-479.2 47.3,-719 z M 53929.6,764 c 201.6,699.2 294,1714 -144.8,2345.8 -44.1,-380.9 -102.5,-1978.1 -0.9,-2113.698 8.9,152.898 17.7,305.198 26.1,449.298 37.5,-213.6 76.1,-433.5 119.6,-681.4 z M 30864.5,3590.8 c -15,-3.7 -30,-7.5 -44.9,-11.2 16.3,-851.1 -41.4,-1703.7 68.7,-2553.3 118.1,211.3 -3.8,432.9 26.7,677.6 33,-85 55.1,-142 80.7,-208.2 73.2,294.1 142.5,569.1 209.5,844.6 15.8,65 50.1,140.5 31.6,196.5 -117.2,353.6 -246.8,703.1 -372.3,1054 z m -371.4,-1393.3 c 37.3,623.8 74.4,1239.2 109.9,1854.8 1.9,32.6 -3.2,69.2 -16.8,98.6 -81.1,175.6 -165.7,349.7 -249.1,524.2 -82.4,-289.7 -129,-578.4 -190.9,-863.7 -39.8,-183.2 -26.6,-349.1 66.9,-513.8 41.9,-73.9 63.1,-161.5 83.2,-245.3 67.9,-283.4 131.1,-567.9 196.8,-854.8 z m -8328.9,-443.8 c 69,176.9 117.6,350 200.5,504.7 234.2,436.6 261,888.2 139.7,1359.2 -31.4,122 -48.2,247.7 -71.7,371.6 -12.1,0.4 -24.2,0.7 -36.2,1.1 -86.8,-345.4 -164.3,-693.3 -262.6,-1035.3 -115,-400 -118.2,-792.4 30.3,-1201.3 z m -19590.79,79.4 c 198.55,207.4 266.41,424.4 271,684.9 8.79,498.1 -211.11,906.6 -465.16,1316 -165.08,-311 -184.61,-499.8 -104.19,-809.8 102.41,-394.8 198.49,-791.2 298.35,-1191.1 z M 23660.6,1066.7 c 63.7,241.9 152.2,480.6 184,726.6 31.9,246.2 7,499.7 7,722.7 25.1,-64.1 62.4,-159.8 99.7,-255.4 13,4.3 26,8.7 39,13 -152.2,600.8 -304.5,1201.6 -456.7,1802.3 -23,-3.8 -46.1,-7.7 -69.1,-11.5 63,-1000.2 49.8,-2004.8 196.1,-2997.7 z M 7769.3,1467.3 c 14.41,1.6 28.81,3.3 43.21,4.9 13.48,134 27.84,267.8 40.27,401.9 38.75,418.1 80.42,829.1 -122.45,1232.1 -195.5,388.4 -345.22,799.8 -515.05,1201.1 -56.72,-259 -212.33,-507.9 -26.2,-781.6 -8,75.9 -14.17,134.4 -20.33,192.8 324.67,-718.1 429.88,-1493.5 600.55,-2251.2 z m 8264.3,725 c -78.1,654.6 -27.5,1331.1 -316.1,1979.3 -343.3,-1066 -28.9,-2065.6 140.5,-3074.5 36.8,145.9 74.7,294.1 65.5,439.2 -18.6,293.3 -67.5,584.4 -94.8,877.3 -20.3,217.1 -26.1,435.6 -38.3,653.4 15.8,1.6 31.5,3.1 47.3,4.6 65.3,-293.1 130.6,-586.2 195.9,-879.3 z m 8846.7,467.3 c 6,0.3 12,0.6 18,0.9 17.7,524.6 36.6,1049.2 50.9,1573.9 1.4,50.4 -23.3,102.7 -41.2,152.2 -248,683.8 -496.8,1367.41 -746,2050.82 -8.1,22.16 -22.9,41.89 -32.1,58.38 250,-1278 500.2,-2557.1 750.4,-3836.2 z m 25208.2,2042.9 c -13.6,-1.1 -27.3,-2.1 -40.9,-3.2 -5.9,-16.7 -14.7,-33 -17.3,-50.2 -58.4,-396.5 -101.7,-795.8 -177.9,-1188.8 -79.9,-412.2 -13.1,-779.5 243.2,-1102.7 95.5,290.4 196.7,585.6 287.5,884 23.1,75.9 32.6,166.6 14.5,242.4 -97.1,407.6 -205,812.6 -309.1,1218.5 z M 56767.7,1438 c 108.1,558.6 194.1,1090.9 318.4,1614 81.7,343.7 -10.3,657.9 -70.8,1021.5 -41.4,-121.9 -72.3,-206.4 -99,-292.3 -125.7,-405.1 -241.1,-813.7 -377.9,-1215.1 -141.8,-416.2 52.6,-752 229.3,-1128.1 z M 38020.4,847.699 c 162.5,663.801 329.2,1342.801 494.2,2022.101 12.3,50.6 28.1,108.3 15.6,155.7 -79.9,303.6 -167.3,605.2 -252.2,907.5 -20.2,0.7 -40.4,1.3 -60.6,1.9 -73.4,-316.8 -146.7,-633.6 -220,-950.4 12.4,-3 24.8,-6.1 37.2,-9.2 53.2,168 106.5,336 159.7,503.9 -44.9,-508.7 -116.8,-1009.8 -196.1,-1509.7 -60.9,-383.5 -110.6,-765 22.2,-1121.801 z M 46275.9,5068.3 c -10.4,-0.9 -20.8,-1.8 -31.2,-2.7 -15.9,-413.5 -33.7,-826.9 -45.1,-1240.4 -1.4,-48.7 29.1,-99.8 50.5,-147.2 128.6,-285.3 263,-568.1 387.1,-855.3 94.7,-219.1 177,-443.5 261.9,-658.4 171.5,324.3 144.2,641.3 -9.9,967.8 -98,207.5 -156.8,434.1 -225.2,654.6 -132.3,426.3 -259,854.3 -388.1,1281.6 z M 4098.27,5941.19 C 3939.32,5138.2 3823.38,4339.7 3778.86,3531.8 c 237.9,281 463.36,562.9 681.13,850.6 28.96,38.3 34.69,109.5 24.04,159.7 -41.95,197.7 -89.99,394.4 -144.67,589 -76.19,271.2 -160.34,540.18 -241.09,810.09 z M 49540.6,3626.3 c 8.6,386.7 266.7,724.1 30.3,1083.2 -0.8,1.2 7.8,8.6 14.9,16.1 36.7,-74.4 72.1,-146.1 121.2,-245.5 61.7,220.2 116.6,412.8 168.2,606.4 5.4,20 -4.6,47.9 -15.6,67.7 -169.1,306.96 -339.5,613.13 -529.3,954.85 -77.6,-327.67 -147.6,-617.9 -213.3,-909.15 -7.9,-34.9 3.9,-76.6 14,-113 131.9,-473.6 265.2,-946.7 409.6,-1460.6 z M 45617.1,4006 C 45434.9,2819.7 45270.6,1668.1 45404,495.301 c 4.8,71.199 9.6,142.5 16.3,240.699 40,-70.602 65.5,-115.402 97.6,-172 33.4,632.1 65.9,1245.4 98.4,1858.7 13,0.6 26.1,1.3 39.1,1.9 33,-240.5 66,-481 98.9,-721.4 16.9,0.2 33.8,0.4 50.7,0.6 18.2,299.7 40.8,599.2 52.8,899.2 6.8,168.8 -17.3,339.3 -3.8,507.1 25.3,312.9 -82.2,586.6 -236.9,895.9 z M 27916.5,5090.6 c -15,-4.8 -30,-9.6 -45,-14.4 -15.6,-118.5 -23.7,-238.6 -48.8,-355 -29.1,-134.4 10,-248.7 51.8,-375.1 133,-402.1 254.4,-808.7 362.6,-1218.2 64.6,-244.3 96.1,-497.4 150.2,-787.7 144.9,342.9 348.5,632.8 184.7,996.1 31.7,-48 63.3,-96.1 92.8,-140.9 140.1,208.3 116.9,396.3 -19.6,582.5 -50.6,69.2 -78.1,154.9 -120.4,230.6 -202,361.1 -405.4,721.5 -608.3,1082.1 z M 62229.4,3203.8 c 16.8,29.5 37.6,49.4 38.1,69.7 4.4,171.2 19.9,343.8 4,513.4 -38.4,411.6 -91.8,821.7 -139.2,1232.4 -155.9,-339.9 -280,-683.4 -401.3,-1027.9 -12.4,-35.3 -11.3,-76.3 -11.9,-114.7 -7.1,-463.8 -16.4,-927.6 -18.5,-1391.4 -1,-203.9 52,-395.8 173.4,-584.2 79.7,301.8 183.3,580.8 220.8,868.5 37.4,286.1 8.2,580.8 8.2,871.8 6,1.1 12.1,2.1 18.1,3.2 35.1,-142.8 70.1,-285.5 108.3,-440.8 z M 33232.2,2778.1 c 10.2,3.4 20.4,6.8 30.6,10.2 0,76.7 5.2,153.9 -1,230.1 -18.7,230.7 -55.8,460.8 -60.8,691.8 -18.5,860.6 25.9,1717.2 202.5,2563 7.4,35.43 -9.3,75.9 -14.8,114.03 -55.6,-37.04 -83.1,-71.4 -96.4,-110.59 -159.4,-469.57 -322.6,-938.04 -471,-1411.04 -45.3,-144.4 -69,-302.2 -66.5,-453.3 4.8,-303.7 33.5,-607.1 54.9,-910.4 3.3,-46.8 9,-99.9 33.1,-137.7 126.3,-197.6 258.9,-391.1 389.4,-586.1 z M 18414.7,510.301 c 4.9,-0.301 9.8,-0.699 14.7,-1 12.6,94.898 19.2,191 38.7,284.5 162.8,778.999 320.2,1559.199 497.4,2334.899 47.8,209.1 70.4,394.1 -67.3,572 -14.4,18.6 -25.5,42 -31,64.9 -39.3,161 -76.7,322.4 -114.7,483.7 -186.1,-249.4 -345.8,-490.6 -357.1,-793.1 -21.3,-569.8 -41.7,-1139.5 -61.7,-1709.3 -0.9,-24.4 6.2,-49.1 13.5,-101.4 54.8,300.3 104.4,571.5 153.9,842.6 16.8,-2.3 33.6,-4.5 50.5,-6.8 -45.6,-657 -91.2,-1314 -136.9,-1970.999 z M 52018.1,4322.1 c -34.9,-58.9 -64,-103.3 -88.5,-150.1 -172.1,-329.2 -344.1,-658.3 -514.3,-988.5 -139.7,-271 -126.8,-402.3 63.3,-665.6 33.4,137.1 65.6,269.2 97.8,401.4 8.5,-370.5 20.8,-735.7 117.9,-1094.9 18.9,41.7 37.9,83.5 69.4,152.9 -10.9,-146.2 -19.4,-260.2 -27.9,-374.3 109.3,160.5 190.1,323.1 262.5,489.4 28.1,64.4 48.9,136.3 53.3,206 33.3,520.3 57.7,1041.2 93.8,1561.3 11.6,166.8 -20,313.3 -127.3,462.4 z M 20301.7,1110 c 21.7,1 43.3,2 65,2.9 0,763 0,1526.1 0,2289.1 8.4,0.7 16.8,1.4 25.3,2.1 15.4,-48.5 30.8,-96.9 51.5,-161.7 67.4,216.7 130.5,419.7 171.4,551.3 18.7,-411.6 40.4,-888.3 62.1,-1364.9 16.8,0.9 33.6,1.8 50.4,2.8 239.2,748.9 130.9,1473.6 -184.9,2212.5 -231.8,-620.9 -457.2,-1220.9 -679.3,-1822.2 -76.3,-206.6 -58.7,-319 65.7,-522.7 89.7,329.2 178.9,656.4 268.2,983.6 31.8,-36.6 38.9,-68.2 37.3,-99.5 -17.1,-346.6 -24.3,-694.2 -56.9,-1039.3 -33.8,-357.6 42.6,-694.9 124.2,-1034 z M 10595.6,774.301 c 10.2,-2.301 20.5,-4.699 30.7,-7.102 14.8,48.102 36,95.102 43.5,144.199 109.8,711.702 346.6,1382.802 642.5,2035.802 20.3,44.9 37.5,109.6 20.5,150.1 -148.3,352.7 -304.7,701.9 -458.7,1052.2 -22.5,-2.6 -44.9,-5.2 -67.4,-7.8 -68.4,-465.7 -136.8,-931.5 -202.8,-1381 -1.6,2.8 -12.9,23.7 -32.4,59.6 -98.9,-603 -217.3,-1184.8 -137.6,-1781.9 88.4,367.7 176.8,735.3 265.2,1103 11.6,-1.6 23.1,-3.1 34.6,-4.7 -46,-454.1 -92.1,-908.2 -138.1,-1362.399 z m 42716,3431.799 c 7.5,-5.3 15,-10.6 22.5,-16 -74.2,-132.4 -142.2,-268.7 -224.2,-396.1 -87.8,-136.3 -91.1,-266.2 -47.6,-422.6 78.7,-282.8 129.9,-573.3 190.1,-861.1 39.2,-187.3 74.1,-375.6 110.9,-563.4 5.1,1.7 10.1,3.4 15.1,5.2 0,300.4 0,600.8 0,888.9 19.8,-21.6 52.6,-57.5 91.7,-100.3 11,63.1 24,110.3 26.9,158 17.2,282.5 77.3,571.5 38.7,846.4 -95.5,680.1 -371.7,1303.8 -696.2,1905.21 -7.5,13.95 -24,23.08 -37.5,35.58 -95.9,-166.46 -189.9,-323.69 -277.1,-484.59 -26.6,-49.1 -47.2,-107.9 -48.9,-162.9 -7.5,-246 4.2,-493 -12.4,-738.2 -21.3,-314.4 62.7,-594.6 230.6,-858.7 87.3,86 126.1,182.2 87.9,309 -33.3,110.5 -53.3,225.1 -76.1,338.6 -42.6,211.8 -83,424.1 -124.3,636.1 12.5,3.6 24.9,7.2 37.3,10.7 115.5,-309.5 231.1,-619.1 348.6,-933.8 116.8,137.3 230.4,270.7 344,404 z M 21907.9,6449.14 c -13.4,-1.38 -26.7,-2.75 -40.1,-4.13 -34,-114.7 -77.8,-227.51 -100.3,-344.42 -149,-771.59 -298.8,-1543.09 -435.8,-2316.89 -41,-231.3 -85.7,-476.5 -50.4,-703.1 49.9,-320.5 172.5,-629.8 264.1,-943.9 15.1,296.1 33.1,592.3 10.1,885.3 -23.5,299.6 -87.2,595.9 -133.3,893.7 6.5,3.2 13,6.4 19.5,9.6 81.4,-169.3 162.8,-338.6 257.7,-536 11.6,96.9 16.6,159.1 27,220.4 10.3,59.9 26.1,118.8 39.4,178.1 -8.5,-268.9 -53.6,-536.4 52,-796.4 135.8,381.7 255.6,762.5 408,1129.9 84.9,204.7 115.2,391.7 62.9,609.8 -136.9,570.3 -255.1,1145.06 -380.8,1718.04 z M 39008,2382.3 c 183.7,425.3 363.7,862.3 561.7,1291 89.9,194.8 189.1,380.5 172.7,609 16.4,-28.9 32.8,-57.9 55.5,-98.2 75.5,253.7 146.1,490.9 216.6,728.1 8.7,-2.2 17.4,-4.4 26.1,-6.6 -9.8,-148.9 -19.5,-297.8 -30.4,-463.9 169.6,144.8 206.8,307 207.3,495.9 0.8,265.5 16.9,532.03 46.2,795.93 64.1,578.32 262.3,1120.99 520.1,1634.55 143.2,285.42 9.6,510.07 -42.8,762.96 -146.8,-309.22 -282.8,-617.77 -402.5,-932.51 -532.8,-1400.09 -974.7,-2828.63 -1338.9,-4281.83 -47.6,-189.7 -74.2,-367.6 8.4,-534.4 z m 3233.8,901.5 c 26.1,-2.6 52.2,-5.3 78.2,-8 118.5,206.6 241.7,410.6 352.1,621.4 26.9,51.3 29.6,129.7 12.9,186.7 -48.3,164.3 -112.1,324 -169.8,485.4 7.7,3.2 15.4,6.3 23.2,9.5 83.7,-141.9 167.5,-283.7 261.7,-443.1 105.8,173.5 204.1,327.8 293.9,486.9 21.4,38 23.8,92.9 19,138.4 -56.7,537.7 -117.5,1075.09 -175,1612.8 -17,159.66 -26.9,320.1 -40,480.18 -17.6,3.8 -35.2,7.6 -52.8,11.41 -250.3,-610.3 -492,-1224.29 -754.3,-1829.39 -139.5,-321.9 -204.5,-634.8 -79,-975.4 46.2,-125.4 50.7,-265.6 88.5,-395 37.9,-129.9 93.5,-254.7 141.4,-381.8 z M 12810.5,2938.6 c 14,3.6 28,7.3 41.9,10.9 145.5,-370.5 253.9,-753.4 350.6,-1145.7 28.4,57.7 57,117.3 52,173.9 -14.7,167.8 -20.3,341.4 -69.7,500.2 -131.7,423.4 -283.9,840.3 -429.2,1259.4 -36.2,104.6 -77.8,207.2 -115,311.5 -36.5,102.4 -70.5,205.8 -105.7,308.7 266.4,-311.6 465.8,-658.6 674.2,-1009.8 -41.4,553.4 -82.7,1106.7 -124.1,1660.1 18.5,2.4 37,4.7 55.5,7.1 78.7,-336.4 169.8,-670.6 232.8,-1009.9 64.3,-345.9 98.5,-697.3 151,-1045.5 30.7,-203.3 71.5,-405.1 107.8,-607.6 97.5,106.9 40.8,255.7 183.5,370.5 -115.5,1040.4 -484.3,2063 -739.5,3117.52 -297.9,-592.12 -583.6,-1182.32 -849.5,-1781.32 -63.5,-143.2 -106,-323.8 -79.7,-473.3 64.5,-366.1 174.8,-724.1 266.7,-1085.4 59.7,206.4 89.6,410.2 125.7,612.8 8.6,47.8 38.5,91.7 46.6,110.2 81.4,-339.6 165,-688.2 248.6,-1036.9 18.5,3.6 36.9,7.2 55.3,10.8 -26.6,247.3 -53.2,494.5 -79.8,741.8 z m 4229.3,5567.95 c -114.2,-185.52 -136.4,-327.62 -97.5,-503.62 187.4,-846.96 370.8,-1695.36 526.3,-2548.59 93,-510.04 132,-1029.94 194.9,-1542.24 221.5,394.5 445.8,794.2 670.1,1193.8 13.1,-6.3 26.1,-12.6 39.2,-18.9 -25.5,-71 -49.1,-142.7 -76.7,-212.8 -150.4,-381.5 -294.9,-765.4 -454.8,-1142.8 -135.1,-318.9 -139.9,-642.5 -75.4,-973.3 9.8,-50.1 39.3,-96.3 63.9,-154.4 20.9,27.1 29.9,33.8 31.9,42.1 168.2,723.6 330.8,1448.5 506.7,2170.3 52.8,216.7 37.1,411.7 -50.1,615.86 -128.8,301.42 -230.5,614.33 -357.4,916.63 -298.4,710.83 -604.7,1418.28 -921.1,2157.96 z M 40438.9,3364.9 c 23.9,109.3 44.8,208.2 67.4,306.8 22.4,98.3 46.5,196.2 69.9,294.3 -25.6,-340.1 -238.7,-689.9 79.3,-993.7 74.7,68.7 150.1,134.6 221.5,204.5 159,155.6 261.2,339.4 230.2,568.2 -49.2,363 -109.1,724.5 -164.4,1086.7 12.3,3.6 24.6,7.2 36.9,10.8 122.3,-330 244.6,-660.1 368,-993.3 144.5,271.6 178.5,469.8 124.8,746.1 -90.2,463.5 -183.7,926.42 -273.1,1390.09 -94.5,489.81 -185.9,980.23 -278.7,1470.38 -409.5,-839.25 -655,-1705 -599.2,-2647.17 48.2,41.4 90,77.4 126.6,108.8 -50.4,-126.2 -135.9,-247.4 -142.4,-372.6 -25,-482.5 -28.7,-966.2 -30.6,-1449.5 -0.4,-102.9 40.6,-205.9 62.5,-308.8 20.1,2.6 40.2,5.3 60.4,8 0,200.9 0,401.9 0,593.2 -3,1.7 16.3,-9.1 40.9,-22.8 z M 16851.2,2825.3 c 14.1,660.3 -27.5,1295.2 180,1877.7 46.8,-609.7 95.3,-1241 143.8,-1872.2 110,202.8 206.2,394.7 181.5,632.7 -134.5,1297.7 -256.5,2596.72 -386.7,3894.88 -22.3,222.34 -63.9,442.75 -98.7,678.49 -24.3,-24.22 -34,-29.44 -36.6,-37.06 -297.7,-897.71 -595.2,-1795.49 -890.7,-2693.91 -11.3,-34.2 -15,-80 -1.7,-111.8 143.3,-341.2 290.6,-680.8 437.2,-1021.6 86.5,147.3 171.5,292.2 256.6,437 -23.8,-214.5 -79.7,-413.4 -131.7,-613.3 -13,-50 -32.3,-109.7 -17.1,-154.1 113.8,-331.9 235.6,-661.1 364.1,-1016.8 z M 4585.05,3656.9 c -14.43,194.9 -28.86,389.9 -43.3,584.8 -50.43,-20.1 -62.49,-40.3 -74.95,-60.3 -274.01,-439.1 -375.48,-944.7 -542.32,-1424.7 -21.78,-62.7 19.66,-147.3 31.82,-221.8 47.92,44.3 59.32,86.5 79.76,123.7 183.92,335.1 369.42,669.3 554.46,1003.8 -28.13,-91.4 -45.51,-188.1 -86.21,-273.6 -207.31,-435.4 -129.98,-877.3 -52.32,-1321 60.07,60.7 128.74,106.8 163.88,171.2 48.46,88.9 99.48,191.4 99.95,288.2 1.07,221.2 -21.73,443.1 -46.8,663.4 -17.82,156.6 -55.17,311.1 -83.97,466.3 z M 40494.7,1092.6 C 40443,885 40391.2,677.5 40328.8,426.699 c 60.8,46.199 122.2,68.199 131.6,104 48.5,183.5 129.3,368.102 33.8,561.101 -21.8,113.2 -42.8,226.6 -65.7,339.7 -22.5,111.4 -47,222.4 -70.7,333.6 -15.6,-1.4 -31.1,-2.7 -46.7,-4.1 0,-383.2 0,-766.398 0,-1131.5 58.2,146.602 121.4,305.602 183.6,463.1 z m 20344.4,4860.46 c 23.5,37.86 53.8,73.1 69.4,113.95 496.6,1297.04 1070.9,2557.07 1789.6,3747.81 150.4,249.18 312.8,490.98 490.8,722.78 -198.9,-394.8 -403.4,-786.92 -595.8,-1184.85 -861.5,-1781.48 -1510.3,-3635.92 -1897.8,-5578.65 -13.3,-66.5 -4.1,-143.2 14.8,-209.4 62,-217.1 133.4,-431.5 206.9,-665.2 48.2,210.8 92.3,403.5 136.4,596.3 7.2,-0.6 14.4,-1.1 21.6,-1.7 0,-65.5 0,-131.1 0,-237.4 153.5,384.7 331.9,720.7 416.9,1078.8 72.4,304.6 39.5,634.6 49.1,953.5 12.1,400.61 20,801.38 64,1202.52 24.9,-589.13 49.7,-1178.22 75.8,-1796.12 98.9,212.2 171,412.7 280.5,590 134.9,218.65 144.8,436.96 93.4,677.48 -38.1,178.15 -49.8,361.94 -47.9,548.83 65.3,-229.7 130.5,-459.41 198.2,-697.76 222.1,358.68 442.1,713.98 662.1,1069.28 11.2,-6.76 22.4,-13.52 33.7,-20.28 -135.5,-301.85 -256.4,-611.36 -410.3,-903.53 -173.8,-330.03 -200.9,-651.42 -92.1,-1010.52 94.7,-312.5 131.1,-642.7 195.6,-964.5 6.1,-30.5 29,-57.6 44.1,-86.3 11.1,5.9 22.1,11.8 33.2,17.7 58.3,-583.9 116.8,-1167.8 171.5,-1715.1 190,365.6 399.3,765.1 603.9,1167.1 20.2,39.6 16.9,93.9 15.9,141.2 -6.7,324.5 -39,643.1 -154.5,952.4 -87.3,233.7 -145.8,478.1 -195.2,727 79.4,-170.6 158.7,-341.2 238,-511.9 13.6,2.8 27.2,5.6 40.8,8.4 -158,1098.7 -316,2197.39 -473.9,3296.07 368.9,-1319.28 632.2,-2660.57 828.3,-4037.17 203,312.3 385.8,605.9 581.3,890.7 183.2,266.8 379.2,524.9 571.7,785.2 27.3,36.9 67,64.65 100.9,96.64 0,-67.71 0,-135.42 0,-203.13 -15.8,-16.49 -35.7,-30.64 -46.9,-49.84 -233.3,-399.57 -466.6,-799.17 -697,-1200.47 -28.3,-49.2 -52.6,-106.9 -57.1,-162.4 -35.3,-442 -77.3,-884 -90.3,-1326.8 -4.3,-145.8 70.6,-294 109.3,-441.2 44.4,29.8 51.3,51.7 56.7,74 145.6,604 284.2,1209.9 439.4,1811.4 80,310 189.7,612.3 285.9,918.1 0,-125.8 0,-251.5 0,-377.3 -7.8,-17.4 -18.8,-34.1 -22.9,-52.3 -135.8,-606.7 -274.4,-1212.8 -404.4,-1820.8 -53.6,-250.2 -88.5,-504.3 -131.9,-756.7 11.5,-2.9 22.9,-5.8 34.3,-8.7 175,415.2 349.9,830.5 524.9,1245.7 0,-377.3 0,-754.5 0,-1131.7 -77.8,-256.6 -151.6,-514.3 -234.3,-769.3 -101.6,-313.4 -77.8,-611.502 99.6,-901.4 5.2,84.199 6.8,165.598 15.9,246.102 38.4,339.598 79,678.898 118.8,1018.298 0,-609.3 0,-1218.502 0,-1827.9 C 43333.3,-0.101563 21666.7,-0.101563 0,0 c 0,435.199 0,870.398 0,1305.6 13.0508,-18.5 26.0977,-37 39.1484,-55.4 12.4258,2.7 24.8516,5.4 37.2813,8.1 25.5743,377.8 184.0903,739.3 104.2893,1147.9 33.914,-59.8 57.883,-102.1 92.117,-162.5 96.746,454 188.281,883.6 279.816,1313.1 7.192,-1.5 14.387,-3 21.582,-4.5 -15.875,-905.5 -31.75,-1811 -47.625,-2716.601 18.325,-1.301 36.649,-2.601 54.969,-3.898 19.988,155.801 53.024,311.199 57.727,467.499 21.207,704.8 47.133,1410 43.031,2114.9 -1.297,223.5 -90.363,446.5 -139.266,669.8 -17.511,-1.5 -35.023,-3 -52.535,-4.5 C 394.426,3653 295.492,3227.1 203.117,2799.9 131.176,2467.1 67.4023,2132.6 0,1798.9 c 0,299.8 0,599.7 0,899.5 141.695,559.9 283.676,1119.7 423.977,1679.9 5.273,21 -1.825,47.6 -9.739,69.2 C 276.773,4822.3 138.273,5196.7 0,5571.25 c 0,125.74 0,251.49 0,377.24 189.617,-367.67 379.238,-735.39 569.418,-1104.09 231.328,594.44 127.062,1225.75 195.266,1847.35 25.722,-210.5 51.847,-420.95 76.808,-631.54 4.539,-38.31 0.735,-77.87 7.992,-115.46 3.075,-15.92 35.325,-27.41 36.512,-42.32 C 949.184,5108.8 1000.09,4314 1078.76,3521.9 c 21.39,-215.4 125.93,-422.5 215.37,-629.3 0,390.6 0,781.3 0,1171.9 7.53,3.2 15.07,6.5 22.61,9.7 34.77,-122.6 73.16,-244.4 103.35,-368.1 32.02,-131.2 60.62,-263.6 82.69,-396.8 22.09,-133.3 35.84,-268.2 50.34,-402.6 14.4,-133.6 25.17,-267.5 60.14,-403.1 109.74,332.4 221.37,664.1 326.8,997.8 13.21,41.8 -0.61,95.3 -11.61,141.1 -115.02,478.7 -232.22,956.9 -348,1435.4 -7.38,30.5 -7.98,62.6 -11.74,94 12.95,4 25.9,8 38.84,12 158.09,-443.3 316.17,-886.6 479.16,-1343.7 40.75,91.4 80.44,181.4 120.98,271.1 35.82,79.2 63.96,163.5 110.45,235.9 185.92,289.7 265.49,585 44.4,906.3 14.08,2.1 28.15,4.2 42.23,6.2 30.39,-53.8 60.69,-107.8 91.2,-161.6 32.68,-57.6 65.56,-115.1 99.25,-174.3 116.14,117.8 134.83,236 87.28,395.8 -410.1,1378.84 -861.06,2743.27 -1393.98,4079.94 -15.69,39.34 -28.19,79.95 -25.49,126.89 671.23,-1314.13 1202.3,-2688.93 1752.39,-4070.9 69.35,75.74 131.22,143.32 193.08,210.89 16.28,-6.68 32.55,-13.36 48.83,-20.05 -270.57,-206.73 -161.21,-432.67 -76.03,-667.37 132.71,-365.8 248.91,-737.6 391.99,-1106.1 37.09,301.1 78.34,601.8 110.36,903.5 56.61,533.4 117.99,1066.66 158.19,1601.43 45.22,601.39 70.78,1204.3 101.58,1806.72 10.94,213.95 -98.12,378.3 -221.63,543.35 -59.42,79.41 -67.59,197.17 -93.96,281.53 74.63,0 136.07,-16.18 149.8,2.57 103.54,141.48 103.16,257.98 -32.62,365.82 -117.41,93.25 -114.49,192.17 -77.58,350.21 104.09,-129.62 192.62,-239.85 292.75,-364.54 35.5,222.33 -113.27,340.43 -220.06,472.62 -101.02,125.05 -117.43,191.49 -42.73,344.29 20.34,-29.6 35.24,-67.4 62.95,-87.8 36.66,-26.9 83.34,-40.3 125.71,-59.4 -10.29,48.7 -8.37,105.4 -33.87,144.1 -33.85,51.3 -100.78,81.6 -131.87,133.7 -30.97,52 -39.18,119.4 -48.09,181.3 -1.99,13.8 48.07,50.1 51.73,47.3 41.02,-31.9 76.87,-70.3 115.71,-105.2 26.09,-23.5 53.75,-45.6 83.22,-64.4 4.69,-3 22.61,14.8 34.42,23 -18.41,26.2 -34.4,54.6 -55.66,78.3 -68.09,75.8 -114.25,416.6 -61.72,512.4 7.87,14.4 51.34,9.2 78.37,13.2 11.48,-70.4 19,-141.8 36.79,-210.6 5.26,-20.4 39.44,-33.3 60.37,-49.7 8.68,26.5 29.62,56.2 23.72,78.8 -17.47,67.2 -45.35,131.6 -71.7,196 -0.31,0.7 -34.47,-12.3 -52.82,-19 6.08,202 52.47,391.6 140.6,568.5 19.93,-1.5 39.87,-3 59.8,-4.5 18.39,-128.4 34.1,-257.2 56.71,-384.9 7.33,-41.3 32.76,-79.4 65.76,-155.7 16.72,-218.6 -141.76,-455.5 -218.66,-713.2 15.39,-6.9 30.78,-13.7 46.17,-20.6 110.85,118.2 221.69,236.3 332.54,354.4 21.46,-16.8 42.93,-33.7 64.39,-50.5 -46.27,-78.1 -89.42,-158.3 -139.41,-234 -147.29,-222.9 -346.33,-423.62 -306,-728.83 127.11,143.32 251.5,283.57 390.33,440.13 82.18,-358.88 -118.11,-436.66 -384.46,-542.56 5.8,-70.12 11.67,-141.17 17.58,-212.66 120.64,25.06 154.39,202.17 315.03,194.46 -31.57,-149.68 -80.24,-262.44 -203.91,-336.06 -150.29,-89.47 -117.64,-250.09 -147.31,-419.52 68.95,93.87 111.95,172.35 173.79,230.94 60.06,56.89 139.45,93.39 224.58,147.97 15.33,-186.54 -75.7,-271.86 -190.86,-350.17 -102.88,-69.95 -225.03,-135.22 -203.64,-322.68 97.36,81.97 178.38,150.18 275.2,231.7 -0.79,-212.21 -86.98,-334.37 -270.96,-376.77 -31.06,-540.08 -65.52,-1070.58 -87.97,-1601.58 -3.53,-83.41 47.45,-169.12 104.5,-249.75 69.67,246.9 139.34,493.81 209.01,740.71 10.71,-2.31 21.43,-4.61 32.14,-6.92 -36.86,-239.5 -70.41,-479.58 -111.85,-718.29 -23.58,-135.83 -28.07,-262.24 46.61,-388.19 62.64,-105.63 106.54,-222.36 180.73,-327.28 -39.56,310.44 -79.11,620.88 -118.66,931.32 C 4740.2,5387.5 4847.73,3992.2 5310.1,2663.9 c 51.74,504.1 100.53,979.4 149.32,1454.8 18.06,-0.4 36.12,-0.8 54.18,-1.2 14.12,-118.5 28.23,-237 42.35,-355.5 10.73,1.6 21.45,3.2 32.17,4.8 -31.83,206.4 -63.03,412.9 -95.7,619.2 -28.26,178.4 -51.47,360.5 -255.78,440.8 47.66,-17.3 95.32,-34.6 189.32,-68.7 -294.07,902.9 -577.9,1774.41 -861.73,2645.91 477.2,-776.35 828.05,-1611.84 1163.16,-2502.11 41.46,440.3 78.78,836.59 116.09,1232.86 -8.44,-0.12 -16.88,-0.24 -25.32,-0.37 0,-370.21 18.89,-741.69 -5.97,-1110.19 -19.95,-295.7 51.07,-564.8 163.73,-823.6 53.48,-122.9 173.47,-216.2 260.63,-325.1 141.21,-176.4 280.19,-354.5 432.39,-547.5 50.46,163.1 103.15,323.1 149.26,485 71.36,250.5 143.6,501 203.61,754.3 17.34,73.2 16.06,165.9 -14,232.9 -343.64,766.34 -694.6,1529.38 -1043.21,2293.48 -25.38,55.62 -47.67,112.64 -71.4,169.01 12.76,6.95 25.52,13.91 38.28,20.86 423.97,-698.15 847.94,-1396.31 1284.23,-2114.75 61.06,185 118.17,357.97 175.27,530.97 8.08,-1.65 16.17,-3.3 24.25,-4.95 -26.71,-188.84 -59.18,-377.12 -77.3,-566.82 -7.33,-76.7 -3.4,-166.5 29.91,-233 132.39,-264.7 278.4,-522.5 440.49,-777.9 -45.08,646.1 -90.16,1292.3 -135.24,1938.44 8.32,1.12 16.65,2.25 24.97,3.38 35.99,-276.13 79.73,-551.52 106.2,-828.52 42.29,-442.7 64.75,-887.3 113.56,-1329.1 15.81,-143.1 87.96,-279.9 158.59,-412.2 124.02,845.1 248.04,1690.1 372.05,2535.13 17.98,-2.27 35.95,-4.54 53.92,-6.81 -23.17,-234.61 -48.85,-469.01 -68.88,-703.92 -25.88,-303.3 -51.11,-606.8 -67.32,-910.8 -3.29,-61.7 21.25,-134.6 56.07,-186.9 159.82,-240.3 327.85,-475.2 498.78,-720.3 55.67,172.2 112.16,346.9 168.65,521.7 8.62,-0.5 17.24,-1.1 25.87,-1.6 -20.57,-313.6 -41.13,-627.1 -61.7,-940.7 21.14,-1.8 42.27,-3.6 63.41,-5.4 15.86,157.2 53.58,315.7 43.8,471.3 -42.39,674.4 -97.17,1348 -150.7,2021.71 -18.37,231.2 -40.64,462.4 -72.05,692.1 -16.9,123.53 -59.68,243.33 -84.84,366.02 -7.19,35.09 6.38,74.43 10.44,111.82 -160.12,49.57 -260.24,226.69 -198.07,363.7 -42.24,5.69 -93.08,-2.16 -120.57,19.56 -45.36,35.83 -90.57,86.53 -105.56,139.53 -6.79,24.03 52.62,82.03 93.09,101.2 106.3,50.35 110.79,136.34 111.34,194.29 -79.57,-43.14 -164.94,-94.2 -255.96,-131.42 -9.12,-3.72 -80.58,81.02 -74.8,116.92 16.98,105.49 64.12,200.9 204.98,188.8 -2.56,56.35 -4.87,107.2 -7.44,163.85 -124.39,20.71 -214.04,73.42 -153.07,225.76 -93.19,19.93 -193.79,161.15 -175.02,257.38 17.13,87.9 62.55,161.82 186.52,144.91 -16.51,64.34 -31.7,123.55 -43.43,169.25 -45.86,-17.26 -109.31,-56.14 -122.53,-43.3 -39.6,38.47 -81.47,98.06 -79.43,147.63 1.33,32.42 77.39,61.77 142.27,108.58 -26.32,30.86 -71.85,78.95 -111.12,131.71 -41.9,56.27 -94.93,112.98 -109.89,177.23 -8.64,37.09 48.33,89.47 75.77,134.96 29.55,-20.66 59.1,-41.33 123.91,-86.65 -39.53,68.26 -54.1,122.34 -89.37,148.62 -88.56,65.97 -144.64,120.28 -7.18,191.38 12.85,6.65 14.86,34.23 25.12,60.26 -112.92,75.23 -198.94,177.93 -148.8,320 12.33,35 118.82,36.7 200.17,58.5 -29.84,182.4 -61.7,377.1 -95.46,583.4 115.5,16.6 98.69,86.4 78.03,173.6 -16.31,69 -12.04,147.8 3.15,217.9 22.93,105.8 95.95,73.3 152.09,30.8 48.76,-36.8 51.43,-254.9 11.84,-306.2 -65.65,-84.9 -57.51,-121.8 39.26,-177.6 64.16,-36.9 37.22,-103.7 -76.85,-181.1 56.77,-79.4 75.09,-187.5 203.35,-209.6 23.19,-4 53.3,-119.8 35.83,-167.87 -20.07,-55.22 -86.1,-97.12 -138.75,-135.84 -32.35,-23.79 -77.05,-30.77 -123.82,-48.13 3.04,32.16 6.73,71.16 10.42,110.15 -6.11,1.81 -12.22,3.61 -18.33,5.41 -19.42,-54.79 -44.23,-108.43 -56.33,-164.79 -7.88,-36.74 2.73,-77.44 5.05,-116.37 34.87,26.43 70.63,51.8 103.99,80.01 8.62,7.28 9.71,23.45 16.52,41.53 37.14,-17.74 70.28,-33.56 98.51,-47.05 45.67,44.42 86.09,115.34 127.23,115.76 52.07,0.54 123.61,-44.6 152.47,-91.25 37.91,-61.26 41.2,-158.32 -54.24,-175.18 -96.93,-17.12 -118.81,-62.64 -110.69,-160 238.63,45.93 156.75,-206.28 260.2,-305.71 77.28,-74.27 -54.43,-239.24 -206.79,-305.62 15.57,-11.55 31.14,-23.1 46.71,-34.65 48.37,8.75 96.74,17.5 159.93,28.93 -19.27,-117.46 80.03,-284.23 -157.94,-270.16 -15,0.88 -33.71,-60.96 -65.74,-122.55 43.37,17.74 58.64,30.07 72.57,28.71 98.93,-9.71 271.96,-253.11 265.42,-354.93 -2.26,-35.31 35.48,-71.86 49.54,-109.84 23.31,-62.99 42.25,-127.6 63.07,-191.65 41.44,-18.65 131.36,-30.72 148.51,-72.59 38.75,-94.63 -72.11,-243.53 -172.97,-273.41 -35.95,-10.65 -66.99,-37.85 -130.33,-75.24 102.72,-11.87 170.63,-0.42 202.27,-29.05 29.18,-26.4 3.51,-107.01 29.68,-144.32 96.29,-137.31 -101.13,-249.28 -25.23,-381.65 6.38,-11.11 -5.52,-46.82 -17.42,-52.15 -151.28,-67.83 -89.29,-197.07 -78.2,-299.79 111.47,-1032.41 228.29,-2064.21 345.14,-3096.11 9.04,-79.8 29.64,-158.4 41.31,-219 128.7,946.9 258.5,1906.1 389.67,2865.13 49.75,363.75 104.71,726.8 151.93,1090.86 7.08,54.6 -23.41,113.22 -21.99,169.61 1.62,64.42 23.79,128.11 28.58,192.74 2.58,34.87 -6.26,73.95 -21.13,105.94 -21.16,45.53 -52.6,86.29 -93.82,151.51 58.96,-4.5 88.21,-6.73 124.63,-9.51 -9.4,18.36 -13.29,31.53 -21.46,41.03 -80.92,94.1 -165.8,188.47 -165.27,321.07 0.18,43.42 29.27,88.99 52.83,129.05 10.89,18.52 40.25,26.18 61.24,38.76 -23.51,20.53 -44,48.7 -71.34,59.51 -29.46,11.64 -65.35,7.02 -114.87,10.72 0,138.23 -9.9,274.99 2.94,409.57 11.62,121.87 -84.48,272.52 78.94,367.47 -4.54,71.1 -9.56,149.78 -15.43,241.58 43.93,-20.85 73.12,-34.71 96.85,-45.97 22,81.78 39.78,161.74 66.04,238.8 10.83,31.78 39.9,57.35 60.62,85.75 22.9,-49.95 74.9,-108.51 63.1,-148.15 -30.8,-103.66 -96.12,-199.23 21.7,-289.2 5.2,-3.98 7.3,-21.38 3.3,-26.84 -122.77,-164.45 53.4,-350.76 -37.5,-518.37 -9.2,-16.95 -4.3,-53.81 8.7,-68.53 74,-83.9 92,-172.94 57.2,-281.06 -9,-27.75 28.6,-70.47 44.8,-106.31 17,4.77 34.1,9.53 51.1,14.3 -16.6,-136.16 -64,-278.1 -39.8,-406.62 18.5,-98.84 28.9,-185.81 -1.4,-276.83 -31.3,-94.09 -74.8,-184.08 -107.3,-277.82 -23.3,-67.14 -44.3,-136.49 -54.4,-206.57 C 9862.46,5937.19 9706.05,4871.2 9561.11,3803.6 c -42.16,-310.5 -50.24,-625.7 -74.86,-950.9 151.94,380.1 298.6,747 445.27,1113.9 16.13,-5.5 32.27,-10.9 48.4,-16.4 -67.09,-307.3 -134.19,-614.6 -201.28,-921.9 5.6,-2.4 11.21,-4.9 16.82,-7.3 80.15,127.1 155.91,257.2 241.64,380.4 85.7,123 181.4,238.9 291.8,382.9 -16.2,-200.9 -28.6,-355 -41,-509.2 12.5,-2.3 24.9,-4.6 37.4,-7 63.5,222.6 129.2,444.7 190.1,668 183.8,673.8 456.8,1311.2 777.1,1930.25 42.1,81.4 70.1,182.53 66.7,273.08 -23.9,631.07 -57.8,1261.75 -104.1,1894.71 22.6,-122.26 47.8,-244.12 67.1,-366.9 20.3,-128.76 42.6,-257.93 50.9,-387.75 30.3,-472.75 49.6,-946.27 85.4,-1418.56 11.8,-156.03 51,-312.13 95.1,-463.13 76.3,-261 166.2,-518.1 255.4,-792.2 141.8,730.9 279.8,1442.09 417.8,2153.24 8.7,-2.04 17.3,-4.09 26,-6.13 -71.8,-739.01 -143.5,-1478.01 -215.2,-2217.01 8.5,-2.6 17.1,-5.1 25.6,-7.7 116.6,186 229.6,374.2 350.4,557.3 180.9,274.3 365.2,546.43 552.4,816.39 59.8,86.15 77.1,164.45 43.1,269.14 -69.4,213.83 -122.1,433.13 -189.4,678.73 -82.7,-280.78 -155.8,-529.09 -228.9,-777.41 -7.6,1.87 -15.2,3.73 -22.7,5.6 62.2,289.12 129.1,577.37 183.9,867.9 16.3,86.82 11.1,182.24 -5.1,269.89 -71.7,389.15 -151.3,776.86 -227.2,1165.27 -6.2,32.22 -5.5,65.8 4,100.75 107.1,-368.71 214.2,-737.42 321.2,-1106.14 10.3,0.35 20.5,0.69 30.7,1.03 91.4,260.53 174.1,524.56 276.1,780.9 238.9,600.81 488.9,1197.22 728.9,1797.61 25.3,63.14 7.4,142.34 21.1,211.74 18.1,92.2 39.6,185.3 74.4,272.1 31,77.3 20.6,132 -32.7,194.1 -36,42 -61.9,98.5 -74.6,152.6 -10.1,43.7 -10.2,108.3 15.3,136.8 28.5,31.8 90.8,33.4 143.9,49.9 -52.4,192.7 -52.4,192.7 82.5,183.4 8.7,81.7 17.5,163.8 28,262.6 -98.2,53.4 -147.7,151.9 -84.6,273.7 13.8,26.6 94.1,18.7 179.7,32.5 6.8,67.9 13.4,167.2 28.7,265.1 4.4,28.3 34,52.7 52.1,78.9 30.6,-25.9 61.1,-51.7 91.7,-77.6 10.7,1.5 21.5,3 32.2,4.5 -7.6,32.4 -10.8,66.8 -23.9,96.8 -31.1,71.4 -125.3,144.9 16.6,202.5 9.9,4 14.3,23.4 19.8,36.3 68.2,159.2 132.6,167.3 263.5,35.4 28,69.7 56.5,140.4 84.9,211.2 28.7,-18.4 57.4,-36.8 92.5,-59.4 -4.3,85.6 -9.1,182.1 -14.4,287 195.5,141.4 213.2,135.8 243.7,-101 76.8,42.8 146.2,99.3 225.3,121.5 135.5,38 104,-98.3 139.1,-145.8 -72.4,-91.1 -140.2,-176.5 -203.4,-255.8 9.5,-72.1 52.2,-172.9 23,-244.1 -25.4,-61.9 -132.3,-90.4 -209.7,-137.6 72.1,-64.1 123.7,-109.9 173.7,-154.3 -117.5,-170.9 -128.5,-175.7 -242.9,-133.9 -50.8,-95 -105,-184.8 -146.1,-280.2 -12.6,-29.5 10.8,-74.4 20.3,-126.8 -69.8,-59 -152.1,-128.4 -240,-202.5 47.1,-50.1 82.6,-81.9 109.9,-119.6 14.8,-20.4 29.5,-66.3 20.3,-74.7 -130.4,-120.1 -140.1,-308.7 -250.7,-436.3 -34.3,-39.5 -102.8,-49.5 -166.6,-77.9 5.5,-97.1 -18.2,-189.2 -168,-171 -4.4,-96 10.7,-201.3 -133.7,-209.3 -23.6,-1.3 -52.7,-50.2 -65.4,-82.6 -341.4,-871.47 -681.1,-1743.63 -1020.9,-2615.73 -44.8,-115.07 -50.7,-222.82 -9.2,-348.94 480.6,-1462.04 956.2,-2925.73 1425.5,-4391.43 79,-246.7 122.1,-504.9 215.4,-754.9 -38,388.7 -76,777.4 -117.1,1197.4 51.8,-143.5 94.1,-260.6 136.5,-377.7 13.1,1.1 26.3,2.2 39.5,3.4 -18.9,192.6 4.3,402 -64.3,574.9 -252.4,636.2 -535.3,1260.4 -806.5,1889.2 -8.5,19.9 -14.1,41 -11,66.3 401.6,-439.9 669.9,-961.5 958.6,-1488.8 0,522.2 0,1044.3 0,1566.4 11.5,0.1 22.9,0.2 34.3,0.3 22.1,-502.6 59,-1005 60.9,-1507.7 1.3,-329.5 103.5,-624.5 222.1,-954.2 73.8,354.5 134.9,680.9 210.8,1003.8 85,361.8 187.2,719.5 273.1,1081.1 17.5,73.6 15.3,163.4 -10.3,234 -352.5,975.78 -720.8,1946.22 -961.8,2958.08 -38,159.56 -64.7,321.8 -95.8,482.98 -2.3,12.08 2.5,25.54 -0.6,-0.78 402.2,-974.98 816.9,-1980.52 1231.7,-2986.06 13.7,3.16 27.3,6.33 40.9,9.5 482.7,1380.6 997.9,2747.17 1732.9,4019.11 -139.3,-326.78 -276.2,-654.57 -419.4,-979.62 -34.8,-79.1 -32.5,-138.85 17.5,-211.69 548.4,-799.92 964.5,-1672.72 1389.8,-2540.2 73.9,-150.76 134.4,-308.13 201,-462.45 15.9,-1.03 31.7,-2.06 47.6,-3.1 73.9,303.56 160.4,604.7 219.3,911.14 148.2,771.72 -32.5,1511.07 -273.2,2233.55 -136.8,410.43 -335.4,800.24 -506.7,1199.13 -18,41.86 -39.3,82.3 -48.2,128.1 399,-620.23 653.4,-1301.7 852.1,-2007.49 -96.4,692.4 -343.2,1337.23 -601.5,1981.95 73,-152.26 149.1,-303.08 218.3,-457.03 304.9,-678.25 525.9,-1379.91 576.6,-2126.84 8.8,-129.67 -1.5,-260.54 -0.3,-390.83 4.7,-513.97 -195.2,-983.87 -318.8,-1469.79 -69.4,-273.06 -75.2,-295.16 88.9,-558.26 443.1,600.7 791.7,1248.79 1024,1955.38 114.3,347.72 206.5,703.15 296.4,1058.19 22,87.07 9.3,189.25 -10.8,279.28 -32.5,145.51 -83.1,287.1 -128.5,429.58 -30.2,95.06 -28.2,197.6 -164,242.77 -60.7,20.18 -93.1,151.56 -120.9,238.08 -37,114.78 -56.7,235.08 -84.3,352.91 -5.1,21.81 -5.7,56.27 -19.1,62.7 -109.3,52.52 -105.8,132.57 -53.2,218.73 27.9,45.6 94.8,121.01 104.5,115.33 60.6,-35.43 118.9,-83.64 159.8,-140.63 23.7,-33.01 16.8,-90.26 17.9,-136.75 2.3,-91.86 0.7,-183.81 0.7,-245.48 72.1,-24.73 160.1,-36.8 162.9,-59.37 7.6,-61.47 -20.9,-127.37 -30.6,-171.15 16.7,-101.76 24.4,-194.22 47.8,-282.58 49.7,-188.18 107.4,-374.24 161.9,-561.17 13.9,1.22 27.9,2.44 41.8,3.66 78,468.62 156.5,937.16 233.6,1405.93 13.3,80.97 9.8,166.1 32.6,243.82 56.9,192.97 -29.2,348.17 -120.6,501.57 -21.7,36.5 -67.4,59.7 -104.6,85.4 -18.9,13.1 -58.8,13.9 -62.7,27.7 -23.7,84.1 -16.7,187.4 -64.1,251.6 -64.4,87 -86.8,148.6 -5.2,227.1 3.4,3.2 7.5,7.2 8.2,11.3 13.4,79.6 33.7,172.8 136.8,140.3 101.3,-31.9 72.1,-130.5 76.3,-219.5 10,-211.3 18.7,-430.1 180.8,-618.9 17.7,241.9 35.8,466.2 48.9,690.8 2,35.2 -17.3,72.3 -29.8,107.3 -9.6,26.8 -41.2,67 -33.9,75.4 108.6,122.1 -57.5,255.2 30.3,372.4 -166.2,48.9 -180,80.3 -84.5,178.7 29.6,-34.7 59,-69.2 88.4,-103.6 5.8,2.9 11.7,5.7 17.5,8.6 -37.3,132.1 -79.3,263.1 -110.3,396.7 -23.7,101.5 15.8,163.8 121.6,152.6 0,71.2 -14.7,146.4 6.8,209.2 9.4,27.3 108.3,54.7 138.9,36.2 36.6,-22.1 67,-97.3 59.1,-142.3 -20.7,-118.5 -63.7,-233.1 -97,-346.7 148.5,-92.1 157.9,-188.6 25.6,-294.7 104.6,-112.1 101.7,-218.9 45.9,-373.2 -78,-215.7 -86.3,-458.3 -112.3,-690.8 -33.2,-296.3 -54.2,-593.96 -67.4,-894.59 132.5,174.98 256.2,350.79 210.3,591.59 -6.1,32.3 17.3,71.3 30.2,106.1 21.4,57.5 40.2,116.8 69.7,170 26.2,47.2 65.4,87 89.6,118.1 24.4,112.6 38.1,226.5 75.4,331.9 32.8,92.5 130.5,68.3 176.4,28.9 34.2,-29.5 39.1,-116.9 26.4,-171.4 -17.8,-76.4 -64.1,-146.1 -107.5,-238.6 54.7,-132.9 13.6,-267.1 -123.7,-337.3 6.7,-101.5 22.4,-203.9 15.2,-304.72 -2.5,-34.41 -71.8,-97.71 -94.3,-91.26 -102.3,29.29 -108.2,-57.88 -153.6,-102.09 -357.8,-348.51 -339.3,-824.23 -423.5,-1262.05 -178.4,-927.82 -410.9,-1839.12 -828.6,-2690.73 -173.9,-354.47 -389,-688.85 -589.3,-1030.05 -47.7,-81.3 -59.5,-152.8 -21.3,-242.9 71.3,-168 130.5,-341.2 205.1,-540.1 115.5,451.7 49.1,910.1 235.7,1273.3 29.3,-659.1 60.3,-1357.3 91.3,-2055.4 8.6,-2.6 17.3,-5.2 25.9,-7.7 18.1,34.7 38.2,68.5 54.1,104.2 243.1,547.1 487.6,1093.6 725.6,1642.9 25.8,59.4 30,138.8 15.9,202.7 -43.4,197.1 -100.7,391.18 -122,599.48 79.1,-172.95 158.2,-345.88 236.5,-517.18 305.1,490.18 606.7,974.84 908.3,1459.5 17,-9.78 34,-19.55 50.9,-29.33 -24.3,-49.74 -49.3,-99.21 -72.9,-149.28 -234.9,-497.53 -472.1,-994.03 -701,-1494.29 -25.8,-56.3 -22.8,-140.8 -1.4,-201 96.5,-272 204.3,-539.9 317.5,-833.9 75.1,297.3 131.2,576.9 216.8,847.1 177.8,560.6 374.1,1115.39 555.2,1675.01 27.6,85.07 36.8,188.43 16.5,274.43 -82.5,351.36 -179.8,699.27 -244.1,1060.2 137,-307.75 273.9,-615.49 415,-932.66 57.9,97.93 111.3,188.17 166.6,281.78 8.2,-12.09 17,-21.4 15.5,-23.59 -168.4,-245.85 -121.8,-485.31 -19,-748.1 179.1,-457.71 324.9,-928.48 488.6,-1405.57 60.9,117.2 121.3,233.6 181.8,350.1 9.8,-3.5 19.6,-7.1 29.4,-10.6 -34.3,-109.5 -80.9,-216.9 -99.4,-329 -20.6,-125.1 -41.1,-259.5 -17,-380.9 74.8,-377.2 170.8,-750.2 256.2,-1115 145.1,209.6 294.2,416.1 431.5,630.3 28.4,44.5 31.7,123.4 14.5,175.9 -159.5,485.6 -318.4,971.6 -493.3,1451.76 -110,302.08 -246.8,594.37 -360.3,896.07 802.9,-1221.29 1322,-2568.03 1741.5,-3998.33 112.3,368 271,669.6 188,1061.3 -206.2,972.6 -355.5,1957.27 -532.9,2936.15 -23.9,132.1 -19.8,279.62 -188.9,353.73 -76.8,33.66 -120,143.83 -165.2,202.1 4.1,34.24 5,62.89 11.5,90.22 8,34.16 12.9,88.83 33.1,96.12 37.6,13.61 85.3,-0.58 141.5,-3.96 -6.9,66.9 -16.6,161.96 -29.6,289.67 -36.2,-59.34 -52.5,-86.14 -70.9,-116.36 -220.4,188.74 -436.4,373.72 -640.8,548.73 36.8,50.21 70.2,95.8 107.1,146.16 75.4,-72.7 144.3,-175.34 240.4,-222.13 104.4,-50.78 128,-235.99 298.4,-181.55 -12.2,63.01 -10.4,126.39 -37.4,173.09 -26.6,45.94 -83.7,107.38 -125.2,105.73 -172.6,-6.88 -218.1,115.15 -282.6,242.66 46.9,16.98 87.2,31.58 155.8,56.39 -102.5,50.87 -182.9,90.75 -278.5,138.21 32.6,20.1 56.5,34.87 98,60.5 -113,40.79 -210.7,76.06 -319.2,115.24 18.4,22.83 34.5,42.74 46.8,58.03 -97.5,102.27 -195,204.4 -292.4,306.53 5.2,6.86 10.5,13.72 15.7,20.57 138.2,-47.76 276.4,-95.53 449.6,-155.41 39.3,-42.84 113.7,-123.92 203.2,-221.49 9.1,55.63 15.1,92.23 21.2,128.83 8.3,3.01 16.6,6.03 25,9.04 26.7,-62.18 53.5,-124.35 77.7,-180.68 54.8,121.37 -4,285.14 -121.5,359.36 -101.9,64.33 -192.9,145.7 -291.7,215.23 -12.7,8.92 -43.6,-8.1 -24.8,-3.92 -68.6,96.7 -126.8,178.9 -186.8,263.54 71.2,66.55 -56.3,81.79 -61.8,129.39 -7.8,67.56 11.5,138.23 22.5,237.21 83.2,-129.67 262.2,-162.91 226.5,-361.57 44.4,-21.24 117.1,-55.98 189.8,-90.73 8.3,10.61 16.7,21.21 25,31.81 -110.9,154.59 -221.8,309.17 -332.7,463.76 12,7.7 23.9,15.5 35.9,23.2 17.5,-30 35,-60.12 53.1,-91.13 141.4,149.23 208.2,-41.13 311,-56.33 47.4,120.46 97.1,247.06 146.9,373.66 13.4,-4.9 26.8,-9.8 40.2,-14.7 -26.5,41.5 -53,83 -79.4,124.5 6,5.8 12.1,11.7 18.2,17.6 46.5,-35.1 93.1,-70.3 139.4,-104.8 6.7,-14.5 13.6,-29.7 20.5,-44.9 32.2,-9.3 64.4,-18.6 93.1,-26.9 -127.1,-250.55 -252.2,-496.99 -377.9,-744.89 152.7,-24.09 190.2,-78.76 202.8,-290.68 46.9,0 93.9,0 115.6,0 135,258.9 161.5,550.34 385.5,753.84 -6.6,-32.63 -13.1,-65.25 -21.9,-108.51 32.4,5.15 54.8,8.71 72.7,11.55 -14.6,-137.77 -104.4,-268.81 -81.3,-411.75 14,-1.54 27.9,-3.08 41.9,-4.62 -59.4,-133.46 -118.9,-266.92 -186.5,-418.78 52.7,-161.19 -160.5,-111.65 -214.3,-194.78 36.4,-15.46 72.8,-30.96 109.3,-46.46 -16.4,-32.73 -25,-74.52 -50.6,-96.55 -92.2,-79.36 -83.8,-175.78 -55.3,-275.29 49.8,-174.25 103.5,-347.37 159.5,-533.99 31.5,56.12 64.7,105.55 87,159.51 10,24.1 8.8,74.5 -5.8,83.74 -164.5,103.95 -24.7,211.08 -6.5,315.7 5.9,33.8 19.6,66.25 34.7,115.7 1.8,-16.72 4,-36.61 6.1,-56.5 10.1,4.44 20.1,8.89 30.2,13.33 20.4,97.71 40.8,195.42 61.7,295.3 5.4,-2.54 24.7,-11.64 36.1,-17.03 26.5,80.27 52.7,159.57 78.7,238.09 126.9,-23.6 77.5,99.7 99.8,166.87 109.6,-94.01 240.1,-179.29 45.8,-329.63 42.6,-10.84 69.6,-17.71 91.1,-23.17 -36.2,-51.08 -72.7,-102.44 -108.9,-153.56 13.7,-4.4 36,-11.54 69.9,-22.41 -62.8,-39.78 -118.4,-74.96 -202.7,-128.38 71.9,-21.29 105.7,-31.29 119.9,-35.5 -48.3,-91.52 -101.5,-192.3 -154.7,-293.07 -20.9,17.22 -41.8,34.44 -62.7,51.67 33.7,-11.15 67.5,-22.3 108.3,-35.77 -1.7,-21.86 3.2,-43.81 -5.5,-56.47 -87.2,-127.12 -181.2,-249.8 -262.3,-380.55 -23.6,-37.92 -22.6,-99.83 -13.5,-146.99 11.5,-59.52 42.9,-115.19 80,-208.22 77.1,218.26 319.8,285.2 323.9,525.39 0.6,35.42 125.7,68.71 193.1,102.99 8.5,-14.07 16.9,-28.15 25.4,-42.22 -37.4,-87.22 -74.8,-174.45 -113.4,-264.66 -3.4,1.3 21.1,-8.06 51.8,-19.76 -17.5,-12.84 -27.7,-21.92 -39.3,-28.56 -47.6,-27.24 -115.6,-42.5 -138.6,-83.3 -30.3,-53.65 -46.2,-99.5 -112.4,-128.55 -87.3,-38.27 -77.1,-98.28 9.7,-154.68 -61.7,-136.41 -125.5,-264.88 -58.8,-423.54 306.5,-729.1 607.7,-1460.36 917,-2205.96 29.6,452.8 58.5,892.98 87.3,1333.19 11.9,-0.72 23.8,-1.44 35.7,-2.16 21.4,-525.95 39.8,-1052.03 66.4,-1577.73 6.2,-123.5 26.2,-250.1 64,-367.6 127,-395.1 264.4,-786.8 399.1,-1179.5 19.6,-57.3 45.8,-112.3 102.1,-165.4 4,64.3 11.2,128.6 11.3,192.9 0.6,464.3 4.9,928.7 -5.1,1392.7 -2,92.5 -45.3,193.7 -96.8,273.3 -87.6,135.5 -196.8,257.1 -280.9,401.5 118.3,-85.8 236.5,-171.5 375.5,-272.4 0,219.7 0,419.4 0,619.1 9.6,0.3 19.1,0.5 28.7,0.7 10.7,-191.8 15.5,-384.2 35.6,-575 6.9,-64.5 39.9,-136.3 83.3,-184.8 108.7,-121.5 230.2,-231.6 349.2,-348.9 50.6,1082.2 -439.2,1990.77 -918.3,2902.84 600.7,-914.5 1078.5,-1871.44 1029,-3012.24 12.4,0.4 24.8,0.7 37.2,1 124.1,180.3 257.8,355 366.6,544 34.7,60.2 11.9,159.8 0.6,239.2 -204.3,1436.92 -374.8,2876.73 -331.6,4331.94 13.2,444.22 56.3,887.56 86.5,1331.26 1.5,22.2 9.6,44 44.9,64.1 0,-307.6 -7.4,-615.4 1.4,-922.74 30.9,-1078.44 129.5,-2150.36 321.7,-3212.95 82.5,-455.8 140.8,-916.82 244.7,-1367.51 42.4,-183.7 49.5,-371.4 101.6,-553.2 55.6,-194.3 83.3,-396.6 124.2,-595.1 5.5,-26.3 17.4,-51.3 38.7,-112.4 66.9,459.8 110.4,885.7 196.6,1302.7 52.2,252.2 -0.5,441.36 -161.4,631.29 -161.9,191 -299.9,402.29 -425.4,629.98 219.2,-212.88 438.5,-425.76 674.1,-654.55 292.2,1679.91 585.4,3348.72 1095.8,4969.68 -60.8,-326.3 -128.9,-651.5 -181,-979.23 -155.4,-977.7 -306.5,-1956.1 -455.1,-2934.87 -65.2,-429.81 -121.2,-861.05 -178.1,-1292.07 -5.8,-43.82 -5.1,-103.13 19.4,-134.13 369.1,-466.6 701.6,-956.7 963.7,-1493.1 13.2,2.5 26.4,4.9 39.6,7.4 -4.2,62.1 5.1,129.1 -14.9,185.6 -117.5,331 -241.8,659.6 -363.8,988.9 12,7.2 24,14.3 36,21.5 159.1,-266.4 318.2,-532.8 472.5,-791.2 74.3,139.5 88.4,289.1 26.1,576.6 -60.4,278.4 -133.1,554.09 -199.8,831.09 -7.6,31.73 -11.7,64.32 1.9,101.53 119.2,-374.45 238.5,-748.92 370.3,-1162.72 86.6,196.9 202.4,333.6 192.5,533.4 -64,1299.02 -120.1,2598.4 -181.5,3897.53 -8.3,176.39 -31.5,352.07 -15.2,533.11 64.3,-365 143.3,-728.13 189.7,-1095.38 85.8,-680.48 152.4,-1363.37 227.4,-2045.22 4.8,-43.1 2.5,-90.84 20.8,-127.99 171.1,-349.3 346.1,-696.76 519.9,-1044.75 11.4,3.7 22.9,7.4 34.3,11 120.6,401.12 241.2,802.21 361.8,1203.3 11.1,-2.92 22.3,-5.84 33.5,-8.76 -74,-378.29 -130,-761.28 -227.8,-1133.24 -69.3,-263.1 -4,-467.7 165.5,-673.2 32,230.3 63,452.1 93.9,673.9 7.7,-0.2 15.3,-0.3 23,-0.5 20.7,-254.7 31.3,-510.8 65.8,-763.6 20.9,-153.9 58.5,-312.3 123.9,-452.2 169.5,-362.1 358.5,-715 546.2,-1084.4 -67.6,1723.9 -440.4,3381.29 -844.6,5033.42 254.5,-604.17 871.2,-2732.22 1073.2,-4466.42 108.3,166.4 248.6,756.2 213.5,835.9 36.5,33.1 77.1,52.4 87.7,82.3 74.1,209.2 141.8,420.7 211.9,631.3 13.3,40.1 28.5,79.5 70.9,111.8 -57.1,-247.5 -100.3,-499.3 -175.9,-740.9 -52.6,-168.3 -3.6,-275.5 130,-377.4 81.6,260.9 170.4,505 162.2,789.3 -28.8,990.45 -31.7,1981.76 -35.7,2972.79 -1,250.14 30.3,500.41 71.7,750.02 26.2,-577.79 44.3,-1156.1 81.1,-1733.22 36.8,-576.35 92.3,-1151.5 163.7,-1731.69 18.2,36.6 37.7,72.7 54.2,110.1 160.2,361.86 324.2,722.19 475.2,1087.89 24.3,58.91 -13.7,141.92 -15.8,214 -1.4,46.07 10.2,92.53 16.1,138.81 12.6,-0.54 25.2,-1.08 37.8,-1.61 -1.7,3.1 -3.7,9.01 -5.2,8.91 -30.4,-2.04 -60.8,-4.77 -99.8,-8.09 33,46.14 57,79.59 95.9,133.93 47.1,-66.97 94.8,-134.82 139.3,-197.93 150.3,157.87 167.8,213.68 87.7,410.97 12.8,-85.93 19.7,-132.47 26.8,-180.24 -82.3,2.42 -77.6,4.23 -145.1,180.4 -29.1,75.96 -82,142.83 -124.5,213.61 -43.4,72.36 -87.3,144.44 -140.2,231.95 64,-16.75 114.6,-16.29 145.9,-40.65 110.4,-86.01 214.2,-180.52 320.5,-271.77 -0.2,0.04 -1.8,-0.51 -1.8,-0.51 21.6,-58.04 43.2,-116.08 64.8,-174.12 10.5,-0.36 20.9,-0.71 31.4,-1.06 17.5,93.05 35,186.1 52.6,279.15 l -3.2,-4.85 c 18.4,2.82 50.1,0.96 53,9.17 33.1,95.08 61.4,191.79 91.7,287.83 30.9,97.87 -2.8,159.64 -80.7,229.78 -42.4,38.14 -25.6,142 -37.2,228.79 -50.4,5.79 -117.3,13.47 -184.3,21.15 0.3,7.4 0.6,14.81 0.9,22.21 24.1,0 48.2,0 73,0 4.1,51.45 8.1,101.46 12.7,158.92 -34.5,18.08 -80.7,42.27 -137.9,72.29 31.8,12.1 54.5,20.7 86.3,32.81 -43,48.9 -82.7,94.18 -127.6,145.28 33.6,9.91 62.6,18.44 97.3,28.68 -49,97.18 -95.5,189.5 -144.2,286.09 6.9,38.77 16.2,91.27 23.9,134.32 56.8,-15.34 126.2,-34.11 206.5,-55.8 27.3,-168.3 60.3,-371.2 95.5,-588.15 36.1,15.45 69,29.57 107.7,46.18 0,-89.8 0,-174.32 0,-267.39 32.5,-26.21 73.2,-58.99 114.1,-92.02 44.3,167.21 -7.4,522.38 -157.4,590.52 57.5,146.14 173.9,135.88 298.6,89.5 -9.8,94.92 -17.7,171.1 -25.7,247.26 25.1,37.82 50.3,75.66 75.5,113.5 14.9,66.35 29.1,132.87 45,198.99 9.3,38.87 43.1,94.51 28.6,112.75 -86.9,108.76 24.6,186.12 48.9,264.85 38.3,124.04 50,266.81 161.9,367 36.5,32.7 32.6,110.7 47.1,168 177.4,-44.9 194,-86.1 80.5,-226.33 31.4,-7.81 59.8,-14.86 80.2,-19.93 -44.9,-68.08 -87.8,-133.21 -137.3,-208.13 24.6,-13.64 55.1,-30.61 80.1,-44.51 -31.9,-86.7 -62.5,-169.83 -94.2,-256.05 6.8,-3.16 24,-11.11 39.7,-18.36 -31.4,-40.28 -57.7,-86.83 -95.7,-120.02 -89.1,-77.85 2.6,-136.07 15.4,-202.65 42.1,18.5 94.8,26.97 124,57.77 46.8,49.49 78,113.74 105.9,156.6 34,-37.3 64.9,-71.1 104.5,-114.5 -21.5,-57.15 -32.6,-153 -85.6,-209.64 -56,-59.79 -148.3,-95 -231.1,-118.2 -168,-47.03 -259.1,-151.74 -289.6,-319.36 -14,-76.85 -6.6,-135.18 87,-144.48 5.6,-11.65 11.1,-23.3 16.6,-34.95 48.6,-102.95 -22.8,-163.13 -81.2,-227.96 0,58.91 0,117.81 0,176.72 -19.5,1.42 -38.9,2.84 -58.4,4.26 -19.8,-81.37 -39.7,-162.74 -68,-278.56 67.5,42.38 95.3,59.47 122.5,77.43 3.1,2 2.8,8.93 4.1,13.58 25.1,-20.04 50.2,-40.08 80,-63.81 -69.7,-77.59 -219.3,-112.61 -144.3,-269.17 6,-12.59 -54.1,-68.62 -91.9,-88.34 -147.9,-77.11 -199,-215.44 -121.3,-324.68 122.7,-41.11 1.1,241.44 198.6,111.69 -81.1,169.15 87,87.77 122.4,147.48 15.5,26.16 91.8,30.42 93.2,48.47 8.8,106.93 124.6,8.79 144.5,81.74 15,-18.66 44.7,-39.44 42.4,-55.58 -7.1,-48.57 -13.2,-108.24 -44,-140.08 -60.9,-62.93 -138.1,-110.09 -208.6,-163.76 5.2,-10.68 10.4,-21.35 15.6,-32.03 -45.7,11.99 -91.4,23.98 -141.9,37.25 8.8,-23.97 26.5,-62.47 23.2,-64.42 -51.8,-29.87 -106.2,-55.29 -160.3,-81.11 -68.8,-32.87 -193.4,-60.82 -196.3,-98.56 -8.4,-106.36 33.2,-216.65 55.8,-329.25 156.8,26.68 269.3,169.95 415.1,55.92 7.2,21.18 23,67.72 45.7,134.25 19.1,-44.33 31.2,-72.55 51.1,-118.68 27.9,47.68 49.6,84.69 70.8,120.71 45.1,-19.01 91.4,-38.47 133.4,-56.16 -17.7,-29.55 -42.4,-70.89 -70.9,-118.61 -114.7,-64.74 -239,-156.06 -378.1,-205.63 -86.2,-30.72 -195.2,-0.58 -293.6,7.17 -53.8,4.23 -109.2,31.43 -159,22.26 -19.8,-3.64 -26.4,-77.82 -39.4,-119.78 -9.6,-31.2 -19.8,-62.23 -29.9,-93.78 55.8,-31.36 106.7,-60.01 176.5,-99.3 -54.4,-41.14 -89.4,-67.63 -126.3,-95.46 16.4,-17.8 31.9,-34.73 51.3,-55.89 -75.8,-26.72 -148.9,-52.45 -246.4,-86.82 C 33290.1,5274.3 33240.8,4344 33351,3404 c 53.4,175.9 100.6,354.1 161.9,527.2 64.3,181.8 119.3,373 219.5,534.4 142.4,229.3 179.9,471.9 188.3,730.2 5.4,163.7 24.8,326.9 60.8,490.24 0,-248.99 0,-497.94 0,-781.34 184.7,194.8 344.2,363 503.7,531.13 9,-8.63 18,-17.33 26.9,-26.03 -121.4,-199.9 -236.5,-404 -366.3,-598.3 -107.1,-160.6 -152.3,-328.8 -131.8,-519.6 8.6,-79.5 1.4,-160.7 1.4,-283.2 40.1,66.3 60.2,95.9 76.8,127.3 175.9,333.2 351,666.7 526.8,999.9 58.5,110.9 135,215.6 172.9,333 36.2,112.27 33,237.28 59.8,357.06 0,-83.72 0,-167.44 0,-286.33 197,281.07 372.9,532.15 548.9,783.23 8.9,-5.01 17.8,-10.03 26.7,-15.04 -20.4,-44.62 -39.9,-89.73 -61.5,-133.77 -165.8,-338.07 -334.6,-674.79 -496.3,-1014.85 -32,-67.4 -55,-148 -52.6,-221.6 20,-623.1 46.8,-1246.1 71.9,-1869.1 0.9,-22.1 5,-44 6.6,-56.6 329.8,406.5 405.7,903.1 505.5,1393.5 231,1135.05 607.4,2224.02 1060.5,3287.86 14.8,34.74 33.9,67.63 75.6,93.45 -13,-46.46 -23.9,-93.67 -39.4,-139.27 -382.7,-1122.1 -671.7,-2268.14 -871.2,-3436.44 -15.1,-88.6 20.5,-185.9 36.4,-309 252.5,612.4 491.1,1191 729.7,1769.55 11.5,-4.93 23,-9.86 34.5,-14.79 -180,-746.06 -360,-1492.06 -540,-2238.16 16.3,-5.8 32.5,-11.7 48.8,-17.5 44.3,100.5 88.6,201 137.3,311.4 -0.3,0 45.6,-10.7 53,1.6 111,185.4 278.1,327.9 294.9,578.5 90.7,1348.83 355.2,2668.45 713.9,3970.17 12.7,46.1 31.3,90.57 52.6,134.75 -279.5,-1297.56 -440,-2610.67 -549.9,-3970.82 221.7,249.3 415.4,467 609,684.7 6.9,-5.4 13.8,-10.8 20.6,-16.3 -178.8,-286 -365.4,-567.6 -532.4,-860.3 -64.1,-112.4 -111,-248.9 -117.8,-377 -19.5,-361.9 -15.2,-725 -17.6,-1087.6 -0.4,-60.7 12.3,-121.4 18.2,-175.8 350,497.6 254,1077.4 321.2,1634 27,-154.3 54,-308.6 84.8,-484.2 42.4,60.1 72.4,102.5 102.3,145 -8.4,-1.8 -16.9,-3.5 -25.3,-5.2 -4.9,-208.7 -16.6,-417.4 -13.1,-626 4.7,-280.2 20.8,-560.3 32.8,-840.4 2.4,-56.1 8.7,-112.1 40.3,-171.9 127,274.7 261.5,546.4 375.5,826.4 26.8,65.8 -14.7,160 -26.6,240.8 -27.2,185.5 -55.6,370.8 -51.7,562.1 44.2,-200 88.4,-400.1 136.9,-619.6 200,287.1 213.6,610.7 267.3,925.9 0,-51.7 0,-103.4 0,-158.8 159.2,63.6 241.1,216.9 290.4,417.9 272.2,1109.9 542.2,2220.4 799.6,3333.77 85.7,370.59 137.7,749.47 191.9,1126.46 11.9,82.57 -32.4,173.21 -49.4,253.26 112.7,-24.66 136.3,41.54 106.5,353.8 -13.7,2.77 -27.4,5.55 -41,8.32 -18.9,-93.14 -37.8,-186.28 -56,-275.63 -87.4,43.03 -203.7,100.29 -355,174.76 84,23.52 133.6,37.41 198.6,55.62 -62.8,29.02 -115.7,54.31 -169.3,77.91 -37.5,16.52 -98.2,12.32 -59.5,86.54 5.3,10.01 -36.5,50.29 -61.9,69.31 -46.7,35.02 -41.1,70.34 1.6,116.2 23.8,25.6 23.6,73.6 29.4,94.25 99.9,-91.63 204.3,-187.3 303.7,-278.4 -50.5,-40.08 -37.2,-92.72 103.5,-190.74 14.7,110.35 177.2,208.41 -54.9,293.92 -75,27.6 -112,177.45 -151.3,277.35 -47.4,120.4 -78.7,247.1 -117,371.1 18.6,9.4 37.2,18.8 55.8,28.2 125.5,-176.4 250.9,-352.8 382.7,-538.07 6.2,35.66 20.2,71.42 17.2,105.69 -16.2,184.98 -85,382.28 -41,550.48 38.7,148 -21.1,267.2 -7.9,399.1 27.6,276.6 -88.7,503.4 -263.3,703.3 -32.5,37.1 -100.8,42.8 -160.6,66.1 30,25.1 51.7,43.1 47.2,39.4 -64.9,75.9 -129.6,151.5 -206,240.7 37.7,-11.7 61.4,-19 103.1,-32 -18.1,54 -32.2,95.9 -58.8,174.8 69.3,-74 115.6,-123.4 161.9,-172.8 9.3,4.9 18.5,9.8 27.7,14.7 -6.7,70.8 -13.5,141.7 -20.4,214.4 25.9,-4.6 51.3,-9.1 89.1,-15.8 -35.6,65.7 -64.5,118.9 -100.4,185.1 31.4,-14.3 51.9,-23.6 76.4,-34.8 -56.3,293.1 19.5,566.8 124.6,841.7 86.9,-177.1 179.3,-354.3 169.7,-595.3 -12.7,24.8 -10.3,18 -9.2,18.2 18.5,3.4 36.9,7.7 45.8,9.6 -14.5,-270.2 -29.1,-543.1 -45.1,-841 186.4,117.1 112.6,403.7 357.2,435.1 -77.6,-97.5 91.5,-274 -154.4,-327.7 65,-16.2 88.4,-22.1 111,-27.7 -10.2,-44.6 -20.9,-91.1 -31.3,-136.6 -78.3,33.6 -97.5,16.8 -105.7,-104.6 -25.4,10.8 -50.3,21.4 -87.1,37 -11.5,-177.5 -22.4,-347.6 -33.4,-517.7 11.7,-2.4 23.4,-4.8 35.2,-7.1 36.3,70.8 72.6,141.7 108.9,212.6 105.4,-86.9 -0.1,-162.1 -13.5,-242.4 -24.9,-33.9 -64.9,-65.3 -71.1,-102.3 -8.8,-52.1 2.1,-109.9 17.1,-161.5 3.6,-12.1 57.6,-9.5 88.5,-13.7 28.4,0.1 56.8,0.1 85.2,0.2 62,-125.7 36.5,-205.9 -95.8,-280.1 -145.3,-81.4 -95.5,-247.7 -104.9,-382.4 -3.2,-44.4 17.2,-90.4 33.6,-167.53 94,158.53 169,295.23 255,424.73 31.9,48.2 89.4,79.5 148.6,129.9 16.1,-89 28.3,-156.2 43.1,-238.2 -17.9,-8 -64.2,-28.9 -109.7,-49.4 47.8,-127.4 -44.9,-156.3 -148.4,-178.3 12.8,-43.4 22.8,-76.98 36,-121.68 -42.2,-15.77 -85.1,-31.82 -128,-47.87 -168.7,-228.14 -121.5,-500.13 -137.2,-767.91 60.7,96.29 129.6,188.57 180.1,289.95 56.7,113.86 161,138.5 250.1,193.7 15.6,-15.2 31.2,-30.41 46.9,-45.61 -105.9,-137.18 -224.7,-266.54 -313.4,-414.03 -70.2,-116.64 -193.5,-178.71 -222.7,-346.67 -150.5,-865.03 -331.1,-1724.82 -501.1,-2586.46 -1.8,-9.02 -1.8,-18.39 29.5,-47.19 506.7,833.3 1013.4,1666.6 1520.1,2499.9 5.6,-2.64 11.1,-5.28 16.7,-7.92 -19.8,-45.42 -37.5,-91.84 -59.5,-136.12 -415.7,-836.72 -912,-1625.46 -1420.3,-2407.86 -105.5,-162.39 -178.8,-351.5 -236.8,-537.67 -86.8,-278.46 -147,-565.26 -195.1,-857.96 157.7,264 315.3,527.9 473,791.92 8.5,-3.6 17.1,-7.2 25.6,-10.8 -11.9,-36.59 -21.8,-74.02 -36.1,-109.62 -160.1,-398.6 -319.9,-797.2 -482.3,-1194.8 -36.9,-90.3 -41.1,-163.7 17.6,-254.9 111.4,-172.8 201.6,-359.2 310.2,-557.5 700.1,2336.81 1558.9,4591.63 2891.2,6637.2 11.2,-4.7 22.4,-9.5 33.5,-14.18 -15.4,-37.55 -29.3,-75.83 -46.5,-112.53 -228,-485.03 -453.3,-971.36 -687.4,-1453.44 -46.9,-96.46 -51.6,-178.76 -13,-274.17 46.5,-114.93 85.5,-232.88 134.1,-366.88 69.5,98.8 124.6,177.13 187.9,266.96 1.1,-23.68 6.5,-38.46 1.4,-44.42 -175.7,-207.7 -122.9,-415.98 -47.6,-654.92 250.3,-794.33 472.9,-1597.36 707.5,-2401.72 23,54.3 49,118.5 77.2,181.7 269.8,604.93 554.2,1201.72 934.9,1747.9 39.6,56.78 51.5,142.98 51.7,215.6 2.7,990.84 -3,1981.73 3.4,2972.5 1.6,243.5 39.2,486.8 69.2,728.1 34.7,-868.6 48.7,-1738.65 110,-2605.37 61.2,-865.63 169.6,-1727.93 277.3,-2590.25 453.3,1695.22 948.8,3365.21 1829.4,4890.72 11,-4.2 22,-8.4 33,-12.6 -76.1,-179.2 -154,-357.7 -228.1,-537.76 -487.9,-1186.95 -808.3,-2426.06 -1131.6,-3663.69 -124.4,-476.1 -217.5,-960.25 -335.3,-1438.25 -63.2,-256.4 19,-498.4 46.2,-745.5 27.3,-248.2 73.3,-494.4 109.9,-733.4 153.5,757.5 307.6,1517.2 461.6,2276.99 10.9,-1.73 21.9,-3.46 32.8,-5.19 -32.4,-232.9 -68.5,-465.4 -96.4,-698.9 -91.2,-762.6 -186.7,-1524.9 -262.8,-2289.1 -16,-161.1 43.5,-329.7 97,-497.3 63.3,180.5 119.2,364.1 191.1,541.1 161.5,397.8 333.7,791.2 494.1,1189.4 26,64.5 32.8,149.7 15.4,216.7 -130.6,504.2 -269.6,1006.2 -406,1508.89 15.6,6.27 31.1,12.55 46.6,18.82 172.5,-384.01 345,-767.91 526.4,-1171.91 31.2,259.4 41.7,508.2 94.5,747.6 77.2,349.72 22.8,670.1 -110.2,996.74 -99.3,243.79 -151.7,506.67 -195.8,771.16 132.5,-317.26 265,-634.51 393.2,-941.42 223,829.66 428.7,1665.38 674.2,2489.23 245.5,823.5 560,1623.29 973.2,2382.29 -83.4,-230.4 -169.3,-460 -249.6,-691.5 -501.7,-1445.78 -838.5,-2931.18 -1094.2,-4438.62 -50.4,-296.73 100.5,-482.38 205.3,-718.38 181.4,615.01 344.1,1221.69 540.6,1817.24 195.5,592.53 424.8,1173.89 639.3,1760.14 14.9,-5.36 29.8,-10.71 44.6,-16.06 -97.4,-352 -205.2,-701.51 -290.3,-1056.49 -203.5,-849.69 -396.9,-1701.81 -592.9,-2553.33 -26.8,-116.6 -71.4,-237.8 -60.2,-352.3 13,-134.6 78,-264.1 120.4,-395.9 14.9,5 29.7,9.9 44.6,14.9 -43,140.3 -85.9,280.7 -128.8,421 9.7,4.4 19.4,8.8 29.2,13.2 40.2,-69.5 80.3,-139.1 134.6,-232.9 91.6,630.3 158,1236.29 377.3,1813.55 -14.5,-296.42 -32.5,-592.73 -41.5,-889.35 -2.6,-84.4 8.1,-173.7 34.2,-253.7 123.8,-380.3 255.1,-758.2 394.1,-1167.5 15.8,54 23,78.3 23.7,80.8 5,-426.6 230.1,-814.4 332,-1242.6 298.7,690.4 287.4,1406.5 251.8,2125.6 12,0.6 24,1.1 35.9,1.7 45.5,-205 90.9,-410 142.5,-642.5 78.1,198.4 147.5,374.6 216.8,550.7 10.3,-2.5 20.7,-5.1 31,-7.6 -23.5,-161 -32.9,-325.5 -73.2,-482.1 -92.9,-361.1 -94.8,-720.5 -55.1,-1090.2 57.8,-537.9 83.4,-1079.4 123,-1619.3 1.6,-22.1 5.8,-44.1 42.7,-73.1 116.3,400.5 266,794.9 339.6,1203.1 75.1,416.6 -26.7,832.5 -174.9,1257.4 33.3,-43.6 50.2,-65.6 88.6,-116 -25.5,303.5 -48.6,576.8 -71.6,850.1 11.7,1.7 23.4,3.3 35,4.9 95.2,-415.6 190.3,-831.1 285.5,-1246.7 12.4,2.3 24.8,4.5 37.2,6.8 -235.1,1240 -470.2,2479.98 -710.8,3748.68 404,-1027.96 688,-2063.78 956.1,-3119.98 55,160 97.1,326.1 168.1,478.6 102.8,220.5 83,424.3 9.5,651.7 -327.7,1014.74 -644.2,2033.15 -954.1,3053.47 -106,349.1 -180.9,707.67 -256.9,1063.49 490.2,-1302.13 980.4,-2604.27 1470.5,-3906.41 15.3,-0.96 30.6,-1.91 45.9,-2.87 59,258.46 117.5,517.02 178,775.11 3.1,13.5 29.5,20.72 34.7,34.72 80.9,216.58 223.1,426.38 164.5,668.02 -150.2,618.97 -249.3,1241.1 -207.2,1749.44 64.2,-467.3 145.8,-1061.62 227.3,-1655.94 18.9,-0.21 37.7,-0.42 56.5,-0.63 19.7,44.29 43.7,87.21 58.6,133.09 136.5,422.42 272.1,845.13 406.1,1268.35 20.9,66 34.4,117.48 -35.1,188.12 -63.4,64.38 -67,187.53 -66.5,289.02 -42.5,45.19 -95.9,85.2 -121.1,138.55 -8.1,17.33 57.6,69.54 74.6,88.8 -18.1,63.25 -70,159.21 -47.8,181.61 132.3,133.45 151.4,-90.96 250.4,-89.12 11.1,47.18 22.9,97.17 36.6,155.5 -84,32.69 -240.9,16.06 -148.7,186.48 -84.7,25.69 -223.5,262.45 -199.2,341.69 7.6,24.91 31.6,45.71 50.7,66.01 86.1,91.7 122.2,-86.3 229,-34.55 123.5,59.85 128.9,-76.47 144,-177.8 37.8,28.27 67.1,50.16 88.9,66.51 -38.6,99.88 -100.2,190.94 -104,284.34 -6.1,149.4 15.7,296.3 -148.7,378.6 26,33.6 47.2,88.6 79.2,95.9 51.1,11.7 109.5,-8.4 165.1,-8.4 -175.4,38.3 -215.3,130 -106,262 -44.7,56.6 -97,110.2 -131.2,173.7 -10.3,19.1 29.6,65.4 46.6,99.4 -129,77.7 -135.9,292.4 -12.8,372.5 23.2,15.1 38.4,43.6 54.9,67.6 29.7,43 47.8,107.1 88.2,127.1 103.6,51.3 112.6,99.2 55.3,200.6 -61.1,108.3 62.7,328.4 207.7,353.5 -7.5,-87.2 -14.4,-166.7 -22.3,-257.1 75.8,-65.8 75.8,-65.8 31.1,-304.5 153.9,38.4 150.7,41.7 122.7,195.6 -8,44 28.8,96.2 52.7,167.1 -8.4,31.6 -26.3,99.3 -44.2,167 56.5,5.5 112.9,11.1 165.1,16.2 57.2,208.2 12.3,457.3 155.6,632.7 0,86.5 -16.8,163.3 4.9,226.9 20.1,58.9 77.8,108.1 127.8,151.2 9,7.7 89.9,-36.8 89,-54.6 -3.8,-68.6 -27.2,-136.2 -50,-232.3 38.7,48.4 56.8,91.3 86.5,102.1 29.3,10.7 100.9,-9.1 101.6,-19.3 7.7,-106.3 4.7,-213.4 4.7,-324.2 28.3,-8.5 77.3,-23.3 126.4,-38 -31.1,-59.5 -62.1,-119 -93.4,-179 125.6,-69 130.7,-101.9 12.9,-165.1 -46.1,-24.7 -94.9,-44.6 -134.4,-63 36.9,-58.3 71,-112.2 94.4,-149 70.7,12 144.7,24.5 218.6,37.1 -26,-66 -41.4,-139.4 -81.1,-195.7 -42.5,-60.5 -107.8,-105 -171,-163.6 77.7,-185.3 -207,-190 -188,-368.9 -55.1,43.7 -82.2,65.2 -109.4,86.7 -64,-83.7 -139.6,-162.1 -182.1,-255.6 -8.4,-18.5 110.6,-94.9 168.2,-142.5 54.8,80.7 94.9,139.7 135,198.7 22.6,-40.6 45.1,-81.2 51.7,-92.9 62.6,28.3 124.7,56.3 186.8,84.4 3.6,-67.8 7.3,-135.6 11.7,-217.9 5.4,-2.2 42.8,-17.4 80.1,-32.6 -22.2,-39.3 -41.1,-80.9 -67.4,-117.2 -25.2,-34.7 -76.3,-59.9 -84.2,-96.2 -32.7,-149.5 -112.5,-198.8 -260.5,-159.3 -23.7,6.3 -64.2,-38 -92.2,-64 -34.5,-32.3 -64.1,-69.9 -123.5,-135.8 17.9,106 27.8,165 43.4,257.5 -168.9,-131 -179.4,-238.2 -93.9,-368.3 36.1,-54.9 33,-135.6 49.9,-215.3 52.8,106.4 89.7,192.5 137.5,272 19.7,32.8 62.7,51.5 95,76.6 22.1,-38.6 44.3,-77.1 52.2,-91 65.2,13 132.1,26.3 199,39.6 -17.1,-68.9 -34.1,-137.8 -55.1,-222.7 72.8,-52.4 -1.4,-95.3 -61.9,-133.7 -93.2,-59.1 -190.1,-112.5 -265.5,-156.63 16.7,-74.28 26.2,-116.46 35.7,-158.65 -44.2,-5.36 -89,-7.75 -132.4,-16.67 -98.6,-20.24 -196.5,-43.69 -298.9,-66.8 -27.7,-69.74 -55.9,-140.84 -72,-181.49 67.6,-41.26 123.2,-75.17 178.8,-109.07 -21.9,-20.63 -43.8,-41.25 -65.7,-61.88 34.4,63.82 68.8,127.63 103.1,191.44 12.5,-1.78 25,-3.55 37.5,-5.33 16.7,-51.9 33.5,-103.79 45.8,-142.16 58.1,-10.71 152.4,-15.04 154.3,-30.74 8.5,-68.68 14.7,-179.16 -23.5,-203.52 -82.5,-52.56 -192.8,-61.51 -285,-86.51 76.2,-136.12 65,-187.08 -60.2,-172.79 -57.4,6.57 -112.9,30.95 -208.8,58.7 91,-114.84 241.1,-207.89 26,-282.71 30.4,-158.79 30.4,-158.79 -192.5,-160.46 -123,-397.18 -247.1,-797.86 -371.2,-1198.55 -1.4,-4.6 -1.1,-9.94 -3.2,-14.11 -172.4,-338.26 -131.3,-671.27 1.8,-1013.36 106.4,-273.67 182.7,-559.08 275.4,-848.55 121.4,308.37 240.2,610.06 359,911.76 7.1,-2.85 14.3,-5.7 21.5,-8.56 -78.2,-367.35 -161,-733.84 -230.6,-1102.86 -13.3,-70.2 6.9,-160.8 43.1,-224 174.9,-305.1 360.6,-604.1 559.7,-933.9 16.9,461.5 32.9,894.8 48.8,1328.04 16.8,-0.03 33.6,-0.05 50.4,-0.08 0,-425.86 6.8,-851.86 -2.9,-1277.56 -4.8,-207.8 53.8,-387.8 173.5,-574.3 60.9,247.5 111.4,484.2 178.1,716.2 89.2,310.5 196.3,616 283.9,926.9 22.7,80.7 26.1,183.2 -3.2,259.67 -224.7,585.75 -459.7,1167.52 -691.2,1750.64 -8.6,21.45 -14.4,43.99 5.1,77.24 262.5,-598.25 524.9,-1196.49 797.8,-1818.77 73,153.99 136.4,288.01 199.9,422.02 7.4,-2.97 14.8,-5.94 22.2,-8.91 -48.7,-149.72 -99.9,-298.71 -144.5,-449.64 -12.7,-42.95 -22.2,-98.25 -6,-136.25 94.3,-221.3 196.6,-439 302.9,-672.5 134.9,182 262.1,345.6 378.8,516.4 29.9,43.7 34,109.5 37.3,165.8 6.7,115.81 0.7,232.29 7.2,348.07 31,552.57 -19.3,1079.96 -230.5,1611.12 -345.7,869.49 -436.1,1797.21 -446.4,2731.01 76.1,-1043.14 239.8,-2066.43 676.1,-3070.47 0,279.48 13,519.51 -2.4,757.7 -51.1,788.28 122.6,1525.67 478.1,2225.23 28.2,55.54 58.2,110.24 107.7,156.54 -70.8,-175.92 -145,-350.59 -211.8,-528.05 -199.4,-529.8 -309.8,-1073.53 -280.8,-1644.52 16.4,-323.09 -5.6,-648.02 7.2,-971.44 5.3,-135.1 40.1,-274.57 89.4,-401.17 80.1,-205.7 183.2,-402.46 283.2,-617.32 51.1,70.3 89,122.42 129.6,178.27 6,-13.38 11,-19.88 9.6,-21.91 -140.6,-201.06 -43.6,-375.27 54.9,-555.14 327,-597.32 545,-1234.72 693.9,-1902.02 35.5,252.2 73.1,504 105.7,756.6 32.8,253.9 67.8,507.8 89.2,762.8 39.8,471.79 63.7,944.94 107.8,1416.23 18.9,201.42 -19.9,380.73 -113,555.17 -40.7,76.2 -72.5,157.16 -91.6,248.39 67.9,-100.74 135.7,-201.48 226.7,-336.64 14.9,396.49 29.2,751.58 39.1,1106.79 0.6,22.09 -39,42.75 -50.2,68.33 -17.2,39.16 -25.9,82.03 -33.6,129.04 -22.8,137.66 -45.7,275.32 -70.4,424.12 -40.4,64.03 -91.6,145.22 -126.3,200.19 -80.9,93.01 -148.2,162.68 -204.1,240.53 -12.6,17.54 6.3,85.88 24.8,92.73 82.6,30.61 172.9,-46.26 257.8,11.1 23.1,-50.79 46.3,-101.57 62.7,-137.65 59.5,-39.63 112.1,-74.72 163.8,-109.13 7.5,152.45 15.5,315.63 23.5,477.46 -240.5,95.83 -341.8,265.35 -239.4,395.75 -117.1,136.69 -108.4,255.29 40.2,402.59 7.4,-40.6 13.3,-72.5 21.2,-116.2 41.5,67.4 76.2,124 112.1,182.4 16,94.8 -179.4,180.2 -6.9,295.2 -106.5,85 -71.8,157.9 54.7,250.3 27,-96.8 49.1,-175.9 69.1,-247.6 24.4,70.9 52.8,153.4 72.6,210.8 -64.3,115.6 -122.3,219.8 -188.6,338.8 121.8,82.8 266.6,140.1 298.7,316.5 22.5,-10.8 45,-21.6 67.5,-32.5 -6.6,-104.6 -13.1,-209.2 -20.1,-321.2 120.1,-2.3 66.9,-106.6 42.8,-206.5 51.6,39.9 91.8,70.9 131.9,101.9 11.9,-3.3 23.9,-6.6 35.8,-9.9 -10.9,-74.5 -21.8,-148.9 -31.2,-213.6 95.4,65.8 200.8,138.5 306.2,211.2 7.3,-5.3 14.6,-10.6 21.9,-15.9 -39.1,-55.3 -71.8,-117 -118.7,-164.6 -96.7,-98.4 -208.1,-183 -298.9,-286 -37.9,-42.9 -33.3,-120.8 -58.2,-178.2 -18.9,-43.4 -58.7,-77.3 -80.4,-119.8 -18.7,-36.4 -25,-79.2 -36.8,-119.1 50.8,13.9 105.3,20.9 151,44.7 25.4,13.2 36.3,54.5 59.6,92.7 52.9,-30.6 103.8,-60.1 153.4,-88.8 -164.2,-411.79 -164.2,-411.79 -336.5,-487.29 8.5,-50.83 16.8,-100.24 25.1,-149.65 -47.6,-2.87 -95.2,-5.74 -163,-9.83 0,-165.03 0,-364.56 0,-578.88 40.5,31.21 76.7,59.1 105.9,81.62 -23.4,132.18 -45.4,255.91 -68.2,384.2 309.5,2.45 320.9,-18.99 197.8,-365.81 58.1,33.02 93.7,63.22 134.4,73.8 48.2,12.52 100.7,8.1 151.4,11.03 -21.1,-41.94 -41,-84.51 -63.9,-125.43 -6.6,-11.69 -21.7,-18.6 -32.7,-27.59 14.6,-26.6 28.7,-52.21 43.9,-79.83 -149.3,-46.8 -149.3,-46.8 -286,113.19 -39.9,-66.31 -78.3,-129.93 -109.7,-182.23 40.4,-38.5 99.7,-86.52 143.3,-146.1 6.2,-8.59 -63.7,-72.85 -107.9,-121.96 62.5,-78.8 63.5,-176.45 -16.9,-272.63 -9.4,-11.18 -10.3,-43.56 -1.2,-53.7 63.4,-71 7.8,-91.04 -42,-127.78 -37.9,-27.95 -82.3,-77.49 -84.2,-119.19 -17.2,-386.45 -26.2,-773.27 -36.3,-1160.02 -0.7,-28.05 1.9,-60.27 15,-83.97 109,-198.45 220.9,-395.37 333.9,-596.31 153.8,255.67 303.8,504.93 453.7,754.18 12.2,-6.89 24.3,-13.79 36.5,-20.68 -51.9,-94.62 -103.8,-189.22 -155.6,-283.88 -304.7,-557.06 -304.6,-572.62 8.1,-1124.83 16.2,-28.6 33.9,-56.35 64.1,-106.51 40.1,191.77 75.4,360.9 110.7,530.04 14,1.75 28,3.51 42,5.26 -105.3,-568.08 10.6,-1080.52 369.2,-1538.12 35.4,237.1 59.8,476.6 108.1,711.3 198.4,963.71 211.2,1949.38 352.9,2919.13 70.1,480.38 189.9,953.52 315.5,1424.7 -192.7,-782.24 -289.5,-1576.15 -315.9,-2414.47 30.4,78.54 49,126.64 67.6,174.75 8.3,-1.11 16.6,-2.21 24.9,-3.32 -81.8,-992.04 -163.7,-1984.09 -245.5,-2976.09 10.2,-2.9 20.4,-5.8 30.7,-8.7 48.9,91.1 97.8,182.2 146.7,273.2 9.7,-2.5 19.4,-5 29,-7.6 -21.6,-96.6 -26.3,-201.3 -67.7,-288.6 -193.1,-407.8 -67.3,-778.9 114.6,-1146.4 5.8,-11.6 15.8,-21.1 21.6,-28.7 287.7,356.1 350.9,778.1 342.7,1214 -8.1,434.7 -37,869 -56.2,1303.51 -2.1,46.71 -0.3,93.59 -0.3,140.4 14.5,0.44 28.9,0.89 43.4,1.34 28.8,-760.35 57.6,-1520.75 86,-2272.85 96.6,116.6 201.8,238.7 139.6,441.8 -32.3,105.5 -5.7,229.1 4,345.1 8.5,-134.7 16.9,-269.4 25.3,-404.1 10,-1.5 19.9,-3 29.8,-4.5 96,228.3 194.7,455.4 285.2,685.7 15.6,39.8 4.4,95.2 -7.5,139.9 -234.5,886.12 -470.8,1771.78 -707.5,2657.32 -44.5,166.71 -92.6,332.49 -123.7,504.02 405,-893.19 775,-1799.42 1059,-2739.44 12.1,1.9 24.2,3.8 36.3,5.7 -5.7,56.9 -0.7,117.5 -18.9,170.1 -130.2,377.93 -265.1,754.25 -398.5,1131.09 11,5.37 21.9,10.73 32.8,16.1 175.8,-340.63 351.5,-681.26 537.8,-1042.39 12.2,23.7 16,37.3 24.5,46.7 168.5,185.51 150.4,378.85 83.2,611.87 -266.7,924.3 -477.2,1861.82 -546.8,2825.31 -3.8,52.62 -0.5,105.74 -0.5,198.32 131.3,-1120.89 343,-2181.88 759.9,-3204.45 26,16.45 45.4,28.73 38.8,24.55 39.6,-136.98 72.2,-279.15 121.8,-415.11 166.7,-457.49 339.6,-912.79 516.3,-1385.59 77.2,559.9 152.6,1107.4 228.1,1654.96 14.4,-0.73 28.8,-1.46 43.2,-2.19 6.8,-85.21 20.1,-170.46 19.4,-255.61 -5.3,-642.76 -16.4,-1285.56 -17.6,-1928.36 -0.3,-132.3 23.6,-267.1 54.4,-396.5 40.2,-168.7 98.4,-333.1 163.1,-546.3 88.8,271.8 276.7,452.5 267.1,732 -16.3,477.7 -4.5,956.3 18.6,1437.2 27.8,-463.9 55.6,-927.8 84.2,-1404.7 212.9,355.4 421.4,700.9 625.5,1049 16.2,27.5 7.7,74 1,109.9 -64.9,345 -131.8,689.6 -182.6,1041.3 95.3,-179.6 190.6,-359.2 286,-538.9 66.6,1878.09 422.6,3718.35 543.6,5604.1 -83.6,-43.7 -151.6,-79.2 -231.8,-121.1 -9.3,54.1 -15.3,88.9 -21.9,126.8 -46.9,4.3 -89,8.1 -137.4,12.5 82.1,131.8 -9.6,164.4 -108.1,209.9 22.4,7.5 44.9,14.9 76.6,25.4 -21.8,49.8 -43.2,98.9 -63.4,144.9 97.8,-69.3 187.1,-131.7 274.9,-196.3 7.5,-5.5 8.4,-25.6 6.2,-37.8 -21.3,-118.9 69.5,-133.2 140.7,-122.3 31.3,4.8 81.1,101.6 68.9,139.3 -44.4,137.9 -110.8,268.7 -171.9,400.9 -2.4,5.1 -36.5,-9.4 -53.5,-5.3 -68.2,16.4 -135.4,36.4 -203,55.1 0.8,15.4 1.6,30.7 2.5,46 34.2,18 68.5,36 128.2,67.2 -93.9,51.1 -174.8,95.1 -255.8,139.1 3.4,8.8 6.8,17.6 10.2,26.4 27,-3.9 53.9,-7.8 96.3,-14 -69.3,95.9 -132.8,183.8 -219.9,304.4 64.1,-6.3 123.8,5.7 144.7,-17.4 98.6,-109 194.3,-222.4 275.7,-344.4 57.4,-86 139,-102.8 198.6,-17.8 19.1,27.3 36.1,56.2 58.5,91.4 -139.1,112.8 -279.2,226.4 -445.9,361.5 83,0 116.1,0 149.2,0 -4.7,121.5 -73.2,187.3 -144.2,198.7 -27.8,88.1 -47.1,149.4 -76.5,242.7 38.8,-9.2 81.6,-6.2 101.1,-26.1 101.8,-104.3 195.8,-216.1 296.7,-321.3 34.9,-36.5 81.8,-61.6 128.4,-95.7 43.2,209.3 -12.1,319 -162.3,422.6 -69.1,47.8 -110,136.2 -163.7,206.2 l -3,-5.3 c 155,5 215.7,-127.2 317.3,-243.9 2.4,52.1 3.6,74.1 4.3,96.1 7.7,263.4 -139,468.3 -258.9,683.3 40.9,-46.2 83.8,-90.9 122.4,-138.9 38.4,-47.8 72.5,-98.9 133.9,-183.6 -25,186.8 -37.7,331.3 -65,472.9 -30.4,157.4 -71.9,312.7 -112.9,467.8 -20.2,76.6 -256.1,208.9 -310.4,189.3 -31.6,42.4 -61.7,83 -91.8,123.6 5.6,0.9 11.2,1.7 16.8,2.6 -26.7,59.6 -53.3,119.1 -84.8,189.5 26.6,17 67.4,43.1 117.4,75.1 32.6,-75.7 32.3,-188.8 164.3,-148.3 10.3,3.2 41.3,-65.8 64.9,-99.8 28.9,-41.9 60.1,-82.2 106.3,-144.7 10.2,66.4 20.7,107.8 22,149.6 2.3,73.2 13.5,133.1 -110.5,125.8 -133.2,-7.9 -177,81.5 -132.1,197.4 3.3,8.4 6.6,18 5.9,26.7 -3.9,49.7 -4.8,100.3 -15.5,148.6 -4.5,20.4 -30.5,36 -21.2,25.8 8.5,111.2 14.9,195 21.3,278.8 13.5,0 27,-0.1 40.5,-0.1 -21.7,40.4 -43.5,80.9 -65.2,121.4 8.6,-0.6 17.1,-1.3 25.7,-1.9 6.8,52.6 13.7,105.1 21.1,162.4 12.1,-4.4 40.6,-14.6 38.4,-13.8 14.3,104.4 29.2,213.7 44.2,323 9.8,3 19.6,6.1 29.4,9.1 54.3,-139.8 112.6,-278.4 161,-420.2 18.2,-53.5 9.8,-115.5 22,-171.8 2.9,-13.3 40,-19.2 71,-32.7 -34,-44.4 -67.7,-88.5 -103.3,-135 179.5,-56.7 83.7,-198.8 85.2,-307.5 1.4,-97.9 -23.5,-195.9 -32.2,-294.3 -9.1,-102 -12.7,-204.5 -19.2,-315.5 165.9,15.8 21.8,244.2 180.7,225.4 53.2,143 106,285.2 159.4,428.7 46.2,-58.2 86.8,-109.3 131.9,-166 -25.4,-17.9 -56,-39.6 -90.4,-63.9 24.9,-18.4 50.8,-37.6 58.8,-43.5 -28.8,-44.9 -55.5,-86.7 -86.2,-134.6 31.9,-9.1 57.8,-16.5 91.4,-26.1 -36.6,-28.9 -69.2,-54.7 -102,-80.6 81.2,-139 58.5,-193.7 -132.2,-314.7 -90.2,-57.2 -150.9,-319.7 -90.1,-404.7 13.6,-19 44.5,-25.7 69.3,-39 -67.5,-44.3 -70.2,-73.7 -30.6,-356.6 95.4,227.5 187.4,428.2 170.4,668.7 44.4,-65.6 88.9,-131.3 133.4,-196.9 8.3,2.2 16.7,4.3 25.1,6.5 -11.4,39.7 -23.4,79.2 -33.9,119.1 -12.8,48.3 -24.3,96.9 -35,140.3 59.6,20.6 108.6,37.5 180.7,62.4 -6.9,-54.9 -15.7,-109.1 -19.9,-163.7 -3.2,-42.9 -0.6,-86.3 13.6,-130 27.1,-63.1 -149.6,-89 -29.1,-183.2 -14.7,-25.3 -32.6,-64.6 -58,-98.2 -112.8,-149.3 -83.7,-384.7 -296.3,-478 -30.5,-13.4 -41.2,-101.6 -38.8,-154.2 7.1,-155.3 25.3,-310.1 41.4,-490.4 54.3,149.2 99.2,272.3 145.3,398.9 -3.5,1.6 20.1,-9.1 42.2,-19 25.1,88.2 49.2,172.9 74.7,262.7 12.3,-19.5 27.8,-44.1 51.7,-82.2 15.3,37.7 27.9,68.5 41.4,101.8 37.9,-18.6 73.9,-36.4 119.1,-58.7 -25.2,-32.8 -50,-65 -90.8,-118.1 55.4,20.3 89.9,32.9 154.9,56.7 -118,-125.9 -213.8,-228.2 -320.7,-342.3 5,-5.7 21,-24.4 27.7,-32.2 -85.5,-163.1 -171.9,-320.7 -248.8,-482.8 -10.2,-21.6 28,-66 43.7,-99.8 -17.3,-11.3 -49.4,-22.2 -49.7,-33.8 -3.4,-149.2 -2.2,-298.6 -2.2,-447.9 12.3,-2.2 24.7,-4.5 37,-6.8 33.6,124 67.2,248 100.7,372 20.3,-18.7 40.6,-37.4 68.2,-62.9 55,147.5 106.4,294.5 272.4,351.6 -12,-33.9 -26.6,-75 -41.1,-116.1 24.5,-2.3 49.1,-4.6 109.9,-10.5 -77.8,-40.2 -121.5,-62.8 -174.1,-89.9 30.5,-23.7 52.5,-40.8 76.6,-59.5 -82,-48.7 -205.9,-76.5 -109.3,-220.7 -53.6,-10.1 -104.7,-19.7 -166.6,-31.3 26.5,-40.5 48.9,-74.8 76,-116.3 -68.3,-29.2 -201.5,11.1 -129.3,-145.2 -58.6,9.7 -93.9,15.7 -119.2,19.9 -157,-1737.73 -313.4,-3469.46 -469.8,-5201.18 12.7,-2.24 25.4,-4.47 38.1,-6.7 10.8,30.68 21.5,61.37 32.3,92.06 8.5,-0.78 17,-1.57 25.5,-2.35 -19.8,-259.94 -39.6,-519.93 -62.5,-819.63 76.3,123.5 131.7,217.4 191.2,308.5 134.5,206.12 269.3,412.11 408.3,615.17 27.7,40.51 74.8,67.74 113,101.04 -174,-370.51 -344.8,-742.61 -523.6,-1110.71 -79.4,-163.4 -138,-317 34.1,-457.2 7.5,17 21,42.1 29.6,68.7 151.9,472.2 303.6,944.5 453.7,1417.26 7.9,25.13 1.7,54.77 2.1,82.3"
         style="fill:#000400;fill-opacity:1;fill-rule:nonzero;stroke:#000000;stroke-opacity:1"
         id="path3088" />
      <path
         d="m 7790.39,7849.71 c 17.16,-188.55 33.54,-368.49 50.73,-557.29 29.74,0 64.46,0 92.76,0 -18.76,-125.27 -4.52,-274.14 -65.87,-378.65 -78.12,-133.09 -26.57,-275.34 -89.61,-405.82 -79.78,-165.13 -127.21,-345.89 -194.87,-537.72 -9.46,195.15 -29.22,359.49 -21.12,522.44 5.3,106.71 32.93,210.73 37.48,321.24 4.69,113.95 -54.85,195.72 -61.17,295.72 -1.74,27.52 -18.9,75.7 -12.05,78.98 197.45,94.4 43.49,252.19 67.89,376.42 10.18,51.81 -4.9,108.57 -8.5,163.08 54.23,0.83 3.53,125.02 101.37,83.81 23.27,-9.8 64.28,22.54 102.96,37.79"
         style="fill:#000400;fill-opacity:1;fill-rule:nonzero;stroke:none"
         id="path3090" />
      <path
         d="m 23083.3,11207.2 c 62.3,-126.8 128.1,-238.5 171.4,-358.3 22.6,-62.8 3.3,-140 7.3,-210.5 4.9,-87.4 12.1,-174.8 22.7,-261.7 11,-89.4 27.4,-178.2 47.3,-304.1 -73.3,35.5 -103.7,50.2 -137.1,66.4 -3.6,-27.1 -7.8,-58.8 -12.7,-96.2 -48.1,27.6 -94.8,45.4 -129.8,76.4 -70.1,61.7 -186.6,81.6 -72.5,241.3 72.4,101.2 13.6,296.3 6.5,450.1 0,47.8 6,96.5 -1.2,143.2 -16,104.4 -9.4,196.6 98.1,253.4"
         style="fill:#000400;fill-opacity:1;fill-rule:nonzero;stroke:none"
         id="path3092" />
      <path
         d="m 60154.5,12539.9 c -53.6,0 -107.3,0 -160.9,0 -3.7,18.1 -7.4,36.2 -11.2,54.2 26.6,17.3 53.2,34.6 99,64.5 -85,30.2 -152.9,54.2 -235.5,83.5 35.8,46 62.3,80.2 92,118.5 -66.9,19.9 -123.7,36.8 -201.3,59.8 53.3,36.5 87.3,59.7 134,91.7 -51.6,27.3 -94.4,49.8 -159.8,84.4 64.8,0 106.1,0 147.4,0 2.8,9.1 5.6,18.1 8.4,27.2 -55.9,23.1 -111.8,46.1 -190,78.3 77.2,8.3 135.5,14.6 193.7,20.9 5.2,15.8 10.4,31.7 15.6,47.6 -77.7,38.3 -155.3,76.6 -250.1,123.5 46.8,-2.1 79.4,-3.6 133.3,-5.9 -65.5,52.9 -117.8,95.1 -170.1,137.4 16.1,-16.1 32.2,-32.2 48.3,-48.3 43.5,30.5 87.1,61.1 130.7,91.6 -22.5,27.3 -45.1,54.7 -67.6,82.1 17.4,-43.3 34.8,-86.6 54.4,-135.2 9.3,25.5 18,49.5 39.6,108.7 133,-175 253.5,-333.7 374.1,-492.4 -67.3,53.5 -134.5,107 -201.8,160.4 -11.7,-5.4 -23.4,-10.8 -35,-16.3 38.5,-93.7 76.9,-187.5 116,-281 4.2,-10 12.7,-18.4 20.1,-26.7 43.4,-48 89,-94.1 130.1,-143.9 56.7,-68.8 110.2,-140.3 168.6,-215.2 -59.6,-19.8 -142.3,-47.2 -225,-74.7 l 3,5.3"
         style="fill:#000400;fill-opacity:1;fill-rule:nonzero;stroke:none"
         id="path3094" />
      <path
         d="m 38537.2,10889.8 c 71.5,28.1 119.7,47.2 213,83.9 -118.2,35.1 -196.2,58.2 -283.3,84.1 152.3,122.8 152.3,122.8 -92.4,366.5 47.4,8.8 100.2,20.1 153.6,27.2 11.5,1.6 24.6,-13.4 37.8,-19 207.8,-87.6 292.1,-288.8 416.6,-452.9 38.5,-50.9 74.2,-103.9 91.2,-171.2 -105.9,124.9 -211.8,249.8 -318.2,375.2 -16.7,-15.8 -30.7,-25.7 -29.5,-28.4 61.3,-127.6 120.2,-256.7 187.7,-381 36.3,-66.8 138,-146.3 122.5,-183.8 -41,-98.8 -141.2,-87 -229,-34.6 -31.6,18.8 -64.3,36 -107.5,60 31.8,23.3 55.7,40.9 65.1,47.8 -74.5,74.1 -146.8,145.9 -227.6,226.2"
         style="fill:#000400;fill-opacity:1;fill-rule:nonzero;stroke:none"
         id="path3096" />
      <path
         d="m 15222.4,12844.3 c -16,88.2 -55,171.2 -36.4,238.1 18.6,67.3 87.1,129 148.2,173.3 42.5,30.8 109.4,28 194.6,46.6 3.7,-61.6 35.4,-150 6.5,-208.5 -43.6,-88.3 -125.1,-160.5 -199.8,-229.4 -25,-23 -78.6,-14.9 -113.1,-20.1"
         style="fill:#000400;fill-opacity:1;fill-rule:nonzero;stroke:none"
         id="path3098" />
      <path
         d="m 39347.3,11070.9 c 13.4,80.2 118.9,155.4 13.5,242.3 11.1,27.3 18,57.6 34.4,81.2 18.3,26.4 45.3,46.8 72.2,73.5 3.3,-1.9 20.2,-11 43.5,-23.6 -8.8,38 -29.9,75.6 -20.8,103.3 10.3,31.9 47.4,55.1 73.7,83 106,-197.3 91,-302.7 -61.8,-455.4 -12.1,-54 -24.2,-108 -36.3,-162 -39.5,19.2 -79,38.4 -118.4,57.7"
         style="fill:#000400;fill-opacity:1;fill-rule:nonzero;stroke:none"
         id="path3100" />
      <path
         d="m 34130.1,9109.21 c -25.2,-37.84 -50.4,-75.68 -75.5,-113.5 -42.7,39.13 -85.5,78.25 -128.3,117.36 -3.3,-2.54 -6.5,-5.09 -9.7,-7.63 -43.6,41.89 -87.2,83.77 -128.9,123.85 11,3.51 38.9,12.43 64.3,20.54 -17.2,45.37 -31.8,84.1 -46.5,122.83 5,0.48 10,0.95 15,1.42 -26.9,37.64 -75.8,76.17 -74.3,112.66 1.5,37.11 52.7,72.21 88.3,115.8 94.6,-157.86 195.1,-325.6 295.6,-493.33"
         style="fill:#000400;fill-opacity:1;fill-rule:nonzero;stroke:none"
         id="path3102" />
      <path
         d="m 34262,8398.06 c -5.5,11.65 -11,23.3 -16.6,34.95 15.4,73.13 -26.1,203.07 135.3,133.16 7.7,-3.36 42.1,54.68 61.8,81.22 48.9,-8.39 96.1,-16.51 150.4,-25.84 2.1,-23.79 6.1,-68.2 9.7,-109.56 -61.5,-41.3 -128.6,-86.32 -195.6,-131.34 4.2,-16.99 8.5,-33.99 12.8,-50.98 -52.6,22.8 -105.2,45.59 -157.8,68.39"
         style="fill:#000400;fill-opacity:1;fill-rule:nonzero;stroke:none"
         id="path3104" />
      <path
         d="m 39465.7,11013.1 c 12.1,54.1 24.2,108.1 36.3,162.1 47.7,-14.4 95.5,-28.8 148.6,-44.8 -17.2,-24.4 -35.3,-50.2 -55.5,-78.9 30.6,-11.9 55.4,-21.6 88.8,-34.6 -34.6,-24.4 -61.5,-43.3 -94.7,-66.8 31.7,-12.8 58.6,-23.6 85.5,-34.4 3.7,-15.6 7.4,-31.2 11.1,-46.8 -72.9,-25.1 -145.8,-50.3 -218.8,-75.4 -28.4,-0.1 -56.8,-0.1 -85.2,-0.2 27.9,73.3 55.9,146.6 83.9,219.8"
         style="fill:#000400;fill-opacity:1;fill-rule:nonzero;stroke:none"
         id="path3106" />
      <path
         d="m 38770.5,8934.85 c -16.6,38.21 -33.2,76.43 -53.8,123.88 22.2,-1.85 49,-4.07 85.8,-7.13 0,37.53 0,71.34 0,126.97 50.5,-82.17 83.4,-147.82 127.7,-204.7 49.2,-63.28 108.7,-118.58 172.7,-186.92 -30.8,-19.29 -79.5,-49.83 -108.7,-68.1 -67.4,31.13 -118,54.51 -173.3,80.07 8.5,11.91 23.4,32.82 43.1,60.42 -42.3,18.02 -80.9,34.46 -119.6,50.89 8.7,8.2 17.4,16.41 26.1,24.62"
         style="fill:#000400;fill-opacity:1;fill-rule:nonzero;stroke:none"
         id="path3108" />
      <path
         d="m 33542.8,7269.17 c 0,0 1.6,0.55 1.8,0.51 -4.6,55.25 -9.5,110.52 -13.9,165.83 -5.2,66.57 -10,133.18 -17.3,230.85 27.3,-22.75 68.5,-41.73 84.7,-73.45 36.6,-71.52 61,-149.36 90.3,-224.62 l 3.2,4.85 c -26.7,-14.92 -53.4,-29.85 -88.3,-49.35 0,49.06 0,97.93 0,146.79 -5.6,-1.02 -11.3,-2.04 -16.9,-3.06 -14.5,-66.12 -29.1,-132.23 -43.6,-198.35"
         style="fill:#000400;fill-opacity:1;fill-rule:nonzero;stroke:none"
         id="path3110" />
      <path
         d="m 23595.6,10234.7 c -6.9,15.2 -13.8,30.4 -20.5,44.9 -20.8,36.1 -41.8,72.7 -59.2,102.9 58,39.2 107.7,72.9 181.2,122.6 -34.9,-103.3 30.2,-215.6 -101.5,-270.4"
         style="fill:#000400;fill-opacity:1;fill-rule:nonzero;stroke:none"
         id="path3112" />
    </g>
  </g>
</svg>
