<?xml version="1.0" encoding="UTF-8" standalone="no"?>
<svg
   xmlns:dc="http://purl.org/dc/elements/1.1/"
   xmlns:cc="http://creativecommons.org/ns#"
   xmlns:rdf="http://www.w3.org/1999/02/22-rdf-syntax-ns#"
   xmlns:svg="http://www.w3.org/2000/svg"
   xmlns="http://www.w3.org/2000/svg"
   xmlns:sodipodi="http://sodipodi.sourceforge.net/DTD/sodipodi-0.dtd"
   xmlns:inkscape="http://www.inkscape.org/namespaces/inkscape"
   id="visual"
   viewBox="0 0 960 540"
   width="960"
   height="540"
   version="1.1"
   sodipodi:docname="stacked-peaks-haikei_2b_000_trans.svg"
   inkscape:version="0.92.5 (2060ec1f9f, 2020-04-08)">
  <metadata
     id="metadata31">
    <rdf:RDF>
      <cc:Work
         rdf:about="">
        <dc:format>image/svg+xml</dc:format>
        <dc:type
           rdf:resource="http://purl.org/dc/dcmitype/StillImage" />
        <dc:title></dc:title>
      </cc:Work>
    </rdf:RDF>
  </metadata>
  <defs
     id="defs29" />
  <sodipodi:namedview
     pagecolor="#ffffff"
     bordercolor="#ffffff"
     borderopacity="1"
     objecttolerance="10"
     gridtolerance="10"
     guidetolerance="10"
     inkscape:pageopacity="0"
     inkscape:pageshadow="2"
     inkscape:window-width="1920"
     inkscape:window-height="1055"
     id="namedview27"
     showgrid="false"
     inkscape:zoom="0.38645833"
     inkscape:cx="480"
     inkscape:cy="270"
     inkscape:window-x="0"
     inkscape:window-y="0"
     inkscape:window-maximized="1"
     inkscape:current-layer="visual" />
  <path
     d="M911 540L780 0L960 0L960 540Z"
     fill="#3d76ad"
     id="path2"
     style="opacity:0.95" />
  <path
     d="M882 540L719 0L781 0L912 540Z"
     fill="#5382b4"
     id="path4"
     style="opacity:0.95" />
  <path
     d="M805 540L527 0L720 0L883 540Z"
     fill="#668dbc"
     id="path6"
     style="opacity:0.95" />
  <path
     d="M719 540L460 0L528 0L806 540Z"
     fill="#7899c3"
     id="path8"
     style="opacity:0.95" />
  <path
     d="M690 540L431 0L461 0L720 540Z"
     fill="#8aa5cb"
     id="path10"
     style="opacity:0.95" />
  <path
     d="M412 540L335 0L432 0L691 540Z"
     fill="#9bb2d2"
     id="path12"
     style="opacity:0.95" />
  <path
     d="M364 540L287 0L336 0L413 540Z"
     id="path14"
     fill="#abbeda"
     style="opacity:0.95" />
  <path
     d="M345 540L258 0L288 0L365 540Z"
     fill="#bccbe1"
     id="path16"
     style="opacity:0.95" />
  <path
     d="M210 540L191 0L259 0L346 540Z"
     id="path18"
     fill="#cdd8e9"
     style="opacity:0.95" />
  <path
     d="M153 540L150 0L192 0L211 540Z"
     fill="#dee5f0"
     id="path20"
     style="opacity:0.95" />
  <path
     d="M0 540L57 0L151 0L154 540Z"
     fill="#eef2f8"
     id="path22"
     style="opacity:0.95" />
  <path
     d="M0 540L0 0L58 0L0 540Z"
     id="path24"
     fill="#ffffff"
     style="opacity:0.95" />
</svg>
