<?xml version="1.0" encoding="utf-8" ?>
<svg xmlns="http://www.w3.org/2000/svg" xmlns:xlink="http://www.w3.org/1999/xlink" width="512" height="512">
	<path fill="#020202" d="M253.219 17.1523C275.618 14.9219 295.347 32.8153 298.909 54.3158L298.959 54.6283C303.066 79.3544 282.909 104.187 257.688 104.769C230.957 106.519 208.438 80.4641 212.541 54.4019L213.251 50.75C217.242 33.2568 234.984 17.7481 253.219 17.1523Z"/>
	<path fill="#020202" d="M207.266 128.144L301.384 128.172C305.767 128.169 310.71 127.727 315 128.639L322.012 130.14C339.434 135.336 349.843 150.55 351.713 168.025C352.312 173.619 352.003 179.486 352.005 185.109L352.01 283.469C352.009 286.518 352.539 290.885 351.586 293.733L350.088 297.03C343.766 306.772 329.911 304.814 327.09 293.687C326.473 291.255 326.838 287.993 326.839 285.472L326.856 179.375C326.853 175.023 327.203 170.347 326.345 166.074L326.253 165.625C323.588 152.321 307.836 151.674 296.984 152.93L296.941 177.875C297.024 180.702 300.592 182.957 301.922 185.564L302.096 185.913C303.197 188.08 304.005 190.67 304.058 193.125L304.001 472.683C304.011 481.833 303.337 492.875 291.443 494.829L291.153 494.875C287.525 495.553 283.512 494.867 280.321 492.999L280 492.808C270.282 487.116 272.157 476.156 272.163 466.689L272.186 349.125L272.184 337.12C272.127 307.275 243.406 315.055 240.31 328.111C239.517 331.456 239.98 335.627 239.981 339.084L240.004 468.913C240.001 479.961 241.854 490.77 227.806 494.888C219.911 497.202 211.007 490.974 208.841 483.457L208.712 483C207.579 479.189 208.019 474.336 208.014 470.363L208.056 195.753C208.123 192.718 208.141 189.134 209.543 186.366L209.735 186C211.026 183.48 213.367 181.04 215.391 179.062L214.951 153.473L213.475 153.252C211.142 152.732 208.852 152.748 206.472 152.737C184.764 152.628 185.01 163.168 185.035 179.513L185.035 285.559C185.029 291.696 185.331 298.158 179.28 301.925L179.051 302.062C175.667 304.184 170.752 303.919 167.349 301.988L167 301.785C159.091 297.256 159.984 289.853 160.007 282.125L160.075 172.133C160.407 144.625 179.799 128.388 207.266 128.144ZM239.984 152.748L239.771 175.532C243.204 175.973 246.785 175.769 250.241 175.763L272.187 175.548L272.253 157.262C272.254 155.932 272.598 153.984 272.322 152.75L239.984 152.748Z"/>
</svg>
