<?xml version="1.0" encoding="UTF-8" standalone="no"?>
<svg
   xmlns:dc="http://purl.org/dc/elements/1.1/"
   xmlns:cc="http://creativecommons.org/ns#"
   xmlns:rdf="http://www.w3.org/1999/02/22-rdf-syntax-ns#"
   xmlns:svg="http://www.w3.org/2000/svg"
   xmlns="http://www.w3.org/2000/svg"
   xmlns:sodipodi="http://sodipodi.sourceforge.net/DTD/sodipodi-0.dtd"
   xmlns:inkscape="http://www.inkscape.org/namespaces/inkscape"
   width="240"
   height="240"
   viewBox="0 0 24 24"
   style="fill: #333333;transform: ;msFilter:;"
   version="1.1"
   id="svg4"
   sodipodi:docname="logo_barre_fond_noir.svg"
   inkscape:version="0.92.5 (2060ec1f9f, 2020-04-08)">
  <metadata id="metadata10">
    <rdf:RDF>
      <cc:Work rdf:about="">
        <dc:format>image/svg+xml</dc:format>
        <dc:type rdf:resource="http://purl.org/dc/dcmitype/StillImage" />
        <dc:title></dc:title>
      </cc:Work>
    </rdf:RDF>
  </metadata>
  <defs id="defs8" />
  <g id="background-and-content">
    <!-- Fond noir débordant avec des bords arrondis -->
    <rect
       id="background"
       x="-0"
       y="-0"
       width="24"
       height="24"
       rx="1.8"
       ry="1.8"
       style="fill:#1b1b1b;stroke:none;" />
    <!-- Contenu existant -->
    <path
       d="m 4,13 h 6 a 1,1 0 0 0 1,-1 V 4 A 1,1 0 0 0 10,3 H 4 A 1,1 0 0 0 3,4 v 8 a 1,1 0 0 0 1,1 z m -1,7 a 1,1 0 0 0 1,1 h 6 a 1,1 0 0 0 1,-1 V 16 A 1,1 0 0 0 10,15 H 4 a 1,1 0 0 0 -1,1 z m 10,0 a 1,1 0 0 0 1,1 h 6 a 1,1 0 0 0 1,-1 v -7 a 1,1 0 0 0 -1,-1 h -6 a 1,1 0 0 0 -1,1 z m 1,-10 h 6 A 1,1 0 0 0 21,9 V 4 A 1,1 0 0 0 20,3 h -6 a 1,1 0 0 0 -1,1 v 5 a 1,1 0 0 0 1,1 z"
       id="path2"
       style="fill:#ffffff;fill-opacity:1;stroke:#000000;stroke-width:0.025;stroke-miterlimit:4;stroke-dasharray:none;stroke-opacity:1"
       inkscape:connector-curvature="0"
       sodipodi:insensitive="true" />
    <rect
       style="display:inline;opacity:1;fill:#3d76ad;fill-opacity:1;fill-rule:nonzero;stroke:#3d76ad;stroke-width:0;stroke-linecap:butt;stroke-linejoin:round;stroke-miterlimit:25;stroke-dasharray:none;stroke-dashoffset:0;stroke-opacity:1;paint-order:normal"
       id="rect817"
       width="8.0599861"
       height="9.0599861"
       x="12.956963"
       y="11.972817"
       inkscape:label="bleu"
       ry="1.019761"
       sodipodi:insensitive="true" />
  </g>
</svg>
