<?xml version="1.0" encoding="UTF-8"?>
<svg version="1.1" xmlns="http://www.w3.org/2000/svg" width="350" height="150">
<path d="M0 0 C7.01650421 1.9008896 14.03223396 3.80461023 21.047019 5.71183491 C24.30514809 6.59758295 27.56352491 7.48239558 30.82250977 8.36499023 C34.57895257 9.38282341 38.33447611 10.40398928 42.08984375 11.42578125 C43.24645004 11.73840408 44.40305634 12.05102692 45.5947113 12.37312317 C51.80394894 14.06631916 57.91686647 15.89722316 64 18 C63 20 63 20 60.71484375 20.8515625 C59.79832031 21.10679688 58.88179688 21.36203125 57.9375 21.625 C56.55884766 22.01558594 56.55884766 22.01558594 55.15234375 22.4140625 C54.44207031 22.60742188 53.73179688 22.80078125 53 23 C54.79630317 27.83811464 56.59277742 32.67616571 58.3894043 37.51416016 C58.99947639 39.1570467 59.60950324 40.79995005 60.21948242 42.44287109 C61.10062712 44.8161259 61.98193916 47.1893185 62.86328125 49.5625 C63.13215652 50.28679199 63.4010318 51.01108398 63.67805481 51.75732422 C63.93809799 52.45744629 64.19814117 53.15756836 64.46606445 53.87890625 C64.71779922 54.55780914 64.969534 55.23671204 65.22889709 55.93618774 C65.76259112 57.36458888 66.30242359 58.79070594 66.84715271 60.2149353 C68.84261099 65.4445425 69.88877354 69.45033264 69 75 C66.35191929 80.87183113 61.57037977 84.08136207 56 87 C52.71080173 88.2214408 49.41206867 89.1879419 46 90 C45.01 86.535 45.01 86.535 44 83 C46.31 83 48.62 83 51 83 C50.66677734 82.16750732 50.33355469 81.33501465 49.99023438 80.47729492 C48.75614313 77.38710455 47.52667331 74.29515861 46.30029297 71.2019043 C45.76860679 69.86360574 45.23508993 68.52603297 44.69970703 67.18920898 C43.93039 65.26734371 43.16769846 63.34296284 42.40625 61.41796875 C41.94541016 60.26063232 41.48457031 59.1032959 41.00976562 57.91088867 C40 55 40 55 40 52 C34.57890643 50.03917892 29.62060138 49.27211194 24 51 C17.82744298 55.30066473 14.66134927 60.68948567 13 68 C13.81515004 73.4918764 15.83625527 78.16511828 18.125 83.1875 C18.68680816 84.506549 19.24413854 85.82751456 19.796875 87.15039062 C20.80257264 89.55397779 21.83560675 91.93576894 22.89501953 94.31713867 C24 97 24 97 24 99 C16.23166243 102.4868321 8.90558275 105.61898438 0.5 102.6875 C-3 101 -3 101 -4 99 C0.95 98.01 0.95 98.01 6 97 C4.7625 96.175 3.525 95.35 2.25 94.5 C-4.47375757 90.01749496 -6.51143918 81.98938292 -8.8125 74.625 C-11.82820729 65.26147605 -15.35133679 56.1324529 -19 47 C-22.38132068 47.61860751 -25.56219782 48.44672462 -28.8125 49.5625 C-29.60269531 49.83191406 -30.39289062 50.10132813 -31.20703125 50.37890625 C-31.79871094 50.58386719 -32.39039062 50.78882813 -33 51 C-31.6082409 47.14482731 -29.81000827 44.00480718 -27.5 40.625 C-26.7884375 39.57570312 -26.076875 38.52640625 -25.34375 37.4453125 C-24.96347656 36.8874707 -24.58320312 36.32962891 -24.19140625 35.75488281 C-22.10654731 32.68398813 -20.05569503 29.59045675 -18 26.5 C-17.15245712 25.22909105 -16.30480173 23.95825714 -15.45703125 22.6875 C-13.88876915 20.33541375 -12.32356654 17.98134995 -10.76171875 15.625 C-10.07722656 14.59375 -9.39273438 13.5625 -8.6875 12.5 C-8.09324219 11.6028125 -7.49898437 10.705625 -6.88671875 9.78125 C-5.41163719 7.60680265 -3.91165618 5.46196615 -2.38208008 3.32617188 C-1.93504227 2.70158081 -1.48800446 2.07698975 -1.02742004 1.43347168 C-0.68837143 0.96042603 -0.34932281 0.48738037 0 0 Z " fill="#B9D989" transform="translate(63,37)"/>
<path d="M0 0 C13.839375 -0.061875 27.67875 -0.12375 41.9375 -0.1875 C46.29316162 -0.21481201 50.64882324 -0.24212402 55.13647461 -0.27026367 C60.49133301 -0.28381348 60.49133301 -0.28381348 63.00514221 -0.28633118 C64.7456035 -0.29091148 66.48605579 -0.30140746 68.22645569 -0.31672668 C70.87631545 -0.33886738 73.52559794 -0.34171203 76.17553711 -0.34057617 C77.32142886 -0.35676766 77.32142886 -0.35676766 78.49046993 -0.37328625 C85.22088199 -0.33498124 91.43382917 1.00408935 96.8125 5.1875 C103.31383481 13.54635905 103.48230693 20.71078555 103 31 C86.60643075 27.24725523 70.30890456 23.1014798 54 19 C53.34 20.32 52.68 21.64 52 23 C51.113125 22.67 50.22625 22.34 49.3125 22 C46.13907914 21.04198616 44.25177151 20.53402966 41 21 C38.87784703 23.02715367 38.87784703 23.02715367 37.125 25.8125 C36.42890625 26.83214844 35.7328125 27.85179688 35.015625 28.90234375 C32.71393864 32.43962531 30.43185874 35.98609324 28.19140625 39.5625 C25.14318316 44.3842073 21.97077 49.12502033 18.8125 53.875 C18.20583496 54.7913623 17.59916992 55.70772461 16.97412109 56.65185547 C10.12186547 66.93875926 10.12186547 66.93875926 5.8125 71.125 C2.80922001 74.23184137 2.84934165 77.23757374 2.71875 81.3671875 C2.66267578 82.94306641 2.66267578 82.94306641 2.60546875 84.55078125 C2.57066406 85.64777344 2.53585937 86.74476562 2.5 87.875 C2.43084849 90.03918609 2.35806017 92.2032597 2.28125 94.3671875 C2.25095703 95.32737793 2.22066406 96.28756836 2.18945312 97.27685547 C2.00495447 99.92878581 1.58193481 102.40897649 1 105 C2.918125 104.98259766 2.918125 104.98259766 4.875 104.96484375 C6.58333186 104.95545731 8.29166532 104.94635803 10 104.9375 C10.83917969 104.92912109 11.67835937 104.92074219 12.54296875 104.91210938 C17.79319339 104.89175967 22.80455662 105.23631793 28 106 C28 106.33 28 106.66 28 107 C18.76 107 9.52 107 0 107 C0 71.69 0 36.38 0 0 Z " fill="#87BB46" transform="translate(12,14)"/>
<path d="M0 0 C4.33125 -0.061875 8.6625 -0.12375 13.125 -0.1875 C14.47996582 -0.21481201 15.83493164 -0.24212402 17.23095703 -0.27026367 C18.85300049 -0.28150269 18.85300049 -0.28150269 20.5078125 -0.29296875 C21.60754395 -0.3086792 22.70727539 -0.32438965 23.84033203 -0.34057617 C28.85703931 0.20016766 32.91804483 2.33866373 36.3125 6.0625 C39.75203515 10.34381612 40.36500106 14.60319868 40 20 C38.35647121 25.897368 35.76979451 28.50215069 31 32 C33.25984895 36.11427649 35.98408893 39.32933017 39.1875 42.75 C44 47.89985694 44 47.89985694 44 49 C27.24932735 50.53363229 27.24932735 50.53363229 21.734375 46.7734375 C19.55676692 44.27972502 17.69070994 41.84323593 16 39 C15.67 42.3 15.34 45.6 15 49 C10.05 49 5.1 49 0 49 C0 32.83 0 16.66 0 0 Z M15 12 C15 15.96 15 19.92 15 24 C20.76887492 24.5547002 20.76887492 24.5547002 24 22 C24.47558206 20.098006 24.47558206 20.098006 24.375 18 C24.38273437 17.29875 24.39046875 16.5975 24.3984375 15.875 C24.140914 13.58941406 24.140914 13.58941406 21 12 C19.02 12 17.04 12 15 12 Z " fill="#8ABA49" transform="translate(266,30)"/>
<path d="M0 0 C11.88 0 23.76 0 36 0 C36 3.96 36 7.92 36 12 C29.07 12 22.14 12 15 12 C15 13.98 15 15.96 15 18 C21.6 18 28.2 18 35 18 C35 21.96 35 25.92 35 30 C28.4 30 21.8 30 15 30 C15 32.31 15 34.62 15 37 C21.93 37 28.86 37 36 37 C36 40.96 36 44.92 36 49 C24.12 49 12.24 49 0 49 C0 32.83 0 16.66 0 0 Z " fill="#89BA49" transform="translate(223,30)"/>
<path d="M0 0 C11.88 0 23.76 0 36 0 C36 3.96 36 7.92 36 12 C29.07 12 22.14 12 15 12 C15 13.98 15 15.96 15 18 C21.6 18 28.2 18 35 18 C35 21.96 35 25.92 35 30 C27.94014727 30.11766421 21.02747312 29.66588578 14 29 C14 29.99 14 30.98 14 32 C13.34 32 12.68 32 12 32 C12.33 32.99 12.66 33.98 13 35 C13 35.99 13 36.98 13 38 C14.19758939 39.42925048 14.19758939 39.42925048 17.67578125 39.0625 C20.00217959 39.03837141 22.32810186 38.99973975 24.65429688 38.9609375 C25.77868164 38.94933594 25.77868164 38.94933594 26.92578125 38.9375 C27.61067627 38.92589844 28.29557129 38.91429687 29.0012207 38.90234375 C31 39 31 39 35 40 C35 42.97 35 45.94 35 49 C23.45 49 11.9 49 0 49 C0 32.83 0 16.66 0 0 Z " fill="#89BA47" transform="translate(144,30)"/>
<path d="M0 0 C1.79158489 -0.02696365 3.58328473 -0.04637917 5.375 -0.0625 C6.37273437 -0.07410156 7.37046875 -0.08570312 8.3984375 -0.09765625 C11 0 11 0 13 1 C13.02483911 5.99877567 13.04292563 10.99751489 13.05493164 15.99633789 C13.05994027 17.69458645 13.06674906 19.39283074 13.07543945 21.09106445 C13.08765773 23.54118915 13.09326314 25.9912565 13.09765625 28.44140625 C13.10281754 29.19273331 13.10797882 29.94406036 13.11329651 30.71815491 C13.11456927 42.85447047 13.11456927 42.85447047 9.75 46.3125 C4.72034289 49.3988805 0.92532043 50.27554017 -5 50.25 C-6.19625 50.25515625 -7.3925 50.2603125 -8.625 50.265625 C-12 50 -12 50 -17 48 C-16.01 43.71 -15.02 39.42 -14 35 C-11.49348958 35.32552083 -8.98697917 35.65104167 -6.48046875 35.9765625 C-3.74309609 36.23500743 -3.74309609 36.23500743 -1 34 C-0.66207464 31.38322508 -0.51113911 28.99063608 -0.48828125 26.3671875 C-0.47033005 25.61535187 -0.45237885 24.86351624 -0.43388367 24.08889771 C-0.37964219 21.68432244 -0.34584208 19.27994715 -0.3125 16.875 C-0.27933898 15.24606583 -0.24485045 13.6171581 -0.20898438 11.98828125 C-0.12390838 7.99233154 -0.05716422 3.99644254 0 0 Z " fill="#89BA49" transform="translate(200,30)"/>
<path d="M0 0 C0.66 0.33 1.32 0.66 2 1 C1.01 2.32 0.02 3.64 -1 5 C-0.41992188 4.79503906 0.16015625 4.59007813 0.7578125 4.37890625 C5.1621984 2.85990187 9.35677777 1.5952849 14 1 C14 1.99 14 2.98 14 4 C14.56905442 5.69931177 15.19904122 7.37855636 15.86328125 9.04296875 C16.25580078 10.03490234 16.64832031 11.02683594 17.05273438 12.04882812 C17.67631836 13.6024707 17.67631836 13.6024707 18.3125 15.1875 C19.87760273 19.12397051 21.44056083 23.06128228 23 27 C23.31759277 27.79744629 23.63518555 28.59489258 23.96240234 29.41650391 C25.13283439 32.42412206 26 34.74230915 26 38 C15.77 37.34 5.54 36.68 -5 36 C-4.896875 31.33875 -4.79375 26.6775 -4.6875 21.875 C-4.66260498 20.41562012 -4.63770996 18.95624023 -4.61206055 17.45263672 C-4.57894775 16.29006348 -4.54583496 15.12749023 -4.51171875 13.9296875 C-4.48553467 12.74616699 -4.45935059 11.56264648 -4.43237305 10.34326172 C-3.93273985 6.47992066 -2.83166995 2.83166995 0 0 Z " fill="#84BC46" transform="translate(18,83)"/>
<path d="M0 0 C4.95 0 9.9 0 15 0 C15 16.17 15 32.34 15 49 C10.05 49 5.1 49 0 49 C0 32.83 0 16.66 0 0 Z " fill="#89B94A" transform="translate(314,30)"/>
<path d="M0 0 C3.53217579 0.32110689 6.63449506 0.87816502 10 2 C8.47084121 6.40464215 6.11552199 10.05596789 3.5 13.875 C2.59488423 15.21342817 1.68994118 16.55197316 0.78515625 17.890625 C0.32254395 18.57189453 -0.14006836 19.25316406 -0.61669922 19.95507812 C-2.36711869 22.54270846 -4.09411966 25.14536983 -5.81762695 27.75097656 C-6.64814336 29.00123033 -7.48394059 30.24799205 -8.32495117 31.49121094 C-10.36173596 34.5021447 -12.32867422 37.52247171 -14.171875 40.65625 C-18.6933246 48.115971 -22.79557112 51.70587325 -31.1796875 54.4609375 C-34 55 -34 55 -37 54 C-36.57082275 53.39196533 -36.14164551 52.78393066 -35.69946289 52.1574707 C-31.52564873 46.22278421 -27.44821862 40.23332585 -23.4375 34.1875 C-22.84614258 33.29893311 -22.25478516 32.41036621 -21.64550781 31.49487305 C-18.44154057 26.68005511 -15.24479681 21.86048624 -12.05078125 17.0390625 C-11.41406494 16.0797583 -10.77734863 15.1204541 -10.12133789 14.13208008 C-8.89324668 12.2816919 -7.66710596 10.4300074 -6.44311523 8.5769043 C-5.88954346 7.74328369 -5.33597168 6.90966309 -4.765625 6.05078125 C-4.27868164 5.31512939 -3.79173828 4.57947754 -3.29003906 3.8215332 C-2 2 -2 2 0 0 Z " fill="#04903E" transform="translate(53,34)"/>
<path d="M0 0 C2.31 0.33 4.62 0.66 7 1 C7 12.22 7 23.44 7 35 C4.36 35 1.72 35 -1 35 C-1 34.34 -1 33.68 -1 33 C-1.99 33.495 -1.99 33.495 -3 34 C-10.08958838 34.5811138 -10.08958838 34.5811138 -13.9375 32.125 C-16.75097261 29.22627065 -16.96221778 28.37782221 -17.375 24.25 C-17.312181 21.12047143 -16.85432761 19.08614294 -15.0625 16.5 C-11.3833541 13.49661559 -9.57061013 13.43726028 -4.98828125 13.69140625 C-3 14 -3 14 -1 15 C-1.01160156 14.00097656 -1.02320313 13.00195312 -1.03515625 11.97265625 C-1.04417969 10.68230469 -1.05320312 9.39195313 -1.0625 8.0625 C-1.07410156 6.77472656 -1.08570313 5.48695312 -1.09765625 4.16015625 C-1 1 -1 1 0 0 Z M-6 20 C-6.99 20.99 -7.98 21.98 -9 23 C-8.34 24.32 -7.68 25.64 -7 27 C-5.35 27 -3.7 27 -2 27 C-1.67 25.35 -1.34 23.7 -1 22 C-3.475 21.01 -3.475 21.01 -6 20 Z " fill="#F89931" transform="translate(265,80)"/>
<path d="M0 0 C0.78503906 -0.00386719 1.57007813 -0.00773437 2.37890625 -0.01171875 C8.24669213 -0.00165394 8.24669213 -0.00165394 10.5 1.125 C10.5 7.725 10.5 14.325 10.5 21.125 C7.16604498 21.5006569 3.84175449 21.83643624 0.5 22.125 C-0.32242188 22.20492187 -1.14484375 22.28484375 -1.9921875 22.3671875 C-6.38102164 22.61840023 -7.92279221 22.58195617 -11.5 19.75 C-14.2884805 16.09011934 -14.83534793 13.88370317 -14.79296875 9.23046875 C-14.3224574 5.84906053 -12.63740472 3.70245864 -10.5 1.125 C-7.21855481 -0.51572259 -3.60210004 -0.01774434 0 0 Z M-6.5 9.125 C-6.21016731 12.43183466 -6.21016731 12.43183466 -4.5 15.125 C-2.83382885 15.16563832 -1.16611905 15.167721 0.5 15.125 C1.69838209 12.79645537 1.69838209 12.79645537 2.5 10.125 C1.84 9.135 1.18 8.145 0.5 7.125 C-2.95795783 6.69275527 -3.97975609 6.60475609 -6.5 9.125 Z " fill="#F89933" transform="translate(217.5,93.875)"/>
<path d="M0 0 C1.17654938 2.28052691 2.04361482 4.34057961 2.875 6.74609375 C3.12620605 7.4312355 3.37741211 8.11637726 3.63623047 8.82228088 C4.43925273 11.02221688 5.22003893 13.22929539 6 15.4375 C6.5245428 16.89051593 7.05056894 18.34299728 7.578125 19.79492188 C8.34803623 21.91587772 9.11723623 24.03705305 9.88230896 26.15975952 C13.51098493 37.80589049 13.51098493 37.80589049 21 47 C23.66533035 48.319018 23.66533035 48.319018 26 49 C23.49399686 51.50600314 21.81405575 51.97054791 18.30078125 52.09765625 C17.31464844 52.08605469 16.32851563 52.07445312 15.3125 52.0625 C14.31863281 52.05347656 13.32476562 52.04445312 12.30078125 52.03515625 C11.16189453 52.01775391 11.16189453 52.01775391 10 52 C10.66 51.34 11.32 50.68 12 50 C11.54334961 49.45053711 11.08669922 48.90107422 10.61621094 48.33496094 C8.85508542 45.79064003 8.04966022 43.59270928 7.140625 40.640625 C4.89148388 33.59331617 2.33799265 26.67889894 -0.25 19.75 C-0.93835938 17.89955078 -0.93835938 17.89955078 -1.640625 16.01171875 C-2.75860997 13.00713413 -3.87842876 10.00324733 -5 7 C-6.32 7 -7.64 7 -9 7 C-9.66 7 -10.32 7 -11 7 C-11.33 7.66 -11.66 8.32 -12 9 C-12.33 7.02 -12.66 5.04 -13 3 C-11.5903653 2.29819469 -10.17192359 1.61406042 -8.75 0.9375 C-7.96109375 0.55464844 -7.1721875 0.17179687 -6.359375 -0.22265625 C-3.55974696 -1.14505026 -2.65694795 -1.26846602 0 0 Z " fill="#54A746" transform="translate(45,84)"/>
<path d="M0 0 C0.33 0.66 0.66 1.32 1 2 C1.62221436 2.07484619 2.24442871 2.14969238 2.88549805 2.22680664 C5 3 5 3 6.47973633 5.74389648 C6.92599365 6.94087158 7.37225098 8.13784668 7.83203125 9.37109375 C8.07289963 10.00862076 8.31376801 10.64614777 8.56193542 11.30299377 C9.06759563 12.65110834 9.5655709 14.00212678 10.05639648 15.35571289 C10.81066516 17.43244812 11.58963534 19.49855878 12.37304688 21.56445312 C15.09064556 28.86244724 15.09064556 28.86244724 16 32 C15.67 32.66 15.34 33.32 15 34 C10.71 33.67 6.42 33.34 2 33 C0.62747758 29.7984488 -0.72312619 26.59039156 -2.0625 23.375 C-2.45244141 22.47136719 -2.84238281 21.56773438 -3.24414062 20.63671875 C-6.72300897 12.20123268 -6.72300897 12.20123268 -5 7 C-3.54495698 4.21643944 -2.21930873 2.21930873 0 0 Z " fill="#85BA4A" transform="translate(85,88)"/>
<path d="M0 0 C2.33333333 0.33333333 4.66666667 0.66666667 7 1 C7.33 0.67 7.66 0.34 8 0 C9.92578125 -0.2734375 9.92578125 -0.2734375 12.3125 -0.375 C13.09238281 -0.42398438 13.87226563 -0.47296875 14.67578125 -0.5234375 C17 0 17 0 19.27734375 2.00390625 C21.54450803 5.94702416 21.45683654 8.86153673 21.25 13.3125 C21.23195313 14.05306641 21.21390625 14.79363281 21.1953125 15.55664062 C21.14847337 17.3716571 21.07673789 19.18600166 21 21 C18.36 21 15.72 21 13 21 C12.67 16.71 12.34 12.42 12 8 C10.68 8 9.36 8 8 8 C7.67 12.29 7.34 16.58 7 21 C4.36 21 1.72 21 -1 21 C-1.02888146 17.68751813 -1.04675799 14.37506833 -1.0625 11.0625 C-1.07087891 10.11697266 -1.07925781 9.17144531 -1.08789062 8.19726562 C-1.09111328 7.29814453 -1.09433594 6.39902344 -1.09765625 5.47265625 C-1.10289307 4.64000244 -1.10812988 3.80734863 -1.11352539 2.94946289 C-1 1 -1 1 0 0 Z " fill="#F49934" transform="translate(288,94)"/>
<path d="M0 0 C1.59521484 0.00966797 1.59521484 0.00966797 3.22265625 0.01953125 C5.9375 0.1875 5.9375 0.1875 7.9375 1.1875 C7.6075 2.8375 7.2775 4.4875 6.9375 6.1875 C4.44685112 6.87457555 2.55863708 7.1875 -0.0625 7.1875 C1.360625 7.868125 1.360625 7.868125 2.8125 8.5625 C5.9375 10.1875 5.9375 10.1875 7.9375 12.1875 C8.49632353 18.33455882 8.49632353 18.33455882 6.82421875 20.88671875 C4.04256358 22.80450586 1.77923986 22.58507932 -1.5625 22.5625 C-3.27953125 22.57410156 -3.27953125 22.57410156 -5.03125 22.5859375 C-8.0625 22.1875 -8.0625 22.1875 -9.96875 20.6640625 C-10.3296875 20.17679688 -10.690625 19.68953125 -11.0625 19.1875 C-10.0725 17.5375 -9.0825 15.8875 -8.0625 14.1875 C-5.7525 14.5175 -3.4425 14.8475 -1.0625 15.1875 C-2.4546875 14.5378125 -2.4546875 14.5378125 -3.875 13.875 C-8.79934211 11.26799536 -8.79934211 11.26799536 -10.0625 9.1875 C-9.9375 5.625 -9.9375 5.625 -9.0625 2.1875 C-5.57329626 -0.13863583 -4.11297454 -0.05497293 0 0 Z " fill="#F69935" transform="translate(321.0625,93.8125)"/>
<path d="M0 0 C3.5 0.125 3.5 0.125 4.5 1.125 C4.62794998 4.0113134 4.68522688 6.86313444 4.6875 9.75 C4.69974609 10.54535156 4.71199219 11.34070313 4.72460938 12.16015625 C4.73947266 18.19464902 4.45066816 23.6709336 0.5625 28.5625 C-4.03278382 30.90703256 -8.43790377 30.44415143 -13.5 30.125 C-14.63583456 26.40772326 -14.16670026 24.65448291 -12.5 21.125 C-10.19 21.455 -7.88 21.785 -5.5 22.125 C-5.47494385 21.49408447 -5.4498877 20.86316895 -5.42407227 20.21313477 C-5.30845863 17.37103175 -5.18557684 14.52928917 -5.0625 11.6875 C-5.00352539 10.19766602 -5.00352539 10.19766602 -4.94335938 8.67773438 C-4.90146484 7.73349609 -4.85957031 6.78925781 -4.81640625 5.81640625 C-4.77974854 4.94185791 -4.74309082 4.06730957 -4.70532227 3.16625977 C-4.35042461 -0.36203909 -3.70829244 0.13243902 0 0 Z " fill="#F99C38" transform="translate(196.5,85.875)"/>
<path d="M0 0 C2.42722484 2.42722484 3.0604803 4.45770839 4.2421875 7.6796875 C4.66886719 8.83726563 5.09554687 9.99484375 5.53515625 11.1875 C5.97730469 12.404375 6.41945313 13.62125 6.875 14.875 C7.30941406 16.05320312 7.74382813 17.23140625 8.19140625 18.4453125 C10.61326322 25.04905462 12.91333179 31.66946389 15.01220703 38.38330078 C16.05891572 41.15606986 17.40475542 43.50831018 19 46 C16.8125 46.3125 16.8125 46.3125 14 46 C7.32476519 40.43730433 5.09769348 33.76593326 2.5625 25.75 C0.61987642 19.62964435 -1.42045307 13.7553217 -4.25024414 7.98144531 C-5 6 -5 6 -5 2 C-3.35 1.34 -1.7 0.68 0 0 Z " fill="#05903E" transform="translate(39,89)"/>
<path d="M0 0 C-0.25 2.875 -0.25 2.875 -1 6 C-2.875 7.3125 -2.875 7.3125 -5 8 C-5.99 8.33 -6.98 8.66 -8 9 C-8.33 12.96 -8.66 16.92 -9 21 C-11.64 21 -14.28 21 -17 21 C-17.19594676 17.85463232 -17.3803401 14.70869386 -17.5625 11.5625 C-17.61857422 10.66466797 -17.67464844 9.76683594 -17.73242188 8.84179688 C-17.78076172 7.98779297 -17.82910156 7.13378906 -17.87890625 6.25390625 C-17.9260376 5.46314697 -17.97316895 4.6723877 -18.02172852 3.85766602 C-18 2 -18 2 -17 1 C-11.36215156 0.00073146 -5.70829302 -0.10378715 0 0 Z " fill="#F79C38" transform="translate(248,94)"/>
<path d="M0 0 C0.76183594 0.07863281 1.52367188 0.15726562 2.30859375 0.23828125 C4.83896494 0.74260133 6.3986199 1.26288888 8.5625 2.6875 C9.91870117 5.22192383 9.91870117 5.22192383 11.10546875 8.39453125 C11.53923828 9.53857422 11.97300781 10.68261719 12.41992188 11.86132812 C13.07831055 13.6624707 13.07831055 13.6624707 13.75 15.5 C14.20052734 16.68916016 14.65105469 17.87832031 15.11523438 19.10351562 C18.69375776 28.65876322 18.69375776 28.65876322 19.5625 33.6875 C17.2525 33.6875 14.9425 33.6875 12.5625 33.6875 C11.22916667 30.35416667 9.89583333 27.02083333 8.5625 23.6875 C8.19125 22.90375 7.82 22.12 7.4375 21.3125 C6.30268527 17.90805582 6.37059846 14.95423224 6.4375 11.375 C6.45554687 10.12074219 6.47359375 8.86648437 6.4921875 7.57421875 C6.52699219 6.14529297 6.52699219 6.14529297 6.5625 4.6875 C5.9025 4.6875 5.2425 4.6875 4.5625 4.6875 C4.5625 4.0275 4.5625 3.3675 4.5625 2.6875 C2.95842672 2.66041433 1.3542215 2.64106517 -0.25 2.625 C-1.14332031 2.61339844 -2.03664063 2.60179688 -2.95703125 2.58984375 C-5.57163791 2.57740033 -5.57163791 2.57740033 -8.4375 3.6875 C-8.1075 2.6975 -7.7775 1.7075 -7.4375 0.6875 C-4.43848764 -0.31217079 -3.06019291 -0.34575535 0 0 Z " fill="#59A747" transform="translate(94.4375,86.3125)"/>
<path d="M0 0 C6 1 6 1 8.5 4 C12.09550977 10.39461999 17 20.61869464 17 28 C15.02 28.66 13.04 29.32 11 30 C7.37 20.1 3.74 10.2 0 0 Z " fill="#05903C" transform="translate(90,93)"/>
<path d="M0 0 C2.31 0.33 4.62 0.66 7 1 C7 7.6 7 14.2 7 21 C4.36 21 1.72 21 -1 21 C-2.50149828 17.99700345 -2.18438425 14.91523309 -2.1875 11.625 C-2.19974609 10.95210937 -2.21199219 10.27921875 -2.22460938 9.5859375 C-2.23554802 5.88138157 -2.04027865 3.14509357 0 0 Z " fill="#F99D38" transform="translate(277,94)"/>
<path d="M0 0 C2.8203125 0.0234375 2.8203125 0.0234375 6.125 0.375 C7.22070312 0.48585937 8.31640625 0.59671875 9.4453125 0.7109375 C10.28835937 0.80632813 11.13140625 0.90171875 12 1 C12 1.33 12 1.66 12 2 C8.37 2 4.74 2 1 2 C1 4.31 1 6.62 1 9 C7.93 9 14.86 9 22 9 C22 12.96 22 16.92 22 21 C21.67 21 21.34 21 21 21 C21 18.03 21 15.06 21 12 C13.74 12 6.48 12 -1 12 C-1 11.34 -1 10.68 -1 10 C-1.66 9.67 -2.32 9.34 -3 9 C-2.25 2.25 -2.25 2.25 0 0 Z " fill="#8CB455" transform="translate(158,58)"/>
<path d="M0 0 C7.75 -0.125 7.75 -0.125 10 1 C10 1.66 10 2.32 10 3 C10.66 3 11.32 3 12 3 C12.84098656 7.01804691 13.05404945 10.01803543 12 14 C10.25728062 11.702779 8.60088848 9.40133271 7 7 C3.94570927 5.78715124 3.94570927 5.78715124 1 5 C1 4.34 1 3.68 1 3 C0.34 3 -0.32 3 -1 3 C-0.67 2.01 -0.34 1.02 0 0 Z " fill="#4CA745" transform="translate(89,88)"/>
<path d="M0 0 C1.32 0 2.64 0 4 0 C4.04961356 5.01707535 4.08582043 10.03400635 4.10986328 15.05126953 C4.1198914 16.75637298 4.13351726 18.46145936 4.15087891 20.16650391 C4.17526803 22.62406642 4.18651512 25.08140061 4.1953125 27.5390625 C4.20563507 28.29555084 4.21595764 29.05203918 4.22659302 29.83145142 C4.22752561 34.27822943 3.65121642 37.86910217 2 42 C1.67 42 1.34 42 1 42 C1.33 28.47 1.66 14.94 2 1 C1.34 0.67 0.68 0.34 0 0 Z " fill="#8EB15A" transform="translate(211,30)"/>
<path d="M0 0 C2.33944736 0.28730055 4.6739143 0.61936779 7 1 C7.04254356 2.99954746 7.04080783 5.00041636 7 7 C6 8 6 8 3.0625 8.1875 C0 8 0 8 -2 6 C-1.44444444 1.44444444 -1.44444444 1.44444444 0 0 Z " fill="#F29B3A" transform="translate(277,84)"/>
</svg>
