<?xml version="1.0" encoding="UTF-8"?>
<svg version="1.1" xmlns="http://www.w3.org/2000/svg" width="40" height="40">
<path d="M0 0 C13.2 0 26.4 0 40 0 C40 13.2 40 26.4 40 40 C26.8 40 13.6 40 0 40 C0 26.8 0 13.6 0 0 Z " fill="#CEE399" transform="translate(0,0)"/>
<path d="M0 0 C13.2 0 26.4 0 40 0 C40 13.2 40 26.4 40 40 C26.8 40 13.6 40 0 40 C0 26.8 0 13.6 0 0 Z M3 2 C3 11.9 3 21.8 3 32 C5.97 32.33 8.94 32.66 12 33 C13.66666667 34.66666667 15.33333333 36.33333333 17 38 C20.74360341 37.94271002 20.74360341 37.94271002 24 37 C23.34 33.7 22.68 30.4 22 27 C22.309375 27.78375 22.61875 28.5675 22.9375 29.375 C25.6131836 32.78041549 27.73252061 33.06338353 31.84375 33.93359375 C34.30148059 34.21793788 34.30148059 34.21793788 37 32 C37.81442496 25.36825387 36.03210197 20.84762523 33 15 C33.66 15 34.32 15 35 15 C35 14.34 35 13.68 35 13 C26.65965495 10.40724862 26.65965495 10.40724862 18 10 C18 9.01 18 8.02 18 7 C18.91523438 7.28875 19.83046875 7.5775 20.7734375 7.875 C21.96195313 8.24625 23.15046875 8.6175 24.375 9 C25.55835937 9.37125 26.74171875 9.7425 27.9609375 10.125 C30.79323439 11.09222606 30.79323439 11.09222606 33 11 C33.35365585 7.81709733 33.33862001 6.44455248 31.36425781 3.85253906 C28.34321897 1.48537232 26.72499746 1.53480397 22.921875 1.609375 C21.87612305 1.61936523 20.83037109 1.62935547 19.75292969 1.63964844 C18.43196289 1.67606445 17.11099609 1.71248047 15.75 1.75 C9.43875 1.87375 9.43875 1.87375 3 2 Z " fill="#FBFDF8" transform="translate(0,0)"/>
<path d="M0 0 C6.31125 -0.12375 6.31125 -0.12375 12.75 -0.25 C14.0709668 -0.28641602 15.39193359 -0.32283203 16.75292969 -0.36035156 C17.79868164 -0.3703418 18.84443359 -0.38033203 19.921875 -0.390625 C20.99018555 -0.41157227 22.05849609 -0.43251953 23.15917969 -0.45410156 C26.69428697 0.1109809 27.85576005 1.18496498 30 4 C30.25 6.75 30.25 6.75 30 9 C29.16855469 8.7834375 28.33710938 8.566875 27.48046875 8.34375 C26.39378906 8.0653125 25.30710937 7.786875 24.1875 7.5 C23.10855469 7.2215625 22.02960937 6.943125 20.91796875 6.65625 C18.01066025 5.89029052 18.01066025 5.89029052 15 6 C13.29589827 8.30745381 11.79183756 10.55567191 10.3125 13 C9.89677734 13.66773438 9.48105469 14.33546875 9.05273438 15.0234375 C8.02555776 16.67636538 7.01152664 18.33744888 6 20 C6.60457031 20.04253906 7.20914062 20.08507812 7.83203125 20.12890625 C10 21 10 21 11.44921875 23.65234375 C11.85785156 24.73644531 12.26648437 25.82054688 12.6875 26.9375 C13.10386719 28.01902344 13.52023438 29.10054687 13.94921875 30.21484375 C14.29597656 31.13394531 14.64273437 32.05304687 15 33 C15.33 33.66 15.66 34.32 16 35 C13.625 34.6875 13.625 34.6875 11 34 C10.34 33.01 9.68 32.02 9 31 C6.03 30.67 3.06 30.34 0 30 C0 20.1 0 10.2 0 0 Z " fill="#ACD043" transform="translate(3,2)"/>
<path d="M0 0 C3.9168502 -0.05390161 7.83296001 -0.09362783 11.75 -0.125 C12.86117188 -0.14175781 13.97234375 -0.15851563 15.1171875 -0.17578125 C16.72207031 -0.18544922 16.72207031 -0.18544922 18.359375 -0.1953125 C19.34389648 -0.20578613 20.32841797 -0.21625977 21.34277344 -0.22705078 C24.05973111 0.00510382 25.68112513 0.60963727 28 2 C28 3.65 28 5.3 28 7 C27.21496094 6.77183594 26.42992188 6.54367188 25.62109375 6.30859375 C24.57050781 6.02113281 23.51992188 5.73367187 22.4375 5.4375 C21.40496094 5.14746094 20.37242188 4.85742188 19.30859375 4.55859375 C15.42287469 3.90256326 12.79916222 3.90823612 9 5 C6.48200165 7.68758241 6.48200165 7.68758241 4.625 11.0625 C3.42548597 13.04702418 2.21962749 15.02777311 1 17 C0.67 17 0.34 17 0 17 C0 11.39 0 5.78 0 0 Z " fill="#A6CE38" transform="translate(5,4)"/>
<path d="M0 0 C3 1 3 1 4.3515625 3.65234375 C4.77179687 4.73644531 5.19203125 5.82054687 5.625 6.9375 C6.05039062 8.01902344 6.47578125 9.10054687 6.9140625 10.21484375 C7.27242187 11.13394531 7.63078125 12.05304687 8 13 C8.33 13.66 8.66 14.32 9 15 C6.6796875 14.80078125 6.6796875 14.80078125 4 14 C2.3828125 11.85546875 2.3828125 11.85546875 1.125 9.1875 C0.69445312 8.31480469 0.26390625 7.44210938 -0.1796875 6.54296875 C-1.05836489 3.81906883 -0.99524405 2.63555368 0 0 Z " fill="#74C14F" transform="translate(10,22)"/>
<path d="M0 0 C1.65 0 3.3 0 5 0 C6.85776765 3.13498292 7.20140476 5.37471432 7 9 C5.02 9 3.04 9 1 9 C-0.61949011 6.42786866 -1.04408751 5.32330841 -0.625 2.25 C-0.41875 1.5075 -0.2125 0.765 0 0 Z " fill="#92C83E" transform="translate(24,23)"/>
<path d="M0 0 C1.32 0 2.64 0 4 0 C4.99 2.97 5.98 5.94 7 9 C4.03 9 1.06 9 -2 9 C-1.125 1.125 -1.125 1.125 0 0 Z " fill="#A4CC34" transform="translate(5,23)"/>
<path d="M0 0 C0.99 0 1.98 0 3 0 C1.6257099 3.78269949 -0.1003444 6.93238005 -2.375 10.25 C-2.96023437 11.12140625 -3.54546875 11.9928125 -4.1484375 12.890625 C-6.12643441 15.1440392 -7.07417375 15.66488334 -10 16 C-8.39270035 12.59963241 -6.46281671 9.47943574 -4.4375 6.3125 C-3.81746094 5.33925781 -3.19742187 4.36601562 -2.55859375 3.36328125 C-1 1 -1 1 0 0 Z " fill="#12AD4B" transform="translate(14,8)"/>
<path d="M0 0 C3.55007718 3.9050849 4.81819916 6.97734643 6 12 C3 11 3 11 1.3125 7.6875 C0 4 0 4 0 0 Z " fill="#1BAE45" transform="translate(10,24)"/>
<path d="M0 0 C3.63 0.66 7.26 1.32 11 2 C10.67 2.99 10.34 3.98 10 5 C6.7 4.34 3.4 3.68 0 3 C0 2.01 0 1.02 0 0 Z " fill="#F1F7E0" transform="translate(18,7)"/>
<path d="M0 0 C3 2 3 2 4 5 C4.99 5.66 5.98 6.32 7 7 C5.68 7 4.36 7 3 7 C2.67 7.66 2.34 8.32 2 9 C1.34 6.03 0.68 3.06 0 0 Z " fill="#EBF3D0" transform="translate(21,26)"/>
<path d="M0 0 C0.87324262 2.44507934 1.10151327 3.67700322 0.3125 6.1875 C-1 8 -1 8 -3.125 8.75 C-4.053125 8.87375 -4.053125 8.87375 -5 9 C-3.50163895 5.88801935 -1.80066242 2.9465385 0 0 Z " fill="#24B248" transform="translate(9,15)"/>
<path d="M0 0 C3 1 3 1 5 4 C5 4.99 5 5.98 5 7 C4.01 7 3.02 7 2 7 C1.34 4.69 0.68 2.38 0 0 Z " fill="#23B046" transform="translate(26,25)"/>
<path d="M0 0 C0.66 0.33 1.32 0.66 2 1 C2 2.65 2 4.3 2 6 C0.02 5.34 -1.96 4.68 -4 4 C-3.01 3.67 -2.02 3.34 -1 3 C-0.67 2.01 -0.34 1.02 0 0 Z " fill="#AED249" transform="translate(31,5)"/>
<path d="M0 0 C0.6875 1.75 0.6875 1.75 1 4 C-0.4375 6.25 -0.4375 6.25 -2 8 C-2.66 7.34 -3.32 6.68 -4 6 C-2.68 4.02 -1.36 2.04 0 0 Z " fill="#C2E096" transform="translate(17,8)"/>
</svg>
